# Blender 5.0.1
# www.blender.org
o Cube
v -0.597168 0.423207 0.168667
v -0.597168 0.423207 -0.168667
v 0.597168 0.423207 -0.168667
v 0.597168 0.423207 0.168667
v -0.597168 0.188664 0.168667
v -0.597168 0.188664 -0.168667
v 0.597168 0.188664 -0.168667
v 0.597168 0.188664 0.168667
v -0.590077 0.435120 0.180580
v -0.590077 0.435120 -0.180580
v 0.590077 0.435120 -0.180580
v 0.590077 0.435120 0.180580
v -0.590077 0.176751 0.180580
v -0.590077 0.176751 -0.180580
v 0.590077 0.176751 -0.180580
v 0.590077 0.176751 0.180580
v -0.590077 0.423207 0.168667
v -0.590077 0.423207 -0.168667
v 0.590077 0.423207 -0.168667
v 0.590077 0.423207 0.168667
v -0.590077 0.188664 0.168667
v -0.590077 0.188664 -0.168667
v 0.590077 0.188664 -0.168667
v 0.590077 0.188664 0.168667
v -0.600477 0.476570 0.222030
v -0.600477 0.476570 -0.222030
v 0.600477 0.476570 -0.222030
v 0.600477 0.476570 0.222030
v -0.600477 0.135301 0.222030
v -0.600477 0.135301 -0.222030
v 0.600477 0.135301 -0.222030
v 0.600477 0.135301 0.222030
v -0.536291 0.417121 0.218768
v 0.536291 0.417121 0.218768
v 0.536291 0.194750 0.218768
v -0.536291 0.194750 0.218768
v 0.536291 0.417121 -0.218768
v -0.536291 0.417121 -0.218768
v -0.536291 0.194750 -0.218768
v 0.536291 0.194750 -0.218768
v 0.536291 0.417121 0.215252
v -0.536291 0.417121 0.215252
v -0.536291 0.194750 0.215252
v 0.536291 0.194750 0.215252
v -0.536291 0.417121 -0.215252
v 0.536291 0.417121 -0.215252
v 0.536291 0.194750 -0.215252
v -0.536291 0.194750 -0.215252
v -0.550927 0.430677 0.215252
v 0.550927 0.430677 0.215252
v 0.550927 0.181195 0.215252
v -0.550927 0.181195 0.215252
v 0.550927 0.430677 -0.215252
v -0.550927 0.430677 -0.215252
v -0.550927 0.181195 -0.215252
v 0.550927 0.181195 -0.215252
v 0.550927 0.430677 0.222030
v -0.550927 0.430677 0.222030
v -0.550927 0.181195 0.222030
v 0.550927 0.181195 0.222030
v -0.550927 0.430677 -0.222030
v 0.550927 0.430677 -0.222030
v 0.550927 0.181195 -0.222030
v -0.550927 0.181195 -0.222030
v -0.532933 1.491612 -0.011142
v 0.532933 1.491612 -0.011142
v 0.532933 1.036183 -0.011142
v -0.532933 1.036183 -0.011142
v -0.532933 0.987476 -0.011142
v 0.532933 0.987476 -0.011142
v 0.532933 0.565669 -0.011142
v -0.532933 0.565669 -0.011142
v -0.532933 1.963788 -0.011142
v 0.532933 1.963788 -0.011142
v 0.532933 1.543643 -0.011142
v -0.532933 1.543643 -0.011142
v 0.532933 1.491612 0.220864
v -0.532933 1.491612 0.220864
v -0.532933 1.036183 0.220864
v 0.532933 1.036183 0.220864
v 0.532933 0.987476 0.220864
v -0.532933 0.987476 0.220864
v -0.532933 0.565669 0.220864
v 0.532933 0.565669 0.220864
v 0.532933 1.963788 0.220864
v -0.532933 1.963788 0.220864
v -0.532933 1.543643 0.220864
v 0.532933 1.543643 0.220864
v 0.597322 1.011829 0.220864
v 0.597322 1.517627 0.220864
v -0.597322 1.517627 0.220864
v -0.597322 1.011830 0.220864
v -0.597322 1.011829 -0.220864
v -0.597322 1.517627 -0.220864
v 0.597322 1.517627 -0.220864
v 0.597322 1.011830 -0.220864
v 0.625101 2.062126 -0.231135
v 0.601104 2.035677 -0.222262
v 0.601104 2.035677 0.222262
v 0.625101 2.062126 0.231135
v -0.625101 2.062126 0.231135
v -0.601104 2.035677 0.222262
v -0.601104 2.035677 -0.222262
v -0.625101 2.062126 -0.231135
v -0.674494 2.116721 -0.249398
v -0.674494 2.116721 0.249398
v 0.674494 2.116721 -0.249398
v 0.674494 2.116721 0.249398
v -0.674494 2.084313 -0.249398
v -0.674494 2.084313 0.249398
v 0.674494 2.084313 -0.249398
v 0.674494 2.084313 0.249398
v -0.656056 0.455357 -0.242581
v -0.656056 0.455357 0.242581
v 0.656056 0.455357 -0.242581
v 0.656056 0.455357 0.242581
v -0.600477 0.455357 -0.222030
v -0.600477 0.455357 0.222030
v 0.600477 0.455357 -0.222030
v 0.600477 0.455357 0.222030
v 0.632623 0.491301 0.233916
v -0.632623 0.491301 0.233916
v -0.632623 0.491301 -0.233916
v 0.632623 0.491301 -0.233916
v -0.662837 0.074639 -0.245088
v -0.662837 0.074639 0.245088
v 0.662837 0.074639 -0.245088
v 0.662837 0.074639 0.245088
v -0.643219 0.074639 -0.237834
v -0.643219 0.074639 0.237834
v 0.643219 0.074639 -0.237834
v 0.643219 0.074639 0.237834
v 0.620427 0.124772 -0.229407
v 0.633309 0.107251 -0.234170
v 0.633309 0.107251 0.234170
v 0.620427 0.124772 0.229407
v -0.620427 0.124772 0.229407
v -0.633309 0.107251 0.234170
v -0.633309 0.107251 -0.234170
v -0.620427 0.124772 -0.229407
v -0.597322 2.023425 -0.220864
v -0.597322 2.023425 0.220864
v 0.597322 2.023425 -0.220864
v 0.597322 2.023425 0.220864
v -0.622613 0.506032 -0.230215
v -0.622613 0.506032 0.230215
v 0.622613 0.506032 -0.230215
v 0.622613 0.506032 0.230215
v -0.597322 0.506032 -0.220864
v -0.597322 0.506032 0.220864
v 0.597322 0.506032 -0.220864
v 0.597322 0.506032 0.220864
v -0.656056 0.476570 -0.242581
v -0.656056 0.476570 0.242581
v 0.656056 0.476570 -0.242581
v 0.656056 0.476570 0.242581
v -0.600477 0.435120 -0.180580
v -0.600477 0.435120 0.180580
v 0.600477 0.435120 -0.180580
v 0.600477 0.435120 0.180580
v -0.618614 0.135301 -0.228736
v -0.618614 0.135301 0.228736
v 0.618614 0.135301 -0.228736
v 0.618614 0.135301 0.228736
v -0.600477 0.176751 -0.180580
v -0.600477 0.176751 0.180580
v 0.600477 0.176751 -0.180580
v 0.600477 0.176751 0.180580
v -0.662837 0.091108 -0.245088
v -0.662837 0.091108 0.245088
v 0.662837 0.091108 -0.245088
v 0.662837 0.091108 0.245088
v -0.643219 0.003133 0.237834
v -0.643219 0.091108 0.237834
v -0.643219 0.003133 -0.237834
v -0.643219 0.091108 -0.237834
v 0.643219 0.003133 0.237834
v 0.643219 0.091108 0.237834
v 0.643219 0.003133 -0.237834
v 0.643219 0.091108 -0.237834
vn -0.0000 -0.0000 -1.0000
vn -0.0000 -1.0000 -0.0000
vn -0.0000 1.0000 -0.0000
vn -0.0000 -0.0000 1.0000
vn 1.0000 -0.0000 -0.0000
vn -1.0000 -0.0000 -0.0000
vn -0.0000 -0.0614 0.9981
vn 0.5535 -0.8328 -0.0000
vn 0.4098 -0.9122 -0.0000
vn 0.9880 -0.1546 -0.0000
vn 0.8549 -0.5188 -0.0000
vn -0.0000 -0.2444 0.9697
vn -0.0000 -0.5607 0.8280
vn -0.0000 -0.6355 0.7721
vn -0.0000 -0.0614 -0.9981
vn -0.0000 -0.2444 -0.9697
vn -0.5535 -0.8328 -0.0000
vn -0.4098 -0.9122 -0.0000
vn -0.9880 -0.1546 -0.0000
vn -0.8549 -0.5188 -0.0000
vn -0.0000 -0.5607 -0.8280
vn -0.0000 -0.6355 -0.7721
vn -0.0000 0.1557 0.9878
vn -0.0000 0.1557 -0.9878
vn -0.0000 0.4336 -0.9011
vn -0.0000 0.4336 0.9011
vn -0.5322 0.8466 -0.0000
vn -0.6672 0.7449 -0.0000
vn 0.5322 0.8466 -0.0000
vn 0.6672 0.7449 -0.0000
vn -0.0000 0.1642 0.9864
vn -0.0000 0.1642 -0.9864
vn 0.9109 0.4126 -0.0000
vn 0.9855 0.1697 -0.0000
vn 0.4797 0.8774 -0.0000
vn 0.6268 0.7792 -0.0000
vn -0.0000 0.4816 0.8764
vn -0.0000 0.1845 0.9828
vn -0.0000 0.0635 0.9980
vn -0.0000 0.4816 -0.8764
vn -0.9109 0.4126 -0.0000
vn -0.9855 0.1697 -0.0000
vn -0.4797 0.8774 -0.0000
vn -0.6268 0.7792 -0.0000
vn -0.0000 0.1845 -0.9828
vn -0.0000 0.0635 -0.9980
vn 0.8271 0.5620 -0.0000
vn -0.8271 0.5620 -0.0000
vn -0.0000 0.2437 0.9699
vn -0.0000 0.2437 -0.9699
vt 0.849928 0.424360
vt 0.850652 0.423714
vt 0.851009 0.374183
vt 0.850284 0.373528
vt 0.922465 0.374630
vt 0.923202 0.373901
vt 0.922795 0.425064
vt 0.922082 0.424326
vt 0.933972 0.063905
vt 0.933235 0.064633
vt 0.932852 0.114330
vt 0.933565 0.115068
vt 0.861054 0.063532
vt 0.861779 0.064187
vt 0.861422 0.113718
vt 0.847686 0.370979
vt 0.847306 0.426872
vt 0.925380 0.427715
vt 0.925843 0.371288
vt 0.858456 0.060982
vt 0.858076 0.116875
vt 0.860698 0.114363
vt 0.936150 0.117719
vt 0.936613 0.061292
vt 0.937736 0.060187
vt 0.937243 0.118840
vt 0.926966 0.370183
vt 0.926473 0.428836
vt 0.857354 0.059940
vt 0.856969 0.117902
vt 0.846199 0.427899
vt 0.846584 0.369937
vt 0.837306 0.360633
vt 0.836811 0.437068
vt 0.935732 0.438338
vt 0.936399 0.360820
vt 0.848076 0.050637
vt 0.847581 0.127072
vt 0.946502 0.128341
vt 0.947169 0.050824
vt 0.635665 0.555441
vt 0.635335 0.555029
vt 0.586834 0.555005
vt 0.586504 0.555393
vt 0.745084 0.555408
vt 0.745413 0.554996
vt 0.745415 0.337743
vt 0.745086 0.337331
vt 0.793918 0.337767
vt 0.794248 0.337379
vt 0.586507 0.337418
vt 0.586837 0.337806
vt 0.635338 0.337783
vt 0.635667 0.337371
vt 0.794246 0.555361
vt 0.793916 0.554973
vt 0.797178 0.558347
vt 0.742154 0.558421
vt 0.797181 0.334394
vt 0.742156 0.334318
vt 0.583574 0.334432
vt 0.638597 0.334358
vt 0.583572 0.558378
vt 0.638595 0.558454
vt 0.797886 0.559110
vt 0.741448 0.559206
vt 0.639303 0.333572
vt 0.639301 0.559239
vt 0.797889 0.333630
vt 0.582864 0.559141
vt 0.741450 0.333532
vt 0.808127 0.569352
vt 0.731221 0.569495
vt 0.808127 0.323391
vt 0.731221 0.323242
vt 0.572625 0.323427
vt 0.582866 0.333669
vt 0.649530 0.323284
vt 0.572625 0.569380
vt 0.649529 0.569530
vt 0.600201 0.596072
vt 0.549495 0.596072
vt 0.549495 0.811831
vt 0.600201 0.811831
vt 0.855589 0.263240
vt 0.906296 0.263240
vt 0.906296 0.171414
vt 0.855589 0.171414
vt 0.845833 0.830680
vt 0.795127 0.830680
vt 0.795127 0.930217
vt 0.845833 0.930217
vt 0.562529 0.166838
vt 0.562529 0.217544
vt 0.778288 0.217544
vt 0.778288 0.166838
vt 0.937659 0.596038
vt 0.886952 0.596038
vt 0.886952 0.811797
vt 0.937659 0.811797
vt 0.828995 0.005949
vt 0.778288 0.005949
vt 0.778288 0.105486
vt 0.828995 0.105486
vt 0.664468 0.596072
vt 0.613762 0.596072
vt 0.613762 0.688261
vt 0.664468 0.688261
vt 0.498262 0.604846
vt 0.548969 0.604846
vt 0.548969 0.389087
vt 0.498262 0.389087
vt 0.778288 0.156193
vt 0.562529 0.105486
vt 0.562529 0.156192
vt 0.562529 0.005949
vt 0.778288 0.309733
vt 0.562529 0.309733
vt 0.795127 0.596038
vt 0.795127 0.811797
vt 0.842029 0.000263
vt 0.842029 0.110809
vt 0.943345 0.824831
vt 0.949031 0.811797
vt 0.949030 0.596038
vt 0.943345 0.583003
vt 0.858867 0.825357
vt 0.858867 0.935903
vt 0.791322 0.161515
vt 0.549495 0.161515
vt 0.613762 0.915727
vt 0.626796 0.910405
vt 0.626796 0.818216
vt 0.613762 0.805181
vt 0.677502 0.583038
vt 0.677502 0.693583
vt 0.613235 0.583037
vt 0.613235 0.824865
vt 0.842555 0.276274
vt 0.842555 0.165728
vt 0.485228 0.617880
vt 0.485228 0.376053
vt 0.677502 0.694109
vt 0.664468 0.699795
vt 0.664468 0.791621
vt 0.677502 0.804655
vt 0.110809 0.617880
vt 0.221355 0.617880
vt 0.221355 0.376053
vt 0.110809 0.376053
vt 0.000263 0.617880
vt 0.000263 0.376053
vt 0.999737 0.811797
vt 0.999737 0.596038
vt 0.613762 0.699795
vt 0.613762 0.791621
vt 0.456836 0.883124
vt 0.456836 0.772579
vt 0.360293 0.772579
vt 0.360293 0.883124
vt 0.456836 0.993670
vt 0.360293 0.993670
vt 0.360293 0.110809
vt 0.360293 0.221355
vt 0.456836 0.221355
vt 0.456836 0.110809
vt 0.360293 0.000263
vt 0.456836 0.000263
vt 0.358048 0.342236
vt 0.354057 0.353348
vt 0.463072 0.353348
vt 0.459080 0.342236
vt 0.360293 0.331900
vt 0.359987 0.334685
vt 0.457141 0.334685
vt 0.456836 0.331900
vt 0.482533 0.375287
vt 0.482533 0.618646
vt 0.476436 0.370430
vt 0.470155 0.360431
vt 0.470155 0.633502
vt 0.476436 0.623503
vt 0.331900 0.617880
vt 0.334596 0.618646
vt 0.334596 0.375287
vt 0.331900 0.376053
vt 0.459080 0.651697
vt 0.463072 0.640585
vt 0.354057 0.640585
vt 0.358048 0.651697
vt 0.456836 0.662033
vt 0.457141 0.659248
vt 0.359987 0.659248
vt 0.360293 0.662033
vt 0.340693 0.623503
vt 0.346973 0.633502
vt 0.346973 0.360431
vt 0.340693 0.370430
vt 0.463072 0.360431
vt 0.463072 0.633502
vt 0.354057 0.633502
vt 0.354057 0.360431
vt 0.812818 0.569352
vt 0.812818 0.323391
vt 0.567935 0.323427
vt 0.567935 0.569380
vt 0.822053 0.312008
vt 0.817362 0.312008
vt 0.817362 0.580735
vt 0.822053 0.580735
vt 0.836692 0.441795
vt 0.935717 0.443228
vt 0.847462 0.131799
vt 0.842660 0.143216
vt 0.950933 0.144950
vt 0.946487 0.133232
vt 0.563391 0.312045
vt 0.563391 0.580763
vt 0.831890 0.453213
vt 0.940162 0.454946
vt 0.558700 0.312045
vt 0.554921 0.316844
vt 0.554921 0.575964
vt 0.558700 0.580763
vt 0.825832 0.575935
vt 0.825832 0.316807
vt 0.842555 0.147958
vt 0.844365 0.153856
vt 0.948848 0.155820
vt 0.950875 0.149839
vt 0.831785 0.457954
vt 0.833595 0.463852
vt 0.938077 0.465817
vt 0.940104 0.459836
vt 0.833287 0.331142
vt 0.833349 0.334844
vt 0.940228 0.334068
vt 0.940235 0.330206
vt 0.719055 0.310259
vt 0.715404 0.310259
vt 0.715404 0.582477
vt 0.719055 0.582477
vt 0.710144 0.578449
vt 0.713796 0.578449
vt 0.713796 0.314288
vt 0.710144 0.314288
vt 0.661695 0.582511
vt 0.665346 0.582511
vt 0.665346 0.310259
vt 0.661695 0.310302
vt 0.831785 0.338939
vt 0.941840 0.338299
vt 0.666955 0.314288
vt 0.666955 0.578482
vt 0.844119 0.024848
vt 0.842555 0.028943
vt 0.952610 0.028303
vt 0.950998 0.024071
vt 0.835515 0.354498
vt 0.835736 0.356882
vt 0.937983 0.356905
vt 0.938206 0.354358
vt 0.831847 0.342639
vt 0.834374 0.349753
vt 0.939331 0.349445
vt 0.941811 0.342152
vt 0.723375 0.576370
vt 0.723375 0.316367
vt 0.727399 0.573680
vt 0.729736 0.573262
vt 0.729736 0.319475
vt 0.727399 0.319057
vt 0.657375 0.316409
vt 0.657375 0.576404
vt 0.846285 0.044502
vt 0.846506 0.046886
vt 0.948753 0.046909
vt 0.948976 0.044362
vt 0.842617 0.032642
vt 0.845144 0.039757
vt 0.950101 0.039449
vt 0.952581 0.032156
vt 0.653351 0.319099
vt 0.651014 0.319517
vt 0.651014 0.573296
vt 0.653351 0.573714
vt 0.677502 0.910405
vt 0.677502 0.818216
vt 0.549495 0.568735
vt 0.551563 0.573914
vt 0.551563 0.318894
vt 0.549495 0.324074
vt 0.945751 0.165202
vt 0.947951 0.159851
vt 0.845105 0.157763
vt 0.847079 0.163042
vt 0.831259 0.324037
vt 0.829191 0.318857
vt 0.829191 0.573885
vt 0.831259 0.568706
vt 0.934981 0.475198
vt 0.937181 0.469847
vt 0.834335 0.467760
vt 0.836309 0.473038
vt 0.844057 0.021145
vt 0.951006 0.020210
vt 0.690640 0.843412
vt 0.794601 0.843412
vt 0.794601 0.583003
vt 0.690640 0.583003
vt 0.670607 0.314288
vt 0.670606 0.578482
vt 0.690114 0.578482
vt 0.690114 0.314288
vt 0.950838 0.000263
vt 0.843854 0.001359
vt 0.690640 0.314288
vt 0.690640 0.578449
vt 0.940068 0.310259
vt 0.833084 0.311355
s 1
f 19/1/1 3/2/1 7/3/1 23/4/1
f 23/4/2 7/3/2 8/5/2 24/6/2
f 20/7/3 4/8/3 3/2/3 19/1/3
f 22/9/1 6/10/1 2/11/1 18/12/1
f 24/6/4 8/5/4 4/8/4 20/7/4
f 21/13/2 5/14/2 6/10/2 22/9/2
f 7/3/5 3/2/5 4/8/5 8/5/5
f 5/14/6 1/15/6 2/11/6 6/10/6
f 23/4/5 15/16/5 11/17/5 19/1/5
f 20/7/5 12/18/5 16/19/5 24/6/5
f 21/13/6 13/20/6 9/21/6 17/22/6
f 18/12/6 10/23/6 14/24/6 22/9/6
f 17/22/6 9/21/6 10/23/6 18/12/6
f 19/1/5 11/17/5 12/18/5 20/7/5
f 22/9/6 14/24/6 13/20/6 21/13/6
f 24/6/5 16/19/5 15/16/5 23/4/5
f 165/25/4 14/24/4 10/23/4 157/26/4
f 168/27/1 16/19/1 12/18/1 160/28/1
f 166/29/3 13/20/3 14/24/3 165/25/3
f 157/26/2 10/23/2 9/21/2 158/30/2
f 158/30/1 9/21/1 13/20/1 166/29/1
f 159/31/4 11/17/4 15/16/4 167/32/4
f 17/22/4 1/15/4 5/14/4 21/13/4
f 18/12/3 2/11/3 1/15/3 17/22/3
f 167/32/5 31/33/5 27/34/5 159/31/5
f 160/28/5 28/35/5 32/36/5 168/27/5
f 166/29/6 29/37/6 25/38/6 158/30/6
f 157/26/6 26/39/6 30/40/6 165/25/6
f 158/30/6 25/38/6 26/39/6 157/26/6
f 159/31/5 27/34/5 28/35/5 160/28/5
f 165/25/6 30/40/6 29/37/6 166/29/6
f 168/27/5 32/36/5 31/33/5 167/32/5
f 47/41/5 40/42/5 37/43/5 46/44/5
f 44/45/2 35/46/2 36/47/2 43/48/2
f 43/48/6 36/47/6 33/49/6 42/50/6
f 45/51/6 38/52/6 39/53/6 48/54/6
f 46/44/3 37/43/3 38/52/3 45/51/3
f 41/55/5 34/56/5 35/46/5 44/45/5
f 35/46/4 34/56/4 33/49/4 36/47/4
f 39/53/1 38/52/1 37/43/1 40/42/1
f 50/57/4 41/55/4 44/45/4 51/58/4
f 49/59/4 42/50/4 41/55/4 50/57/4
f 52/60/4 43/48/4 42/50/4 49/59/4
f 51/58/4 44/45/4 43/48/4 52/60/4
f 54/61/1 45/51/1 48/54/1 55/62/1
f 53/63/1 46/44/1 45/51/1 54/61/1
f 56/64/1 47/41/1 46/44/1 53/63/1
f 55/62/1 48/54/1 47/41/1 56/64/1
f 57/65/6 50/57/6 51/58/6 60/66/6
f 64/67/3 55/62/3 56/64/3 63/68/3
f 58/69/2 49/59/2 50/57/2 57/65/2
f 63/68/6 56/64/6 53/63/6 62/70/6
f 60/66/3 51/58/3 52/60/3 59/71/3
f 59/71/5 52/60/5 49/59/5 58/69/5
f 42/50/3 33/49/3 34/56/3 41/55/3
f 48/54/2 39/53/2 40/42/2 47/41/2
f 28/72/4 57/65/4 60/66/4 32/73/4
f 25/74/4 58/69/4 57/65/4 28/72/4
f 29/75/4 59/71/4 58/69/4 25/74/4
f 32/73/4 60/66/4 59/71/4 29/75/4
f 26/76/1 61/77/1 64/67/1 30/78/1
f 27/79/1 62/70/1 61/77/1 26/76/1
f 31/80/1 63/68/1 62/70/1 27/79/1
f 30/78/1 64/67/1 63/68/1 31/80/1
f 84/81/3 71/82/3 72/83/3 83/84/3
f 85/85/6 74/86/6 75/87/6 88/88/6
f 79/89/5 68/90/5 65/91/5 78/92/5
f 82/93/2 69/94/2 70/95/2 81/96/2
f 88/97/3 75/98/3 76/99/3 87/100/3
f 77/101/6 66/102/6 67/103/6 80/104/6
f 83/105/5 72/106/5 69/107/5 82/108/5
f 86/109/2 73/110/2 74/111/2 85/112/2
f 80/113/3 67/103/3 68/114/3 79/115/3
f 67/103/4 66/102/4 65/116/4 68/114/4
f 71/117/4 70/95/4 69/94/4 72/118/4
f 75/98/4 74/119/4 73/120/4 76/99/4
f 90/121/4 77/101/4 80/104/4 89/122/4
f 91/123/4 78/124/4 77/125/4 90/126/4
f 92/127/4 79/89/4 78/92/4 91/128/4
f 89/129/4 80/113/4 79/115/4 92/130/4
f 89/131/4 81/132/4 84/133/4 152/134/4
f 92/130/4 82/93/4 81/96/4 89/129/4
f 150/135/4 83/105/4 82/108/4 92/136/4
f 152/137/4 84/81/4 83/84/4 150/138/4
f 144/139/7 85/85/4 88/88/4 90/140/4
f 142/141/7 86/109/4 85/112/4 144/142/7
f 91/143/4 87/144/4 86/145/4 142/146/7
f 90/126/4 88/97/4 87/100/4 91/123/4
f 93/147/1 94/148/1 95/149/1 96/150/1
f 149/151/1 93/147/1 96/150/1 151/152/1
f 78/124/2 65/153/2 66/154/2 77/125/2
f 87/144/5 76/155/5 73/156/5 86/145/5
f 92/157/6 91/158/6 94/159/6 93/160/6
f 150/161/6 92/157/6 93/160/6 149/162/6
f 96/163/5 95/164/5 90/165/5 89/166/5
f 151/167/5 96/163/5 89/166/5 152/168/5
f 97/169/8 111/170/9 112/171/9 100/172/8
f 143/173/10 98/174/11 99/175/11 144/176/10
f 144/142/7 99/177/12 102/178/12 142/141/7
f 100/179/13 112/180/14 110/181/14 101/182/13
f 141/183/15 103/184/16 98/185/16 143/186/15
f 101/187/17 110/188/18 109/189/18 104/190/17
f 142/191/19 102/192/20 103/193/20 141/194/19
f 104/195/21 109/196/22 111/197/22 97/198/21
f 104/190/17 103/193/20 102/192/20 101/187/17
f 100/172/8 99/175/11 98/174/11 97/169/8
f 97/198/21 98/185/16 103/184/16 104/195/21
f 101/182/13 102/178/12 99/177/12 100/179/13
f 112/180/4 108/199/4 106/200/4 110/181/4
f 109/196/1 105/201/1 107/202/1 111/197/1
f 111/170/5 107/202/5 108/199/5 112/171/5
f 108/199/3 107/202/3 105/201/3 106/200/3
f 110/188/6 106/200/6 105/201/6 109/189/6
f 28/72/1 120/203/1 118/204/1 25/74/1
f 26/76/4 117/205/4 119/206/4 27/79/4
f 154/207/23 114/208/4 116/209/4 156/210/23
f 27/34/6 119/211/6 120/212/6 28/35/6
f 118/213/2 114/214/2 113/215/2 117/216/2
f 120/203/2 116/209/2 114/208/2 118/204/2
f 117/205/2 113/217/2 115/218/2 119/206/2
f 119/211/2 115/219/2 116/220/2 120/212/2
f 153/221/24 123/222/25 124/223/25 155/224/24
f 156/210/23 121/225/26 122/226/26 154/207/23
f 154/227/27 122/228/28 123/229/28 153/230/27
f 155/231/29 124/232/30 121/233/30 156/234/29
f 180/235/6 131/236/6 132/237/6 178/238/6
f 170/239/31 126/240/4 128/241/4 172/242/31
f 178/243/1 132/244/1 130/245/1 174/246/1
f 171/247/32 127/248/1 125/249/1 169/250/32
f 131/236/2 127/251/2 128/252/2 132/237/2
f 132/244/2 128/241/2 126/240/2 130/245/2
f 129/253/2 125/249/2 127/248/2 131/254/2
f 130/255/2 126/256/2 125/257/2 129/258/2
f 133/259/33 163/260/34 164/261/34 136/262/33
f 171/263/35 134/264/36 135/265/36 172/266/35
f 172/242/31 135/267/37 138/268/37 170/239/31
f 136/269/38 164/270/39 162/271/39 137/272/38
f 169/250/32 139/273/40 134/274/40 171/247/32
f 137/275/41 162/276/42 161/277/42 140/278/41
f 170/279/43 138/280/44 139/281/44 169/282/43
f 140/283/45 161/284/46 163/285/46 133/286/45
f 140/278/41 139/281/44 138/280/44 137/275/41
f 136/262/33 135/265/36 134/264/36 133/259/33
f 133/286/45 134/274/40 139/273/40 140/283/45
f 137/272/38 138/268/37 135/267/37 136/269/38
f 95/164/5 143/173/10 144/176/10 90/165/5
f 91/158/6 142/191/19 141/194/19 94/159/6
f 81/132/6 70/287/6 71/288/6 84/133/6
f 151/289/3 147/290/3 145/291/3 149/292/3
f 149/293/3 145/294/3 146/295/3 150/296/3
f 150/297/3 146/298/3 148/299/3 152/300/3
f 152/301/3 148/302/3 147/303/3 151/304/3
f 124/232/30 147/303/47 148/302/47 121/233/30
f 122/228/28 146/295/48 145/294/48 123/229/28
f 121/225/26 148/299/49 146/298/49 122/226/26
f 94/148/1 141/183/15 143/186/15 95/149/1
f 153/230/6 113/215/6 114/214/6 154/227/6
f 156/234/5 116/220/5 115/219/5 155/231/5
f 25/38/5 118/213/5 117/216/5 26/39/5
f 123/222/25 145/291/50 147/290/50 124/223/25
f 62/70/2 53/63/2 54/61/2 61/77/2
f 61/77/5 54/61/5 55/62/5 64/67/5
f 160/28/2 12/18/2 11/17/2 159/31/2
f 155/224/24 115/218/1 113/217/1 153/221/24
f 31/80/3 163/285/3 161/284/3 30/78/3
f 30/40/3 161/277/3 162/276/3 29/37/3
f 29/75/3 162/271/3 164/270/3 32/73/3
f 32/36/3 164/261/3 163/260/3 31/33/3
f 167/32/3 15/16/3 16/19/3 168/27/3
f 174/305/5 130/255/5 129/258/5 176/306/5
f 169/282/6 125/257/6 126/256/6 170/279/6
f 172/266/5 128/252/5 127/251/5 171/263/5
f 173/307/2 175/308/2 179/309/2 177/310/2
f 176/311/4 129/253/4 131/254/4 180/312/4
f 176/311/1 180/312/1 179/313/1 175/314/1
f 174/305/6 176/306/6 175/315/6 173/316/6
f 178/243/4 174/246/4 173/317/4 177/318/4
f 180/235/5 178/238/5 177/319/5 179/320/5
