# Blender 5.0.1
# www.blender.org
mtllib Pillar.mtl
o Cube.004
v -0.214102 2.799699 -0.214102
v 0.214102 2.799699 -0.214102
v 0.214102 2.799699 0.214102
v -0.214102 2.799699 0.214102
v -0.244604 2.799699 -0.244604
v 0.244604 2.799699 -0.244604
v 0.244604 2.799699 0.244604
v -0.244604 2.799699 0.244604
v -0.244604 2.846075 -0.244604
v 0.244604 2.846075 -0.244604
v 0.244604 2.846075 0.244604
v -0.244604 2.846075 0.244604
v -0.274256 2.846075 -0.274256
v 0.274256 2.846075 -0.274256
v 0.274256 2.846075 0.274256
v -0.274256 2.846075 0.274256
v -0.274256 2.911196 -0.274256
v 0.274256 2.911196 -0.274256
v 0.274256 2.911196 0.274256
v -0.274256 2.911196 0.274256
v -0.278032 2.900448 -0.278032
v -0.278032 2.856823 -0.278032
v -0.282494 2.887652 -0.282494
v -0.282494 2.869619 -0.282494
v 0.278032 2.856823 -0.278032
v 0.278032 2.900448 -0.278032
v 0.282494 2.869619 -0.282494
v 0.282494 2.887652 -0.282494
v 0.278032 2.900448 0.278032
v 0.278032 2.856823 0.278032
v 0.282494 2.887652 0.282494
v 0.282494 2.869619 0.282494
v -0.278032 2.856823 0.278032
v -0.278032 2.900448 0.278032
v -0.282494 2.869619 0.282494
v -0.282494 2.887652 0.282494
v 0.240157 2.911196 -0.240157
v -0.240157 2.911196 -0.240157
v -0.240157 2.911196 0.240157
v 0.240157 2.911196 0.240157
v -0.240157 2.999285 -0.240157
v 0.240157 2.999285 -0.240157
v 0.240157 2.999285 0.240157
v -0.240157 2.999285 0.240157
v -0.290226 0.000000 0.290226
v -0.274212 0.068561 0.274212
v -0.290226 0.000000 -0.290226
v -0.274212 0.068561 -0.274212
v 0.290226 0.000000 0.290226
v 0.274212 0.068561 0.274212
v 0.290226 0.000000 -0.290226
v 0.274212 0.068561 -0.274212
v -0.290226 0.068561 0.290226
v -0.290226 0.068561 -0.290226
v 0.290226 0.068561 -0.290226
v 0.290226 0.068561 0.290226
v -0.267838 0.077733 0.267838
v -0.219618 0.114936 0.219618
v -0.248935 0.093855 0.248935
v -0.239733 0.103403 0.239733
v -0.235299 0.112828 0.235299
v -0.219618 0.114936 -0.219618
v -0.267838 0.077733 -0.267838
v -0.235299 0.112828 -0.235299
v -0.239733 0.103403 -0.239733
v -0.248935 0.093855 -0.248935
v 0.219618 0.114936 -0.219618
v 0.267838 0.077733 -0.267838
v 0.235299 0.112828 -0.235299
v 0.239733 0.103403 -0.239733
v 0.248935 0.093855 -0.248935
v 0.219618 0.114936 0.219618
v 0.267838 0.077733 0.267838
v 0.235299 0.112828 0.235299
v 0.239733 0.103403 0.239733
v 0.248935 0.093855 0.248935
v -0.219618 0.619867 0.219618
v 0.219618 0.619867 0.219618
v 0.126571 0.166844 -0.219618
v 0.167710 0.207984 -0.219618
v 0.208850 0.125705 -0.219618
v 0.133174 0.186631 -0.219618
v 0.147924 0.201381 -0.219618
v -0.167710 0.207984 -0.219618
v -0.126571 0.166844 -0.219618
v -0.208850 0.125705 -0.219618
v -0.147924 0.201381 -0.219618
v -0.133174 0.186631 -0.219618
v -0.126571 0.567974 -0.219618
v -0.167710 0.526835 -0.219618
v -0.208850 0.609114 -0.219618
v -0.133174 0.548188 -0.219618
v -0.147924 0.533438 -0.219618
v 0.167710 0.526835 -0.219618
v 0.126571 0.567974 -0.219618
v 0.208850 0.609114 -0.219618
v 0.147924 0.533438 -0.219618
v 0.133174 0.548188 -0.219618
v 0.219618 0.166844 0.126571
v 0.219618 0.207984 0.167710
v 0.219618 0.125705 0.208850
v 0.219618 0.186631 0.133174
v 0.219618 0.201381 0.147924
v 0.219618 0.207984 -0.167710
v 0.219618 0.166844 -0.126571
v 0.219618 0.125705 -0.208850
v 0.219618 0.201381 -0.147924
v 0.219618 0.186631 -0.133174
v 0.219618 0.567974 -0.126571
v 0.219618 0.526835 -0.167710
v 0.219618 0.609114 -0.208850
v 0.219618 0.548188 -0.133174
v 0.219618 0.533438 -0.147924
v 0.219618 0.526835 0.167710
v 0.219618 0.567974 0.126571
v 0.219618 0.609114 0.208850
v 0.219618 0.533438 0.147924
v 0.219618 0.548188 0.133174
v -0.126571 0.166844 0.219618
v -0.167710 0.207984 0.219618
v -0.208850 0.125705 0.219618
v -0.133174 0.186631 0.219618
v -0.147924 0.201381 0.219618
v 0.167710 0.207984 0.219618
v 0.126571 0.166844 0.219618
v 0.208850 0.125705 0.219618
v 0.147924 0.201381 0.219618
v 0.133174 0.186631 0.219618
v 0.126571 0.567974 0.219618
v 0.167710 0.526835 0.219618
v 0.208850 0.609114 0.219618
v 0.133174 0.548188 0.219618
v 0.147924 0.533438 0.219618
v -0.167710 0.526835 0.219618
v -0.126571 0.567974 0.219618
v -0.208850 0.609114 0.219618
v -0.147924 0.533438 0.219618
v -0.133174 0.548188 0.219618
v -0.219618 0.166844 -0.126571
v -0.219618 0.207984 -0.167710
v -0.219618 0.125705 -0.208850
v -0.219618 0.186631 -0.133174
v -0.219618 0.201381 -0.147924
v -0.219618 0.207984 0.167710
v -0.219618 0.166844 0.126571
v -0.219618 0.125705 0.208850
v -0.219618 0.201381 0.147924
v -0.219618 0.186631 0.133174
v -0.219618 0.567974 0.126571
v -0.219618 0.526835 0.167710
v -0.219618 0.609114 0.208850
v -0.219618 0.548188 0.133174
v -0.219618 0.533438 0.147924
v -0.219618 0.526835 -0.167710
v -0.219618 0.567974 -0.126571
v -0.219618 0.609114 -0.208850
v -0.219618 0.533438 -0.147924
v -0.219618 0.548188 -0.133174
v 0.167710 0.207984 -0.209159
v 0.126571 0.166844 -0.209159
v 0.147924 0.201381 -0.209159
v 0.133174 0.186631 -0.209159
v -0.126571 0.166844 -0.209159
v -0.167710 0.207984 -0.209159
v -0.133174 0.186631 -0.209159
v -0.147924 0.201381 -0.209159
v -0.167710 0.526835 -0.209159
v -0.126571 0.567974 -0.209159
v -0.147924 0.533438 -0.209159
v -0.133174 0.548188 -0.209159
v 0.126571 0.567974 -0.209159
v 0.167710 0.526835 -0.209159
v 0.133174 0.548188 -0.209159
v 0.147924 0.533438 -0.209159
v 0.209159 0.207984 0.167710
v 0.209159 0.166844 0.126571
v 0.209159 0.201381 0.147924
v 0.209159 0.186631 0.133174
v 0.209159 0.166844 -0.126571
v 0.209159 0.207984 -0.167710
v 0.209159 0.186631 -0.133174
v 0.209159 0.201381 -0.147924
v 0.209159 0.526835 -0.167710
v 0.209159 0.567974 -0.126571
v 0.209159 0.533438 -0.147924
v 0.209159 0.548188 -0.133174
v 0.209159 0.567974 0.126571
v 0.209159 0.526835 0.167710
v 0.209159 0.548188 0.133174
v 0.209159 0.533438 0.147924
v -0.167710 0.207984 0.209159
v -0.126571 0.166844 0.209159
v -0.147924 0.201381 0.209159
v -0.133174 0.186631 0.209159
v 0.126571 0.166844 0.209159
v 0.167710 0.207984 0.209159
v 0.133174 0.186631 0.209159
v 0.147924 0.201381 0.209159
v 0.167710 0.526835 0.209159
v 0.126571 0.567974 0.209159
v 0.147924 0.533438 0.209159
v 0.133174 0.548188 0.209159
v -0.126571 0.567974 0.209159
v -0.167710 0.526835 0.209159
v -0.133174 0.548188 0.209159
v -0.147924 0.533438 0.209159
v -0.209159 0.207984 -0.167710
v -0.209159 0.166844 -0.126571
v -0.209159 0.201381 -0.147924
v -0.209159 0.186631 -0.133174
v -0.209159 0.166844 0.126571
v -0.209159 0.207984 0.167710
v -0.209159 0.186631 0.133174
v -0.209159 0.201381 0.147924
v -0.209159 0.526835 0.167710
v -0.209159 0.567974 0.126571
v -0.209159 0.533438 0.147924
v -0.209159 0.548188 0.133174
v -0.209159 0.567974 -0.126571
v -0.209159 0.526835 -0.167710
v -0.209159 0.548188 -0.133174
v -0.209159 0.533438 -0.147924
v 0.290226 0.734788 0.290226
v 0.274212 0.666227 0.274212
v 0.290226 0.734788 -0.290226
v 0.274212 0.666227 -0.274212
v -0.290226 0.734788 0.290226
v -0.274212 0.666227 0.274212
v -0.290226 0.734788 -0.290226
v -0.274212 0.666227 -0.274212
v 0.290226 0.666227 0.290226
v 0.290226 0.666227 -0.290226
v -0.290226 0.666227 -0.290226
v -0.290226 0.666227 0.290226
v 0.267838 0.657055 0.267838
v 0.248935 0.640934 0.248935
v 0.239733 0.631385 0.239733
v 0.235299 0.621960 0.235299
v 0.219618 0.619867 -0.219618
v 0.267838 0.657055 -0.267838
v 0.235299 0.621960 -0.235299
v 0.239733 0.631385 -0.239733
v 0.248935 0.640934 -0.248935
v -0.219618 0.619867 -0.219618
v -0.267838 0.657055 -0.267838
v -0.235299 0.621960 -0.235299
v -0.239733 0.631385 -0.239733
v -0.248935 0.640934 -0.248935
v -0.267838 0.657055 0.267838
v -0.235299 0.621960 0.235299
v -0.239733 0.631385 0.239733
v -0.248935 0.640934 0.248935
v 0.214102 0.734788 -0.214102
v -0.214102 0.734788 -0.214102
v -0.214102 0.734788 0.214102
v 0.214102 0.734788 0.214102
v 0.214102 0.734788 -0.214102
v -0.214102 0.734788 -0.214102
v -0.214102 0.734788 0.214102
v 0.214102 0.734788 0.214102
v -0.214102 2.799699 -0.214102
v 0.214102 2.799699 -0.214102
v 0.214102 2.799699 0.214102
v -0.214102 2.799699 0.214102
v -0.214102 0.797500 -0.107764
v -0.214102 0.841127 -0.151391
v -0.214102 0.766651 -0.182240
v -0.214102 0.800877 -0.131241
v -0.214102 0.817649 -0.148013
v -0.214102 0.841127 0.151391
v -0.214102 0.797500 0.107764
v -0.214102 0.766651 0.182240
v -0.214102 0.817649 0.148013
v -0.214102 0.800877 0.131241
v -0.214102 2.736988 0.107764
v -0.214102 2.693361 0.151391
v -0.214102 2.767837 0.182240
v -0.214102 2.733610 0.131241
v -0.214102 2.716838 0.148013
v -0.214102 2.693361 -0.151391
v -0.214102 2.736988 -0.107764
v -0.214102 2.767837 -0.182240
v -0.214102 2.716838 -0.148013
v -0.214102 2.733610 -0.131241
v 0.107764 0.797500 -0.214102
v 0.151391 0.841127 -0.214102
v 0.182240 0.766651 -0.214102
v 0.131241 0.800877 -0.214102
v 0.148013 0.817649 -0.214102
v -0.151391 0.841127 -0.214102
v -0.107764 0.797500 -0.214102
v -0.182240 0.766651 -0.214102
v -0.148013 0.817649 -0.214102
v -0.131241 0.800877 -0.214102
v -0.107764 2.736988 -0.214102
v -0.151391 2.693361 -0.214102
v -0.182240 2.767837 -0.214102
v -0.131241 2.733610 -0.214102
v -0.148013 2.716838 -0.214102
v 0.151391 2.693361 -0.214102
v 0.107764 2.736988 -0.214102
v 0.182240 2.767837 -0.214102
v 0.148013 2.716838 -0.214102
v 0.131241 2.733610 -0.214102
v -0.107764 0.797500 0.214102
v -0.151391 0.841127 0.214102
v -0.182240 0.766651 0.214102
v -0.131241 0.800877 0.214102
v -0.148013 0.817649 0.214102
v 0.151391 0.841127 0.214102
v 0.107764 0.797500 0.214102
v 0.182240 0.766651 0.214102
v 0.148013 0.817649 0.214102
v 0.131241 0.800877 0.214102
v 0.107764 2.736988 0.214102
v 0.151391 2.693361 0.214102
v 0.182240 2.767837 0.214102
v 0.131241 2.733610 0.214102
v 0.148013 2.716838 0.214102
v -0.151391 2.693361 0.214102
v -0.107764 2.736988 0.214102
v -0.182240 2.767837 0.214102
v -0.148013 2.716838 0.214102
v -0.131241 2.733610 0.214102
v 0.214102 0.797500 0.107764
v 0.214102 0.841127 0.151391
v 0.214102 0.766651 0.182240
v 0.214102 0.800877 0.131241
v 0.214102 0.817649 0.148013
v 0.214102 0.841127 -0.151391
v 0.214102 0.797500 -0.107764
v 0.214102 0.766651 -0.182240
v 0.214102 0.817649 -0.148013
v 0.214102 0.800877 -0.131241
v 0.214102 2.736988 -0.107764
v 0.214102 2.693361 -0.151391
v 0.214102 2.767837 -0.182240
v 0.214102 2.733610 -0.131241
v 0.214102 2.716838 -0.148013
v 0.214102 2.693361 0.151391
v 0.214102 2.736988 0.107764
v 0.214102 2.767837 0.182240
v 0.214102 2.716838 0.148013
v 0.214102 2.733610 0.131241
v -0.201887 0.797500 0.107764
v -0.201887 0.841127 0.151391
v -0.201887 0.800877 0.131241
v -0.201887 0.817649 0.148013
v -0.201887 0.841127 -0.151391
v -0.201887 0.797500 -0.107764
v -0.201887 0.817649 -0.148013
v -0.201887 0.800877 -0.131241
v -0.201887 2.736988 -0.107764
v -0.201887 2.693361 -0.151391
v -0.201887 2.733610 -0.131241
v -0.201887 2.716838 -0.148013
v -0.201887 2.693361 0.151391
v -0.201887 2.736988 0.107764
v -0.201887 2.716838 0.148013
v -0.201887 2.733610 0.131241
v -0.107764 0.797500 -0.201887
v -0.151391 0.841127 -0.201887
v -0.131241 0.800877 -0.201887
v -0.148013 0.817649 -0.201887
v 0.151391 0.841127 -0.201887
v 0.107764 0.797500 -0.201887
v 0.148013 0.817649 -0.201887
v 0.131241 0.800877 -0.201887
v 0.107764 2.736988 -0.201887
v 0.151391 2.693361 -0.201887
v 0.131241 2.733610 -0.201887
v 0.148013 2.716838 -0.201887
v -0.151391 2.693361 -0.201887
v -0.107764 2.736988 -0.201887
v -0.148013 2.716838 -0.201887
v -0.131241 2.733610 -0.201887
v 0.107764 0.797500 0.201887
v 0.151391 0.841127 0.201887
v 0.131241 0.800877 0.201887
v 0.148013 0.817649 0.201887
v -0.151391 0.841127 0.201887
v -0.107764 0.797500 0.201887
v -0.148013 0.817649 0.201887
v -0.131241 0.800877 0.201887
v -0.107764 2.736988 0.201887
v -0.151391 2.693361 0.201887
v -0.131241 2.733610 0.201887
v -0.148013 2.716838 0.201887
v 0.151391 2.693361 0.201887
v 0.107764 2.736988 0.201887
v 0.148013 2.716838 0.201887
v 0.131241 2.733610 0.201887
v 0.201887 0.797500 -0.107764
v 0.201887 0.841127 -0.151391
v 0.201887 0.800877 -0.131241
v 0.201887 0.817649 -0.148013
v 0.201887 0.841127 0.151391
v 0.201887 0.797500 0.107764
v 0.201887 0.817649 0.148013
v 0.201887 0.800877 0.131241
v 0.201887 2.736988 0.107764
v 0.201887 2.693361 0.151391
v 0.201887 2.733610 0.131241
v 0.201887 2.716838 0.148013
v 0.201887 2.693361 -0.151391
v 0.201887 2.736988 -0.107764
v 0.201887 2.716838 -0.148013
v 0.201887 2.733610 -0.131241
vn -0.0000 -1.0000 -0.0000
vn 1.0000 -0.0000 -0.0000
vn -1.0000 -0.0000 -0.0000
vn -0.0000 -0.0000 -1.0000
vn -0.0000 -0.0000 1.0000
vn -0.9439 0.3301 -0.0000
vn -0.9890 0.1482 -0.0000
vn -0.9890 -0.1482 -0.0000
vn -0.9439 -0.3302 -0.0000
vn 0.9439 0.3301 -0.0000
vn 0.9890 0.1482 -0.0000
vn 0.9890 -0.1482 -0.0000
vn 0.9439 -0.3302 -0.0000
vn -0.0000 0.3302 0.9439
vn -0.0000 0.1482 0.9890
vn -0.0000 -0.1482 0.9890
vn -0.0000 -0.3302 0.9439
vn -0.0000 0.3302 -0.9439
vn -0.0000 0.1482 -0.9890
vn -0.0000 -0.1482 -0.9890
vn -0.0000 -0.3302 -0.9439
vn -0.9435 0.3314 -0.0000
vn -0.0000 -0.3314 -0.9435
vn -0.0000 0.3314 -0.9435
vn -0.9435 -0.3314 -0.0000
vn 0.9435 0.3314 -0.0000
vn 0.9435 -0.3314 -0.0000
vn -0.0000 -0.3314 0.9435
vn -0.0000 0.3314 0.9435
vn -0.0000 1.0000 -0.0000
vn -0.0669 0.9955 0.0669
vn -0.0669 0.9955 -0.0669
vn -0.9048 0.4258 -0.0000
vn -0.7942 0.6076 -0.0000
vn -0.6711 0.7414 -0.0000
vn -0.7740 0.6332 -0.0000
vn 0.0669 0.9955 -0.0669
vn -0.0000 0.4258 -0.9048
vn -0.0000 0.6076 -0.7942
vn -0.0000 0.7414 -0.6711
vn -0.0000 0.6332 -0.7740
vn 0.0669 0.9955 0.0669
vn 0.9048 0.4258 -0.0000
vn 0.7942 0.6076 -0.0000
vn 0.6711 0.7414 -0.0000
vn 0.7740 0.6332 -0.0000
vn -0.0000 0.4258 0.9048
vn -0.0000 0.6076 0.7942
vn -0.0000 0.7414 0.6711
vn -0.0000 0.6332 0.7740
vn -0.8212 0.5706 -0.0000
vn -0.0000 0.5706 0.8212
vn -0.0000 0.5706 -0.8212
vn 0.8212 0.5706 -0.0000
vn -0.0000 0.9486 0.3166
vn -0.0000 0.8506 0.5259
vn -0.0000 0.5259 0.8506
vn -0.0000 0.3166 0.9486
vn -0.0000 0.9486 -0.3166
vn -0.0000 0.8506 -0.5259
vn -0.0000 0.5259 -0.8506
vn -0.0000 0.3166 -0.9486
vn -0.9486 0.3166 -0.0000
vn -0.8506 0.5259 -0.0000
vn -0.5259 0.8506 -0.0000
vn -0.3166 0.9486 -0.0000
vn -0.9486 -0.3166 -0.0000
vn -0.8506 -0.5259 -0.0000
vn -0.5259 -0.8506 -0.0000
vn -0.3166 -0.9486 -0.0000
vn 0.3166 0.9486 -0.0000
vn 0.5259 0.8506 -0.0000
vn 0.8506 0.5259 -0.0000
vn 0.9486 0.3166 -0.0000
vn -0.0000 -0.3166 -0.9486
vn -0.0000 -0.5259 -0.8506
vn -0.0000 -0.8506 -0.5259
vn -0.0000 -0.9486 -0.3166
vn 0.9486 -0.3166 -0.0000
vn 0.8506 -0.5259 -0.0000
vn 0.5259 -0.8506 -0.0000
vn 0.3166 -0.9486 -0.0000
vn -0.0000 -0.3166 0.9486
vn -0.0000 -0.5259 0.8506
vn -0.0000 -0.8506 0.5259
vn -0.0000 -0.9486 0.3166
vn 0.0664 -0.9956 0.0664
vn 0.0664 -0.9956 -0.0664
vn 0.9048 -0.4258 -0.0000
vn 0.7942 -0.6076 -0.0000
vn 0.6711 -0.7414 -0.0000
vn 0.7740 -0.6332 -0.0000
vn -0.0664 -0.9956 -0.0664
vn -0.0000 -0.4258 -0.9048
vn -0.0000 -0.6076 -0.7942
vn -0.0000 -0.7414 -0.6711
vn -0.0000 -0.6332 -0.7740
vn -0.0664 -0.9956 0.0664
vn -0.9048 -0.4258 -0.0000
vn -0.7942 -0.6076 -0.0000
vn -0.6711 -0.7414 -0.0000
vn -0.7740 -0.6332 -0.0000
vn -0.0000 -0.4258 0.9048
vn -0.0000 -0.6076 0.7942
vn -0.0000 -0.7414 0.6711
vn -0.0000 -0.6332 0.7740
vn 0.8212 -0.5706 -0.0000
vn -0.0000 -0.5706 0.8212
vn -0.0000 -0.5706 -0.8212
vn -0.8212 -0.5706 -0.0000
vn -0.0000 0.0714 -0.9974
vn -0.0000 0.1424 -0.9898
vn -0.0000 0.7071 -0.7071
vn -0.0000 0.9898 -0.1424
vn -0.0000 0.9974 -0.0714
vn -0.0000 0.0714 0.9974
vn -0.0000 0.1424 0.9898
vn -0.0000 0.7071 0.7071
vn -0.0000 0.9898 0.1424
vn -0.0000 0.9974 0.0714
vn 0.9974 0.0714 -0.0000
vn 0.9898 0.1424 -0.0000
vn 0.7071 0.7071 -0.0000
vn 0.1424 0.9898 -0.0000
vn 0.0714 0.9974 -0.0000
vn -0.9974 0.0714 -0.0000
vn -0.9898 0.1424 -0.0000
vn -0.7071 0.7071 -0.0000
vn -0.1424 0.9898 -0.0000
vn -0.0714 0.9974 -0.0000
vn -0.0000 -0.9974 0.0714
vn -0.0000 -0.9898 0.1424
vn -0.0000 -0.7071 0.7071
vn -0.0000 -0.1424 0.9898
vn -0.0000 -0.0714 0.9974
vn -0.0714 -0.9974 -0.0000
vn -0.1424 -0.9898 -0.0000
vn -0.7071 -0.7071 -0.0000
vn -0.9898 -0.1424 -0.0000
vn -0.9974 -0.0714 -0.0000
vn -0.0000 -0.9974 -0.0714
vn -0.0000 -0.9898 -0.1424
vn -0.0000 -0.7071 -0.7071
vn -0.0000 -0.1424 -0.9898
vn -0.0000 -0.0714 -0.9974
vn 0.0714 -0.9974 -0.0000
vn 0.1424 -0.9898 -0.0000
vn 0.7071 -0.7071 -0.0000
vn 0.9898 -0.1424 -0.0000
vn 0.9974 -0.0714 -0.0000
vt 0.849471 0.990214
vt 0.986858 0.990214
vt 0.996644 1.000000
vt 0.839685 1.000000
vt 0.587868 0.241541
vt 0.587868 0.084582
vt 0.602747 0.084581
vt 0.602747 0.241541
vt 0.986858 0.852827
vt 0.996644 0.843040
vt 0.849471 0.852827
vt 0.839685 0.843040
vt 0.897872 0.084582
vt 0.897872 0.241541
vt 0.888358 0.251055
vt 0.888358 0.075068
vt 0.912752 0.084581
vt 0.912751 0.241541
vt 0.671830 0.000619
vt 0.828789 0.000619
vt 0.828789 0.015499
vt 0.671830 0.015499
vt 0.828789 0.325503
vt 0.671830 0.325503
vt 0.671830 0.310624
vt 0.828789 0.310624
vt 0.838303 0.025013
vt 0.662316 0.025012
vt 0.662316 0.301110
vt 0.838303 0.301110
vt 0.612261 0.075068
vt 0.612261 0.251055
vt 0.855626 0.086008
vt 0.855626 0.240114
vt 0.827363 0.240114
vt 0.827363 0.086008
vt 0.870221 0.252266
vt 0.870221 0.073856
vt 0.874570 0.072424
vt 0.874569 0.253698
vt 0.880355 0.072424
vt 0.880355 0.253698
vt 0.884703 0.073856
vt 0.884703 0.252266
vt 0.630398 0.073856
vt 0.630398 0.252266
vt 0.626050 0.253698
vt 0.626050 0.072424
vt 0.620264 0.253698
vt 0.620264 0.072424
vt 0.615916 0.252266
vt 0.615916 0.073856
vt 0.661105 0.282973
vt 0.839514 0.282973
vt 0.840946 0.287321
vt 0.659673 0.287321
vt 0.840946 0.293107
vt 0.659673 0.293107
vt 0.839515 0.297455
vt 0.661105 0.297455
vt 0.839515 0.043150
vt 0.661105 0.043150
vt 0.659673 0.038801
vt 0.840947 0.038801
vt 0.659673 0.033016
vt 0.840946 0.033016
vt 0.661105 0.028668
vt 0.839515 0.028668
vt 0.866566 0.251055
vt 0.866566 0.075068
vt 0.838303 0.046804
vt 0.662316 0.046805
vt 0.634053 0.075068
vt 0.634053 0.251055
vt 0.662316 0.279318
vt 0.838303 0.279318
vt 0.827363 0.057745
vt 0.673257 0.057745
vt 0.673257 0.268377
vt 0.827363 0.268378
vt 0.644993 0.086008
vt 0.644993 0.240114
vt 0.673257 0.086008
vt 0.673257 0.240114
vt 0.638241 0.566087
vt 0.616243 0.566087
vt 0.616243 0.379852
vt 0.638241 0.379851
vt 0.638241 0.357854
vt 0.824476 0.357854
vt 0.824476 0.379851
vt 0.846473 0.379852
vt 0.846473 0.566087
vt 0.824476 0.566087
vt 0.824476 0.588084
vt 0.638241 0.588084
vt 0.611105 0.560949
vt 0.611105 0.384990
vt 0.643379 0.352716
vt 0.819338 0.352716
vt 0.851611 0.384990
vt 0.851611 0.560948
vt 0.819338 0.593222
vt 0.643379 0.593222
vt 0.586878 0.543433
vt 0.586878 0.402506
vt 0.591954 0.397475
vt 0.591954 0.548463
vt 0.595296 0.396052
vt 0.595296 0.549886
vt 0.599550 0.393099
vt 0.599550 0.552839
vt 0.607522 0.387035
vt 0.607522 0.558904
vt 0.660895 0.328488
vt 0.801822 0.328488
vt 0.806853 0.333565
vt 0.655864 0.333565
vt 0.808276 0.336907
vt 0.654441 0.336907
vt 0.811228 0.341161
vt 0.651489 0.341161
vt 0.817293 0.349132
vt 0.645424 0.349132
vt 0.875839 0.402506
vt 0.875839 0.543433
vt 0.870763 0.548463
vt 0.870763 0.397475
vt 0.867421 0.549886
vt 0.867421 0.396052
vt 0.863166 0.552839
vt 0.863166 0.393099
vt 0.855195 0.558904
vt 0.855195 0.387035
vt 0.801822 0.617450
vt 0.660895 0.617450
vt 0.655864 0.612373
vt 0.806853 0.612373
vt 0.654441 0.609032
vt 0.808276 0.609032
vt 0.651489 0.604777
vt 0.811228 0.604777
vt 0.645424 0.596806
vt 0.817293 0.596806
vt 0.000013 0.986577
vt 0.000013 0.845650
vt 0.140940 0.845650
vt 0.140940 0.986577
vt 0.314060 0.937309
vt 0.320261 0.940262
vt 0.300067 0.964545
vt 0.324785 0.944799
vt 0.327610 0.950943
vt 0.328052 0.839897
vt 0.325108 0.846026
vt 0.300995 0.826265
vt 0.320615 0.850547
vt 0.314503 0.853491
vt 0.446675 0.853484
vt 0.440564 0.850541
vt 0.460185 0.826263
vt 0.436071 0.846020
vt 0.433127 0.839891
vt 0.433571 0.950947
vt 0.436401 0.944801
vt 0.461120 0.964547
vt 0.440928 0.940265
vt 0.447135 0.937314
vt 0.119055 0.824638
vt 0.122008 0.818436
vt 0.146291 0.838631
vt 0.126544 0.813913
vt 0.132689 0.811088
vt 0.021643 0.810646
vt 0.027772 0.813590
vt 0.008011 0.837703
vt 0.032293 0.818083
vt 0.035237 0.824194
vt 0.035230 0.692024
vt 0.032287 0.698135
vt 0.008009 0.678513
vt 0.027766 0.702627
vt 0.021637 0.705571
vt 0.132693 0.705127
vt 0.126547 0.702297
vt 0.146293 0.677578
vt 0.122011 0.697770
vt 0.119060 0.691563
vt 0.264503 0.824185
vt 0.267446 0.818075
vt 0.291723 0.837696
vt 0.271966 0.813583
vt 0.278095 0.810638
vt 0.167041 0.811082
vt 0.173186 0.813912
vt 0.153440 0.838631
vt 0.177722 0.818440
vt 0.180674 0.824647
vt 0.180679 0.691570
vt 0.177726 0.697772
vt 0.153442 0.677576
vt 0.173189 0.702295
vt 0.167045 0.705121
vt 0.278092 0.705564
vt 0.271963 0.702620
vt 0.291724 0.678508
vt 0.267441 0.698127
vt 0.264497 0.692016
vt 0.317866 0.789671
vt 0.323977 0.792614
vt 0.304356 0.816891
vt 0.328469 0.797134
vt 0.331413 0.803263
vt 0.330969 0.692208
vt 0.328140 0.698354
vt 0.303420 0.678608
vt 0.323612 0.702890
vt 0.317405 0.705841
vt 0.450482 0.705847
vt 0.444280 0.702894
vt 0.464475 0.678610
vt 0.439756 0.698357
vt 0.436931 0.692212
vt 0.436488 0.803259
vt 0.439432 0.797130
vt 0.463544 0.816891
vt 0.443924 0.792609
vt 0.450035 0.789665
vt 0.024006 0.809094
vt 0.029766 0.811295
vt 0.034605 0.816074
vt 0.036794 0.821831
vt 0.130355 0.809439
vt 0.124557 0.811510
vt 0.119682 0.816386
vt 0.117472 0.822214
vt 0.316484 0.935726
vt 0.322312 0.937936
vt 0.327188 0.942811
vt 0.329259 0.948609
vt 0.444709 0.935729
vt 0.438878 0.937938
vt 0.433998 0.942810
vt 0.431924 0.948611
vt 0.169377 0.809435
vt 0.175176 0.811509
vt 0.180050 0.816389
vt 0.182259 0.822222
vt 0.275731 0.809086
vt 0.269971 0.811288
vt 0.265135 0.816067
vt 0.262946 0.821822
vt 0.117475 0.693989
vt 0.119684 0.699820
vt 0.124557 0.704700
vt 0.130357 0.706774
vt 0.332617 0.694544
vt 0.330543 0.700344
vt 0.325663 0.705218
vt 0.319830 0.707426
vt 0.332965 0.800899
vt 0.330764 0.795139
vt 0.325984 0.790302
vt 0.320229 0.788113
vt 0.444312 0.855041
vt 0.438556 0.852853
vt 0.433776 0.848016
vt 0.431574 0.842254
vt 0.316867 0.855048
vt 0.322624 0.852859
vt 0.327403 0.848020
vt 0.329604 0.842260
vt 0.262940 0.694380
vt 0.265130 0.700135
vt 0.269968 0.704915
vt 0.275729 0.707116
vt 0.036787 0.694386
vt 0.034599 0.700143
vt 0.029762 0.704922
vt 0.024000 0.707124
vt 0.447671 0.788108
vt 0.441916 0.790298
vt 0.437136 0.795136
vt 0.434935 0.800897
vt 0.182263 0.693993
vt 0.180053 0.699823
vt 0.175177 0.704699
vt 0.169378 0.706770
vt 0.448058 0.707430
vt 0.442229 0.705220
vt 0.437353 0.700345
vt 0.435282 0.694546
vt 0.464765 0.968121
vt 0.296416 0.968121
vt 0.297456 0.822687
vt 0.463719 0.822685
vt 0.149867 0.842282
vt 0.004433 0.841242
vt 0.149867 0.673932
vt 0.004431 0.674979
vt 0.295300 0.841235
vt 0.295302 0.674974
vt 0.467077 0.820470
vt 0.300817 0.820468
vt 0.299770 0.675034
vt 0.468121 0.675034
vt 0.797631 0.670120
vt 0.819628 0.670120
vt 0.819628 0.856356
vt 0.797631 0.856356
vt 0.797631 0.878353
vt 0.611396 0.878353
vt 0.611396 0.856356
vt 0.589398 0.856356
vt 0.589398 0.670120
vt 0.611396 0.670120
vt 0.611396 0.648123
vt 0.797631 0.648123
vt 0.824766 0.675259
vt 0.824766 0.851218
vt 0.792493 0.883491
vt 0.616534 0.883491
vt 0.584260 0.851218
vt 0.584260 0.675259
vt 0.616534 0.642985
vt 0.792493 0.642985
vt 0.848993 0.692775
vt 0.848993 0.833702
vt 0.843918 0.838732
vt 0.843918 0.687744
vt 0.840576 0.840155
vt 0.840576 0.686321
vt 0.836321 0.843108
vt 0.836321 0.683368
vt 0.828350 0.849173
vt 0.828350 0.677303
vt 0.774977 0.907718
vt 0.634050 0.907718
vt 0.629019 0.902643
vt 0.780008 0.902643
vt 0.627596 0.899301
vt 0.781430 0.899301
vt 0.624644 0.895046
vt 0.784383 0.895046
vt 0.618579 0.887075
vt 0.790448 0.887075
vt 0.560033 0.833702
vt 0.560033 0.692775
vt 0.565109 0.687744
vt 0.565109 0.838732
vt 0.568451 0.686321
vt 0.568451 0.840155
vt 0.572705 0.683368
vt 0.572705 0.843108
vt 0.580676 0.677303
vt 0.580676 0.849173
vt 0.634050 0.618758
vt 0.774977 0.618758
vt 0.780008 0.623834
vt 0.629019 0.623834
vt 0.781430 0.627176
vt 0.627596 0.627176
vt 0.784383 0.631430
vt 0.624644 0.631430
vt 0.790448 0.639401
vt 0.618579 0.639401
vt 0.635819 0.831932
vt 0.773207 0.831932
vt 0.635819 0.694544
vt 0.773207 0.694544
vt 0.184091 0.020189
vt 0.176076 0.021983
vt 0.158615 0.010544
vt 0.170007 0.027839
vt 0.167990 0.035516
vt 0.271955 0.035583
vt 0.269925 0.027915
vt 0.281336 0.010648
vt 0.263891 0.022050
vt 0.255902 0.020303
vt 0.255851 0.650964
vt 0.263866 0.649163
vt 0.281329 0.660562
vt 0.269928 0.643304
vt 0.271942 0.635624
vt 0.167977 0.635678
vt 0.170010 0.643345
vt 0.158608 0.660647
vt 0.176051 0.649207
vt 0.184038 0.650947
vt 0.036446 0.020243
vt 0.028431 0.022044
vt 0.010968 0.010645
vt 0.022368 0.027904
vt 0.020355 0.035583
vt 0.124320 0.035529
vt 0.122287 0.027862
vt 0.133689 0.010560
vt 0.116246 0.022001
vt 0.108259 0.020260
vt 0.108206 0.651018
vt 0.116221 0.649225
vt 0.133682 0.660664
vt 0.122289 0.643368
vt 0.124307 0.635691
vt 0.020342 0.635624
vt 0.022372 0.643293
vt 0.010961 0.660559
vt 0.028406 0.649157
vt 0.036395 0.650904
vt 0.330064 0.020189
vt 0.322049 0.021983
vt 0.304588 0.010544
vt 0.315981 0.027839
vt 0.313963 0.035516
vt 0.417929 0.035583
vt 0.415899 0.027915
vt 0.427309 0.010648
vt 0.409864 0.022050
vt 0.401875 0.020303
vt 0.401824 0.650964
vt 0.409839 0.649163
vt 0.427302 0.660562
vt 0.415902 0.643304
vt 0.417915 0.635624
vt 0.313950 0.635678
vt 0.315983 0.643345
vt 0.304581 0.660647
vt 0.322024 0.649207
vt 0.330011 0.650947
vt 0.477715 0.020189
vt 0.469700 0.021983
vt 0.452239 0.010544
vt 0.463632 0.027839
vt 0.461614 0.035516
vt 0.565580 0.035583
vt 0.563550 0.027915
vt 0.574960 0.010648
vt 0.557515 0.022050
vt 0.549526 0.020303
vt 0.549475 0.650964
vt 0.557490 0.649163
vt 0.574953 0.660562
vt 0.563553 0.643304
vt 0.565566 0.635624
vt 0.461601 0.635678
vt 0.463634 0.643345
vt 0.452232 0.660647
vt 0.469675 0.649207
vt 0.477662 0.650947
vt 0.268542 0.036613
vt 0.266816 0.029849
vt 0.262038 0.025189
vt 0.255125 0.023774
vt 0.171417 0.036567
vt 0.173086 0.029771
vt 0.177943 0.025171
vt 0.184888 0.023671
vt 0.120909 0.036585
vt 0.119177 0.029805
vt 0.114396 0.025146
vt 0.107482 0.023739
vt 0.023783 0.036608
vt 0.025447 0.029826
vt 0.030300 0.025227
vt 0.037244 0.023718
vt 0.184815 0.647468
vt 0.177901 0.646062
vt 0.173120 0.641402
vt 0.171388 0.634623
vt 0.414515 0.036613
vt 0.412789 0.029849
vt 0.408011 0.025189
vt 0.401098 0.023774
vt 0.317390 0.036567
vt 0.319059 0.029771
vt 0.323916 0.025171
vt 0.330862 0.023671
vt 0.037172 0.647433
vt 0.030259 0.646018
vt 0.025481 0.641358
vt 0.023755 0.634594
vt 0.562166 0.036613
vt 0.560440 0.029849
vt 0.555662 0.025189
vt 0.548749 0.023775
vt 0.465041 0.036567
vt 0.466710 0.029771
vt 0.471567 0.025171
vt 0.478513 0.023672
vt 0.255053 0.647489
vt 0.261997 0.645980
vt 0.266850 0.641381
vt 0.268513 0.634599
vt 0.330788 0.647468
vt 0.323874 0.646061
vt 0.319093 0.641402
vt 0.317362 0.634623
vt 0.107409 0.647536
vt 0.114354 0.646036
vt 0.119211 0.641437
vt 0.120880 0.634640
vt 0.478439 0.647468
vt 0.471525 0.646062
vt 0.466744 0.641402
vt 0.465013 0.634623
vt 0.401026 0.647489
vt 0.407970 0.645980
vt 0.412823 0.641381
vt 0.414487 0.634599
vt 0.548677 0.647489
vt 0.555622 0.645980
vt 0.560474 0.641381
vt 0.562138 0.634599
vt 0.148002 0.000066
vt 0.291946 0.000184
vt 0.148002 0.671141
vt 0.291946 0.671010
vt 0.000351 0.000198
vt 0.144295 0.000066
vt 0.000351 0.671023
vt 0.144295 0.671141
vt 0.293975 0.000066
vt 0.437919 0.000184
vt 0.293975 0.671141
vt 0.437919 0.671010
vt 0.441626 0.671141
vt 0.441626 0.000067
vt 0.585570 0.000184
vt 0.585570 0.671010
s 1
usemtl Material.001
f 4/1/1 3/2/1 7/3/1 8/4/1
f 7/5/2 6/6/2 10/7/2 11/8/2
f 3/2/1 2/9/1 6/10/1 7/3/1
f 1/11/1 4/1/1 8/4/1 5/12/1
f 2/9/1 1/11/1 5/12/1 6/10/1
f 9/13/1 12/14/1 16/15/1 13/16/1
f 5/17/3 8/18/3 12/14/3 9/13/3
f 6/19/4 5/20/4 9/21/4 10/22/4
f 8/23/5 7/24/5 11/25/5 12/26/5
f 10/22/1 9/21/1 13/27/1 14/28/1
f 12/26/1 11/25/1 15/29/1 16/30/1
f 11/8/1 10/7/1 14/31/1 15/32/1
f 38/33/3 39/34/3 44/35/3 41/36/3
f 34/37/6 21/38/6 23/39/7 36/40/7
f 36/40/7 23/39/7 24/41/8 35/42/8
f 35/42/8 24/41/8 22/43/9 33/44/9
f 26/45/10 29/46/10 31/47/11 28/48/11
f 28/48/11 31/47/11 32/49/12 27/50/12
f 27/50/12 32/49/12 30/51/13 25/52/13
f 29/53/14 34/54/14 36/55/15 31/56/15
f 31/56/15 36/55/15 35/57/16 32/58/16
f 32/58/16 35/57/16 33/59/17 30/60/17
f 21/61/18 26/62/18 28/63/19 23/64/19
f 23/64/19 28/63/19 27/65/20 24/66/20
f 24/66/20 27/65/20 25/67/21 22/68/21
f 21/38/6 34/37/6 20/69/22 17/70/22
f 14/28/23 13/27/23 22/68/21 25/67/21
f 26/62/18 21/61/18 17/71/24 18/72/24
f 13/16/25 16/15/25 33/44/9 22/43/9
f 29/46/10 26/45/10 18/73/26 19/74/26
f 15/32/27 14/31/27 25/52/13 30/51/13
f 16/30/28 15/29/28 30/60/17 33/59/17
f 34/54/14 29/53/14 19/75/29 20/76/29
f 18/72/30 17/71/30 38/77/30 37/78/30
f 17/70/30 20/69/30 39/34/30 38/33/30
f 20/76/30 19/75/30 40/79/30 39/80/30
f 19/74/30 18/73/30 37/81/30 40/82/30
f 42/83/30 41/36/30 44/35/30 43/84/30
f 37/78/4 38/77/4 41/36/4 42/83/4
f 39/80/5 40/79/5 43/84/5 44/35/5
f 40/82/2 37/81/2 42/83/2 43/84/2
f 2/9/1 3/2/1 4/1/1 1/11/1
f 45/85/3 53/86/3 54/87/3 47/88/3
f 47/88/4 54/89/4 55/90/4 51/91/4
f 51/91/2 55/92/2 56/93/2 49/94/2
f 49/94/5 56/95/5 53/96/5 45/85/5
f 47/88/1 51/91/1 49/94/1 45/85/1
f 46/97/30 48/98/30 54/87/30 53/86/30
f 48/99/30 52/100/30 55/90/30 54/89/30
f 52/101/30 50/102/30 56/93/30 55/92/30
f 50/103/30 46/104/30 53/96/30 56/95/30
f 58/105/31 62/106/32 64/107/32 61/108/31
f 61/108/33 64/107/33 65/109/34 60/110/34
f 60/110/34 65/109/34 66/111/35 59/112/35
f 59/112/35 66/111/35 63/113/36 57/114/36
f 62/115/32 67/116/37 69/117/37 64/118/32
f 64/118/38 69/117/38 70/119/39 65/120/39
f 65/120/39 70/119/39 71/121/40 66/122/40
f 66/122/40 71/121/40 68/123/41 63/124/41
f 67/125/37 72/126/42 74/127/42 69/128/37
f 69/128/43 74/127/43 75/129/44 70/130/44
f 70/130/44 75/129/44 76/131/45 71/132/45
f 71/132/45 76/131/45 73/133/46 68/134/46
f 72/135/42 58/136/31 61/137/31 74/138/42
f 74/138/47 61/137/47 60/139/48 75/140/48
f 75/140/48 60/139/48 59/141/49 76/142/49
f 76/142/49 59/141/49 57/143/50 73/144/50
f 48/98/51 46/97/51 57/114/36 63/113/36
f 46/104/52 50/103/52 73/144/50 57/143/50
f 52/100/53 48/99/53 63/124/41 68/123/41
f 50/102/54 52/101/54 68/134/46 73/133/46
f 239/145/30 244/146/30 77/147/30 78/148/30
f 79/149/4 82/150/4 81/151/4
f 82/150/4 83/152/4 81/151/4
f 83/152/4 80/153/4 81/151/4
f 84/154/4 87/155/4 86/156/4
f 87/155/4 88/157/4 86/156/4
f 88/157/4 85/158/4 86/156/4
f 89/159/4 92/160/4 91/161/4
f 92/160/4 93/162/4 91/161/4
f 93/162/4 90/163/4 91/161/4
f 94/164/4 97/165/4 96/166/4
f 97/165/4 98/167/4 96/166/4
f 98/167/4 95/168/4 96/166/4
f 99/169/2 102/170/2 101/171/2
f 102/170/2 103/172/2 101/171/2
f 103/172/2 100/173/2 101/171/2
f 104/174/2 107/175/2 106/176/2
f 107/175/2 108/177/2 106/176/2
f 108/177/2 105/178/2 106/176/2
f 109/179/2 112/180/2 111/181/2
f 112/180/2 113/182/2 111/181/2
f 113/182/2 110/183/2 111/181/2
f 114/184/2 117/185/2 116/186/2
f 117/185/2 118/187/2 116/186/2
f 118/187/2 115/188/2 116/186/2
f 119/189/5 122/190/5 121/191/5
f 122/190/5 123/192/5 121/191/5
f 123/192/5 120/193/5 121/191/5
f 124/194/5 127/195/5 126/196/5
f 127/195/5 128/197/5 126/196/5
f 128/197/5 125/198/5 126/196/5
f 129/199/5 132/200/5 131/201/5
f 132/200/5 133/202/5 131/201/5
f 133/202/5 130/203/5 131/201/5
f 134/204/5 137/205/5 136/206/5
f 137/205/5 138/207/5 136/206/5
f 138/207/5 135/208/5 136/206/5
f 139/209/3 142/210/3 141/211/3
f 142/210/3 143/212/3 141/211/3
f 143/212/3 140/213/3 141/211/3
f 144/214/3 147/215/3 146/216/3
f 147/215/3 148/217/3 146/216/3
f 148/217/3 145/218/3 146/216/3
f 149/219/3 152/220/3 151/221/3
f 152/220/3 153/222/3 151/221/3
f 153/222/3 150/223/3 151/221/3
f 154/224/3 157/225/3 156/226/3
f 157/225/3 158/227/3 156/226/3
f 158/227/3 155/228/3 156/226/3
f 104/174/55 180/229/55 182/230/56 107/175/56
f 107/175/56 182/230/56 181/231/57 108/177/57
f 108/177/57 181/231/57 179/232/58 105/178/58
f 175/233/59 100/173/59 103/172/60 177/234/60
f 177/234/60 103/172/60 102/170/61 178/235/61
f 178/235/61 102/170/61 99/169/62 176/236/62
f 79/149/63 160/237/63 162/238/64 82/150/64
f 82/150/64 162/238/64 161/239/65 83/152/65
f 83/152/65 161/239/65 159/240/66 80/153/66
f 171/241/67 95/168/67 98/167/68 173/242/68
f 173/242/68 98/167/68 97/165/69 174/243/69
f 174/243/69 97/165/69 94/164/70 172/244/70
f 124/194/66 196/245/66 198/246/65 127/195/65
f 127/195/65 198/246/65 197/247/64 128/197/64
f 128/197/64 197/247/64 195/248/63 125/198/63
f 191/249/71 120/193/71 123/192/72 193/250/72
f 193/250/72 123/192/72 122/190/73 194/251/73
f 194/251/73 122/190/73 119/189/74 192/252/74
f 187/253/75 115/188/75 118/187/76 189/254/76
f 189/254/76 118/187/76 117/185/77 190/255/77
f 190/255/77 117/185/77 114/184/78 188/256/78
f 144/214/59 212/257/59 214/258/60 147/215/60
f 147/215/60 214/258/60 213/259/61 148/217/61
f 148/217/61 213/259/61 211/260/62 145/218/62
f 207/261/55 140/213/55 143/212/56 209/262/56
f 209/262/56 143/212/56 142/210/57 210/263/57
f 210/263/57 142/210/57 139/209/58 208/264/58
f 89/159/79 168/265/79 170/266/80 92/160/80
f 92/160/80 170/266/80 169/267/81 93/162/81
f 93/162/81 169/267/81 167/268/82 90/163/82
f 163/269/74 85/158/74 88/157/73 165/270/73
f 165/270/73 88/157/73 87/155/72 166/271/72
f 166/271/72 87/155/72 84/154/71 164/272/71
f 203/273/79 135/208/79 138/207/80 205/274/80
f 205/274/80 138/207/80 137/205/81 206/275/81
f 206/275/81 137/205/81 134/204/82 204/276/82
f 109/179/83 184/277/83 186/278/84 112/180/84
f 112/180/84 186/278/84 185/279/85 113/182/85
f 113/182/85 185/279/85 183/280/86 110/183/86
f 219/281/83 155/228/83 158/227/84 221/282/84
f 221/282/84 158/227/84 157/225/85 222/283/85
f 222/283/85 157/225/85 154/224/86 220/284/86
f 129/199/67 200/285/67 202/286/68 132/200/68
f 132/200/68 202/286/68 201/287/69 133/202/69
f 133/202/69 201/287/69 199/288/70 130/203/70
f 149/219/75 216/289/75 218/290/76 152/220/76
f 152/220/76 218/290/76 217/291/77 153/222/77
f 153/222/77 217/291/77 215/292/78 150/223/78
f 79/149/30 85/158/30 163/269/30 160/237/30
f 239/293/4 67/294/4 81/151/4 80/153/4 94/164/4 96/166/4
f 67/294/4 62/295/4 86/156/4 85/158/4 79/149/4 81/151/4
f 94/164/3 80/153/3 159/240/3 172/244/3
f 84/154/2 90/163/2 167/268/2 164/272/2
f 62/295/4 244/296/4 91/161/4 90/163/4 84/154/4 86/156/4
f 89/159/1 95/168/1 171/241/1 168/265/1
f 244/296/4 239/293/4 96/166/4 95/168/4 89/159/4 91/161/4
f 72/297/2 67/298/2 106/176/2 105/178/2 99/169/2 101/171/2
f 114/184/4 100/173/4 175/233/4 188/256/4
f 99/169/30 105/178/30 179/232/30 176/236/30
f 78/299/2 72/297/2 101/171/2 100/173/2 114/184/2 116/186/2
f 104/174/5 110/183/5 183/280/5 180/229/5
f 67/298/2 239/300/2 111/181/2 110/183/2 104/174/2 106/176/2
f 109/179/1 115/188/1 187/253/1 184/277/1
f 239/300/2 78/299/2 116/186/2 115/188/2 109/179/2 111/181/2
f 58/301/5 72/297/5 126/196/5 125/198/5 119/189/5 121/191/5
f 134/204/2 120/193/2 191/249/2 204/276/2
f 119/189/30 125/198/30 195/248/30 192/252/30
f 77/302/5 58/301/5 121/191/5 120/193/5 134/204/5 136/206/5
f 124/194/3 130/203/3 199/288/3 196/245/3
f 72/297/5 78/299/5 131/201/5 130/203/5 124/194/5 126/196/5
f 129/199/1 135/208/1 203/273/1 200/285/1
f 78/299/5 77/302/5 136/206/5 135/208/5 129/199/5 131/201/5
f 139/209/30 145/218/30 211/260/30 208/264/30
f 244/303/3 62/304/3 141/211/3 140/213/3 154/224/3 156/226/3
f 62/304/3 58/305/3 146/216/3 145/218/3 139/209/3 141/211/3
f 154/224/5 140/213/5 207/261/5 220/284/5
f 144/214/4 150/223/4 215/292/4 212/257/4
f 58/305/3 77/306/3 151/221/3 150/223/3 144/214/3 146/216/3
f 149/219/1 155/228/1 219/281/1 216/289/1
f 77/306/3 244/303/3 156/226/3 155/228/3 149/219/3 151/221/3
f 159/240/4 161/239/4 162/238/4 160/237/4 163/269/4 165/270/4 166/271/4 164/272/4 167/268/4 169/267/4 170/266/4 168/265/4 171/241/4 173/242/4 174/243/4 172/244/4
f 175/233/2 177/234/2 178/235/2 176/236/2 179/232/2 181/231/2 182/230/2 180/229/2 183/280/2 185/279/2 186/278/2 184/277/2 187/253/2 189/254/2 190/255/2 188/256/2
f 191/249/5 193/250/5 194/251/5 192/252/5 195/248/5 197/247/5 198/246/5 196/245/5 199/288/5 201/287/5 202/286/5 200/285/5 203/273/5 205/274/5 206/275/5 204/276/5
f 207/261/3 209/262/3 210/263/3 208/264/3 211/260/3 213/259/3 214/258/3 212/257/3 215/292/3 217/291/3 218/290/3 216/289/3 219/281/3 221/282/3 222/283/3 220/284/3
f 223/307/2 231/308/2 232/309/2 225/310/2
f 225/310/4 232/311/4 233/312/4 229/313/4
f 229/313/3 233/314/3 234/315/3 227/316/3
f 227/316/5 234/317/5 231/318/5 223/307/5
f 224/319/1 226/320/1 232/309/1 231/308/1
f 226/321/1 230/322/1 233/312/1 232/311/1
f 230/323/1 228/324/1 234/315/1 233/314/1
f 228/325/1 224/326/1 231/318/1 234/317/1
f 78/327/87 239/328/88 241/329/88 238/330/87
f 238/330/89 241/329/89 242/331/90 237/332/90
f 237/332/90 242/331/90 243/333/91 236/334/91
f 236/334/91 243/333/91 240/335/92 235/336/92
f 239/337/88 244/338/93 246/339/93 241/340/88
f 241/340/94 246/339/94 247/341/95 242/342/95
f 242/342/95 247/341/95 248/343/96 243/344/96
f 243/344/96 248/343/96 245/345/97 240/346/97
f 244/347/93 77/348/98 250/349/98 246/350/93
f 246/350/99 250/349/99 251/351/100 247/352/100
f 247/352/100 251/351/100 252/353/101 248/354/101
f 248/354/101 252/353/101 249/355/102 245/356/102
f 77/357/98 78/358/87 238/359/87 250/360/98
f 250/360/103 238/359/103 237/361/104 251/362/104
f 251/362/104 237/361/104 236/363/105 252/364/105
f 252/364/105 236/363/105 235/365/106 249/366/106
f 226/320/107 224/319/107 235/336/92 240/335/92
f 224/326/108 228/325/108 249/366/106 235/365/106
f 230/322/109 226/321/109 240/346/97 245/345/97
f 228/324/110 230/323/110 245/356/102 249/355/102
f 225/310/30 229/313/30 254/367/30 253/368/30
f 229/313/30 227/316/30 255/369/30 254/367/30
f 227/316/30 223/307/30 256/370/30 255/369/30
f 223/307/30 225/310/30 253/368/30 256/370/30
f 255/369/30 256/370/30 253/368/30 254/367/30
f 265/371/3 268/372/3 267/373/3
f 268/372/3 269/374/3 267/373/3
f 269/374/3 266/375/3 267/373/3
f 270/376/3 273/377/3 272/378/3
f 273/377/3 274/379/3 272/378/3
f 274/379/3 271/380/3 272/378/3
f 275/381/3 278/382/3 277/383/3
f 278/382/3 279/384/3 277/383/3
f 279/384/3 276/385/3 277/383/3
f 280/386/3 283/387/3 282/388/3
f 283/387/3 284/389/3 282/388/3
f 284/389/3 281/390/3 282/388/3
f 285/391/4 288/392/4 287/393/4
f 288/392/4 289/394/4 287/393/4
f 289/394/4 286/395/4 287/393/4
f 290/396/4 293/397/4 292/398/4
f 293/397/4 294/399/4 292/398/4
f 294/399/4 291/400/4 292/398/4
f 295/401/4 298/402/4 297/403/4
f 298/402/4 299/404/4 297/403/4
f 299/404/4 296/405/4 297/403/4
f 300/406/4 303/407/4 302/408/4
f 303/407/4 304/409/4 302/408/4
f 304/409/4 301/410/4 302/408/4
f 305/411/5 308/412/5 307/413/5
f 308/412/5 309/414/5 307/413/5
f 309/414/5 306/415/5 307/413/5
f 310/416/5 313/417/5 312/418/5
f 313/417/5 314/419/5 312/418/5
f 314/419/5 311/420/5 312/418/5
f 315/421/5 318/422/5 317/423/5
f 318/422/5 319/424/5 317/423/5
f 319/424/5 316/425/5 317/423/5
f 320/426/5 323/427/5 322/428/5
f 323/427/5 324/429/5 322/428/5
f 324/429/5 321/430/5 322/428/5
f 325/431/2 328/432/2 327/433/2
f 328/432/2 329/434/2 327/433/2
f 329/434/2 326/435/2 327/433/2
f 330/436/2 333/437/2 332/438/2
f 333/437/2 334/439/2 332/438/2
f 334/439/2 331/440/2 332/438/2
f 335/441/2 338/442/2 337/443/2
f 338/442/2 339/444/2 337/443/2
f 339/444/2 336/445/2 337/443/2
f 340/446/2 343/447/2 342/448/2
f 343/447/2 344/449/2 342/448/2
f 344/449/2 341/450/2 342/448/2
f 270/376/111 346/451/111 348/452/112 273/377/112
f 273/377/113 348/452/113 347/453/113 274/379/113
f 274/379/114 347/453/114 345/454/115 271/380/115
f 349/455/116 266/375/116 269/374/117 351/456/117
f 351/456/118 269/374/118 268/372/118 352/457/118
f 352/457/119 268/372/119 265/371/120 350/458/120
f 290/396/121 362/459/121 364/460/122 293/397/122
f 293/397/123 364/460/123 363/461/123 294/399/123
f 294/399/124 363/461/124 361/462/125 291/400/125
f 365/463/126 286/395/126 289/394/127 367/464/127
f 367/464/128 289/394/128 288/392/128 368/465/128
f 368/465/129 288/392/129 285/391/130 366/466/130
f 353/467/131 281/390/131 284/389/132 355/468/132
f 355/468/133 284/389/133 283/387/133 356/469/133
f 356/469/134 283/387/134 280/386/135 354/470/135
f 310/416/126 378/471/126 380/472/127 313/417/127
f 313/417/128 380/472/128 379/473/128 314/419/128
f 314/419/129 379/473/129 377/474/130 311/420/130
f 381/475/121 306/415/121 309/414/122 383/476/122
f 383/476/123 309/414/123 308/412/123 384/477/123
f 384/477/124 308/412/124 305/411/125 382/478/125
f 369/479/136 301/410/136 304/409/137 371/480/137
f 371/480/138 304/409/138 303/407/138 372/481/138
f 372/481/139 303/407/139 300/406/140 370/482/140
f 330/436/116 394/483/116 396/484/117 333/437/117
f 333/437/118 396/484/118 395/485/118 334/439/118
f 334/439/119 395/485/119 393/486/120 331/440/120
f 397/487/111 326/435/111 329/434/112 399/488/112
f 399/488/113 329/434/113 328/432/113 400/489/113
f 400/489/114 328/432/114 325/431/115 398/490/115
f 275/381/141 358/491/141 360/492/142 278/382/142
f 278/382/143 360/492/143 359/493/143 279/384/143
f 279/384/144 359/493/144 357/494/145 276/385/145
f 385/495/146 321/430/146 324/429/147 387/496/147
f 387/496/148 324/429/148 323/427/148 388/497/148
f 388/497/149 323/427/149 320/426/150 386/498/150
f 295/401/146 374/499/146 376/500/147 298/402/147
f 298/402/148 376/500/148 375/501/148 299/404/148
f 299/404/149 375/501/149 373/502/150 296/405/150
f 401/503/141 341/450/141 344/449/142 403/504/142
f 403/504/143 344/449/143 343/447/143 404/505/143
f 404/505/144 343/447/144 340/446/145 402/506/145
f 315/421/136 390/507/136 392/508/137 318/422/137
f 318/422/138 392/508/138 391/509/138 319/424/138
f 319/424/139 391/509/139 389/510/140 316/425/140
f 335/441/131 406/511/131 408/512/132 338/442/132
f 338/442/133 408/512/133 407/513/133 339/444/133
f 339/444/134 407/513/134 405/514/135 336/445/135
f 258/515/3 259/516/3 272/378/3 271/380/3 265/371/3 267/373/3
f 280/386/135 266/375/116 349/455/116 354/470/135
f 265/371/120 271/380/115 345/454/115 350/458/120
f 261/517/3 258/515/3 267/373/3 266/375/3 280/386/3 282/388/3
f 270/376/111 276/385/145 357/494/145 346/451/111
f 259/516/3 264/518/3 277/383/3 276/385/3 270/376/3 272/378/3
f 275/381/141 281/390/131 353/467/131 358/491/141
f 264/518/3 261/517/3 282/388/3 281/390/3 275/381/3 277/383/3
f 257/519/4 258/520/4 292/398/4 291/400/4 285/391/4 287/393/4
f 300/406/140 286/395/126 365/463/126 370/482/140
f 285/391/130 291/400/125 361/462/125 366/466/130
f 262/521/4 257/519/4 287/393/4 286/395/4 300/406/4 302/408/4
f 290/396/121 296/405/150 373/502/150 362/459/121
f 258/520/4 261/522/4 297/403/4 296/405/4 290/396/4 292/398/4
f 295/401/146 301/410/136 369/479/136 374/499/146
f 261/522/4 262/521/4 302/408/4 301/410/4 295/401/4 297/403/4
f 259/523/5 260/524/5 312/418/5 311/420/5 305/411/5 307/413/5
f 320/426/150 306/415/121 381/475/121 386/498/150
f 305/411/125 311/420/130 377/474/130 382/478/125
f 264/525/5 259/523/5 307/413/5 306/415/5 320/426/5 322/428/5
f 310/416/126 316/425/140 389/510/140 378/471/126
f 260/524/5 263/526/5 317/423/5 316/425/5 310/416/5 312/418/5
f 315/421/136 321/430/146 385/495/146 390/507/136
f 263/526/5 264/525/5 322/428/5 321/430/5 315/421/5 317/423/5
f 325/431/115 331/440/120 393/486/120 398/490/115
f 263/527/2 260/528/2 327/433/2 326/435/2 340/446/2 342/448/2
f 260/528/2 257/529/2 332/438/2 331/440/2 325/431/2 327/433/2
f 340/446/145 326/435/111 397/487/111 402/506/145
f 330/436/116 336/445/135 405/514/135 394/483/116
f 257/529/2 262/530/2 337/443/2 336/445/2 330/436/2 332/438/2
f 335/441/131 341/450/141 401/503/141 406/511/131
f 262/530/2 263/527/2 342/448/2 341/450/2 335/441/2 337/443/2
f 349/455/3 351/456/3 352/457/3 350/458/3 345/454/3 347/453/3 348/452/3 346/451/3 357/494/3 359/493/3 360/492/3 358/491/3 353/467/3 355/468/3 356/469/3 354/470/3
f 365/463/4 367/464/4 368/465/4 366/466/4 361/462/4 363/461/4 364/460/4 362/459/4 373/502/4 375/501/4 376/500/4 374/499/4 369/479/4 371/480/4 372/481/4 370/482/4
f 381/475/5 383/476/5 384/477/5 382/478/5 377/474/5 379/473/5 380/472/5 378/471/5 389/510/5 391/509/5 392/508/5 390/507/5 385/495/5 387/496/5 388/497/5 386/498/5
f 397/487/2 399/488/2 400/489/2 398/490/2 393/486/2 395/485/2 396/484/2 394/483/2 405/514/2 407/513/2 408/512/2 406/511/2 401/503/2 403/504/2 404/505/2 402/506/2
