# Blender 5.0.1
# www.blender.org
o Cube.003
v -0.073676 0.926030 0.076139
v -0.073676 0.959446 0.076139
v -0.073676 0.926030 -0.661880
v -0.073676 0.959446 -0.661880
v 1.106195 0.926030 0.076139
v 1.106195 0.959446 0.076139
v 1.106195 0.926030 -0.661880
v 1.106195 0.959446 -0.661880
v 0.000000 0.000136 -0.028173
v 0.000000 0.023438 -0.018487
v 0.016560 0.000136 -0.022793
v 0.010867 0.023438 -0.014957
v 0.026794 0.000136 -0.008706
v 0.017582 0.023438 -0.005713
v 0.026794 0.000137 0.008706
v 0.017582 0.023438 0.005713
v 0.016560 0.000137 0.022793
v 0.010867 0.023438 0.014956
v 0.000000 0.000137 0.028173
v 0.000000 0.023438 0.018487
v -0.016560 0.000137 0.022793
v -0.010867 0.023438 0.014956
v -0.026794 0.000137 0.008706
v -0.017582 0.023438 0.005713
v -0.026794 0.000136 -0.008706
v -0.017582 0.023438 -0.005713
v -0.016560 0.000136 -0.022793
v -0.010867 0.023438 -0.014957
v 0.016560 0.023438 -0.022793
v 0.000000 0.023438 -0.028173
v 0.026794 0.023438 -0.008706
v 0.026794 0.023438 0.008706
v 0.016560 0.023438 0.022792
v 0.000000 0.023438 0.028173
v -0.016560 0.023438 0.022792
v -0.026794 0.023438 0.008706
v -0.026794 0.023438 -0.008706
v -0.016560 0.023438 -0.022793
v 0.010867 0.123180 -0.014957
v 0.000000 0.123180 -0.018487
v 0.017582 0.123180 -0.005713
v 0.017582 0.123180 0.005713
v 0.010867 0.123180 0.014956
v 0.000000 0.123180 0.018487
v -0.010867 0.123180 0.014956
v -0.017582 0.123180 0.005713
v -0.017582 0.123180 -0.005713
v -0.010867 0.123180 -0.014957
v 0.015501 0.123180 -0.021336
v 0.000000 0.123180 -0.026372
v 0.025082 0.123180 -0.008150
v 0.025082 0.123180 0.008149
v 0.015501 0.123180 0.021336
v 0.000000 0.123180 0.026372
v -0.015501 0.123180 0.021336
v -0.025082 0.123180 0.008149
v -0.025082 0.123180 -0.008150
v -0.015501 0.123180 -0.021336
v 0.010751 0.146367 -0.014798
v 0.000000 0.146367 -0.018291
v 0.017396 0.146367 -0.005652
v 0.017396 0.146367 0.005652
v 0.010751 0.146367 0.014797
v 0.000000 0.146367 0.018291
v -0.010751 0.146367 0.014797
v -0.017396 0.146367 0.005652
v -0.017396 0.146367 -0.005652
v -0.010751 0.146367 -0.014798
v 0.015501 0.146367 -0.021336
v 0.000000 0.146367 -0.026372
v 0.025082 0.146367 -0.008150
v 0.025082 0.146367 0.008149
v 0.015501 0.146367 0.021336
v 0.000000 0.146367 0.026372
v -0.015501 0.146367 0.021336
v -0.025082 0.146367 0.008149
v -0.025082 0.146367 -0.008150
v -0.015501 0.146367 -0.021336
v 0.007630 0.627257 -0.010502
v 0.000000 0.627257 -0.012982
v 0.012346 0.627257 -0.004012
v 0.012346 0.627257 0.004012
v 0.007630 0.627257 0.010502
v 0.000000 0.627257 0.012982
v -0.007631 0.627257 0.010502
v -0.012346 0.627257 0.004012
v -0.012346 0.627257 -0.004012
v -0.007631 0.627257 -0.010502
v 0.009719 0.688390 -0.013378
v 0.000000 0.688390 -0.016536
v 0.015726 0.688390 -0.005110
v 0.015726 0.688390 0.005110
v 0.009719 0.688390 0.013378
v 0.000000 0.688390 0.016536
v -0.009720 0.688390 0.013378
v -0.015727 0.688390 0.005110
v -0.015727 0.688390 -0.005110
v -0.009720 0.688390 -0.013378
v 0.018568 0.721289 -0.025557
v 0.000000 0.721289 -0.031590
v 0.030044 0.721289 -0.009762
v 0.030044 0.721289 0.009762
v 0.018568 0.721289 0.025557
v 0.000000 0.721289 0.031590
v -0.018569 0.721289 0.025557
v -0.030044 0.721289 0.009762
v -0.030044 0.721289 -0.009762
v -0.018569 0.721289 -0.025557
v 0.015727 0.671793 -0.021647
v 0.014027 0.640592 -0.019306
v 0.017592 0.656126 -0.024214
v 0.000000 0.640592 -0.023863
v 0.000000 0.671793 -0.026757
v 0.000000 0.656126 -0.029930
v 0.025447 0.671793 -0.008268
v 0.022695 0.640592 -0.007374
v 0.028465 0.656126 -0.009249
v 0.025447 0.671793 0.008268
v 0.022695 0.640592 0.007374
v 0.028465 0.656126 0.009249
v 0.015727 0.671793 0.021647
v 0.014027 0.640592 0.019306
v 0.017592 0.656126 0.024214
v 0.000000 0.671793 0.026757
v 0.000000 0.640592 0.023863
v 0.000000 0.656126 0.029930
v -0.015728 0.671793 0.021647
v -0.014027 0.640592 0.019306
v -0.017592 0.656126 0.024214
v -0.025448 0.671793 0.008268
v -0.022695 0.640592 0.007374
v -0.028465 0.656126 0.009249
v -0.025448 0.671793 -0.008268
v -0.022695 0.640592 -0.007374
v -0.028465 0.656126 -0.009249
v -0.015728 0.671793 -0.021647
v -0.014027 0.640592 -0.019306
v -0.017592 0.656126 -0.024214
v 0.018231 0.601971 -0.025093
v 0.020471 0.590454 -0.028176
v 0.000000 0.590454 -0.034828
v 0.000000 0.601971 -0.031016
v 0.029498 0.601971 -0.009584
v 0.033123 0.590454 -0.010762
v 0.029498 0.601971 0.009584
v 0.033123 0.590454 0.010762
v 0.018231 0.601971 0.025093
v 0.020471 0.590454 0.028176
v 0.000000 0.601971 0.031016
v 0.000000 0.590454 0.034828
v -0.018231 0.601971 0.025093
v -0.020471 0.590454 0.028176
v -0.029498 0.601971 0.009584
v -0.033123 0.590454 0.010762
v -0.029498 0.601971 -0.009584
v -0.033123 0.590454 -0.010762
v -0.018231 0.601971 -0.025093
v -0.020471 0.590454 -0.028176
v 0.016649 0.143676 0.022915
v 0.016649 0.125871 0.022915
v 0.018221 0.134773 0.025079
v 0.000000 0.125871 0.028325
v 0.000000 0.143676 0.028325
v 0.000000 0.134773 0.031000
v 0.016649 0.143676 -0.022915
v 0.016649 0.125871 -0.022915
v 0.018221 0.134773 -0.025079
v 0.026939 0.125871 -0.008753
v 0.026939 0.143676 -0.008753
v 0.029482 0.134773 -0.009579
v -0.026939 0.143676 -0.008753
v -0.026939 0.125871 -0.008753
v -0.029482 0.134773 -0.009579
v -0.016649 0.125871 -0.022915
v -0.016649 0.143676 -0.022915
v -0.018221 0.134773 -0.025079
v -0.016649 0.125871 0.022915
v -0.016649 0.143676 0.022915
v -0.018221 0.134773 0.025079
v 0.026939 0.125871 0.008753
v 0.026939 0.143676 0.008753
v 0.029482 0.134773 0.009579
v 0.000000 0.125871 -0.028325
v 0.000000 0.143676 -0.028325
v 0.000000 0.134773 -0.031000
v -0.026939 0.125871 0.008753
v -0.026939 0.143676 0.008753
v -0.029482 0.134773 0.009579
v -0.017445 0.019012 -0.024011
v -0.017445 0.004563 -0.024011
v -0.018043 0.011787 -0.024834
v -0.028226 0.004563 -0.009171
v -0.028226 0.019012 -0.009171
v -0.029194 0.011787 -0.009486
v -0.028226 0.019012 0.009171
v -0.028226 0.004563 0.009171
v -0.029194 0.011787 0.009486
v -0.017445 0.019012 0.024010
v -0.017445 0.004563 0.024011
v -0.018043 0.011787 0.024834
v 0.000000 0.019012 0.029679
v 0.000000 0.004563 0.029679
v 0.000000 0.011787 0.030697
v 0.017445 0.004563 0.024011
v 0.017445 0.019012 0.024010
v 0.018043 0.011787 0.024834
v 0.028226 0.019012 0.009171
v 0.028226 0.004563 0.009171
v 0.029194 0.011787 0.009486
v 0.028226 0.019012 -0.009171
v 0.028226 0.004563 -0.009171
v 0.029194 0.011787 -0.009486
v 0.017445 0.004563 -0.024011
v 0.017445 0.019012 -0.024011
v 0.018043 0.011787 -0.024834
v 0.000000 0.019012 -0.029679
v 0.000000 0.004563 -0.029679
v 0.000000 0.011787 -0.030697
v -0.039139 0.721466 0.039139
v -0.039139 0.925493 0.039139
v -0.039139 0.721466 -0.039139
v -0.039139 0.925493 -0.039139
v 0.039139 0.721466 0.039139
v 0.039139 0.925493 0.039139
v 0.039139 0.721466 -0.039139
v 0.039139 0.925493 -0.039139
v 1.038656 0.000136 -0.028173
v 1.038656 0.023438 -0.018487
v 1.055216 0.000136 -0.022793
v 1.049522 0.023438 -0.014957
v 1.065450 0.000136 -0.008706
v 1.056238 0.023438 -0.005713
v 1.065450 0.000137 0.008706
v 1.056238 0.023438 0.005713
v 1.055216 0.000137 0.022793
v 1.049522 0.023438 0.014956
v 1.038656 0.000137 0.028173
v 1.038656 0.023438 0.018487
v 1.022096 0.000137 0.022793
v 1.027789 0.023438 0.014956
v 1.011861 0.000137 0.008706
v 1.021073 0.023438 0.005713
v 1.011861 0.000136 -0.008706
v 1.021073 0.023438 -0.005713
v 1.022096 0.000136 -0.022793
v 1.027789 0.023438 -0.014957
v 1.055216 0.023438 -0.022793
v 1.038656 0.023438 -0.028173
v 1.065450 0.023438 -0.008706
v 1.065450 0.023438 0.008706
v 1.055216 0.023438 0.022792
v 1.038656 0.023438 0.028173
v 1.022096 0.023438 0.022792
v 1.011861 0.023438 0.008706
v 1.011861 0.023438 -0.008706
v 1.022096 0.023438 -0.022793
v 1.049522 0.123180 -0.014957
v 1.038656 0.123180 -0.018487
v 1.056238 0.123180 -0.005713
v 1.056238 0.123180 0.005713
v 1.049522 0.123180 0.014956
v 1.038656 0.123180 0.018487
v 1.027789 0.123180 0.014956
v 1.021073 0.123180 0.005713
v 1.021073 0.123180 -0.005713
v 1.027789 0.123180 -0.014957
v 1.054157 0.123180 -0.021336
v 1.038656 0.123180 -0.026372
v 1.063737 0.123180 -0.008150
v 1.063737 0.123180 0.008149
v 1.054157 0.123180 0.021336
v 1.038656 0.123180 0.026372
v 1.023154 0.123180 0.021336
v 1.013574 0.123180 0.008149
v 1.013574 0.123180 -0.008150
v 1.023154 0.123180 -0.021336
v 1.049407 0.146367 -0.014798
v 1.038656 0.146367 -0.018291
v 1.056051 0.146367 -0.005652
v 1.056051 0.146367 0.005652
v 1.049407 0.146367 0.014797
v 1.038656 0.146367 0.018291
v 1.027905 0.146367 0.014797
v 1.021260 0.146367 0.005652
v 1.021260 0.146367 -0.005652
v 1.027905 0.146367 -0.014798
v 1.054157 0.146367 -0.021336
v 1.038656 0.146367 -0.026372
v 1.063737 0.146367 -0.008150
v 1.063737 0.146367 0.008149
v 1.054157 0.146367 0.021336
v 1.038656 0.146367 0.026372
v 1.023154 0.146367 0.021336
v 1.013574 0.146367 0.008149
v 1.013574 0.146367 -0.008150
v 1.023154 0.146367 -0.021336
v 1.046286 0.627257 -0.010502
v 1.038656 0.627257 -0.012982
v 1.051002 0.627257 -0.004012
v 1.051002 0.627257 0.004012
v 1.046286 0.627257 0.010502
v 1.038656 0.627257 0.012982
v 1.031025 0.627257 0.010502
v 1.026309 0.627257 0.004012
v 1.026309 0.627257 -0.004012
v 1.031025 0.627257 -0.010502
v 1.048375 0.688390 -0.013378
v 1.038656 0.688390 -0.016536
v 1.054382 0.688390 -0.005110
v 1.054382 0.688390 0.005110
v 1.048375 0.688390 0.013378
v 1.038656 0.688390 0.016536
v 1.028936 0.688390 0.013378
v 1.022929 0.688390 0.005110
v 1.022929 0.688390 -0.005110
v 1.028936 0.688390 -0.013378
v 1.057224 0.721289 -0.025557
v 1.038656 0.721289 -0.031590
v 1.068700 0.721289 -0.009762
v 1.068700 0.721289 0.009762
v 1.057224 0.721289 0.025557
v 1.038656 0.721289 0.031590
v 1.020087 0.721289 0.025557
v 1.008611 0.721289 0.009762
v 1.008611 0.721289 -0.009762
v 1.020087 0.721289 -0.025557
v 1.054383 0.671793 -0.021647
v 1.052682 0.640592 -0.019306
v 1.056248 0.656126 -0.024214
v 1.038656 0.640592 -0.023863
v 1.038656 0.671793 -0.026757
v 1.038656 0.656126 -0.029930
v 1.064103 0.671793 -0.008268
v 1.061351 0.640592 -0.007374
v 1.067121 0.656126 -0.009249
v 1.064103 0.671793 0.008268
v 1.061351 0.640592 0.007374
v 1.067121 0.656126 0.009249
v 1.054383 0.671793 0.021647
v 1.052682 0.640592 0.019306
v 1.056248 0.656126 0.024214
v 1.038656 0.671793 0.026757
v 1.038656 0.640592 0.023863
v 1.038656 0.656126 0.029930
v 1.022928 0.671793 0.021647
v 1.024629 0.640592 0.019306
v 1.021063 0.656126 0.024214
v 1.013208 0.671793 0.008268
v 1.015960 0.640592 0.007374
v 1.010191 0.656126 0.009249
v 1.013208 0.671793 -0.008268
v 1.015960 0.640592 -0.007374
v 1.010191 0.656126 -0.009249
v 1.022928 0.671793 -0.021647
v 1.024629 0.640592 -0.019306
v 1.021063 0.656126 -0.024214
v 1.056887 0.601971 -0.025093
v 1.059127 0.590454 -0.028176
v 1.038656 0.590454 -0.034828
v 1.038656 0.601971 -0.031016
v 1.068154 0.601971 -0.009584
v 1.071779 0.590454 -0.010762
v 1.068154 0.601971 0.009584
v 1.071779 0.590454 0.010762
v 1.056887 0.601971 0.025093
v 1.059127 0.590454 0.028176
v 1.038656 0.601971 0.031016
v 1.038656 0.590454 0.034828
v 1.020425 0.601971 0.025093
v 1.018185 0.590454 0.028176
v 1.009158 0.601971 0.009584
v 1.005533 0.590454 0.010762
v 1.009158 0.601971 -0.009584
v 1.005533 0.590454 -0.010762
v 1.020425 0.601971 -0.025093
v 1.018185 0.590454 -0.028176
v 1.055305 0.143676 0.022915
v 1.055305 0.125871 0.022915
v 1.056877 0.134773 0.025079
v 1.038656 0.125871 0.028325
v 1.038656 0.143676 0.028325
v 1.038656 0.134773 0.031000
v 1.055305 0.143676 -0.022915
v 1.055305 0.125871 -0.022915
v 1.056877 0.134773 -0.025079
v 1.065594 0.125871 -0.008753
v 1.065594 0.143676 -0.008753
v 1.068138 0.134773 -0.009579
v 1.011717 0.143676 -0.008753
v 1.011717 0.125871 -0.008753
v 1.009173 0.134773 -0.009579
v 1.022007 0.125871 -0.022915
v 1.022007 0.143676 -0.022915
v 1.020435 0.134773 -0.025079
v 1.022007 0.125871 0.022915
v 1.022007 0.143676 0.022915
v 1.020435 0.134773 0.025079
v 1.065594 0.125871 0.008753
v 1.065594 0.143676 0.008753
v 1.068138 0.134773 0.009579
v 1.038656 0.125871 -0.028325
v 1.038656 0.143676 -0.028325
v 1.038656 0.134773 -0.031000
v 1.011717 0.125871 0.008753
v 1.011717 0.143676 0.008753
v 1.009173 0.134773 0.009579
v 1.021211 0.019012 -0.024011
v 1.021211 0.004563 -0.024011
v 1.020613 0.011787 -0.024834
v 1.010430 0.004563 -0.009171
v 1.010430 0.019012 -0.009171
v 1.009462 0.011787 -0.009486
v 1.010430 0.019012 0.009171
v 1.010430 0.004563 0.009171
v 1.009462 0.011787 0.009486
v 1.021211 0.019012 0.024010
v 1.021211 0.004563 0.024011
v 1.020613 0.011787 0.024834
v 1.038656 0.019012 0.029679
v 1.038656 0.004563 0.029679
v 1.038656 0.011787 0.030697
v 1.056100 0.004563 0.024011
v 1.056100 0.019012 0.024010
v 1.056699 0.011787 0.024834
v 1.066882 0.019012 0.009171
v 1.066882 0.004563 0.009171
v 1.067850 0.011787 0.009486
v 1.066882 0.019012 -0.009171
v 1.066882 0.004563 -0.009171
v 1.067850 0.011787 -0.009486
v 1.056100 0.004563 -0.024011
v 1.056100 0.019012 -0.024011
v 1.056699 0.011787 -0.024834
v 1.038656 0.019012 -0.029679
v 1.038656 0.004563 -0.029679
v 1.038656 0.011787 -0.030697
v 0.999517 0.721466 0.039139
v 0.999517 0.925493 0.039139
v 0.999517 0.721466 -0.039139
v 0.999517 0.925493 -0.039139
v 1.077795 0.721466 0.039139
v 1.077795 0.925493 0.039139
v 1.077795 0.721466 -0.039139
v 1.077795 0.925493 -0.039139
v 0.064553 0.782597 0.036432
v 0.064553 0.897946 0.036432
v -0.030931 0.755050 -0.634686
v -0.030931 0.925492 -0.634686
v 0.972663 0.782597 0.036432
v 0.972663 0.897946 0.036432
v 1.071601 0.755050 -0.634686
v 1.071601 0.925492 -0.634686
v -0.030931 0.755050 0.036432
v -0.030931 0.925493 0.036432
v 1.071601 0.925493 0.036432
v 1.071601 0.755050 0.036432
v 0.064553 0.782597 0.031206
v 0.064553 0.897946 0.031206
v 0.972663 0.897946 0.031206
v 0.972663 0.782597 0.031206
v 0.000000 0.000136 -0.626439
v 0.000000 0.023438 -0.616753
v 0.016560 0.000136 -0.621058
v 0.010867 0.023438 -0.613222
v 0.026794 0.000136 -0.606972
v 0.017582 0.023438 -0.603979
v 0.026794 0.000136 -0.589560
v 0.017582 0.023438 -0.592553
v 0.016560 0.000136 -0.575473
v 0.010867 0.023438 -0.583309
v 0.000000 0.000136 -0.570093
v 0.000000 0.023438 -0.579779
v -0.016560 0.000136 -0.575473
v -0.010867 0.023438 -0.583309
v -0.026794 0.000136 -0.589560
v -0.017582 0.023438 -0.592553
v -0.026794 0.000136 -0.606972
v -0.017582 0.023438 -0.603979
v -0.016560 0.000136 -0.621058
v -0.010867 0.023438 -0.613222
v 0.016560 0.023438 -0.621058
v 0.000000 0.023438 -0.626439
v 0.026794 0.023438 -0.606972
v 0.026794 0.023438 -0.589560
v 0.016560 0.023438 -0.575473
v 0.000000 0.023438 -0.570093
v -0.016560 0.023438 -0.575473
v -0.026794 0.023438 -0.589560
v -0.026794 0.023438 -0.606972
v -0.016560 0.023438 -0.621058
v 0.010867 0.123180 -0.613222
v 0.000000 0.123180 -0.616753
v 0.017582 0.123180 -0.603979
v 0.017582 0.123180 -0.592553
v 0.010867 0.123180 -0.583309
v 0.000000 0.123180 -0.579779
v -0.010867 0.123180 -0.583309
v -0.017582 0.123180 -0.592553
v -0.017582 0.123180 -0.603979
v -0.010867 0.123180 -0.613222
v 0.015501 0.123180 -0.619601
v 0.000000 0.123180 -0.624638
v 0.025082 0.123180 -0.606415
v 0.025082 0.123180 -0.590116
v 0.015501 0.123180 -0.576930
v 0.000000 0.123180 -0.571893
v -0.015501 0.123180 -0.576930
v -0.025082 0.123180 -0.590116
v -0.025082 0.123180 -0.606415
v -0.015501 0.123180 -0.619601
v 0.010751 0.146367 -0.613063
v 0.000000 0.146367 -0.616556
v 0.017396 0.146367 -0.603918
v 0.017396 0.146367 -0.592613
v 0.010751 0.146367 -0.583468
v 0.000000 0.146367 -0.579975
v -0.010751 0.146367 -0.583468
v -0.017396 0.146367 -0.592613
v -0.017396 0.146367 -0.603918
v -0.010751 0.146367 -0.613063
v 0.015501 0.146367 -0.619601
v 0.000000 0.146367 -0.624638
v 0.025082 0.146367 -0.606415
v 0.025082 0.146367 -0.590116
v 0.015501 0.146367 -0.576930
v 0.000000 0.146367 -0.571893
v -0.015501 0.146367 -0.576930
v -0.025082 0.146367 -0.590116
v -0.025082 0.146367 -0.606415
v -0.015501 0.146367 -0.619601
v 0.007630 0.627256 -0.608768
v 0.000000 0.627256 -0.611247
v 0.012346 0.627256 -0.602277
v 0.012346 0.627256 -0.594254
v 0.007630 0.627256 -0.587763
v 0.000000 0.627256 -0.585284
v -0.007631 0.627256 -0.587763
v -0.012346 0.627256 -0.594254
v -0.012346 0.627256 -0.602277
v -0.007631 0.627256 -0.608768
v 0.009719 0.688390 -0.611643
v 0.000000 0.688390 -0.614802
v 0.015726 0.688390 -0.603376
v 0.015726 0.688390 -0.593156
v 0.009719 0.688390 -0.584888
v 0.000000 0.688390 -0.581730
v -0.009720 0.688390 -0.584888
v -0.015727 0.688390 -0.593156
v -0.015727 0.688390 -0.603376
v -0.009720 0.688390 -0.611643
v 0.018568 0.721289 -0.623823
v 0.000000 0.721289 -0.629856
v 0.030044 0.721289 -0.608028
v 0.030044 0.721289 -0.588504
v 0.018568 0.721289 -0.572709
v 0.000000 0.721289 -0.566675
v -0.018569 0.721289 -0.572709
v -0.030044 0.721289 -0.588504
v -0.030044 0.721289 -0.608028
v -0.018569 0.721289 -0.623823
v 0.015727 0.671793 -0.619913
v 0.014027 0.640591 -0.617572
v 0.017592 0.656126 -0.622479
v 0.000000 0.640591 -0.622129
v 0.000000 0.671793 -0.625023
v 0.000000 0.656126 -0.628196
v 0.025447 0.671793 -0.606534
v 0.022695 0.640591 -0.605640
v 0.028465 0.656126 -0.607515
v 0.025447 0.671793 -0.589997
v 0.022695 0.640591 -0.590892
v 0.028465 0.656126 -0.589017
v 0.015727 0.671793 -0.576619
v 0.014027 0.640591 -0.578960
v 0.017592 0.656126 -0.574052
v 0.000000 0.671793 -0.571509
v 0.000000 0.640591 -0.574403
v 0.000000 0.656126 -0.568336
v -0.015728 0.671793 -0.576619
v -0.014027 0.640591 -0.578960
v -0.017592 0.656126 -0.574052
v -0.025448 0.671793 -0.589997
v -0.022695 0.640591 -0.590892
v -0.028465 0.656126 -0.589017
v -0.025448 0.671793 -0.606534
v -0.022695 0.640591 -0.605640
v -0.028465 0.656126 -0.607515
v -0.015728 0.671793 -0.619913
v -0.014027 0.640591 -0.617572
v -0.017592 0.656126 -0.622479
v 0.018231 0.601971 -0.623358
v 0.020471 0.590454 -0.626442
v 0.000000 0.590454 -0.633093
v 0.000000 0.601971 -0.629282
v 0.029498 0.601971 -0.607850
v 0.033123 0.590454 -0.609028
v 0.029498 0.601971 -0.588681
v 0.033123 0.590454 -0.587504
v 0.018231 0.601971 -0.573173
v 0.020471 0.590454 -0.570090
v 0.000000 0.601971 -0.567250
v 0.000000 0.590454 -0.563438
v -0.018231 0.601971 -0.573173
v -0.020471 0.590454 -0.570090
v -0.029498 0.601971 -0.588681
v -0.033123 0.590454 -0.587504
v -0.029498 0.601971 -0.607850
v -0.033123 0.590454 -0.609028
v -0.018231 0.601971 -0.623358
v -0.020471 0.590454 -0.626442
v 0.016649 0.143676 -0.575351
v 0.016649 0.125871 -0.575351
v 0.018221 0.134773 -0.573187
v 0.000000 0.125871 -0.569941
v 0.000000 0.143676 -0.569941
v 0.000000 0.134773 -0.567266
v 0.016649 0.143676 -0.621181
v 0.016649 0.125871 -0.621181
v 0.018221 0.134773 -0.623345
v 0.026939 0.125871 -0.607019
v 0.026939 0.143676 -0.607019
v 0.029482 0.134773 -0.607845
v -0.026939 0.143676 -0.607019
v -0.026939 0.125871 -0.607019
v -0.029482 0.134773 -0.607845
v -0.016649 0.125871 -0.621181
v -0.016649 0.143676 -0.621181
v -0.018221 0.134773 -0.623345
v -0.016649 0.125871 -0.575351
v -0.016649 0.143676 -0.575351
v -0.018221 0.134773 -0.573187
v 0.026939 0.125871 -0.589513
v 0.026939 0.143676 -0.589513
v 0.029482 0.134773 -0.588686
v 0.000000 0.125871 -0.626590
v 0.000000 0.143676 -0.626590
v 0.000000 0.134773 -0.629265
v -0.026939 0.125871 -0.589513
v -0.026939 0.143676 -0.589513
v -0.029482 0.134773 -0.588686
v -0.017445 0.019012 -0.622277
v -0.017445 0.004563 -0.622277
v -0.018043 0.011787 -0.623100
v -0.028226 0.004563 -0.607437
v -0.028226 0.019012 -0.607437
v -0.029194 0.011787 -0.607751
v -0.028226 0.019012 -0.589094
v -0.028226 0.004563 -0.589094
v -0.029194 0.011787 -0.588780
v -0.017445 0.019012 -0.574255
v -0.017445 0.004563 -0.574255
v -0.018043 0.011787 -0.573432
v 0.000000 0.019012 -0.568587
v 0.000000 0.004563 -0.568587
v 0.000000 0.011787 -0.567569
v 0.017445 0.004563 -0.574255
v 0.017445 0.019012 -0.574255
v 0.018043 0.011787 -0.573432
v 0.028226 0.019012 -0.589094
v 0.028226 0.004563 -0.589094
v 0.029194 0.011787 -0.588780
v 0.028226 0.019012 -0.607437
v 0.028226 0.004563 -0.607437
v 0.029194 0.011787 -0.607751
v 0.017445 0.004563 -0.622277
v 0.017445 0.019012 -0.622277
v 0.018043 0.011787 -0.623100
v 0.000000 0.019012 -0.627944
v 0.000000 0.004563 -0.627944
v 0.000000 0.011787 -0.628962
v -0.039139 0.721465 -0.559127
v -0.039139 0.925492 -0.559127
v -0.039139 0.721465 -0.637405
v -0.039139 0.925492 -0.637405
v 0.039139 0.721465 -0.559127
v 0.039139 0.925492 -0.559127
v 0.039139 0.721465 -0.637405
v 0.039139 0.925492 -0.637405
v 1.038656 0.000136 -0.626439
v 1.038656 0.023438 -0.616753
v 1.055216 0.000136 -0.621058
v 1.049522 0.023438 -0.613222
v 1.065450 0.000136 -0.606972
v 1.056238 0.023438 -0.603979
v 1.065450 0.000136 -0.589560
v 1.056238 0.023438 -0.592553
v 1.055216 0.000136 -0.575473
v 1.049522 0.023438 -0.583309
v 1.038656 0.000136 -0.570093
v 1.038656 0.023438 -0.579779
v 1.022096 0.000136 -0.575473
v 1.027789 0.023438 -0.583309
v 1.011861 0.000136 -0.589560
v 1.021073 0.023438 -0.592553
v 1.011861 0.000136 -0.606972
v 1.021073 0.023438 -0.603979
v 1.022096 0.000136 -0.621058
v 1.027789 0.023438 -0.613222
v 1.055216 0.023438 -0.621058
v 1.038656 0.023438 -0.626439
v 1.065450 0.023438 -0.606972
v 1.065450 0.023438 -0.589560
v 1.055216 0.023438 -0.575473
v 1.038656 0.023438 -0.570093
v 1.022096 0.023438 -0.575473
v 1.011861 0.023438 -0.589560
v 1.011861 0.023438 -0.606972
v 1.022096 0.023438 -0.621058
v 1.049522 0.123180 -0.613222
v 1.038656 0.123180 -0.616753
v 1.056238 0.123180 -0.603979
v 1.056238 0.123180 -0.592553
v 1.049522 0.123180 -0.583309
v 1.038656 0.123180 -0.579779
v 1.027789 0.123180 -0.583309
v 1.021073 0.123180 -0.592553
v 1.021073 0.123180 -0.603979
v 1.027789 0.123180 -0.613222
v 1.054157 0.123180 -0.619601
v 1.038656 0.123180 -0.624638
v 1.063737 0.123180 -0.606415
v 1.063737 0.123180 -0.590116
v 1.054157 0.123180 -0.576930
v 1.038656 0.123180 -0.571893
v 1.023154 0.123180 -0.576930
v 1.013574 0.123180 -0.590116
v 1.013574 0.123180 -0.606415
v 1.023154 0.123180 -0.619601
v 1.049407 0.146367 -0.613063
v 1.038656 0.146367 -0.616556
v 1.056051 0.146367 -0.603918
v 1.056051 0.146367 -0.592613
v 1.049407 0.146367 -0.583468
v 1.038656 0.146367 -0.579975
v 1.027905 0.146367 -0.583468
v 1.021260 0.146367 -0.592613
v 1.021260 0.146367 -0.603918
v 1.027905 0.146367 -0.613063
v 1.054157 0.146367 -0.619601
v 1.038656 0.146367 -0.624638
v 1.063737 0.146367 -0.606415
v 1.063737 0.146367 -0.590116
v 1.054157 0.146367 -0.576930
v 1.038656 0.146367 -0.571893
v 1.023154 0.146367 -0.576930
v 1.013574 0.146367 -0.590116
v 1.013574 0.146367 -0.606415
v 1.023154 0.146367 -0.619601
v 1.046286 0.627256 -0.608768
v 1.038656 0.627256 -0.611247
v 1.051002 0.627256 -0.602277
v 1.051002 0.627256 -0.594254
v 1.046286 0.627256 -0.587763
v 1.038656 0.627256 -0.585284
v 1.031025 0.627256 -0.587763
v 1.026309 0.627256 -0.594254
v 1.026309 0.627256 -0.602277
v 1.031025 0.627256 -0.608768
v 1.048375 0.688390 -0.611643
v 1.038656 0.688390 -0.614802
v 1.054382 0.688390 -0.603376
v 1.054382 0.688390 -0.593156
v 1.048375 0.688390 -0.584888
v 1.038656 0.688390 -0.581730
v 1.028936 0.688390 -0.584888
v 1.022929 0.688390 -0.593156
v 1.022929 0.688390 -0.603376
v 1.028936 0.688390 -0.611643
v 1.057224 0.721289 -0.623823
v 1.038656 0.721289 -0.629856
v 1.068700 0.721289 -0.608028
v 1.068700 0.721289 -0.588504
v 1.057224 0.721289 -0.572709
v 1.038656 0.721289 -0.566675
v 1.020087 0.721289 -0.572709
v 1.008611 0.721289 -0.588504
v 1.008611 0.721289 -0.608028
v 1.020087 0.721289 -0.623823
v 1.054383 0.671793 -0.619913
v 1.052682 0.640591 -0.617572
v 1.056248 0.656126 -0.622479
v 1.038656 0.640591 -0.622129
v 1.038656 0.671793 -0.625023
v 1.038656 0.656126 -0.628196
v 1.064103 0.671793 -0.606534
v 1.061351 0.640591 -0.605640
v 1.067121 0.656126 -0.607515
v 1.064103 0.671793 -0.589997
v 1.061351 0.640591 -0.590892
v 1.067121 0.656126 -0.589017
v 1.054383 0.671793 -0.576619
v 1.052682 0.640591 -0.578960
v 1.056248 0.656126 -0.574052
v 1.038656 0.671793 -0.571509
v 1.038656 0.640591 -0.574403
v 1.038656 0.656126 -0.568336
v 1.022928 0.671793 -0.576619
v 1.024629 0.640591 -0.578960
v 1.021063 0.656126 -0.574052
v 1.013208 0.671793 -0.589997
v 1.015960 0.640591 -0.590892
v 1.010191 0.656126 -0.589017
v 1.013208 0.671793 -0.606534
v 1.015960 0.640591 -0.605640
v 1.010191 0.656126 -0.607515
v 1.022928 0.671793 -0.619913
v 1.024629 0.640591 -0.617572
v 1.021063 0.656126 -0.622479
v 1.056887 0.601971 -0.623358
v 1.059127 0.590454 -0.626442
v 1.038656 0.590454 -0.633093
v 1.038656 0.601971 -0.629282
v 1.068154 0.601971 -0.607850
v 1.071779 0.590454 -0.609028
v 1.068154 0.601971 -0.588681
v 1.071779 0.590454 -0.587504
v 1.056887 0.601971 -0.573173
v 1.059127 0.590454 -0.570090
v 1.038656 0.601971 -0.567250
v 1.038656 0.590454 -0.563438
v 1.020425 0.601971 -0.573173
v 1.018185 0.590454 -0.570090
v 1.009158 0.601971 -0.588681
v 1.005533 0.590454 -0.587504
v 1.009158 0.601971 -0.607850
v 1.005533 0.590454 -0.609028
v 1.020425 0.601971 -0.623358
v 1.018185 0.590454 -0.626442
v 1.055305 0.143676 -0.575351
v 1.055305 0.125871 -0.575351
v 1.056877 0.134773 -0.573187
v 1.038656 0.125871 -0.569941
v 1.038656 0.143676 -0.569941
v 1.038656 0.134773 -0.567266
v 1.055305 0.143676 -0.621181
v 1.055305 0.125871 -0.621181
v 1.056877 0.134773 -0.623345
v 1.065594 0.125871 -0.607019
v 1.065594 0.143676 -0.607019
v 1.068138 0.134773 -0.607845
v 1.011717 0.143676 -0.607019
v 1.011717 0.125871 -0.607019
v 1.009173 0.134773 -0.607845
v 1.022007 0.125871 -0.621181
v 1.022007 0.143676 -0.621181
v 1.020435 0.134773 -0.623345
v 1.022007 0.125871 -0.575351
v 1.022007 0.143676 -0.575351
v 1.020435 0.134773 -0.573187
v 1.065594 0.125871 -0.589513
v 1.065594 0.143676 -0.589513
v 1.068138 0.134773 -0.588686
v 1.038656 0.125871 -0.626590
v 1.038656 0.143676 -0.626590
v 1.038656 0.134773 -0.629265
v 1.011717 0.125871 -0.589513
v 1.011717 0.143676 -0.589513
v 1.009173 0.134773 -0.588686
v 1.021211 0.019012 -0.622277
v 1.021211 0.004563 -0.622277
v 1.020613 0.011787 -0.623100
v 1.010430 0.004563 -0.607437
v 1.010430 0.019012 -0.607437
v 1.009462 0.011787 -0.607751
v 1.010430 0.019012 -0.589094
v 1.010430 0.004563 -0.589094
v 1.009462 0.011787 -0.588780
v 1.021211 0.019012 -0.574255
v 1.021211 0.004563 -0.574255
v 1.020613 0.011787 -0.573432
v 1.038656 0.019012 -0.568587
v 1.038656 0.004563 -0.568587
v 1.038656 0.011787 -0.567569
v 1.056100 0.004563 -0.574255
v 1.056100 0.019012 -0.574255
v 1.056699 0.011787 -0.573432
v 1.066882 0.019012 -0.589094
v 1.066882 0.004563 -0.589094
v 1.067850 0.011787 -0.588780
v 1.066882 0.019012 -0.607437
v 1.066882 0.004563 -0.607437
v 1.067850 0.011787 -0.607751
v 1.056100 0.004563 -0.622277
v 1.056100 0.019012 -0.622277
v 1.056699 0.011787 -0.623100
v 1.038656 0.019012 -0.627944
v 1.038656 0.004563 -0.627944
v 1.038656 0.011787 -0.628962
v 0.999517 0.721465 -0.559127
v 0.999517 0.925492 -0.559127
v 0.999517 0.721465 -0.637405
v 0.999517 0.925492 -0.637405
v 1.077795 0.721465 -0.559127
v 1.077795 0.925492 -0.559127
v 1.077795 0.721465 -0.637405
v 1.077795 0.925492 -0.637405
vn -1.0000 -0.0000 -0.0000
vn -0.0000 -0.0000 -1.0000
vn 1.0000 -0.0000 -0.0000
vn -0.0000 -0.0000 1.0000
vn -0.0000 -1.0000 -0.0000
vn -0.0000 1.0000 -0.0000
vn -0.9511 -0.0000 -0.3090
vn -0.9511 -0.0000 0.3090
vn 0.5878 -0.0000 0.8090
vn 0.9511 -0.0000 -0.3090
vn 0.5878 -0.0000 -0.8090
vn -0.5878 -0.0000 -0.8090
vn -0.5878 -0.0000 0.8090
vn 0.9511 -0.0000 0.3090
vn -0.8648 -0.4161 -0.2810
vn -0.8648 -0.4161 0.2810
vn -0.0000 -0.4161 0.9093
vn 0.5345 -0.4161 0.7357
vn 0.8648 -0.4161 -0.2810
vn 0.5345 -0.4161 -0.7357
vn -0.5345 -0.4161 -0.7357
vn -0.5345 -0.4161 0.7357
vn 0.8648 -0.4161 0.2810
vn -0.0000 -0.4161 -0.9093
vn 0.5120 -0.4912 -0.7047
vn -0.0000 -0.4912 -0.8710
vn -0.0000 -0.0817 -0.9967
vn 0.5858 -0.0817 -0.8063
vn -0.0000 0.3558 -0.9346
vn 0.5493 0.3558 -0.7561
vn 0.8284 -0.4912 -0.2692
vn 0.9479 -0.0817 -0.3080
vn 0.8888 0.3558 -0.2888
vn 0.8284 -0.4912 0.2692
vn 0.9479 -0.0817 0.3080
vn 0.8888 0.3558 0.2888
vn 0.5120 -0.4912 0.7047
vn 0.5858 -0.0817 0.8063
vn 0.5493 0.3558 0.7561
vn -0.0000 -0.4912 0.8710
vn -0.0000 -0.0817 0.9967
vn -0.0000 0.3558 0.9345
vn -0.5120 -0.4912 0.7047
vn -0.5858 -0.0817 0.8063
vn -0.5493 0.3558 0.7561
vn -0.8284 -0.4912 0.2692
vn -0.9479 -0.0817 0.3080
vn -0.8888 0.3558 0.2888
vn -0.8284 -0.4912 -0.2692
vn -0.9479 -0.0817 -0.3080
vn -0.8888 0.3558 -0.2888
vn -0.5120 -0.4912 -0.7047
vn -0.5858 -0.0817 -0.8063
vn -0.5493 0.3558 -0.7561
vn 0.4554 -0.6322 -0.6268
vn -0.0000 -0.6322 -0.7748
vn 0.5005 0.5244 -0.6889
vn 0.8098 0.5244 -0.2631
vn -0.0000 0.5244 -0.8515
vn 0.7369 -0.6322 -0.2394
vn -0.5005 0.5244 -0.6889
vn -0.4554 -0.6322 -0.6268
vn 0.7369 -0.6322 0.2394
vn 0.8098 0.5244 0.2631
vn 0.4554 -0.6322 0.6268
vn 0.5005 0.5244 0.6889
vn -0.0000 -0.6322 0.7748
vn -0.0000 0.5244 0.8515
vn -0.4554 -0.6322 0.6268
vn -0.5005 0.5244 0.6889
vn -0.7369 -0.6322 0.2394
vn -0.8098 0.5244 0.2631
vn -0.7369 -0.6322 -0.2394
vn -0.8098 0.5244 -0.2631
vn 0.5823 0.1361 -0.8015
vn -0.0000 0.1361 -0.9907
vn -0.0000 0.4410 -0.8975
vn 0.5275 0.4410 -0.7261
vn 0.9422 0.1361 -0.3061
vn 0.8536 0.4410 -0.2773
vn 0.9422 0.1361 0.3061
vn 0.8536 0.4410 0.2773
vn 0.5823 0.1361 0.8015
vn 0.5275 0.4410 0.7261
vn -0.0000 0.1361 0.9907
vn -0.0000 0.4410 0.8975
vn -0.5823 0.1361 0.8015
vn -0.5275 0.4410 0.7261
vn -0.9422 0.1361 0.3061
vn -0.8536 0.4410 0.2773
vn -0.9422 0.1361 -0.3061
vn -0.8536 0.4410 -0.2773
vn -0.5823 0.1361 -0.8015
vn -0.5275 0.4410 -0.7261
vn -0.0000 0.5807 -0.8141
vn 0.4785 0.5807 -0.6587
vn 0.9504 -0.0372 -0.3088
vn 0.5874 -0.0372 -0.8085
vn -0.0000 -0.0372 -0.9993
vn 0.7743 0.5807 -0.2516
vn -0.4785 0.5807 -0.6586
vn -0.5874 -0.0372 -0.8085
vn 0.9504 -0.0372 0.3088
vn 0.7743 0.5807 0.2516
vn 0.5874 -0.0372 0.8085
vn 0.4785 0.5807 0.6587
vn -0.0000 -0.0372 0.9993
vn -0.0000 0.5807 0.8141
vn -0.5874 -0.0372 0.8085
vn -0.4785 0.5807 0.6586
vn -0.9504 -0.0372 0.3088
vn -0.7743 0.5807 0.2516
vn -0.9504 -0.0372 -0.3088
vn -0.7743 0.5807 -0.2516
vn -0.8582 0.4311 0.2788
vn -0.8582 0.4311 -0.2788
vn -0.8581 -0.4311 -0.2788
vn -0.8581 -0.4311 0.2788
vn -0.0000 0.4311 -0.9023
vn 0.5304 0.4311 -0.7300
vn 0.5304 -0.4311 -0.7300
vn -0.0000 -0.4311 -0.9023
vn 0.8582 0.4311 0.2788
vn 0.5304 0.4311 0.7300
vn 0.5304 -0.4311 0.7300
vn 0.8581 -0.4311 0.2788
vn -0.5304 0.4311 0.7300
vn -0.5304 -0.4311 0.7300
vn -0.5304 0.4311 -0.7300
vn -0.5304 -0.4311 -0.7300
vn 0.8582 0.4311 -0.2788
vn 0.8581 -0.4311 -0.2788
vn -0.0000 0.4311 0.9023
vn -0.0000 -0.4311 0.9023
vn 0.7699 0.5871 0.2501
vn 0.4758 0.5871 0.6549
vn -0.0000 -0.5872 0.8094
vn 0.4758 -0.5872 0.6549
vn -0.0000 0.5872 0.8095
vn 0.7698 -0.5872 0.2501
vn -0.4758 0.5871 0.6549
vn -0.4758 -0.5872 0.6549
vn -0.0000 0.5872 -0.8095
vn 0.4758 0.5871 -0.6549
vn 0.7698 -0.5872 -0.2501
vn 0.4758 -0.5872 -0.6549
vn 0.7699 0.5871 -0.2501
vn -0.0000 -0.5872 -0.8094
vn -0.7699 0.5871 0.2501
vn -0.7699 0.5871 -0.2501
vn -0.4758 -0.5872 -0.6549
vn -0.7698 -0.5872 -0.2501
vn -0.4758 0.5871 -0.6549
vn -0.7698 -0.5872 0.2501
vn 0.5723 0.2277 -0.7878
vn 0.9261 0.2277 -0.3009
vn 0.9261 -0.2277 -0.3009
vn 0.5723 -0.2277 -0.7878
vn 0.5723 0.2277 0.7878
vn -0.0000 0.2277 0.9737
vn -0.0000 -0.2277 0.9737
vn 0.5723 -0.2277 0.7878
vn -0.9261 0.2277 -0.3009
vn -0.5723 0.2277 -0.7878
vn -0.5723 -0.2277 -0.7878
vn -0.9261 -0.2277 -0.3009
vn 0.9261 0.2277 0.3009
vn 0.9261 -0.2277 0.3009
vn -0.5723 0.2277 0.7878
vn -0.5723 -0.2277 0.7878
vn -0.0000 0.2277 -0.9737
vn -0.0000 -0.2277 -0.9737
vn -0.9261 0.2277 0.3009
vn -0.9261 -0.2277 0.3009
vn -0.5565 -0.3220 -0.7659
vn -0.0000 -0.3220 -0.9467
vn -0.5565 0.3220 -0.7659
vn -0.0000 0.3220 -0.9467
vn -0.9004 -0.3220 -0.2926
vn -0.9004 0.3220 -0.2926
vn -0.9004 -0.3220 0.2926
vn -0.9004 0.3220 0.2926
vn -0.5565 -0.3220 0.7659
vn -0.5565 0.3220 0.7659
vn -0.0000 -0.3220 0.9467
vn -0.0000 0.3220 0.9467
vn 0.5565 -0.3220 0.7659
vn 0.5565 0.3220 0.7659
vn 0.9004 0.3220 0.2926
vn 0.9004 -0.3220 0.2926
vn 0.9004 -0.3220 -0.2926
vn 0.9004 0.3220 -0.2926
vn 0.5565 -0.3220 -0.7659
vn 0.5565 0.3220 -0.7659
vn 0.4785 0.5807 -0.6586
vn 0.4785 0.5807 0.6586
vn 0.4758 0.5872 0.6549
vn 0.4758 -0.5872 0.6548
vn -0.9004 -0.3220 -0.2925
vn 0.9004 -0.3220 -0.2925
vn -0.8581 0.4311 0.2788
vn -0.8581 0.4311 -0.2788
vn -0.4758 0.5872 0.6549
vn 0.4758 0.5872 -0.6549
vn 0.4758 -0.5872 -0.6548
vn -0.7699 0.5872 0.2501
vt 0.414757 0.546256
vt 0.414757 0.533117
vt 0.704924 0.533118
vt 0.704924 0.546256
vt 0.718062 0.533117
vt 0.704924 0.069228
vt 0.718062 0.069228
vt 0.704924 0.056090
vt 0.414757 0.069228
vt 0.414757 0.056090
vt 0.401619 0.069228
vt 0.401619 0.533117
vt 0.708365 1.000000
vt 0.708365 0.536111
vt 0.998532 0.536111
vt 0.998532 1.000000
vt 0.835080 0.204769
vt 0.841595 0.204769
vt 0.841595 0.242937
vt 0.835080 0.242937
vt 0.402349 0.039336
vt 0.398326 0.044874
vt 0.391815 0.046990
vt 0.385304 0.044874
vt 0.381280 0.039336
vt 0.381280 0.032490
vt 0.385304 0.026952
vt 0.391815 0.024836
vt 0.398326 0.026952
vt 0.402349 0.032490
vt 0.822050 0.204769
vt 0.815535 0.204769
vt 0.815535 0.203236
vt 0.822050 0.203236
vt 0.809020 0.204769
vt 0.809020 0.203236
vt 0.802505 0.204769
vt 0.802505 0.203236
vt 0.795990 0.204769
vt 0.795990 0.203236
vt 0.789475 0.204769
vt 0.789475 0.203236
vt 0.854626 0.204769
vt 0.848110 0.204769
vt 0.848110 0.203236
vt 0.854626 0.203236
vt 0.841595 0.203236
vt 0.835080 0.203236
vt 0.828565 0.204769
vt 0.828565 0.203236
vt 0.815535 0.242937
vt 0.822050 0.242937
vt 0.822050 0.244185
vt 0.815535 0.244185
vt 0.795990 0.242937
vt 0.789475 0.242937
vt 0.809020 0.242937
vt 0.828565 0.242937
vt 0.854626 0.242937
vt 0.848110 0.242937
vt 0.802505 0.242937
vt 0.841595 0.244185
vt 0.835080 0.244185
vt 0.795990 0.244185
vt 0.789475 0.244185
vt 0.809020 0.244185
vt 0.828565 0.244185
vt 0.854626 0.244185
vt 0.848110 0.244185
vt 0.802505 0.244185
vt 0.822050 0.254481
vt 0.815535 0.254481
vt 0.815535 0.253202
vt 0.822050 0.253202
vt 0.809020 0.254481
vt 0.809020 0.253202
vt 0.802505 0.254481
vt 0.802505 0.253202
vt 0.795990 0.254481
vt 0.795990 0.253202
vt 0.789475 0.254481
vt 0.789475 0.253202
vt 0.854626 0.254481
vt 0.848110 0.254481
vt 0.848110 0.253202
vt 0.854626 0.253202
vt 0.841595 0.254481
vt 0.841595 0.253202
vt 0.835080 0.254481
vt 0.835080 0.253202
vt 0.828565 0.254481
vt 0.828565 0.253202
vt 0.835080 0.462958
vt 0.841595 0.462958
vt 0.841595 0.475771
vt 0.835080 0.475771
vt 0.789475 0.462958
vt 0.795990 0.462958
vt 0.795990 0.475771
vt 0.789475 0.475771
vt 0.809020 0.462958
vt 0.815535 0.462958
vt 0.815535 0.475771
vt 0.809020 0.475771
vt 0.828565 0.462958
vt 0.828565 0.475771
vt 0.848110 0.462958
vt 0.854626 0.462958
vt 0.854626 0.475771
vt 0.848110 0.475771
vt 0.802505 0.462958
vt 0.802505 0.475771
vt 0.822050 0.462958
vt 0.822050 0.475771
vt 0.815535 0.444366
vt 0.822050 0.444366
vt 0.822050 0.450387
vt 0.815535 0.450387
vt 0.822050 0.456404
vt 0.815535 0.456404
vt 0.809020 0.444366
vt 0.809020 0.450387
vt 0.809020 0.456404
vt 0.802505 0.444366
vt 0.802505 0.450387
vt 0.802505 0.456404
vt 0.795990 0.444366
vt 0.795990 0.450387
vt 0.795990 0.456404
vt 0.789475 0.444366
vt 0.789475 0.450387
vt 0.789475 0.456404
vt 0.848110 0.444366
vt 0.854626 0.444366
vt 0.854626 0.450387
vt 0.848110 0.450387
vt 0.854626 0.456404
vt 0.848110 0.456404
vt 0.841595 0.444366
vt 0.841595 0.450387
vt 0.841595 0.456404
vt 0.835080 0.444366
vt 0.835080 0.450387
vt 0.835080 0.456404
vt 0.828565 0.444366
vt 0.828565 0.450387
vt 0.828565 0.456404
vt 0.815535 0.438980
vt 0.822050 0.438980
vt 0.809020 0.438980
vt 0.828565 0.438980
vt 0.802505 0.438980
vt 0.795990 0.438980
vt 0.789475 0.438980
vt 0.848110 0.438980
vt 0.854626 0.438980
vt 0.841595 0.438980
vt 0.835080 0.438980
vt 0.815535 0.424443
vt 0.822050 0.424443
vt 0.822050 0.428892
vt 0.815535 0.428892
vt 0.809020 0.424443
vt 0.809020 0.428892
vt 0.802505 0.424443
vt 0.802505 0.428892
vt 0.795990 0.424443
vt 0.795990 0.428892
vt 0.789475 0.424443
vt 0.789475 0.428892
vt 0.848110 0.424443
vt 0.854626 0.424443
vt 0.854626 0.428892
vt 0.848110 0.428892
vt 0.841595 0.424443
vt 0.841595 0.428892
vt 0.835080 0.424443
vt 0.835080 0.428892
vt 0.828565 0.424443
vt 0.828565 0.428892
vt 0.841595 0.252126
vt 0.835080 0.252126
vt 0.835080 0.248693
vt 0.841595 0.248693
vt 0.835080 0.245261
vt 0.841595 0.245261
vt 0.822050 0.252126
vt 0.815535 0.252126
vt 0.815535 0.248693
vt 0.822050 0.248693
vt 0.815535 0.245261
vt 0.822050 0.245261
vt 0.802505 0.252126
vt 0.795990 0.252126
vt 0.795990 0.248693
vt 0.802505 0.248693
vt 0.795990 0.245261
vt 0.802505 0.245261
vt 0.848110 0.252126
vt 0.848110 0.248693
vt 0.848110 0.245261
vt 0.828565 0.252126
vt 0.828565 0.248693
vt 0.828565 0.245261
vt 0.809020 0.252126
vt 0.809020 0.248693
vt 0.809020 0.245261
vt 0.854626 0.252126
vt 0.854626 0.248693
vt 0.854626 0.245261
vt 0.789475 0.252126
vt 0.789475 0.248693
vt 0.789475 0.245261
vt 0.815535 0.201525
vt 0.809020 0.201525
vt 0.809020 0.198756
vt 0.815535 0.198756
vt 0.809020 0.195987
vt 0.815535 0.195987
vt 0.795990 0.201525
vt 0.789475 0.201525
vt 0.789475 0.198756
vt 0.795990 0.198756
vt 0.789475 0.195987
vt 0.795990 0.195987
vt 0.835080 0.201525
vt 0.828565 0.201525
vt 0.828565 0.198756
vt 0.835080 0.198756
vt 0.828565 0.195987
vt 0.835080 0.195987
vt 0.802505 0.201525
vt 0.802505 0.198756
vt 0.802505 0.195987
vt 0.854626 0.201525
vt 0.848110 0.201525
vt 0.848110 0.198756
vt 0.854626 0.198756
vt 0.848110 0.195987
vt 0.854626 0.195987
vt 0.822050 0.201525
vt 0.822050 0.198756
vt 0.822050 0.195987
vt 0.841595 0.201525
vt 0.841595 0.198756
vt 0.841595 0.195987
vt 0.828565 0.194276
vt 0.822050 0.194276
vt 0.835080 0.194276
vt 0.841595 0.194276
vt 0.848110 0.194276
vt 0.854626 0.194276
vt 0.795990 0.194276
vt 0.789475 0.194276
vt 0.802505 0.194276
vt 0.809020 0.194276
vt 0.815535 0.194276
vt 0.358297 0.042813
vt 0.353785 0.049023
vt 0.346484 0.051395
vt 0.339184 0.049023
vt 0.334672 0.042813
vt 0.334672 0.035137
vt 0.339184 0.028926
vt 0.346484 0.026554
vt 0.353785 0.028926
vt 0.358297 0.035137
vt 0.194439 0.795888
vt 0.194439 0.715671
vt 0.225216 0.715671
vt 0.225216 0.795888
vt 0.305433 0.715671
vt 0.225216 0.684895
vt 0.305433 0.684895
vt 0.225216 0.604677
vt 0.194439 0.684895
vt 0.194439 0.604677
vt 0.114222 0.684895
vt 0.114222 0.715671
vt 0.030837 0.001529
vt 0.030837 0.032305
vt 0.000060 0.032305
vt 0.000060 0.001529
vt 0.902628 0.124005
vt 0.909143 0.124005
vt 0.909143 0.162174
vt 0.902628 0.162174
vt 0.402349 0.015841
vt 0.398326 0.021379
vt 0.391815 0.023495
vt 0.385304 0.021379
vt 0.381280 0.015841
vt 0.381280 0.008995
vt 0.385304 0.003457
vt 0.391815 0.001341
vt 0.398326 0.003457
vt 0.402349 0.008995
vt 0.889598 0.124005
vt 0.883083 0.124005
vt 0.883083 0.122472
vt 0.889598 0.122472
vt 0.876568 0.124005
vt 0.876568 0.122472
vt 0.870053 0.124005
vt 0.870053 0.122472
vt 0.863538 0.124005
vt 0.863538 0.122472
vt 0.857023 0.124005
vt 0.857023 0.122472
vt 0.922173 0.124005
vt 0.915658 0.124005
vt 0.915658 0.122472
vt 0.922173 0.122472
vt 0.909143 0.122472
vt 0.902628 0.122472
vt 0.896113 0.124005
vt 0.896113 0.122472
vt 0.883083 0.162174
vt 0.889598 0.162174
vt 0.889598 0.163422
vt 0.883083 0.163422
vt 0.863538 0.162174
vt 0.857023 0.162174
vt 0.876568 0.162174
vt 0.896113 0.162174
vt 0.922173 0.162174
vt 0.915658 0.162174
vt 0.870053 0.162174
vt 0.909143 0.163422
vt 0.902628 0.163422
vt 0.863538 0.163422
vt 0.857023 0.163422
vt 0.876568 0.163422
vt 0.896113 0.163422
vt 0.922173 0.163422
vt 0.915658 0.163422
vt 0.870053 0.163422
vt 0.889598 0.173717
vt 0.883083 0.173717
vt 0.883083 0.172438
vt 0.889598 0.172438
vt 0.876568 0.173717
vt 0.876568 0.172438
vt 0.870053 0.173717
vt 0.870053 0.172438
vt 0.863538 0.173717
vt 0.863538 0.172438
vt 0.857023 0.173717
vt 0.857023 0.172438
vt 0.922173 0.173717
vt 0.915658 0.173717
vt 0.915658 0.172438
vt 0.922173 0.172438
vt 0.909143 0.173717
vt 0.909143 0.172438
vt 0.902628 0.173717
vt 0.902628 0.172438
vt 0.896113 0.173717
vt 0.896113 0.172438
vt 0.902628 0.382194
vt 0.909143 0.382194
vt 0.909143 0.395007
vt 0.902628 0.395007
vt 0.857023 0.382194
vt 0.863538 0.382194
vt 0.863538 0.395007
vt 0.857023 0.395007
vt 0.876568 0.382194
vt 0.883083 0.382194
vt 0.883083 0.395007
vt 0.876568 0.395007
vt 0.896113 0.382194
vt 0.896113 0.395007
vt 0.915658 0.382194
vt 0.922173 0.382194
vt 0.922173 0.395007
vt 0.915658 0.395007
vt 0.870053 0.382194
vt 0.870053 0.395007
vt 0.889598 0.382194
vt 0.889598 0.395007
vt 0.883083 0.363602
vt 0.889598 0.363602
vt 0.889598 0.369624
vt 0.883083 0.369624
vt 0.889598 0.375640
vt 0.883083 0.375640
vt 0.876568 0.363602
vt 0.876568 0.369624
vt 0.876568 0.375640
vt 0.870053 0.363602
vt 0.870053 0.369624
vt 0.870053 0.375640
vt 0.863538 0.363602
vt 0.863538 0.369624
vt 0.863538 0.375640
vt 0.857023 0.363602
vt 0.857023 0.369624
vt 0.857023 0.375640
vt 0.915658 0.363602
vt 0.922173 0.363602
vt 0.922173 0.369624
vt 0.915658 0.369624
vt 0.922173 0.375640
vt 0.915658 0.375640
vt 0.909143 0.363602
vt 0.909143 0.369624
vt 0.909143 0.375640
vt 0.902628 0.363602
vt 0.902628 0.369624
vt 0.902628 0.375640
vt 0.896113 0.363602
vt 0.896113 0.369624
vt 0.896113 0.375640
vt 0.883083 0.358216
vt 0.889598 0.358216
vt 0.876568 0.358216
vt 0.896113 0.358216
vt 0.870053 0.358216
vt 0.863538 0.358216
vt 0.857023 0.358216
vt 0.915658 0.358216
vt 0.922173 0.358216
vt 0.909143 0.358216
vt 0.902628 0.358216
vt 0.883083 0.343679
vt 0.889598 0.343679
vt 0.889598 0.348128
vt 0.883083 0.348128
vt 0.876568 0.343679
vt 0.876568 0.348128
vt 0.870053 0.343679
vt 0.870053 0.348128
vt 0.863538 0.343679
vt 0.863538 0.348128
vt 0.857023 0.343679
vt 0.857023 0.348128
vt 0.915658 0.343679
vt 0.922173 0.343679
vt 0.922173 0.348128
vt 0.915658 0.348128
vt 0.909143 0.343679
vt 0.909143 0.348128
vt 0.902628 0.343679
vt 0.902628 0.348128
vt 0.896113 0.343679
vt 0.896113 0.348128
vt 0.909143 0.171363
vt 0.902628 0.171363
vt 0.902628 0.167930
vt 0.909143 0.167930
vt 0.902628 0.164497
vt 0.909143 0.164497
vt 0.889598 0.171363
vt 0.883083 0.171363
vt 0.883083 0.167930
vt 0.889598 0.167930
vt 0.883083 0.164497
vt 0.889598 0.164497
vt 0.870053 0.171363
vt 0.863538 0.171363
vt 0.863538 0.167930
vt 0.870053 0.167930
vt 0.863538 0.164497
vt 0.870053 0.164497
vt 0.915658 0.171363
vt 0.915658 0.167930
vt 0.915658 0.164497
vt 0.896113 0.171363
vt 0.896113 0.167930
vt 0.896113 0.164497
vt 0.876568 0.171363
vt 0.876568 0.167930
vt 0.876568 0.164497
vt 0.922173 0.171363
vt 0.922173 0.167930
vt 0.922173 0.164497
vt 0.857023 0.171363
vt 0.857023 0.167930
vt 0.857023 0.164497
vt 0.883083 0.120762
vt 0.876568 0.120762
vt 0.876568 0.117992
vt 0.883083 0.117992
vt 0.876568 0.115223
vt 0.883083 0.115223
vt 0.863538 0.120762
vt 0.857023 0.120762
vt 0.857023 0.117992
vt 0.863538 0.117992
vt 0.857023 0.115223
vt 0.863538 0.115223
vt 0.902628 0.120762
vt 0.896113 0.120762
vt 0.896113 0.117992
vt 0.902628 0.117992
vt 0.896113 0.115223
vt 0.902628 0.115223
vt 0.870053 0.120762
vt 0.870053 0.117992
vt 0.870053 0.115223
vt 0.922173 0.120762
vt 0.915658 0.120762
vt 0.915658 0.117992
vt 0.922173 0.117992
vt 0.915658 0.115223
vt 0.922173 0.115223
vt 0.889598 0.120762
vt 0.889598 0.117992
vt 0.889598 0.115223
vt 0.909143 0.120762
vt 0.909143 0.117992
vt 0.909143 0.115223
vt 0.896113 0.113512
vt 0.889598 0.113512
vt 0.902628 0.113512
vt 0.909143 0.113512
vt 0.915658 0.113512
vt 0.922173 0.113512
vt 0.863538 0.113512
vt 0.857023 0.113512
vt 0.870053 0.113512
vt 0.876568 0.113512
vt 0.883083 0.113512
vt 0.358297 0.016381
vt 0.353785 0.022591
vt 0.346484 0.024963
vt 0.339184 0.022591
vt 0.334672 0.016381
vt 0.334672 0.008705
vt 0.339184 0.002495
vt 0.346484 0.000123
vt 0.353785 0.002495
vt 0.358297 0.008705
vt 0.081370 0.763583
vt 0.081370 0.683366
vt 0.112147 0.683366
vt 0.112147 0.763583
vt 0.192364 0.683366
vt 0.112147 0.652589
vt 0.192364 0.652589
vt 0.112147 0.572372
vt 0.081370 0.652589
vt 0.081370 0.572372
vt 0.001153 0.652589
vt 0.001153 0.683366
vt 0.030837 0.033834
vt 0.030837 0.064611
vt 0.000060 0.064611
vt 0.000060 0.033834
vt 0.332114 0.000447
vt 0.332095 0.067698
vt 0.067401 0.067692
vt 0.067397 0.000463
vt 0.000174 0.067692
vt 0.067413 0.502529
vt 0.000174 0.502557
vt 0.067424 0.569750
vt 0.332097 0.502486
vt 0.332108 0.569707
vt 0.342916 0.463230
vt 0.342929 0.105642
vt 0.343761 0.106710
vt 0.343742 0.462164
vt 0.333788 0.982379
vt 0.333788 0.548897
vt 0.597651 0.548897
vt 0.597651 0.982379
vt 0.389302 0.105668
vt 0.400147 0.067799
vt 0.389267 0.463212
vt 0.400116 0.502490
vt 0.388440 0.462156
vt 0.388470 0.106724
vt 0.645653 0.558660
vt 0.652168 0.558660
vt 0.652168 0.596828
vt 0.645653 0.596828
vt 0.437592 0.045210
vt 0.433568 0.050748
vt 0.427057 0.052863
vt 0.420546 0.050748
vt 0.416522 0.045210
vt 0.416522 0.038364
vt 0.420546 0.032825
vt 0.427057 0.030710
vt 0.433568 0.032825
vt 0.437592 0.038364
vt 0.632623 0.558660
vt 0.626108 0.558660
vt 0.626108 0.557127
vt 0.632623 0.557127
vt 0.619593 0.558660
vt 0.619593 0.557127
vt 0.613078 0.558660
vt 0.613078 0.557127
vt 0.606563 0.558660
vt 0.606563 0.557127
vt 0.600048 0.558660
vt 0.600048 0.557127
vt 0.665198 0.558660
vt 0.658683 0.558660
vt 0.658683 0.557127
vt 0.665198 0.557127
vt 0.652168 0.557127
vt 0.645653 0.557127
vt 0.639138 0.558660
vt 0.639138 0.557127
vt 0.626108 0.596828
vt 0.632623 0.596828
vt 0.632623 0.598076
vt 0.626108 0.598076
vt 0.606563 0.596828
vt 0.600048 0.596828
vt 0.619593 0.596828
vt 0.639138 0.596828
vt 0.665198 0.596828
vt 0.658683 0.596828
vt 0.613078 0.596828
vt 0.652168 0.598076
vt 0.645653 0.598076
vt 0.606563 0.598076
vt 0.600048 0.598076
vt 0.619593 0.598076
vt 0.639138 0.598076
vt 0.665198 0.598076
vt 0.658683 0.598076
vt 0.613078 0.598076
vt 0.632623 0.608372
vt 0.626108 0.608372
vt 0.626108 0.607093
vt 0.632623 0.607093
vt 0.619593 0.608372
vt 0.619593 0.607093
vt 0.613078 0.608372
vt 0.613078 0.607093
vt 0.606563 0.608372
vt 0.606563 0.607093
vt 0.600048 0.608372
vt 0.600048 0.607093
vt 0.665198 0.608372
vt 0.658683 0.608372
vt 0.658683 0.607093
vt 0.665198 0.607093
vt 0.652168 0.608372
vt 0.652168 0.607093
vt 0.645653 0.608372
vt 0.645653 0.607093
vt 0.639138 0.608372
vt 0.639138 0.607093
vt 0.645653 0.816849
vt 0.652168 0.816849
vt 0.652168 0.829662
vt 0.645653 0.829662
vt 0.600048 0.816849
vt 0.606563 0.816849
vt 0.606563 0.829662
vt 0.600048 0.829662
vt 0.619593 0.816849
vt 0.626108 0.816849
vt 0.626108 0.829662
vt 0.619593 0.829662
vt 0.639138 0.816849
vt 0.639138 0.829662
vt 0.658683 0.816849
vt 0.665198 0.816849
vt 0.665198 0.829662
vt 0.658683 0.829662
vt 0.613078 0.816849
vt 0.613078 0.829662
vt 0.632623 0.816849
vt 0.632623 0.829662
vt 0.626108 0.798257
vt 0.632623 0.798257
vt 0.632623 0.804279
vt 0.626108 0.804279
vt 0.632623 0.810295
vt 0.626108 0.810295
vt 0.619593 0.798257
vt 0.619593 0.804279
vt 0.619593 0.810295
vt 0.613078 0.798257
vt 0.613078 0.804279
vt 0.613078 0.810295
vt 0.606563 0.798257
vt 0.606563 0.804279
vt 0.606563 0.810295
vt 0.600048 0.798257
vt 0.600048 0.804279
vt 0.600048 0.810295
vt 0.658683 0.798257
vt 0.665198 0.798257
vt 0.665198 0.804279
vt 0.658683 0.804279
vt 0.665198 0.810295
vt 0.658683 0.810295
vt 0.652168 0.798257
vt 0.652168 0.804279
vt 0.652168 0.810295
vt 0.645653 0.798257
vt 0.645653 0.804279
vt 0.645653 0.810295
vt 0.639138 0.798257
vt 0.639138 0.804279
vt 0.639138 0.810295
vt 0.626108 0.792871
vt 0.632623 0.792871
vt 0.619593 0.792871
vt 0.639138 0.792871
vt 0.613078 0.792871
vt 0.606563 0.792871
vt 0.600048 0.792871
vt 0.658683 0.792871
vt 0.665198 0.792871
vt 0.652168 0.792871
vt 0.645653 0.792871
vt 0.626108 0.778334
vt 0.632623 0.778334
vt 0.632623 0.782783
vt 0.626108 0.782783
vt 0.619593 0.778334
vt 0.619593 0.782783
vt 0.613078 0.778334
vt 0.613078 0.782783
vt 0.606563 0.778334
vt 0.606563 0.782783
vt 0.600048 0.778334
vt 0.600048 0.782783
vt 0.658683 0.778334
vt 0.665198 0.778334
vt 0.665198 0.782783
vt 0.658683 0.782783
vt 0.652168 0.778334
vt 0.652168 0.782783
vt 0.645653 0.778334
vt 0.645653 0.782783
vt 0.639138 0.778334
vt 0.639138 0.782783
vt 0.652168 0.606017
vt 0.645653 0.606017
vt 0.645653 0.602585
vt 0.652168 0.602585
vt 0.645653 0.599152
vt 0.652168 0.599152
vt 0.632623 0.606017
vt 0.626108 0.606017
vt 0.626108 0.602585
vt 0.632623 0.602585
vt 0.626108 0.599152
vt 0.632623 0.599152
vt 0.613078 0.606017
vt 0.606563 0.606017
vt 0.606563 0.602585
vt 0.613078 0.602585
vt 0.606563 0.599152
vt 0.613078 0.599152
vt 0.658683 0.606017
vt 0.658683 0.602585
vt 0.658683 0.599152
vt 0.639138 0.606017
vt 0.639138 0.602585
vt 0.639138 0.599152
vt 0.619593 0.606017
vt 0.619593 0.602585
vt 0.619593 0.599152
vt 0.665198 0.606017
vt 0.665198 0.602585
vt 0.665198 0.599152
vt 0.600048 0.606017
vt 0.600048 0.602585
vt 0.600048 0.599152
vt 0.626108 0.555416
vt 0.619593 0.555416
vt 0.619593 0.552647
vt 0.626108 0.552647
vt 0.619593 0.549878
vt 0.626108 0.549878
vt 0.606563 0.555416
vt 0.600048 0.555416
vt 0.600048 0.552647
vt 0.606563 0.552647
vt 0.600048 0.549878
vt 0.606563 0.549878
vt 0.645653 0.555416
vt 0.639138 0.555416
vt 0.639138 0.552647
vt 0.645653 0.552647
vt 0.639138 0.549878
vt 0.645653 0.549878
vt 0.613078 0.555416
vt 0.613078 0.552647
vt 0.613078 0.549878
vt 0.665198 0.555416
vt 0.658683 0.555416
vt 0.658683 0.552647
vt 0.665198 0.552647
vt 0.658683 0.549878
vt 0.665198 0.549878
vt 0.632623 0.555416
vt 0.632623 0.552647
vt 0.632623 0.549878
vt 0.652168 0.555416
vt 0.652168 0.552647
vt 0.652168 0.549878
vt 0.639138 0.548167
vt 0.632623 0.548167
vt 0.645653 0.548167
vt 0.652168 0.548167
vt 0.658683 0.548167
vt 0.665198 0.548167
vt 0.606563 0.548167
vt 0.600048 0.548167
vt 0.613078 0.548167
vt 0.619593 0.548167
vt 0.626108 0.548167
vt 0.381792 0.056029
vt 0.377280 0.062239
vt 0.369979 0.064611
vt 0.362679 0.062239
vt 0.358167 0.056029
vt 0.358167 0.048352
vt 0.362679 0.042142
vt 0.369979 0.039770
vt 0.377280 0.042142
vt 0.381792 0.048352
vt 0.800900 0.192364
vt 0.800900 0.112147
vt 0.831677 0.112147
vt 0.831677 0.192364
vt 0.911894 0.112147
vt 0.831677 0.081370
vt 0.911894 0.081370
vt 0.831677 0.001153
vt 0.800900 0.081370
vt 0.800900 0.001153
vt 0.720683 0.081370
vt 0.720683 0.112147
vt 0.064611 0.000060
vt 0.064611 0.030837
vt 0.033834 0.030837
vt 0.033834 0.000060
vt 0.766064 0.124005
vt 0.772579 0.124005
vt 0.772579 0.162173
vt 0.766064 0.162173
vt 0.422908 0.026120
vt 0.418884 0.031658
vt 0.412373 0.033774
vt 0.405862 0.031658
vt 0.401838 0.026120
vt 0.401838 0.019274
vt 0.405862 0.013736
vt 0.412373 0.011620
vt 0.418884 0.013736
vt 0.422908 0.019274
vt 0.753034 0.124005
vt 0.746519 0.124005
vt 0.746519 0.122472
vt 0.753034 0.122472
vt 0.740004 0.124005
vt 0.740004 0.122472
vt 0.733489 0.124005
vt 0.733489 0.122472
vt 0.726974 0.124005
vt 0.726974 0.122472
vt 0.720459 0.124005
vt 0.720459 0.122472
vt 0.785609 0.124005
vt 0.779094 0.124005
vt 0.779094 0.122472
vt 0.785609 0.122472
vt 0.772579 0.122472
vt 0.766064 0.122472
vt 0.759549 0.124005
vt 0.759549 0.122472
vt 0.746519 0.162173
vt 0.753034 0.162173
vt 0.753034 0.163421
vt 0.746519 0.163421
vt 0.726974 0.162173
vt 0.720459 0.162173
vt 0.740004 0.162173
vt 0.759549 0.162173
vt 0.785609 0.162173
vt 0.779094 0.162173
vt 0.733489 0.162173
vt 0.772579 0.163421
vt 0.766064 0.163421
vt 0.726974 0.163421
vt 0.720459 0.163421
vt 0.740004 0.163421
vt 0.759549 0.163421
vt 0.785609 0.163421
vt 0.779094 0.163421
vt 0.733489 0.163421
vt 0.753034 0.173717
vt 0.746519 0.173717
vt 0.746519 0.172438
vt 0.753034 0.172438
vt 0.740004 0.173717
vt 0.740004 0.172438
vt 0.733489 0.173717
vt 0.733489 0.172438
vt 0.726974 0.173717
vt 0.726974 0.172438
vt 0.720459 0.173717
vt 0.720459 0.172438
vt 0.785609 0.173717
vt 0.779094 0.173717
vt 0.779094 0.172438
vt 0.785609 0.172438
vt 0.772579 0.173717
vt 0.772579 0.172438
vt 0.766064 0.173717
vt 0.766064 0.172438
vt 0.759549 0.173717
vt 0.759549 0.172438
vt 0.766064 0.382194
vt 0.772579 0.382194
vt 0.772579 0.395007
vt 0.766064 0.395007
vt 0.720459 0.382194
vt 0.726974 0.382194
vt 0.726974 0.395007
vt 0.720459 0.395007
vt 0.740004 0.382194
vt 0.746519 0.382194
vt 0.746519 0.395007
vt 0.740004 0.395007
vt 0.759549 0.382194
vt 0.759549 0.395007
vt 0.779094 0.382194
vt 0.785609 0.382194
vt 0.785609 0.395007
vt 0.779094 0.395007
vt 0.733489 0.382194
vt 0.733489 0.395007
vt 0.753034 0.382194
vt 0.753034 0.395007
vt 0.746519 0.363602
vt 0.753034 0.363602
vt 0.753034 0.369624
vt 0.746519 0.369624
vt 0.753034 0.375640
vt 0.746519 0.375640
vt 0.740004 0.363602
vt 0.740004 0.369624
vt 0.740004 0.375640
vt 0.733489 0.363602
vt 0.733489 0.369624
vt 0.733489 0.375640
vt 0.726974 0.363602
vt 0.726974 0.369624
vt 0.726974 0.375640
vt 0.720459 0.363602
vt 0.720459 0.369624
vt 0.720459 0.375640
vt 0.779094 0.363602
vt 0.785609 0.363602
vt 0.785609 0.369624
vt 0.779094 0.369624
vt 0.785609 0.375640
vt 0.779094 0.375640
vt 0.772579 0.363602
vt 0.772579 0.369624
vt 0.772579 0.375640
vt 0.766064 0.363602
vt 0.766064 0.369624
vt 0.766064 0.375640
vt 0.759549 0.363602
vt 0.759549 0.369624
vt 0.759549 0.375640
vt 0.746519 0.358216
vt 0.753034 0.358216
vt 0.740004 0.358216
vt 0.759549 0.358216
vt 0.733489 0.358216
vt 0.726974 0.358216
vt 0.720459 0.358216
vt 0.779094 0.358216
vt 0.785609 0.358216
vt 0.772579 0.358216
vt 0.766064 0.358216
vt 0.746519 0.343679
vt 0.753034 0.343679
vt 0.753034 0.348128
vt 0.746519 0.348128
vt 0.740004 0.343679
vt 0.740004 0.348128
vt 0.733489 0.343679
vt 0.733489 0.348128
vt 0.726974 0.343679
vt 0.726974 0.348128
vt 0.720459 0.343679
vt 0.720459 0.348128
vt 0.779094 0.343679
vt 0.785609 0.343679
vt 0.785609 0.348128
vt 0.779094 0.348128
vt 0.772579 0.343679
vt 0.772579 0.348128
vt 0.766064 0.343679
vt 0.766064 0.348128
vt 0.759549 0.343679
vt 0.759549 0.348128
vt 0.772579 0.171362
vt 0.766064 0.171362
vt 0.766064 0.167929
vt 0.772579 0.167929
vt 0.766064 0.164497
vt 0.772579 0.164497
vt 0.753034 0.171362
vt 0.746519 0.171362
vt 0.746519 0.167929
vt 0.753034 0.167929
vt 0.746519 0.164497
vt 0.753034 0.164497
vt 0.733489 0.171362
vt 0.726974 0.171362
vt 0.726974 0.167929
vt 0.733489 0.167929
vt 0.726974 0.164497
vt 0.733489 0.164497
vt 0.779094 0.171362
vt 0.779094 0.167929
vt 0.779094 0.164497
vt 0.759549 0.171362
vt 0.759549 0.167929
vt 0.759549 0.164497
vt 0.740004 0.171362
vt 0.740004 0.167929
vt 0.740004 0.164497
vt 0.785609 0.171362
vt 0.785609 0.167929
vt 0.785609 0.164497
vt 0.720459 0.171362
vt 0.720459 0.167929
vt 0.720459 0.164497
vt 0.746519 0.120761
vt 0.740004 0.120761
vt 0.740004 0.117992
vt 0.746519 0.117992
vt 0.740004 0.115222
vt 0.746519 0.115222
vt 0.726974 0.120761
vt 0.720459 0.120761
vt 0.720459 0.117992
vt 0.726974 0.117992
vt 0.720459 0.115222
vt 0.726974 0.115222
vt 0.766064 0.120761
vt 0.759549 0.120761
vt 0.759549 0.117992
vt 0.766064 0.117992
vt 0.759549 0.115222
vt 0.766064 0.115222
vt 0.733489 0.120761
vt 0.733489 0.117992
vt 0.733489 0.115222
vt 0.785609 0.120761
vt 0.779094 0.120761
vt 0.779094 0.117992
vt 0.785609 0.117992
vt 0.779094 0.115222
vt 0.785609 0.115222
vt 0.753034 0.120761
vt 0.753034 0.117992
vt 0.753034 0.115222
vt 0.772579 0.120761
vt 0.772579 0.117992
vt 0.772579 0.115222
vt 0.759549 0.113512
vt 0.753034 0.113512
vt 0.766064 0.113512
vt 0.772579 0.113512
vt 0.779094 0.113512
vt 0.785609 0.113512
vt 0.726974 0.113512
vt 0.720459 0.113512
vt 0.733489 0.113512
vt 0.740004 0.113512
vt 0.746519 0.113512
vt 0.381791 0.028128
vt 0.377279 0.034339
vt 0.369979 0.036711
vt 0.362678 0.034339
vt 0.358167 0.028128
vt 0.358167 0.020452
vt 0.362678 0.014242
vt 0.369979 0.011870
vt 0.377279 0.014242
vt 0.381791 0.020452
vt 0.113676 0.908957
vt 0.113676 0.828740
vt 0.144452 0.828740
vt 0.144452 0.908957
vt 0.224670 0.828740
vt 0.144452 0.797964
vt 0.224670 0.797964
vt 0.144452 0.717746
vt 0.113676 0.797964
vt 0.113676 0.717746
vt 0.033459 0.797964
vt 0.033459 0.828740
vt 0.063142 0.033834
vt 0.063142 0.064611
vt 0.032366 0.064611
vt 0.032366 0.033834
s 1
f 1/1/1 2/2/1 4/3/1 3/4/1
f 3/5/2 4/3/2 8/6/2 7/7/2
f 7/8/3 8/6/3 6/9/3 5/10/3
f 5/11/4 6/9/4 2/2/4 1/12/4
f 3/13/5 7/14/5 5/15/5 1/16/5
f 8/6/6 4/3/6 2/2/6 6/9/6
f 26/17/7 24/18/8 46/19/8 47/20/7
f 9/21/5 11/22/5 13/23/5 15/24/5 17/25/5 19/26/5 21/27/5 23/28/5 25/29/5 27/30/5
f 10/31/6 12/32/6 29/33/6 30/34/6
f 12/32/6 14/35/6 31/36/6 29/33/6
f 14/35/6 16/37/6 32/38/6 31/36/6
f 16/37/6 18/39/6 33/40/6 32/38/6
f 18/39/6 20/41/6 34/42/6 33/40/6
f 20/43/6 22/44/6 35/45/6 34/46/6
f 22/44/6 24/18/6 36/47/6 35/45/6
f 24/18/6 26/17/6 37/48/6 36/47/6
f 26/17/6 28/49/6 38/50/6 37/48/6
f 28/49/6 10/31/6 30/34/6 38/50/6
f 39/51/5 40/52/5 50/53/5 49/54/5
f 20/41/4 18/39/9 43/55/9 44/56/4
f 14/35/10 12/32/11 39/51/11 41/57/10
f 28/49/12 26/17/7 47/20/7 48/58/12
f 22/44/13 20/43/4 44/59/4 45/60/13
f 16/37/14 14/35/10 41/57/10 42/61/14
f 10/31/2 28/49/12 48/58/12 40/52/2
f 24/18/8 22/44/13 45/60/13 46/19/8
f 18/39/9 16/37/14 42/61/14 43/55/9
f 12/32/11 10/31/2 40/52/2 39/51/11
f 47/20/5 46/19/5 56/62/5 57/63/5
f 44/56/5 43/55/5 53/64/5 54/65/5
f 41/57/5 39/51/5 49/54/5 51/66/5
f 48/58/5 47/20/5 57/63/5 58/67/5
f 45/60/5 44/59/5 54/68/5 55/69/5
f 42/61/5 41/57/5 51/66/5 52/70/5
f 40/52/5 48/58/5 58/67/5 50/53/5
f 46/19/5 45/60/5 55/69/5 56/62/5
f 43/55/5 42/61/5 52/70/5 53/64/5
f 60/71/6 59/72/6 69/73/6 70/74/6
f 59/72/6 61/75/6 71/76/6 69/73/6
f 61/75/6 62/77/6 72/78/6 71/76/6
f 62/77/6 63/79/6 73/80/6 72/78/6
f 63/79/6 64/81/6 74/82/6 73/80/6
f 64/83/6 65/84/6 75/85/6 74/86/6
f 65/84/6 66/87/6 76/88/6 75/85/6
f 66/87/6 67/89/6 77/90/6 76/88/6
f 67/89/6 68/91/6 78/92/6 77/90/6
f 68/91/6 60/71/6 70/74/6 78/92/6
f 97/93/15 96/94/16 106/95/16 107/96/15
f 94/97/17 93/98/18 103/99/18 104/100/17
f 91/101/19 89/102/20 99/103/20 101/104/19
f 98/105/21 97/93/15 107/96/15 108/106/21
f 95/107/22 94/108/17 104/109/17 105/110/22
f 92/111/23 91/101/19 101/104/19 102/112/23
f 90/113/24 98/105/21 108/106/21 100/114/24
f 96/94/16 95/107/22 105/110/22 106/95/16
f 93/98/18 92/111/23 102/112/23 103/99/18
f 89/102/20 90/113/24 100/114/24 99/103/20
f 110/115/25 112/116/26 114/117/27 111/118/28
f 111/118/28 114/117/27 113/119/29 109/120/30
f 116/121/31 110/115/25 111/118/28 117/122/32
f 117/122/32 111/118/28 109/120/30 115/123/33
f 119/124/34 116/121/31 117/122/32 120/125/35
f 120/125/35 117/122/32 115/123/33 118/126/36
f 122/127/37 119/124/34 120/125/35 123/128/38
f 123/128/38 120/125/35 118/126/36 121/129/39
f 125/130/40 122/127/37 123/128/38 126/131/41
f 126/131/41 123/128/38 121/129/39 124/132/42
f 128/133/43 125/134/40 126/135/41 129/136/44
f 129/136/44 126/135/41 124/137/42 127/138/45
f 131/139/46 128/133/43 129/136/44 132/140/47
f 132/140/47 129/136/44 127/138/45 130/141/48
f 134/142/49 131/139/46 132/140/47 135/143/50
f 135/143/50 132/140/47 130/141/48 133/144/51
f 137/145/52 134/142/49 135/143/50 138/146/53
f 138/146/53 135/143/50 133/144/51 136/147/54
f 112/116/26 137/145/52 138/146/53 114/117/27
f 114/117/27 138/146/53 136/147/54 113/119/29
f 79/148/55 80/149/56 112/116/26 110/115/25
f 115/123/33 109/120/30 89/102/57 91/101/58
f 109/120/30 113/119/29 90/113/59 89/102/57
f 81/150/60 79/148/55 110/115/25 116/121/31
f 113/119/29 136/147/54 98/105/61 90/113/59
f 80/149/56 88/151/62 137/145/52 112/116/26
f 82/152/63 81/150/60 116/121/31 119/124/34
f 118/126/36 115/123/33 91/101/58 92/111/64
f 83/153/65 82/152/63 119/124/34 122/127/37
f 121/129/39 118/126/36 92/111/64 93/98/66
f 84/154/67 83/153/65 122/127/37 125/130/40
f 124/132/42 121/129/39 93/98/66 94/97/68
f 85/155/69 84/156/67 125/134/40 128/133/43
f 127/138/45 124/137/42 94/108/68 95/107/70
f 86/157/71 85/155/69 128/133/43 131/139/46
f 130/141/48 127/138/45 95/107/70 96/94/72
f 87/158/73 86/157/71 131/139/46 134/142/49
f 133/144/51 130/141/48 96/94/72 97/93/74
f 88/151/62 87/158/73 134/142/49 137/145/52
f 136/147/54 133/144/51 97/93/74 98/105/61
f 140/159/75 141/160/76 142/161/77 139/162/78
f 144/163/79 140/159/75 139/162/78 143/164/80
f 146/165/81 144/163/79 143/164/80 145/166/82
f 148/167/83 146/165/81 145/166/82 147/168/84
f 150/169/85 148/167/83 147/168/84 149/170/86
f 152/171/87 150/172/85 149/173/86 151/174/88
f 154/175/89 152/171/87 151/174/88 153/176/90
f 156/177/91 154/175/89 153/176/90 155/178/92
f 158/179/93 156/177/91 155/178/92 157/180/94
f 141/160/76 158/179/93 157/180/94 142/161/77
f 139/162/78 142/161/77 80/149/95 79/148/96
f 61/75/97 59/72/98 140/159/75 144/163/79
f 59/72/98 60/71/99 141/160/76 140/159/75
f 143/164/80 139/162/78 79/148/96 81/150/100
f 142/161/77 157/180/94 88/151/101 80/149/95
f 60/71/99 68/91/102 158/179/93 141/160/76
f 62/77/103 61/75/97 144/163/79 146/165/81
f 145/166/82 143/164/80 81/150/100 82/152/104
f 63/79/105 62/77/103 146/165/81 148/167/83
f 147/168/84 145/166/82 82/152/104 83/153/106
f 64/81/107 63/79/105 148/167/83 150/169/85
f 149/170/86 147/168/84 83/153/106 84/154/108
f 65/84/109 64/83/107 150/172/85 152/171/87
f 151/174/88 149/173/86 84/156/108 85/155/110
f 66/87/111 65/84/109 152/171/87 154/175/89
f 153/176/90 151/174/88 85/155/110 86/157/112
f 67/89/113 66/87/111 154/175/89 156/177/91
f 155/178/92 153/176/90 86/157/112 87/158/114
f 68/91/102 67/89/113 156/177/91 158/179/93
f 157/180/94 155/178/92 87/158/114 88/151/101
f 187/181/115 171/182/116 173/183/7 188/184/8
f 188/184/8 173/183/7 172/185/117 186/186/118
f 184/187/119 165/188/120 167/189/11 185/190/2
f 185/190/2 167/189/11 166/191/121 183/192/122
f 181/193/123 159/194/124 161/195/9 182/196/14
f 182/196/14 161/195/9 160/197/125 180/198/126
f 178/199/127 187/181/115 188/184/8 179/200/13
f 179/200/13 188/184/8 186/186/118 177/201/128
f 175/202/129 184/187/119 185/190/2 176/203/12
f 176/203/12 185/190/2 183/192/122 174/204/130
f 169/205/131 181/193/123 182/196/14 170/206/10
f 170/206/10 182/196/14 180/198/126 168/207/132
f 163/208/133 178/199/127 179/200/13 164/209/4
f 164/209/4 179/200/13 177/201/128 162/210/134
f 171/182/116 175/202/129 176/203/12 173/183/7
f 173/183/7 176/203/12 174/204/130 172/185/117
f 165/188/120 169/205/131 170/206/10 167/189/11
f 167/189/11 170/206/10 168/207/132 166/191/121
f 159/194/124 163/211/133 164/212/4 161/195/9
f 161/195/9 164/212/4 162/213/134 160/197/125
f 159/194/124 181/193/123 72/78/135 73/80/136
f 54/65/137 53/64/138 160/197/125 162/213/134
f 163/211/133 159/194/124 73/80/136 74/82/139
f 53/64/138 52/70/140 180/198/126 160/197/125
f 178/199/127 163/208/133 74/86/139 75/85/141
f 55/69/142 54/68/137 162/210/134 177/201/128
f 165/188/120 184/187/119 70/74/143 69/73/144
f 51/66/145 49/54/146 166/191/121 168/207/132
f 169/205/131 165/188/120 69/73/144 71/76/147
f 49/54/146 50/53/148 183/192/122 166/191/121
f 181/193/123 169/205/131 71/76/147 72/78/135
f 52/70/140 51/66/145 168/207/132 180/198/126
f 171/182/116 187/181/115 76/88/149 77/90/150
f 58/67/151 57/63/152 172/185/117 174/204/130
f 175/202/129 171/182/116 77/90/150 78/92/153
f 57/63/152 56/62/154 186/186/118 172/185/117
f 184/187/119 175/202/129 78/92/153 70/74/143
f 50/53/148 58/67/151 174/204/130 183/192/122
f 187/181/115 178/199/127 75/85/141 76/88/149
f 56/62/154 55/69/142 177/201/128 186/186/118
f 214/214/155 210/215/156 212/216/10 215/217/11
f 215/217/11 212/216/10 211/218/157 213/219/158
f 205/220/159 201/221/160 203/222/4 206/223/9
f 206/223/9 203/222/4 202/224/161 204/225/162
f 193/226/163 189/227/164 191/228/12 194/229/7
f 194/229/7 191/228/12 190/230/165 192/231/166
f 210/215/156 207/232/167 209/233/14 212/216/10
f 212/216/10 209/233/14 208/234/168 211/218/157
f 201/235/160 198/236/169 200/237/13 203/238/4
f 203/238/4 200/237/13 199/239/170 202/240/161
f 189/227/164 216/241/171 218/242/2 191/228/12
f 191/228/12 218/242/2 217/243/172 190/230/165
f 198/236/169 195/244/173 197/245/8 200/237/13
f 200/237/13 197/245/8 196/246/174 199/239/170
f 207/232/167 205/220/159 206/223/9 209/233/14
f 209/233/14 206/223/9 204/225/162 208/234/168
f 195/244/173 193/226/163 194/229/7 197/245/8
f 197/245/8 194/229/7 192/231/166 196/246/174
f 216/241/171 214/214/155 215/217/11 218/242/2
f 218/242/2 215/217/11 213/219/158 217/243/172
f 27/247/175 190/230/165 217/243/172 9/248/176
f 189/227/164 38/50/177 30/34/178 216/241/171
f 25/249/179 192/231/166 190/230/165 27/247/175
f 193/226/163 37/48/180 38/50/177 189/227/164
f 23/250/181 196/246/174 192/231/166 25/249/179
f 195/244/173 36/47/182 37/48/180 193/226/163
f 21/251/183 199/239/170 196/246/174 23/250/181
f 198/236/169 35/45/184 36/47/182 195/244/173
f 19/252/185 202/240/161 199/239/170 21/251/183
f 201/235/160 34/46/186 35/45/184 198/236/169
f 17/253/187 204/225/162 202/224/161 19/254/185
f 205/220/159 33/40/188 34/42/186 201/221/160
f 207/232/167 32/38/189 33/40/188 205/220/159
f 15/255/190 208/234/168 204/225/162 17/253/187
f 13/256/191 211/218/157 208/234/168 15/255/190
f 210/215/156 31/36/192 32/38/189 207/232/167
f 11/257/193 213/219/158 211/218/157 13/256/191
f 214/214/155 29/33/194 31/36/192 210/215/156
f 216/241/171 30/34/178 29/33/194 214/214/155
f 9/248/176 217/243/172 213/219/158 11/257/193
f 99/258/6 100/259/6 108/260/6 107/261/6 106/262/6 105/263/6 104/264/6 103/265/6 102/266/6 101/267/6
f 219/268/1 220/269/1 222/270/1 221/271/1
f 221/272/2 222/270/2 226/273/2 225/274/2
f 225/275/3 226/273/3 224/276/3 223/277/3
f 223/278/4 224/276/4 220/269/4 219/279/4
f 221/280/5 225/281/5 223/282/5 219/283/5
f 226/273/6 222/270/6 220/269/6 224/276/6
f 244/284/7 242/285/8 264/286/8 265/287/7
f 227/288/5 229/289/5 231/290/5 233/291/5 235/292/5 237/293/5 239/294/5 241/295/5 243/296/5 245/297/5
f 228/298/6 230/299/6 247/300/6 248/301/6
f 230/299/6 232/302/6 249/303/6 247/300/6
f 232/302/6 234/304/6 250/305/6 249/303/6
f 234/304/6 236/306/6 251/307/6 250/305/6
f 236/306/6 238/308/6 252/309/6 251/307/6
f 238/310/6 240/311/6 253/312/6 252/313/6
f 240/311/6 242/285/6 254/314/6 253/312/6
f 242/285/6 244/284/6 255/315/6 254/314/6
f 244/284/6 246/316/6 256/317/6 255/315/6
f 246/316/6 228/298/6 248/301/6 256/317/6
f 257/318/5 258/319/5 268/320/5 267/321/5
f 238/308/4 236/306/9 261/322/9 262/323/4
f 232/302/10 230/299/11 257/318/11 259/324/10
f 246/316/12 244/284/7 265/287/7 266/325/12
f 240/311/13 238/310/4 262/326/4 263/327/13
f 234/304/14 232/302/10 259/324/10 260/328/14
f 228/298/2 246/316/12 266/325/12 258/319/2
f 242/285/8 240/311/13 263/327/13 264/286/8
f 236/306/9 234/304/14 260/328/14 261/322/9
f 230/299/11 228/298/2 258/319/2 257/318/11
f 265/287/5 264/286/5 274/329/5 275/330/5
f 262/323/5 261/322/5 271/331/5 272/332/5
f 259/324/5 257/318/5 267/321/5 269/333/5
f 266/325/5 265/287/5 275/330/5 276/334/5
f 263/327/5 262/326/5 272/335/5 273/336/5
f 260/328/5 259/324/5 269/333/5 270/337/5
f 258/319/5 266/325/5 276/334/5 268/320/5
f 264/286/5 263/327/5 273/336/5 274/329/5
f 261/322/5 260/328/5 270/337/5 271/331/5
f 278/338/6 277/339/6 287/340/6 288/341/6
f 277/339/6 279/342/6 289/343/6 287/340/6
f 279/342/6 280/344/6 290/345/6 289/343/6
f 280/344/6 281/346/6 291/347/6 290/345/6
f 281/346/6 282/348/6 292/349/6 291/347/6
f 282/350/6 283/351/6 293/352/6 292/353/6
f 283/351/6 284/354/6 294/355/6 293/352/6
f 284/354/6 285/356/6 295/357/6 294/355/6
f 285/356/6 286/358/6 296/359/6 295/357/6
f 286/358/6 278/338/6 288/341/6 296/359/6
f 315/360/15 314/361/16 324/362/16 325/363/15
f 312/364/17 311/365/18 321/366/18 322/367/17
f 309/368/19 307/369/20 317/370/20 319/371/19
f 316/372/21 315/360/15 325/363/15 326/373/21
f 313/374/22 312/375/17 322/376/17 323/377/22
f 310/378/23 309/368/19 319/371/19 320/379/23
f 308/380/24 316/372/21 326/373/21 318/381/24
f 314/361/16 313/374/22 323/377/22 324/362/16
f 311/365/18 310/378/23 320/379/23 321/366/18
f 307/369/20 308/380/24 318/381/24 317/370/20
f 328/382/25 330/383/26 332/384/27 329/385/28
f 329/385/28 332/384/27 331/386/29 327/387/30
f 334/388/31 328/382/25 329/385/28 335/389/32
f 335/389/32 329/385/28 327/387/30 333/390/33
f 337/391/34 334/388/31 335/389/32 338/392/35
f 338/392/35 335/389/32 333/390/33 336/393/36
f 340/394/37 337/391/34 338/392/35 341/395/38
f 341/395/38 338/392/35 336/393/36 339/396/39
f 343/397/40 340/394/37 341/395/38 344/398/41
f 344/398/41 341/395/38 339/396/39 342/399/42
f 346/400/43 343/401/40 344/402/41 347/403/44
f 347/403/44 344/402/41 342/404/42 345/405/45
f 349/406/46 346/400/43 347/403/44 350/407/47
f 350/407/47 347/403/44 345/405/45 348/408/48
f 352/409/49 349/406/46 350/407/47 353/410/50
f 353/410/50 350/407/47 348/408/48 351/411/51
f 355/412/52 352/409/49 353/410/50 356/413/53
f 356/413/53 353/410/50 351/411/51 354/414/54
f 330/383/26 355/412/52 356/413/53 332/384/27
f 332/384/27 356/413/53 354/414/54 331/386/29
f 297/415/55 298/416/56 330/383/26 328/382/25
f 333/390/33 327/387/30 307/369/57 309/368/58
f 327/387/30 331/386/29 308/380/59 307/369/57
f 299/417/60 297/415/55 328/382/25 334/388/31
f 331/386/29 354/414/54 316/372/61 308/380/59
f 298/416/56 306/418/62 355/412/52 330/383/26
f 300/419/63 299/417/60 334/388/31 337/391/34
f 336/393/36 333/390/33 309/368/58 310/378/64
f 301/420/65 300/419/63 337/391/34 340/394/37
f 339/396/39 336/393/36 310/378/64 311/365/66
f 302/421/67 301/420/65 340/394/37 343/397/40
f 342/399/42 339/396/39 311/365/66 312/364/68
f 303/422/69 302/423/67 343/401/40 346/400/43
f 345/405/45 342/404/42 312/375/68 313/374/70
f 304/424/71 303/422/69 346/400/43 349/406/46
f 348/408/48 345/405/45 313/374/70 314/361/72
f 305/425/73 304/424/71 349/406/46 352/409/49
f 351/411/51 348/408/48 314/361/72 315/360/74
f 306/418/62 305/425/73 352/409/49 355/412/52
f 354/414/54 351/411/51 315/360/74 316/372/61
f 358/426/75 359/427/76 360/428/77 357/429/78
f 362/430/79 358/426/75 357/429/78 361/431/80
f 364/432/81 362/430/79 361/431/80 363/433/82
f 366/434/83 364/432/81 363/433/82 365/435/84
f 368/436/85 366/434/83 365/435/84 367/437/86
f 370/438/87 368/439/85 367/440/86 369/441/88
f 372/442/89 370/438/87 369/441/88 371/443/90
f 374/444/91 372/442/89 371/443/90 373/445/92
f 376/446/93 374/444/91 373/445/92 375/447/94
f 359/427/76 376/446/93 375/447/94 360/428/77
f 357/429/78 360/428/77 298/416/95 297/415/195
f 279/342/97 277/339/98 358/426/75 362/430/79
f 277/339/98 278/338/99 359/427/76 358/426/75
f 361/431/80 357/429/78 297/415/195 299/417/100
f 360/428/77 375/447/94 306/418/101 298/416/95
f 278/338/99 286/358/102 376/446/93 359/427/76
f 280/344/103 279/342/97 362/430/79 364/432/81
f 363/433/82 361/431/80 299/417/100 300/419/104
f 281/346/105 280/344/103 364/432/81 366/434/83
f 365/435/84 363/433/82 300/419/104 301/420/196
f 282/348/107 281/346/105 366/434/83 368/436/85
f 367/437/86 365/435/84 301/420/196 302/421/108
f 283/351/109 282/350/107 368/439/85 370/438/87
f 369/441/88 367/440/86 302/423/108 303/422/110
f 284/354/111 283/351/109 370/438/87 372/442/89
f 371/443/90 369/441/88 303/422/110 304/424/112
f 285/356/113 284/354/111 372/442/89 374/444/91
f 373/445/92 371/443/90 304/424/112 305/425/114
f 286/358/102 285/356/113 374/444/91 376/446/93
f 375/447/94 373/445/92 305/425/114 306/418/101
f 405/448/115 389/449/116 391/450/7 406/451/8
f 406/451/8 391/450/7 390/452/117 404/453/118
f 402/454/119 383/455/120 385/456/11 403/457/2
f 403/457/2 385/456/11 384/458/121 401/459/122
f 399/460/123 377/461/124 379/462/9 400/463/14
f 400/463/14 379/462/9 378/464/125 398/465/126
f 396/466/127 405/448/115 406/451/8 397/467/13
f 397/467/13 406/451/8 404/453/118 395/468/128
f 393/469/129 402/454/119 403/457/2 394/470/12
f 394/470/12 403/457/2 401/459/122 392/471/130
f 387/472/131 399/460/123 400/463/14 388/473/10
f 388/473/10 400/463/14 398/465/126 386/474/132
f 381/475/133 396/466/127 397/467/13 382/476/4
f 382/476/4 397/467/13 395/468/128 380/477/134
f 389/449/116 393/469/129 394/470/12 391/450/7
f 391/450/7 394/470/12 392/471/130 390/452/117
f 383/455/120 387/472/131 388/473/10 385/456/11
f 385/456/11 388/473/10 386/474/132 384/458/121
f 377/461/124 381/478/133 382/479/4 379/462/9
f 379/462/9 382/479/4 380/480/134 378/464/125
f 377/461/124 399/460/123 290/345/135 291/347/197
f 272/332/137 271/331/198 378/464/125 380/480/134
f 381/478/133 377/461/124 291/347/197 292/349/139
f 271/331/198 270/337/140 398/465/126 378/464/125
f 396/466/127 381/475/133 292/353/139 293/352/141
f 273/336/142 272/335/137 380/477/134 395/468/128
f 383/455/120 402/454/119 288/341/143 287/340/144
f 269/333/145 267/321/146 384/458/121 386/474/132
f 387/472/131 383/455/120 287/340/144 289/343/147
f 267/321/146 268/320/148 401/459/122 384/458/121
f 399/460/123 387/472/131 289/343/147 290/345/135
f 270/337/140 269/333/145 386/474/132 398/465/126
f 389/449/116 405/448/115 294/355/149 295/357/150
f 276/334/151 275/330/152 390/452/117 392/471/130
f 393/469/129 389/449/116 295/357/150 296/359/153
f 275/330/152 274/329/154 404/453/118 390/452/117
f 402/454/119 393/469/129 296/359/153 288/341/143
f 268/320/148 276/334/151 392/471/130 401/459/122
f 405/448/115 396/466/127 293/352/141 294/355/149
f 274/329/154 273/336/142 395/468/128 404/453/118
f 432/481/155 428/482/156 430/483/10 433/484/11
f 433/484/11 430/483/10 429/485/157 431/486/158
f 423/487/159 419/488/160 421/489/4 424/490/9
f 424/490/9 421/489/4 420/491/161 422/492/162
f 411/493/163 407/494/164 409/495/12 412/496/7
f 412/496/7 409/495/12 408/497/165 410/498/166
f 428/482/156 425/499/167 427/500/14 430/483/10
f 430/483/10 427/500/14 426/501/168 429/485/157
f 419/502/160 416/503/169 418/504/13 421/505/4
f 421/505/4 418/504/13 417/506/170 420/507/161
f 407/494/164 434/508/171 436/509/2 409/495/12
f 409/495/12 436/509/2 435/510/172 408/497/165
f 416/503/169 413/511/173 415/512/8 418/504/13
f 418/504/13 415/512/8 414/513/174 417/506/170
f 425/499/167 423/487/159 424/490/9 427/500/14
f 427/500/14 424/490/9 422/492/162 426/501/168
f 413/511/173 411/493/163 412/496/7 415/512/8
f 415/512/8 412/496/7 410/498/166 414/513/174
f 434/508/171 432/481/155 433/484/11 436/509/2
f 436/509/2 433/484/11 431/486/158 435/510/172
f 245/514/175 408/497/165 435/510/172 227/515/176
f 407/494/164 256/317/177 248/301/178 434/508/171
f 243/516/179 410/498/166 408/497/165 245/514/175
f 411/493/163 255/315/180 256/317/177 407/494/164
f 241/517/181 414/513/174 410/498/166 243/516/179
f 413/511/173 254/314/182 255/315/180 411/493/163
f 239/518/183 417/506/170 414/513/174 241/517/181
f 416/503/169 253/312/184 254/314/182 413/511/173
f 237/519/185 420/507/161 417/506/170 239/518/183
f 419/502/160 252/313/186 253/312/184 416/503/169
f 235/520/187 422/492/162 420/491/161 237/521/185
f 423/487/159 251/307/188 252/309/186 419/488/160
f 425/499/167 250/305/189 251/307/188 423/487/159
f 233/522/190 426/501/168 422/492/162 235/520/187
f 231/523/191 429/485/157 426/501/168 233/522/190
f 428/482/156 249/303/192 250/305/189 425/499/167
f 229/524/193 431/486/158 429/485/157 231/523/191
f 432/481/155 247/300/194 249/303/192 428/482/156
f 434/508/171 248/301/178 247/300/194 432/481/155
f 227/515/176 435/510/172 431/486/158 229/524/193
f 317/525/6 318/526/6 326/527/6 325/528/6 324/529/6 323/530/6 322/531/6 321/532/6 320/533/6 319/534/6
f 437/535/1 438/536/1 440/537/1 439/538/1
f 439/539/2 440/537/2 444/540/2 443/541/2
f 443/542/3 444/540/3 442/543/3 441/544/3
f 441/545/4 442/543/4 438/536/4 437/546/4
f 439/547/5 443/548/5 441/549/5 437/550/5
f 444/540/6 440/537/6 438/536/6 442/543/6
f 453/551/1 454/552/1 448/553/1 447/554/1
f 447/555/2 448/553/2 452/556/2 451/557/2
f 451/558/3 452/556/3 455/559/3 456/560/3
f 450/561/5 446/562/5 458/563/5 459/564/5
f 447/565/5 451/566/5 456/567/5 453/568/5
f 452/556/6 448/553/6 454/552/6 455/559/6
f 445/569/4 446/562/4 454/552/4 453/570/4
f 450/561/4 449/571/4 456/572/4 455/559/4
f 449/571/4 445/569/4 453/570/4 456/572/4
f 446/562/4 450/561/4 455/559/4 454/552/4
f 460/573/4 459/564/4 458/563/4 457/574/4
f 449/571/1 450/561/1 459/564/1 460/573/1
f 445/569/6 449/571/6 460/573/6 457/574/6
f 446/562/3 445/569/3 457/574/3 458/563/3
f 478/575/7 476/576/8 498/577/8 499/578/7
f 461/579/5 463/580/5 465/581/5 467/582/5 469/583/5 471/584/5 473/585/5 475/586/5 477/587/5 479/588/5
f 462/589/6 464/590/6 481/591/6 482/592/6
f 464/590/6 466/593/6 483/594/6 481/591/6
f 466/593/6 468/595/6 484/596/6 483/594/6
f 468/595/6 470/597/6 485/598/6 484/596/6
f 470/597/6 472/599/6 486/600/6 485/598/6
f 472/601/6 474/602/6 487/603/6 486/604/6
f 474/602/6 476/576/6 488/605/6 487/603/6
f 476/576/6 478/575/6 489/606/6 488/605/6
f 478/575/6 480/607/6 490/608/6 489/606/6
f 480/607/6 462/589/6 482/592/6 490/608/6
f 491/609/5 492/610/5 502/611/5 501/612/5
f 472/599/4 470/597/9 495/613/9 496/614/4
f 466/593/10 464/590/11 491/609/11 493/615/10
f 480/607/12 478/575/7 499/578/7 500/616/12
f 474/602/13 472/601/4 496/617/4 497/618/13
f 468/595/14 466/593/10 493/615/10 494/619/14
f 462/589/2 480/607/12 500/616/12 492/610/2
f 476/576/8 474/602/13 497/618/13 498/577/8
f 470/597/9 468/595/14 494/619/14 495/613/9
f 464/590/11 462/589/2 492/610/2 491/609/11
f 499/578/5 498/577/5 508/620/5 509/621/5
f 496/614/5 495/613/5 505/622/5 506/623/5
f 493/615/5 491/609/5 501/612/5 503/624/5
f 500/616/5 499/578/5 509/621/5 510/625/5
f 497/618/5 496/617/5 506/626/5 507/627/5
f 494/619/5 493/615/5 503/624/5 504/628/5
f 492/610/5 500/616/5 510/625/5 502/611/5
f 498/577/5 497/618/5 507/627/5 508/620/5
f 495/613/5 494/619/5 504/628/5 505/622/5
f 512/629/6 511/630/6 521/631/6 522/632/6
f 511/630/6 513/633/6 523/634/6 521/631/6
f 513/633/6 514/635/6 524/636/6 523/634/6
f 514/635/6 515/637/6 525/638/6 524/636/6
f 515/637/6 516/639/6 526/640/6 525/638/6
f 516/641/6 517/642/6 527/643/6 526/644/6
f 517/642/6 518/645/6 528/646/6 527/643/6
f 518/645/6 519/647/6 529/648/6 528/646/6
f 519/647/6 520/649/6 530/650/6 529/648/6
f 520/649/6 512/629/6 522/632/6 530/650/6
f 549/651/15 548/652/16 558/653/16 559/654/15
f 546/655/17 545/656/18 555/657/18 556/658/17
f 543/659/19 541/660/20 551/661/20 553/662/19
f 550/663/21 549/651/15 559/654/15 560/664/21
f 547/665/22 546/666/17 556/667/17 557/668/22
f 544/669/23 543/659/19 553/662/19 554/670/23
f 542/671/24 550/663/21 560/664/21 552/672/24
f 548/652/16 547/665/22 557/668/22 558/653/16
f 545/656/18 544/669/23 554/670/23 555/657/18
f 541/660/20 542/671/24 552/672/24 551/661/20
f 562/673/25 564/674/26 566/675/27 563/676/28
f 563/676/28 566/675/27 565/677/29 561/678/30
f 568/679/31 562/673/25 563/676/28 569/680/32
f 569/680/32 563/676/28 561/678/30 567/681/33
f 571/682/34 568/679/31 569/680/32 572/683/35
f 572/683/35 569/680/32 567/681/33 570/684/36
f 574/685/37 571/682/34 572/683/35 575/686/38
f 575/686/38 572/683/35 570/684/36 573/687/39
f 577/688/40 574/685/37 575/686/38 578/689/41
f 578/689/41 575/686/38 573/687/39 576/690/42
f 580/691/43 577/692/40 578/693/41 581/694/44
f 581/694/44 578/693/41 576/695/42 579/696/45
f 583/697/46 580/691/43 581/694/44 584/698/47
f 584/698/47 581/694/44 579/696/45 582/699/48
f 586/700/49 583/697/46 584/698/47 587/701/50
f 587/701/50 584/698/47 582/699/48 585/702/51
f 589/703/52 586/700/49 587/701/50 590/704/53
f 590/704/53 587/701/50 585/702/51 588/705/54
f 564/674/26 589/703/52 590/704/53 566/675/27
f 566/675/27 590/704/53 588/705/54 565/677/29
f 531/706/55 532/707/56 564/674/26 562/673/25
f 567/681/33 561/678/30 541/660/57 543/659/58
f 561/678/30 565/677/29 542/671/59 541/660/57
f 533/708/60 531/706/55 562/673/25 568/679/31
f 565/677/29 588/705/54 550/663/61 542/671/59
f 532/707/56 540/709/62 589/703/52 564/674/26
f 534/710/63 533/708/60 568/679/31 571/682/34
f 570/684/36 567/681/33 543/659/58 544/669/64
f 535/711/65 534/710/63 571/682/34 574/685/37
f 573/687/39 570/684/36 544/669/64 545/656/66
f 536/712/67 535/711/65 574/685/37 577/688/40
f 576/690/42 573/687/39 545/656/66 546/655/68
f 537/713/69 536/714/67 577/692/40 580/691/43
f 579/696/45 576/695/42 546/666/68 547/665/70
f 538/715/71 537/713/69 580/691/43 583/697/46
f 582/699/48 579/696/45 547/665/70 548/652/72
f 539/716/73 538/715/71 583/697/46 586/700/49
f 585/702/51 582/699/48 548/652/72 549/651/74
f 540/709/62 539/716/73 586/700/49 589/703/52
f 588/705/54 585/702/51 549/651/74 550/663/61
f 592/717/75 593/718/76 594/719/77 591/720/78
f 596/721/79 592/717/75 591/720/78 595/722/80
f 598/723/81 596/721/79 595/722/80 597/724/82
f 600/725/83 598/723/81 597/724/82 599/726/84
f 602/727/85 600/725/83 599/726/84 601/728/86
f 604/729/87 602/730/85 601/731/86 603/732/88
f 606/733/89 604/729/87 603/732/88 605/734/90
f 608/735/91 606/733/89 605/734/90 607/736/92
f 610/737/93 608/735/91 607/736/92 609/738/94
f 593/718/76 610/737/93 609/738/94 594/719/77
f 591/720/78 594/719/77 532/707/95 531/706/96
f 513/633/97 511/630/98 592/717/75 596/721/79
f 511/630/98 512/629/99 593/718/76 592/717/75
f 595/722/80 591/720/78 531/706/96 533/708/100
f 594/719/77 609/738/94 540/709/101 532/707/95
f 512/629/99 520/649/102 610/737/93 593/718/76
f 514/635/103 513/633/97 596/721/79 598/723/81
f 597/724/82 595/722/80 533/708/100 534/710/104
f 515/637/105 514/635/103 598/723/81 600/725/83
f 599/726/84 597/724/82 534/710/104 535/711/106
f 516/639/107 515/637/105 600/725/83 602/727/85
f 601/728/86 599/726/84 535/711/106 536/712/108
f 517/642/109 516/641/107 602/730/85 604/729/87
f 603/732/88 601/731/86 536/714/108 537/713/110
f 518/645/111 517/642/109 604/729/87 606/733/89
f 605/734/90 603/732/88 537/713/110 538/715/112
f 519/647/113 518/645/111 606/733/89 608/735/91
f 607/736/92 605/734/90 538/715/112 539/716/114
f 520/649/102 519/647/113 608/735/91 610/737/93
f 609/738/94 607/736/92 539/716/114 540/709/101
f 639/739/115 623/740/116 625/741/7 640/742/8
f 640/742/8 625/741/7 624/743/117 638/744/118
f 636/745/119 617/746/120 619/747/11 637/748/2
f 637/748/2 619/747/11 618/749/121 635/750/122
f 633/751/123 611/752/124 613/753/9 634/754/14
f 634/754/14 613/753/9 612/755/125 632/756/126
f 630/757/127 639/739/115 640/742/8 631/758/13
f 631/758/13 640/742/8 638/744/118 629/759/128
f 627/760/129 636/745/119 637/748/2 628/761/12
f 628/761/12 637/748/2 635/750/122 626/762/130
f 621/763/131 633/751/123 634/754/14 622/764/10
f 622/764/10 634/754/14 632/756/126 620/765/132
f 615/766/133 630/757/127 631/758/13 616/767/4
f 616/767/4 631/758/13 629/759/128 614/768/134
f 623/740/116 627/760/129 628/761/12 625/741/7
f 625/741/7 628/761/12 626/762/130 624/743/117
f 617/746/120 621/763/131 622/764/10 619/747/11
f 619/747/11 622/764/10 620/765/132 618/749/121
f 611/752/124 615/769/133 616/770/4 613/753/9
f 613/753/9 616/770/4 614/771/134 612/755/125
f 611/752/124 633/751/123 524/636/135 525/638/136
f 506/623/137 505/622/138 612/755/125 614/771/134
f 615/769/133 611/752/124 525/638/136 526/640/139
f 505/622/138 504/628/140 632/756/126 612/755/125
f 630/757/127 615/766/133 526/644/139 527/643/141
f 507/627/142 506/626/137 614/768/134 629/759/128
f 617/746/120 636/745/119 522/632/143 521/631/144
f 503/624/145 501/612/146 618/749/121 620/765/132
f 621/763/131 617/746/120 521/631/144 523/634/147
f 501/612/146 502/611/148 635/750/122 618/749/121
f 633/751/123 621/763/131 523/634/147 524/636/135
f 504/628/140 503/624/145 620/765/132 632/756/126
f 623/740/116 639/739/115 528/646/149 529/648/150
f 510/625/151 509/621/152 624/743/117 626/762/130
f 627/760/129 623/740/116 529/648/150 530/650/153
f 509/621/152 508/620/154 638/744/118 624/743/117
f 636/745/119 627/760/129 530/650/153 522/632/143
f 502/611/148 510/625/151 626/762/130 635/750/122
f 639/739/115 630/757/127 527/643/141 528/646/149
f 508/620/154 507/627/142 629/759/128 638/744/118
f 666/772/155 662/773/156 664/774/10 667/775/11
f 667/775/11 664/774/10 663/776/157 665/777/158
f 657/778/159 653/779/160 655/780/4 658/781/9
f 658/781/9 655/780/4 654/782/161 656/783/162
f 645/784/163 641/785/164 643/786/12 646/787/7
f 646/787/7 643/786/12 642/788/165 644/789/166
f 662/773/156 659/790/167 661/791/14 664/774/10
f 664/774/10 661/791/14 660/792/168 663/776/157
f 653/793/160 650/794/169 652/795/13 655/796/4
f 655/796/4 652/795/13 651/797/170 654/798/161
f 641/785/164 668/799/171 670/800/2 643/786/12
f 643/786/12 670/800/2 669/801/172 642/788/165
f 650/794/169 647/802/173 649/803/8 652/795/13
f 652/795/13 649/803/8 648/804/174 651/797/170
f 659/790/167 657/778/159 658/781/9 661/791/14
f 661/791/14 658/781/9 656/783/162 660/792/168
f 647/802/173 645/784/163 646/787/7 649/803/8
f 649/803/8 646/787/7 644/789/166 648/804/174
f 668/799/171 666/772/155 667/775/11 670/800/2
f 670/800/2 667/775/11 665/777/158 669/801/172
f 479/805/175 642/788/165 669/801/172 461/806/176
f 641/785/164 490/608/177 482/592/178 668/799/171
f 477/807/199 644/789/166 642/788/165 479/805/175
f 645/784/163 489/606/180 490/608/177 641/785/164
f 475/808/181 648/804/174 644/789/166 477/807/199
f 647/802/173 488/605/182 489/606/180 645/784/163
f 473/809/183 651/797/170 648/804/174 475/808/181
f 650/794/169 487/603/184 488/605/182 647/802/173
f 471/810/185 654/798/161 651/797/170 473/809/183
f 653/793/160 486/604/186 487/603/184 650/794/169
f 469/811/187 656/783/162 654/782/161 471/812/185
f 657/778/159 485/598/188 486/600/186 653/779/160
f 659/790/167 484/596/189 485/598/188 657/778/159
f 467/813/190 660/792/168 656/783/162 469/811/187
f 465/814/200 663/776/157 660/792/168 467/813/190
f 662/773/156 483/594/192 484/596/189 659/790/167
f 463/815/193 665/777/158 663/776/157 465/814/200
f 666/772/155 481/591/194 483/594/192 662/773/156
f 668/799/171 482/592/178 481/591/194 666/772/155
f 461/806/176 669/801/172 665/777/158 463/815/193
f 551/816/6 552/817/6 560/818/6 559/819/6 558/820/6 557/821/6 556/822/6 555/823/6 554/824/6 553/825/6
f 671/826/1 672/827/1 674/828/1 673/829/1
f 673/830/2 674/828/2 678/831/2 677/832/2
f 677/833/3 678/831/3 676/834/3 675/835/3
f 675/836/4 676/834/4 672/827/4 671/837/4
f 673/838/5 677/839/5 675/840/5 671/841/5
f 678/831/6 674/828/6 672/827/6 676/834/6
f 696/842/7 694/843/8 716/844/8 717/845/7
f 679/846/5 681/847/5 683/848/5 685/849/5 687/850/5 689/851/5 691/852/5 693/853/5 695/854/5 697/855/5
f 680/856/6 682/857/6 699/858/6 700/859/6
f 682/857/6 684/860/6 701/861/6 699/858/6
f 684/860/6 686/862/6 702/863/6 701/861/6
f 686/862/6 688/864/6 703/865/6 702/863/6
f 688/864/6 690/866/6 704/867/6 703/865/6
f 690/868/6 692/869/6 705/870/6 704/871/6
f 692/869/6 694/843/6 706/872/6 705/870/6
f 694/843/6 696/842/6 707/873/6 706/872/6
f 696/842/6 698/874/6 708/875/6 707/873/6
f 698/874/6 680/856/6 700/859/6 708/875/6
f 709/876/5 710/877/5 720/878/5 719/879/5
f 690/866/4 688/864/9 713/880/9 714/881/4
f 684/860/10 682/857/11 709/876/11 711/882/10
f 698/874/12 696/842/7 717/845/7 718/883/12
f 692/869/13 690/868/4 714/884/4 715/885/13
f 686/862/14 684/860/10 711/882/10 712/886/14
f 680/856/2 698/874/12 718/883/12 710/877/2
f 694/843/8 692/869/13 715/885/13 716/844/8
f 688/864/9 686/862/14 712/886/14 713/880/9
f 682/857/11 680/856/2 710/877/2 709/876/11
f 717/845/5 716/844/5 726/887/5 727/888/5
f 714/881/5 713/880/5 723/889/5 724/890/5
f 711/882/5 709/876/5 719/879/5 721/891/5
f 718/883/5 717/845/5 727/888/5 728/892/5
f 715/885/5 714/884/5 724/893/5 725/894/5
f 712/886/5 711/882/5 721/891/5 722/895/5
f 710/877/5 718/883/5 728/892/5 720/878/5
f 716/844/5 715/885/5 725/894/5 726/887/5
f 713/880/5 712/886/5 722/895/5 723/889/5
f 730/896/6 729/897/6 739/898/6 740/899/6
f 729/897/6 731/900/6 741/901/6 739/898/6
f 731/900/6 732/902/6 742/903/6 741/901/6
f 732/902/6 733/904/6 743/905/6 742/903/6
f 733/904/6 734/906/6 744/907/6 743/905/6
f 734/908/6 735/909/6 745/910/6 744/911/6
f 735/909/6 736/912/6 746/913/6 745/910/6
f 736/912/6 737/914/6 747/915/6 746/913/6
f 737/914/6 738/916/6 748/917/6 747/915/6
f 738/916/6 730/896/6 740/899/6 748/917/6
f 767/918/15 766/919/16 776/920/16 777/921/15
f 764/922/17 763/923/18 773/924/18 774/925/17
f 761/926/19 759/927/20 769/928/20 771/929/19
f 768/930/21 767/918/15 777/921/15 778/931/21
f 765/932/22 764/933/17 774/934/17 775/935/22
f 762/936/23 761/926/19 771/929/19 772/937/23
f 760/938/24 768/930/21 778/931/21 770/939/24
f 766/919/16 765/932/22 775/935/22 776/920/16
f 763/923/18 762/936/23 772/937/23 773/924/18
f 759/927/20 760/938/24 770/939/24 769/928/20
f 780/940/25 782/941/26 784/942/27 781/943/28
f 781/943/28 784/942/27 783/944/29 779/945/30
f 786/946/31 780/940/25 781/943/28 787/947/32
f 787/947/32 781/943/28 779/945/30 785/948/33
f 789/949/34 786/946/31 787/947/32 790/950/35
f 790/950/35 787/947/32 785/948/33 788/951/36
f 792/952/37 789/949/34 790/950/35 793/953/38
f 793/953/38 790/950/35 788/951/36 791/954/39
f 795/955/40 792/952/37 793/953/38 796/956/41
f 796/956/41 793/953/38 791/954/39 794/957/42
f 798/958/43 795/959/40 796/960/41 799/961/44
f 799/961/44 796/960/41 794/962/42 797/963/45
f 801/964/46 798/958/43 799/961/44 802/965/47
f 802/965/47 799/961/44 797/963/45 800/966/48
f 804/967/49 801/964/46 802/965/47 805/968/50
f 805/968/50 802/965/47 800/966/48 803/969/51
f 807/970/52 804/967/49 805/968/50 808/971/53
f 808/971/53 805/968/50 803/969/51 806/972/54
f 782/941/26 807/970/52 808/971/53 784/942/27
f 784/942/27 808/971/53 806/972/54 783/944/29
f 749/973/55 750/974/56 782/941/26 780/940/25
f 785/948/33 779/945/30 759/927/57 761/926/58
f 779/945/30 783/944/29 760/938/59 759/927/57
f 751/975/60 749/973/55 780/940/25 786/946/31
f 783/944/29 806/972/54 768/930/61 760/938/59
f 750/974/56 758/976/62 807/970/52 782/941/26
f 752/977/63 751/975/60 786/946/31 789/949/34
f 788/951/36 785/948/33 761/926/58 762/936/64
f 753/978/65 752/977/63 789/949/34 792/952/37
f 791/954/39 788/951/36 762/936/64 763/923/66
f 754/979/67 753/978/65 792/952/37 795/955/40
f 794/957/42 791/954/39 763/923/66 764/922/68
f 755/980/69 754/981/67 795/959/40 798/958/43
f 797/963/45 794/962/42 764/933/68 765/932/70
f 756/982/71 755/980/69 798/958/43 801/964/46
f 800/966/48 797/963/45 765/932/70 766/919/72
f 757/983/73 756/982/71 801/964/46 804/967/49
f 803/969/51 800/966/48 766/919/72 767/918/74
f 758/976/62 757/983/73 804/967/49 807/970/52
f 806/972/54 803/969/51 767/918/74 768/930/61
f 810/984/75 811/985/76 812/986/77 809/987/78
f 814/988/79 810/984/75 809/987/78 813/989/80
f 816/990/81 814/988/79 813/989/80 815/991/82
f 818/992/83 816/990/81 815/991/82 817/993/84
f 820/994/85 818/992/83 817/993/84 819/995/86
f 822/996/87 820/997/85 819/998/86 821/999/88
f 824/1000/89 822/996/87 821/999/88 823/1001/90
f 826/1002/91 824/1000/89 823/1001/90 825/1003/92
f 828/1004/93 826/1002/91 825/1003/92 827/1005/94
f 811/985/76 828/1004/93 827/1005/94 812/986/77
f 809/987/78 812/986/77 750/974/95 749/973/96
f 731/900/97 729/897/98 810/984/75 814/988/79
f 729/897/98 730/896/99 811/985/76 810/984/75
f 813/989/80 809/987/78 749/973/96 751/975/100
f 812/986/77 827/1005/94 758/976/101 750/974/95
f 730/896/99 738/916/102 828/1004/93 811/985/76
f 732/902/103 731/900/97 814/988/79 816/990/81
f 815/991/82 813/989/80 751/975/100 752/977/104
f 733/904/105 732/902/103 816/990/81 818/992/83
f 817/993/84 815/991/82 752/977/104 753/978/196
f 734/906/107 733/904/105 818/992/83 820/994/85
f 819/995/86 817/993/84 753/978/196 754/979/108
f 735/909/109 734/908/107 820/997/85 822/996/87
f 821/999/88 819/998/86 754/981/108 755/980/110
f 736/912/111 735/909/109 822/996/87 824/1000/89
f 823/1001/90 821/999/88 755/980/110 756/982/112
f 737/914/113 736/912/111 824/1000/89 826/1002/91
f 825/1003/92 823/1001/90 756/982/112 757/983/114
f 738/916/102 737/914/113 826/1002/91 828/1004/93
f 827/1005/94 825/1003/92 757/983/114 758/976/101
f 857/1006/201 841/1007/202 843/1008/7 858/1009/8
f 858/1009/8 843/1008/7 842/1010/117 856/1011/118
f 854/1012/119 835/1013/120 837/1014/11 855/1015/2
f 855/1015/2 837/1014/11 836/1016/121 853/1017/122
f 851/1018/123 829/1019/124 831/1020/9 852/1021/14
f 852/1021/14 831/1020/9 830/1022/125 850/1023/126
f 848/1024/127 857/1006/201 858/1009/8 849/1025/13
f 849/1025/13 858/1009/8 856/1011/118 847/1026/128
f 845/1027/129 854/1012/119 855/1015/2 846/1028/12
f 846/1028/12 855/1015/2 853/1017/122 844/1029/130
f 839/1030/131 851/1018/123 852/1021/14 840/1031/10
f 840/1031/10 852/1021/14 850/1023/126 838/1032/132
f 833/1033/133 848/1024/127 849/1025/13 834/1034/4
f 834/1034/4 849/1025/13 847/1026/128 832/1035/134
f 841/1007/202 845/1027/129 846/1028/12 843/1008/7
f 843/1008/7 846/1028/12 844/1029/130 842/1010/117
f 835/1013/120 839/1030/131 840/1031/10 837/1014/11
f 837/1014/11 840/1031/10 838/1032/132 836/1016/121
f 829/1019/124 833/1036/133 834/1037/4 831/1020/9
f 831/1020/9 834/1037/4 832/1038/134 830/1022/125
f 829/1019/124 851/1018/123 742/903/135 743/905/197
f 724/890/137 723/889/198 830/1022/125 832/1038/134
f 833/1036/133 829/1019/124 743/905/197 744/907/139
f 723/889/198 722/895/140 850/1023/126 830/1022/125
f 848/1024/127 833/1033/133 744/911/139 745/910/203
f 725/894/142 724/893/137 832/1035/134 847/1026/128
f 835/1013/120 854/1012/119 740/899/143 739/898/204
f 721/891/145 719/879/205 836/1016/121 838/1032/132
f 839/1030/131 835/1013/120 739/898/204 741/901/147
f 719/879/205 720/878/148 853/1017/122 836/1016/121
f 851/1018/123 839/1030/131 741/901/147 742/903/135
f 722/895/140 721/891/145 838/1032/132 850/1023/126
f 841/1007/202 857/1006/201 746/913/206 747/915/150
f 728/892/151 727/888/152 842/1010/117 844/1029/130
f 845/1027/129 841/1007/202 747/915/150 748/917/153
f 727/888/152 726/887/154 856/1011/118 842/1010/117
f 854/1012/119 845/1027/129 748/917/153 740/899/143
f 720/878/148 728/892/151 844/1029/130 853/1017/122
f 857/1006/201 848/1024/127 745/910/203 746/913/206
f 726/887/154 725/894/142 847/1026/128 856/1011/118
f 884/1039/155 880/1040/156 882/1041/10 885/1042/11
f 885/1042/11 882/1041/10 881/1043/157 883/1044/158
f 875/1045/159 871/1046/160 873/1047/4 876/1048/9
f 876/1048/9 873/1047/4 872/1049/161 874/1050/162
f 863/1051/163 859/1052/164 861/1053/12 864/1054/7
f 864/1054/7 861/1053/12 860/1055/165 862/1056/166
f 880/1040/156 877/1057/167 879/1058/14 882/1041/10
f 882/1041/10 879/1058/14 878/1059/168 881/1043/157
f 871/1060/160 868/1061/169 870/1062/13 873/1063/4
f 873/1063/4 870/1062/13 869/1064/170 872/1065/161
f 859/1052/164 886/1066/171 888/1067/2 861/1053/12
f 861/1053/12 888/1067/2 887/1068/172 860/1055/165
f 868/1061/169 865/1069/173 867/1070/8 870/1062/13
f 870/1062/13 867/1070/8 866/1071/174 869/1064/170
f 877/1057/167 875/1045/159 876/1048/9 879/1058/14
f 879/1058/14 876/1048/9 874/1050/162 878/1059/168
f 865/1069/173 863/1051/163 864/1054/7 867/1070/8
f 867/1070/8 864/1054/7 862/1056/166 866/1071/174
f 886/1066/171 884/1039/155 885/1042/11 888/1067/2
f 888/1067/2 885/1042/11 883/1044/158 887/1068/172
f 697/1072/175 860/1055/165 887/1068/172 679/1073/176
f 859/1052/164 708/875/177 700/859/178 886/1066/171
f 695/1074/199 862/1056/166 860/1055/165 697/1072/175
f 863/1051/163 707/873/180 708/875/177 859/1052/164
f 693/1075/181 866/1071/174 862/1056/166 695/1074/199
f 865/1069/173 706/872/182 707/873/180 863/1051/163
f 691/1076/183 869/1064/170 866/1071/174 693/1075/181
f 868/1061/169 705/870/184 706/872/182 865/1069/173
f 689/1077/185 872/1065/161 869/1064/170 691/1076/183
f 871/1060/160 704/871/186 705/870/184 868/1061/169
f 687/1078/187 874/1050/162 872/1049/161 689/1079/185
f 875/1045/159 703/865/188 704/867/186 871/1046/160
f 877/1057/167 702/863/189 703/865/188 875/1045/159
f 685/1080/190 878/1059/168 874/1050/162 687/1078/187
f 683/1081/200 881/1043/157 878/1059/168 685/1080/190
f 880/1040/156 701/861/192 702/863/189 877/1057/167
f 681/1082/193 883/1044/158 881/1043/157 683/1081/200
f 884/1039/155 699/858/194 701/861/192 880/1040/156
f 886/1066/171 700/859/178 699/858/194 884/1039/155
f 679/1073/176 887/1068/172 883/1044/158 681/1082/193
f 769/1083/6 770/1084/6 778/1085/6 777/1086/6 776/1087/6 775/1088/6 774/1089/6 773/1090/6 772/1091/6 771/1092/6
f 889/1093/1 890/1094/1 892/1095/1 891/1096/1
f 891/1097/2 892/1095/2 896/1098/2 895/1099/2
f 895/1100/3 896/1098/3 894/1101/3 893/1102/3
f 893/1103/4 894/1101/4 890/1094/4 889/1104/4
f 891/1105/5 895/1106/5 893/1107/5 889/1108/5
f 896/1098/6 892/1095/6 890/1094/6 894/1101/6
