# Blender 5.0.1
# www.blender.org
o Wall.002
v -0.000000 3.000000 -0.122465
v -0.000000 2.800000 -0.098163
v -0.000000 3.000000 -0.098163
v -1.000000 3.000000 -0.122464
v -1.000000 2.800000 -0.098162
v -1.000000 3.000000 -0.098162
v -0.000000 2.900000 -0.122465
v -0.000000 2.900000 -0.098163
v -1.000000 2.900000 -0.098162
v -1.000000 2.900000 -0.122464
v -0.000000 2.900000 -0.145883
v -0.000000 3.000000 -0.145883
v -1.000000 3.000000 -0.145883
v -1.000000 2.900000 -0.145883
v -0.000000 2.824771 -0.122465
v -0.000000 2.803319 -0.110314
v -0.000000 2.812386 -0.119209
v -1.000000 2.824771 -0.122464
v -1.000000 2.812386 -0.119208
v -1.000000 2.803319 -0.110313
v 0.000000 0.000000 -0.074801
v 0.000000 1.000000 -0.074801
v -1.000000 0.000000 -0.074801
v -1.000000 1.000000 -0.074801
v -0.000000 0.033333 -0.115960
v -0.000000 0.966667 -0.115960
v 0.000000 0.966667 -0.074801
v 0.000000 0.033333 -0.074801
v -1.000000 0.966667 -0.074801
v -1.000000 0.033333 -0.074801
v -1.000000 0.966667 -0.115960
v -1.000000 0.033333 -0.115960
v -0.000000 0.966667 -0.126481
v -1.000000 0.000000 -0.126481
v -0.000000 0.000000 -0.126481
v -1.000000 0.966667 -0.126481
v -0.000000 0.982866 -0.126481
v -0.000000 1.000000 -0.109347
v -0.000000 0.991433 -0.124186
v -0.000000 0.997704 -0.117914
v -1.000000 1.000000 -0.109347
v -1.000000 0.982866 -0.126481
v -1.000000 0.997704 -0.117914
v -1.000000 0.991433 -0.124185
v -1.000000 0.033333 -0.118244
v -1.000000 0.025096 -0.126481
v -1.000000 0.032230 -0.122362
v -1.000000 0.029215 -0.125377
v -0.000000 0.025096 -0.126481
v -0.000000 0.033333 -0.118244
v -0.000000 0.029215 -0.125378
v -0.000000 0.032230 -0.122363
v -0.926264 0.107069 -0.115960
v -0.926264 0.892931 -0.115960
v -0.073736 0.892931 -0.115960
v -0.073736 0.107069 -0.115960
v -0.926264 0.892931 -0.124937
v -0.926264 0.107069 -0.124937
v -0.073736 0.107069 -0.124938
v -0.073736 0.892931 -0.124938
v -0.907862 0.125470 -0.124937
v -0.907862 0.874530 -0.124937
v -0.092138 0.874530 -0.124938
v -0.092138 0.125470 -0.124938
v -0.907862 0.874530 -0.115792
v -0.907862 0.125470 -0.115792
v -0.092138 0.125470 -0.115792
v -0.092138 0.874530 -0.115792
v -1.000000 3.000000 0.122464
v -1.000000 2.800000 0.098162
v -1.000000 3.000000 0.098162
v 0.000000 3.000000 0.122464
v 0.000000 2.800000 0.098162
v 0.000000 3.000000 0.098162
v -1.000000 2.900000 0.122464
v -1.000000 2.900000 0.098162
v 0.000000 2.900000 0.098162
v 0.000000 2.900000 0.122464
v -1.000000 2.900000 0.145883
v -1.000000 3.000000 0.145883
v 0.000000 3.000000 0.145883
v 0.000000 2.900000 0.145883
v -1.000000 2.824771 0.122464
v -1.000000 2.803319 0.110313
v -1.000000 2.812386 0.119208
v 0.000000 2.824771 0.122464
v 0.000000 2.812386 0.119208
v 0.000000 2.803319 0.110313
v -1.000000 0.000000 0.074801
v -1.000000 1.000000 0.074801
v 0.000000 0.000000 0.074801
v 0.000000 1.000000 0.074801
v -1.000000 0.033333 0.115960
v -1.000000 0.966667 0.115960
v -1.000000 0.966667 0.074801
v -1.000000 0.033333 0.074801
v 0.000000 0.966667 0.074801
v 0.000000 0.033333 0.074801
v 0.000000 0.966667 0.115960
v 0.000000 0.033333 0.115960
v -1.000000 0.966667 0.126481
v 0.000000 0.000000 0.126481
v -1.000000 0.000000 0.126481
v 0.000000 0.966667 0.126481
v -1.000000 0.982866 0.126481
v -1.000000 1.000000 0.109347
v -1.000000 0.991433 0.124185
v -1.000000 0.997704 0.117914
v 0.000000 1.000000 0.109347
v 0.000000 0.982866 0.126481
v 0.000000 0.997704 0.117914
v 0.000000 0.991433 0.124185
v 0.000000 0.033333 0.118244
v 0.000000 0.025096 0.126481
v 0.000000 0.032230 0.122362
v 0.000000 0.029215 0.125377
v -1.000000 0.025096 0.126481
v -1.000000 0.033333 0.118244
v -1.000000 0.029215 0.125377
v -1.000000 0.032230 0.122362
v -0.073736 0.107069 0.115960
v -0.073736 0.892931 0.115960
v -0.926264 0.892931 0.115960
v -0.926264 0.107069 0.115960
v -0.073736 0.892931 0.124937
v -0.073736 0.107069 0.124937
v -0.926264 0.107069 0.124937
v -0.926264 0.892931 0.124937
v -0.092138 0.125470 0.124937
v -0.092138 0.874530 0.124937
v -0.907862 0.874530 0.124937
v -0.907862 0.125470 0.124937
v -0.092138 0.874530 0.115792
v -0.092138 0.125470 0.115792
v -0.907862 0.125470 0.115792
v -0.907862 0.874530 0.115792
v -1.000000 0.000000 0.100000
v -1.000000 3.000000 0.100000
v -1.000000 0.000000 -0.100000
v -1.000000 3.000000 -0.100000
v 0.000000 0.000000 0.100000
v 0.000000 3.000000 0.100000
v -0.000000 0.000000 -0.100000
v -0.000000 3.000000 -0.100000
v -1.000000 0.000000 0.074801
v -1.000000 1.000000 0.074801
v 0.000000 0.000000 0.074801
v 0.000000 1.000000 0.074801
v -1.000000 0.966667 0.074801
v -1.000000 0.033333 0.074801
v 0.000000 0.966667 0.074801
v 0.000000 0.033333 0.074801
vn 1.0000 -0.0000 -0.0000
vn -0.0000 -0.0000 1.0000
vn -1.0000 -0.0000 -0.0000
vn -0.0000 1.0000 -0.0000
vn -0.0000 -0.0000 -1.0000
vn -0.0000 -1.0000 -0.0000
vn -0.0000 -0.9647 -0.2635
vn -0.0000 -0.7003 -0.7138
vn -0.0000 -0.4938 -0.8696
vn -0.0000 -0.1282 -0.9918
vn -0.0000 0.9914 -0.1305
vn -0.0000 0.8660 -0.5000
vn -0.0000 0.7071 -0.7071
vn -0.0000 0.2588 -0.9659
vn -0.0000 0.1305 -0.9914
vn -0.0000 0.9659 -0.2588
vn -0.0000 -0.9647 0.2635
vn -0.0000 -0.7003 0.7138
vn -0.0000 -0.4938 0.8696
vn -0.0000 -0.1282 0.9918
vn -0.0000 0.9914 0.1305
vn -0.0000 0.8660 0.5000
vn -0.0000 0.7071 0.7071
vn -0.0000 0.2588 0.9659
vn -0.0000 0.1305 0.9914
vn -0.0000 0.9659 0.2588
vt 0.696868 0.938362
vt 0.667693 0.938362
vt 0.667693 0.931271
vt 0.696868 0.931272
vt 0.667693 0.639519
vt 0.696868 0.639519
vt 0.667693 0.632429
vt 0.696868 0.632429
vt 0.660603 0.639519
vt 0.660603 0.931271
vt 0.653771 0.931271
vt 0.653771 0.639519
vt 0.726044 0.931271
vt 0.726044 0.639519
vt 0.624596 0.639519
vt 0.624596 0.931271
vt 0.617763 0.931271
vt 0.617763 0.639519
vt 0.696868 0.945194
vt 0.667693 0.945194
vt 0.667693 0.625597
vt 0.696868 0.625597
vt 0.584698 0.931271
vt 0.584698 0.639519
vt 0.588373 0.639519
vt 0.588373 0.931271
vt 0.592079 0.639519
vt 0.592079 0.931271
vt 0.595815 0.639519
vt 0.595815 0.931271
vt 0.725076 0.934817
vt 0.722430 0.937412
vt 0.718817 0.938362
vt 0.718817 0.632429
vt 0.722430 0.633379
vt 0.725076 0.635974
vt 0.859335 0.266624
vt 0.607468 0.266624
vt 0.608785 0.265306
vt 0.858018 0.265306
vt 0.881120 0.609851
vt 0.881120 0.625119
vt 0.585683 0.625119
vt 0.585683 0.609851
vt 0.815981 0.635322
vt 0.815981 0.907624
vt 0.803973 0.907624
vt 0.803973 0.635322
vt 0.797357 0.635322
vt 0.797357 0.907624
vt 0.785349 0.907624
vt 0.785349 0.635322
vt 0.585683 0.288453
vt 0.881120 0.288453
vt 0.881120 0.291561
vt 0.585683 0.291561
vt 0.881120 0.304208
vt 0.585683 0.304208
vt 0.585683 0.301588
vt 0.881120 0.301588
vt 0.585683 0.298968
vt 0.881120 0.298968
vt 0.585683 0.296347
vt 0.881120 0.296347
vt 0.800426 0.907624
vt 0.800426 0.912350
vt 0.799757 0.914850
vt 0.797927 0.916679
vt 0.795428 0.917349
vt 0.785349 0.917349
vt 0.585683 0.314414
vt 0.881120 0.314414
vt 0.815981 0.917350
vt 0.805903 0.917350
vt 0.803403 0.916680
vt 0.801573 0.914850
vt 0.800904 0.912351
vt 0.800904 0.907624
vt 0.881916 0.011506
vt 0.584888 0.011506
vt 0.584698 0.010239
vt 0.882106 0.010239
vt 0.584698 0.008971
vt 0.882106 0.008971
vt 0.584698 0.007702
vt 0.882106 0.007702
vt 0.882106 0.000239
vt 0.584698 0.000239
vt 0.881726 0.012184
vt 0.585078 0.012184
vt 0.803307 0.635322
vt 0.802105 0.635000
vt 0.801226 0.634120
vt 0.800904 0.632918
vt 0.800904 0.625597
vt 0.815981 0.625597
vt 0.785349 0.625596
vt 0.800426 0.625597
vt 0.800426 0.632918
vt 0.800104 0.634120
vt 0.799225 0.635000
vt 0.798023 0.635322
vt 0.859752 0.034010
vt 0.607052 0.034010
vt 0.852651 0.259930
vt 0.614153 0.259930
vt 0.615463 0.258617
vt 0.851341 0.258617
vt 0.858337 0.035328
vt 0.608467 0.035328
vt 0.852855 0.040703
vt 0.613949 0.040703
vt 0.851443 0.042016
vt 0.615361 0.042016
vt 0.999761 0.000239
vt 0.999761 0.875496
vt 0.941411 0.875496
vt 0.941411 0.000239
vt 0.291991 0.000239
vt 0.291991 0.875496
vt 0.000239 0.875496
vt 0.000239 0.000239
vt 0.940934 0.000239
vt 0.940934 0.875496
vt 0.882583 0.875496
vt 0.882583 0.000239
vt 0.584221 0.000239
vt 0.584221 0.875496
vt 0.292468 0.875496
vt 0.292468 0.000239
vt 0.784872 0.625597
vt 0.784872 0.917349
vt 0.726521 0.917349
vt 0.726521 0.625597
vt 0.291991 0.933846
vt 0.000239 0.933847
vt 0.585683 0.324262
vt 0.881120 0.324262
vt 0.585683 0.600003
vt 0.881120 0.600003
s 1
f 7/1/1 1/2/1 3/3/1 8/4/1
f 8/4/2 3/3/2 6/5/2 9/6/2
f 9/6/3 6/5/3 4/7/3 10/8/3
f 4/9/4 1/10/4 12/11/4 13/12/4
f 6/5/4 3/3/4 1/10/4 4/9/4
f 2/13/2 8/4/2 9/6/2 5/14/2
f 14/15/5 13/12/5 12/11/5 11/16/5
f 7/17/6 10/18/6 14/15/6 11/16/6
f 1/2/1 7/1/1 11/19/1 12/20/1
f 10/8/3 4/7/3 13/21/3 14/22/3
f 2/23/7 5/24/7 20/25/7 16/26/7
f 16/26/8 20/25/8 19/27/9 17/28/9
f 17/28/9 19/27/9 18/29/10 15/30/10
f 2/13/1 16/31/1 17/32/1 15/33/1 7/1/1 8/4/1
f 18/29/10 10/18/5 7/17/5 15/30/10
f 5/14/3 9/6/3 10/8/3 18/34/3 19/35/3 20/36/3
f 54/37/4 55/38/4 60/39/4 57/40/4
f 23/41/6 34/42/6 35/43/6 21/44/6
f 30/45/3 29/46/3 31/47/3 32/48/3
f 25/49/1 26/50/1 27/51/1 28/52/1
f 26/53/6 31/54/6 36/55/6 33/56/6
f 41/57/11 38/58/11 40/59/12 43/60/12
f 43/60/12 40/59/12 39/61/13 44/62/13
f 44/62/14 39/61/14 37/63/15 42/64/15
f 26/50/1 33/65/1 37/66/1 39/67/1 40/68/1 38/69/1 22/70/1 27/51/1
f 36/55/5 42/64/15 37/63/15 33/56/5
f 22/71/4 38/58/11 41/57/11 24/72/4
f 24/73/3 41/74/3 43/75/3 44/76/3 42/77/3 36/78/3 31/47/3 29/46/3
f 45/79/11 50/80/11 52/81/16 47/82/16
f 47/82/13 52/81/13 51/83/13 48/84/13
f 48/84/14 51/83/14 49/85/15 46/86/15
f 34/87/5 46/86/15 49/85/15 35/88/5
f 32/89/4 25/90/4 50/80/11 45/79/11
f 32/48/3 45/91/3 47/92/3 48/93/3 46/94/3 34/95/3 23/96/3 30/45/3
f 21/97/1 35/98/1 49/99/1 51/100/1 52/101/1 50/102/1 25/49/1 28/52/1
f 32/89/5 31/54/5 54/37/5 53/103/5
f 31/54/5 26/53/5 55/38/5 54/37/5
f 26/53/5 25/90/5 56/104/5 55/38/5
f 25/90/5 32/89/5 53/103/5 56/104/5
f 62/105/6 63/106/6 68/107/6 65/108/6
f 53/103/3 54/37/3 57/40/3 58/109/3
f 55/38/1 56/104/1 59/110/1 60/39/1
f 56/104/6 53/103/6 58/109/6 59/110/6
f 58/109/5 57/40/5 62/105/5 61/111/5
f 57/40/5 60/39/5 63/106/5 62/105/5
f 60/39/5 59/110/5 64/112/5 63/106/5
f 59/110/5 58/109/5 61/111/5 64/112/5
f 66/113/5 65/108/5 68/107/5 67/114/5
f 61/111/1 62/105/1 65/108/1 66/113/1
f 63/106/3 64/112/3 67/114/3 68/107/3
f 64/112/4 61/111/4 66/113/4 67/114/4
f 75/1/3 69/2/3 71/3/3 76/4/3
f 76/4/5 71/3/5 74/5/5 77/6/5
f 77/6/1 74/5/1 72/7/1 78/8/1
f 72/9/4 69/10/4 80/11/4 81/12/4
f 74/5/4 71/3/4 69/10/4 72/9/4
f 70/13/5 76/4/5 77/6/5 73/14/5
f 82/15/2 81/12/2 80/11/2 79/16/2
f 75/17/6 78/18/6 82/15/6 79/16/6
f 69/2/3 75/1/3 79/19/3 80/20/3
f 78/8/1 72/7/1 81/21/1 82/22/1
f 70/23/17 73/24/17 88/25/17 84/26/17
f 84/26/18 88/25/18 87/27/19 85/28/19
f 85/28/19 87/27/19 86/29/20 83/30/20
f 70/13/3 84/31/3 85/32/3 83/33/3 75/1/3 76/4/3
f 86/29/20 78/18/2 75/17/2 83/30/20
f 73/14/1 77/6/1 78/8/1 86/34/1 87/35/1 88/36/1
f 122/37/4 123/38/4 128/39/4 125/40/4
f 91/41/6 102/42/6 103/43/6 89/44/6
f 98/45/1 97/46/1 99/47/1 100/48/1
f 93/49/3 94/50/3 95/51/3 96/52/3
f 94/53/6 99/54/6 104/55/6 101/56/6
f 109/57/21 106/58/21 108/59/22 111/60/22
f 111/60/22 108/59/22 107/61/23 112/62/23
f 112/62/24 107/61/24 105/63/25 110/64/25
f 94/50/3 101/65/3 105/66/3 107/67/3 108/68/3 106/69/3 90/70/3 95/51/3
f 104/55/2 110/64/25 105/63/25 101/56/2
f 90/71/4 106/58/21 109/57/21 92/72/4
f 92/73/1 109/74/1 111/75/1 112/76/1 110/77/1 104/78/1 99/47/1 97/46/1
f 113/79/21 118/80/21 120/81/26 115/82/26
f 115/82/23 120/81/23 119/83/23 116/84/23
f 116/84/24 119/83/24 117/85/25 114/86/25
f 102/87/2 114/86/25 117/85/25 103/88/2
f 100/89/4 93/90/4 118/80/21 113/79/21
f 100/48/1 113/91/1 115/92/1 116/93/1 114/94/1 102/95/1 91/96/1 98/45/1
f 89/97/3 103/98/3 117/99/3 119/100/3 120/101/3 118/102/3 93/49/3 96/52/3
f 100/89/2 99/54/2 122/37/2 121/103/2
f 99/54/2 94/53/2 123/38/2 122/37/2
f 94/53/2 93/90/2 124/104/2 123/38/2
f 93/90/2 100/89/2 121/103/2 124/104/2
f 130/105/6 131/106/6 136/107/6 133/108/6
f 121/103/1 122/37/1 125/40/1 126/109/1
f 123/38/3 124/104/3 127/110/3 128/39/3
f 124/104/6 121/103/6 126/109/6 127/110/6
f 126/109/2 125/40/2 130/105/2 129/111/2
f 125/40/2 128/39/2 131/106/2 130/105/2
f 128/39/2 127/110/2 132/112/2 131/106/2
f 127/110/2 126/109/2 129/111/2 132/112/2
f 134/113/2 133/108/2 136/107/2 135/114/2
f 129/111/3 130/105/3 133/108/3 134/113/3
f 131/106/1 132/112/1 135/114/1 136/107/1
f 132/112/4 129/111/4 134/113/4 135/114/4
f 137/115/3 138/116/3 140/117/3 139/118/3
f 139/119/5 140/120/5 144/121/5 143/122/5
f 143/123/1 144/124/1 142/125/1 141/126/1
f 141/127/2 142/128/2 138/129/2 137/130/2
f 139/131/6 143/132/6 141/133/6 137/134/6
f 144/121/4 140/120/4 138/135/4 142/136/4
f 149/137/5 146/71/5 148/72/5 151/138/5
f 145/44/5 150/139/5 152/140/5 147/41/5
f 150/139/5 149/137/5 151/138/5 152/140/5
