# Blender 5.0.1
# www.blender.org
o Cube.003
v 0.075491 0.123626 -0.120352
v 0.075491 -0.117905 -0.120352
v 0.015138 0.123626 -0.120352
v 0.015138 -0.117905 -0.120352
v 0.053812 0.123626 0.071885
v 0.075491 0.123626 0.056503
v 0.069141 0.123626 0.067379
v 0.075491 -0.117905 0.056503
v 0.053812 -0.117905 0.071885
v 0.069141 -0.117905 0.067379
v 0.015138 0.123626 0.056503
v 0.036816 0.123626 0.071885
v 0.021487 0.123626 0.067379
v 0.036816 -0.117905 0.071885
v 0.015138 -0.117905 0.056503
v 0.021487 -0.117905 0.067379
v 0.052508 0.123626 0.067232
v 0.064123 0.123626 0.063818
v 0.068934 0.123626 0.055577
v 0.068934 0.123626 -0.115700
v 0.021695 0.123626 -0.115700
v 0.021695 0.123626 0.055577
v 0.026506 0.123626 0.063818
v 0.038121 0.123626 0.067232
v 0.038121 -0.117905 0.067232
v 0.026506 -0.117905 0.063818
v 0.021695 -0.117905 0.055577
v 0.021695 -0.117905 -0.115700
v 0.068934 -0.117905 -0.115700
v 0.068934 -0.117905 0.055577
v 0.064123 -0.117905 0.063818
v 0.052508 -0.117905 0.067232
v 0.064123 0.121972 0.063818
v 0.052508 0.121972 0.067232
v 0.038121 0.121972 0.067232
v 0.068934 0.121972 0.055577
v 0.068934 0.121972 -0.115700
v 0.021695 0.121972 -0.115700
v 0.021695 0.121972 0.055577
v 0.026506 0.121972 0.063818
v 0.026506 -0.116251 0.063818
v 0.038121 -0.116251 0.067232
v 0.052508 -0.116251 0.067232
v 0.021695 -0.116251 0.055577
v 0.021695 -0.116251 -0.115700
v 0.068934 -0.116251 -0.115700
v 0.068934 -0.116251 0.055577
v 0.064123 -0.116251 0.063818
v -0.081467 0.135701 -0.141641
v -0.081467 -0.118498 -0.141641
v -0.124290 0.135701 -0.141641
v -0.124290 -0.118498 -0.141641
v -0.096849 0.135701 0.050596
v -0.081467 0.135701 0.035214
v -0.085972 0.135701 0.046090
v -0.081467 -0.118498 0.035214
v -0.096849 -0.118498 0.050596
v -0.085972 -0.118498 0.046090
v -0.124290 0.135701 0.035214
v -0.108908 0.135701 0.050596
v -0.119784 0.135701 0.046090
v -0.108908 -0.118498 0.050596
v -0.124290 -0.118498 0.035214
v -0.119784 -0.118498 0.046090
v -0.097774 0.135701 0.045943
v -0.089533 0.135701 0.042529
v -0.086120 0.135701 0.034288
v -0.086120 0.135701 -0.136989
v -0.119637 0.135701 -0.136989
v -0.119637 0.135701 0.034288
v -0.116224 0.135701 0.042529
v -0.107982 0.135701 0.045943
v -0.107982 -0.118498 0.045943
v -0.116224 -0.118498 0.042529
v -0.119637 -0.118498 0.034288
v -0.119637 -0.118498 -0.136989
v -0.086120 -0.118498 -0.136989
v -0.086120 -0.118498 0.034288
v -0.089533 -0.118498 0.042529
v -0.097774 -0.118498 0.045943
v -0.089533 0.133960 0.042529
v -0.097774 0.133960 0.045943
v -0.107982 0.133960 0.045943
v -0.086120 0.133960 0.034288
v -0.086120 0.133960 -0.136989
v -0.119637 0.133960 -0.136989
v -0.119637 0.133960 0.034288
v -0.116224 0.133960 0.042529
v -0.116224 -0.116757 0.042529
v -0.107982 -0.116757 0.045943
v -0.097774 -0.116757 0.045943
v -0.119637 -0.116757 0.034288
v -0.119637 -0.116757 -0.136989
v -0.086120 -0.116757 -0.136989
v -0.086120 -0.116757 0.034288
v -0.089533 -0.116757 0.042529
v 0.013582 0.107093 -0.150198
v 0.013582 -0.118204 -0.150198
v -0.079686 0.107093 -0.150198
v -0.079686 -0.118204 -0.150198
v -0.019919 0.107093 0.042039
v 0.013582 0.107093 0.026657
v 0.003770 0.107093 0.037534
v 0.013582 -0.118204 0.026657
v -0.019919 -0.118204 0.042039
v 0.003770 -0.118204 0.037534
v -0.079686 0.107093 0.026657
v -0.046184 0.107093 0.042039
v -0.069873 0.107093 0.037534
v -0.046184 -0.118204 0.042039
v -0.079686 -0.118204 0.026657
v -0.069873 -0.118204 0.037534
v -0.021935 0.107093 0.037386
v -0.003986 0.107093 0.033973
v 0.003449 0.107093 0.025732
v 0.003449 0.107093 -0.145545
v -0.069552 0.107093 -0.145545
v -0.069552 0.107093 0.025732
v -0.062118 0.107093 0.033973
v -0.044169 0.107093 0.037386
v -0.044169 -0.118204 0.037386
v -0.062118 -0.118204 0.033973
v -0.069552 -0.118204 0.025732
v -0.069552 -0.118204 -0.145545
v 0.003449 -0.118204 -0.145545
v 0.003449 -0.118204 0.025732
v -0.003986 -0.118204 0.033973
v -0.021935 -0.118204 0.037386
v -0.003986 0.105550 0.033973
v -0.021935 0.105550 0.037386
v -0.044169 0.105550 0.037386
v 0.003449 0.105550 0.025732
v 0.003449 0.105550 -0.145545
v -0.069552 0.105550 -0.145545
v -0.069552 0.105550 0.025732
v -0.062118 0.105550 0.033973
v -0.062118 -0.116662 0.033973
v -0.044169 -0.116662 0.037386
v -0.021935 -0.116662 0.037386
v -0.069552 -0.116662 0.025732
v -0.069552 -0.116662 -0.145545
v 0.003449 -0.116662 -0.145545
v 0.003449 -0.116662 0.025732
v -0.003986 -0.116662 0.033973
v 0.104214 0.107263 -0.141641
v 0.104214 -0.119070 -0.141641
v 0.077018 0.107263 -0.141641
v 0.077018 -0.119070 -0.141641
v 0.094445 0.107263 0.050596
v 0.104214 0.107263 0.035214
v 0.101352 0.107263 0.046090
v 0.104214 -0.119070 0.035214
v 0.094445 -0.119070 0.050596
v 0.101352 -0.119070 0.046090
v 0.077018 0.107263 0.035214
v 0.086787 0.107263 0.050596
v 0.079879 0.107263 0.046090
v 0.086787 -0.119070 0.050596
v 0.077018 -0.119070 0.035214
v 0.079879 -0.119070 0.046090
v 0.093857 0.107263 0.045943
v 0.099091 0.107263 0.042529
v 0.101259 0.107263 0.034288
v 0.101259 0.107263 -0.136989
v 0.079973 0.107263 -0.136989
v 0.079973 0.107263 0.034288
v 0.082141 0.107263 0.042529
v 0.087374 0.107263 0.045943
v 0.087374 -0.119070 0.045943
v 0.082141 -0.119070 0.042529
v 0.079973 -0.119070 0.034288
v 0.079973 -0.119070 -0.136989
v 0.101259 -0.119070 -0.136989
v 0.101259 -0.119070 0.034288
v 0.099091 -0.119070 0.042529
v 0.093857 -0.119070 0.045943
v 0.099091 0.105713 0.042529
v 0.093857 0.105713 0.045943
v 0.087374 0.105713 0.045943
v 0.101259 0.105713 0.034288
v 0.101259 0.105713 -0.136989
v 0.079973 0.105713 -0.136989
v 0.079973 0.105713 0.034288
v 0.082141 0.105713 0.042529
v 0.082141 -0.117520 0.042529
v 0.087374 -0.117520 0.045943
v 0.093857 -0.117520 0.045943
v 0.079973 -0.117520 0.034288
v 0.079973 -0.117520 -0.136989
v 0.101259 -0.117520 -0.136989
v 0.101259 -0.117520 0.034288
v 0.099091 -0.117520 0.042529
vn -0.0000 -0.0000 -1.0000
vn 0.9653 -0.0000 0.2611
vn 0.6164 -0.0000 0.7875
vn 0.1424 -0.0000 0.9898
vn -0.1424 -0.0000 0.9898
vn -0.6164 -0.0000 0.7875
vn -0.9653 -0.0000 0.2611
vn -0.1424 -0.0000 -0.9898
vn -0.6164 -0.0000 -0.7875
vn 1.0000 -0.0000 -0.0000
vn -0.9653 -0.0000 -0.2611
vn -1.0000 -0.0000 -0.0000
vn -0.0000 1.0000 -0.0000
vn -0.0000 -1.0000 -0.0000
vn 0.1424 -0.0000 -0.9898
vn 0.6164 -0.0000 -0.7875
vn 0.9653 -0.0000 -0.2611
vn -0.0000 -0.0000 1.0000
vn 0.9808 -0.0000 0.1951
vn 0.7071 -0.0000 0.7071
vn 0.1951 -0.0000 0.9808
vn -0.1951 -0.0000 0.9808
vn -0.7071 -0.0000 0.7071
vn -0.9808 -0.0000 0.1951
vn -0.1951 -0.0000 -0.9808
vn -0.7071 -0.0000 -0.7071
vn -0.9808 -0.0000 -0.1951
vn 0.1951 -0.0000 -0.9808
vn 0.7071 -0.0000 -0.7071
vn 0.9808 -0.0000 -0.1951
vn 0.9334 -0.0000 0.3588
vn 0.4902 -0.0000 0.8716
vn 0.0938 -0.0000 0.9956
vn -0.0938 -0.0000 0.9956
vn -0.4902 -0.0000 0.8716
vn -0.9334 -0.0000 0.3588
vn -0.0938 -0.0000 -0.9956
vn -0.4902 -0.0000 -0.8716
vn -0.9334 -0.0000 -0.3588
vn 0.0938 -0.0000 -0.9956
vn 0.4902 -0.0000 -0.8716
vn 0.9334 -0.0000 -0.3588
vn 0.9917 -0.0000 0.1283
vn 0.8109 -0.0000 0.5851
vn 0.2850 -0.0000 0.9585
vn -0.2850 -0.0000 0.9585
vn -0.8109 -0.0000 0.5851
vn -0.9917 -0.0000 0.1283
vn -0.2850 -0.0000 -0.9585
vn -0.8109 -0.0000 -0.5851
vn -0.9917 -0.0000 -0.1283
vn 0.2850 -0.0000 -0.9585
vn 0.8109 -0.0000 -0.5851
vn 0.9917 -0.0000 -0.1283
vt 0.803673 0.859450
vt 0.729551 0.859450
vt 0.729551 0.562817
vt 0.803673 0.562817
vt 0.609768 0.308571
vt 0.313135 0.308571
vt 0.313135 0.293103
vt 0.609768 0.293103
vt 0.313135 0.273481
vt 0.609768 0.273481
vt 0.609768 0.252607
vt 0.313135 0.252607
vt 0.313135 0.232985
vt 0.609768 0.232985
vt 0.313135 0.217517
vt 0.609768 0.217517
vt 0.852875 0.568922
vt 0.868037 0.573799
vt 0.866792 0.575288
vt 0.852526 0.570963
vt 0.313135 0.525773
vt 0.609768 0.525773
vt 0.891838 0.584681
vt 0.898307 0.573821
vt 0.899560 0.575313
vt 0.893708 0.585277
vt 0.313135 0.000315
vt 0.609768 0.000315
vt 0.854665 0.562877
vt 0.874698 0.569213
vt 0.882859 0.583424
vt 0.874520 0.584616
vt 0.882127 0.803313
vt 0.873903 0.797425
vt 0.805581 0.803313
vt 0.813789 0.797443
vt 0.804303 0.583511
vt 0.812653 0.584681
vt 0.812427 0.569241
vt 0.819122 0.573821
vt 0.832523 0.562817
vt 0.834313 0.568894
vt 0.933851 0.562877
vt 0.953883 0.569213
vt 0.947223 0.573799
vt 0.932061 0.568922
vt 0.962045 0.583424
vt 0.953706 0.584616
vt 0.961313 0.803313
vt 0.953088 0.797425
vt 0.884767 0.803313
vt 0.892975 0.797443
vt 0.883488 0.583511
vt 0.891613 0.569241
vt 0.911709 0.562817
vt 0.913499 0.568894
vt 0.872655 0.585214
vt 0.872907 0.796361
vt 0.814780 0.796403
vt 0.814522 0.585277
vt 0.820374 0.575313
vt 0.834666 0.570951
vt 0.931712 0.570963
vt 0.945978 0.575288
vt 0.951840 0.585214
vt 0.952092 0.796361
vt 0.893965 0.796403
vt 0.913851 0.570951
vt 0.600057 0.838594
vt 0.547465 0.838594
vt 0.547465 0.526402
vt 0.600057 0.526402
vt 0.000315 0.217517
vt 0.312506 0.217517
vt 0.312506 0.231976
vt 0.000315 0.231976
vt 0.312506 0.246434
vt 0.000315 0.246434
vt 0.000315 0.261245
vt 0.312506 0.261245
vt 0.312506 0.275703
vt 0.000315 0.275703
vt 0.312506 0.290162
vt 0.000315 0.290162
vt 0.923187 0.006611
vt 0.934232 0.011502
vt 0.932763 0.012957
vt 0.922712 0.008732
vt 0.312506 0.000315
vt 0.000315 0.000315
vt 0.893693 0.264334
vt 0.898525 0.253353
vt 0.900005 0.254811
vt 0.895759 0.264821
vt 0.312506 0.507364
vt 0.000315 0.507364
vt 0.924509 0.000384
vt 0.939053 0.006743
vt 0.945048 0.021202
vt 0.939092 0.022424
vt 0.944314 0.241520
vt 0.938441 0.235589
vt 0.889292 0.241520
vt 0.895146 0.235610
vt 0.887722 0.021298
vt 0.893693 0.022499
vt 0.893667 0.006753
vt 0.898525 0.011518
vt 0.908283 0.000315
vt 0.909593 0.006578
vt 0.924509 0.242218
vt 0.939053 0.248578
vt 0.934232 0.253337
vt 0.923187 0.248446
vt 0.945048 0.263037
vt 0.939092 0.264259
vt 0.944314 0.483355
vt 0.938441 0.477424
vt 0.889292 0.483355
vt 0.895146 0.477445
vt 0.887722 0.263133
vt 0.893667 0.248588
vt 0.908283 0.242149
vt 0.909593 0.248413
vt 0.937033 0.022916
vt 0.937408 0.234461
vt 0.896173 0.234508
vt 0.895759 0.022986
vt 0.900005 0.012976
vt 0.910070 0.008710
vt 0.922712 0.250567
vt 0.932763 0.254792
vt 0.937034 0.264751
vt 0.937408 0.476296
vt 0.896173 0.476343
vt 0.910070 0.250545
vt 0.427681 0.803098
vt 0.313135 0.803098
vt 0.313135 0.526402
vt 0.427681 0.526402
vt 0.610397 0.217517
vt 0.887093 0.217517
vt 0.887093 0.235508
vt 0.610397 0.235508
vt 0.887093 0.265123
vt 0.610397 0.265123
vt 0.610397 0.297380
vt 0.887093 0.297380
vt 0.887093 0.326995
vt 0.610397 0.326995
vt 0.887093 0.344986
vt 0.610397 0.344986
vt 0.683645 0.568755
vt 0.706550 0.573538
vt 0.705579 0.575058
vt 0.683429 0.570672
vt 0.887093 0.000315
vt 0.610397 0.000315
vt 0.441065 0.547903
vt 0.450676 0.537150
vt 0.451651 0.538671
vt 0.442668 0.548623
vt 0.887093 0.562188
vt 0.610397 0.562188
vt 0.686269 0.562862
vt 0.716607 0.569115
vt 0.728922 0.583122
vt 0.716171 0.584263
vt 0.728301 0.802729
vt 0.715660 0.796879
vt 0.611332 0.802729
vt 0.623958 0.796893
vt 0.610397 0.583198
vt 0.623152 0.584318
vt 0.622684 0.569160
vt 0.632762 0.573565
vt 0.653057 0.562817
vt 0.655688 0.568734
vt 0.504182 0.526447
vt 0.534520 0.532700
vt 0.524463 0.537123
vt 0.501558 0.532340
vt 0.546836 0.546707
vt 0.534084 0.547848
vt 0.546215 0.766314
vt 0.533574 0.760464
vt 0.429245 0.766314
vt 0.441872 0.760478
vt 0.428310 0.546783
vt 0.440597 0.532745
vt 0.470970 0.526402
vt 0.473601 0.532319
vt 0.714569 0.584984
vt 0.714719 0.795892
vt 0.624893 0.795928
vt 0.624755 0.585038
vt 0.633738 0.575086
vt 0.655910 0.570668
vt 0.501342 0.534257
vt 0.523492 0.538643
vt 0.532482 0.548569
vt 0.532632 0.759477
vt 0.442806 0.759513
vt 0.473823 0.534253
vt 0.312311 0.785961
vt 0.278911 0.785961
vt 0.278911 0.507993
vt 0.312311 0.507993
vt 0.000315 0.725196
vt 0.278282 0.725196
vt 0.278282 0.739008
vt 0.000315 0.739008
vt 0.278282 0.749137
vt 0.000315 0.749137
vt 0.000315 0.758542
vt 0.278282 0.758542
vt 0.278282 0.768670
vt 0.000315 0.768670
vt 0.278282 0.782483
vt 0.000315 0.782483
vt 0.960050 0.235539
vt 0.952780 0.230781
vt 0.954258 0.229642
vt 0.960600 0.233725
vt 0.278282 0.507993
vt 0.000315 0.507993
vt 0.949483 0.264871
vt 0.952726 0.253912
vt 0.954214 0.255050
vt 0.951396 0.265164
vt 0.278282 0.999686
vt 0.000315 0.999686
vt 0.959212 0.241976
vt 0.949723 0.235687
vt 0.945677 0.221118
vt 0.949468 0.219877
vt 0.946273 0.000315
vt 0.950023 0.006285
vt 0.981706 0.000315
vt 0.977978 0.006266
vt 0.983340 0.221032
vt 0.979534 0.219812
vt 0.979384 0.235681
vt 0.976292 0.230771
vt 0.969859 0.242028
vt 0.969029 0.235566
vt 0.969806 0.242708
vt 0.979294 0.248997
vt 0.976238 0.253902
vt 0.968968 0.249144
vt 0.983340 0.263566
vt 0.979549 0.264806
vt 0.982744 0.484369
vt 0.978994 0.478399
vt 0.947311 0.484369
vt 0.951039 0.478418
vt 0.945677 0.263651
vt 0.949634 0.249002
vt 0.959161 0.242657
vt 0.959988 0.249118
vt 0.951374 0.219574
vt 0.950920 0.007292
vt 0.977086 0.007254
vt 0.977621 0.219519
vt 0.974804 0.229633
vt 0.968483 0.233756
vt 0.968418 0.250958
vt 0.974759 0.255042
vt 0.977643 0.265109
vt 0.978098 0.477392
vt 0.951931 0.477429
vt 0.960534 0.250928
s 1
f 3/1/1 1/2/1 2/3/1 4/4/1
f 8/5/2 6/6/2 7/7/3 10/8/3
f 10/8/3 7/7/3 5/9/4 9/10/4
f 14/11/5 12/12/5 13/13/6 16/14/6
f 16/14/6 13/13/6 11/15/7 15/16/7
f 17/17/8 18/18/9 33/19/9 34/20/8
f 1/21/10 6/6/2 8/5/2 2/22/10
f 5/9/4 12/12/5 14/11/5 9/10/4
f 30/23/11 31/24/9 48/25/9 47/26/11
f 11/15/7 3/27/12 4/28/12 15/16/7
f 5/29/13 7/30/13 18/18/13 17/17/13
f 7/30/13 6/31/13 19/32/13 18/18/13
f 6/31/13 1/33/13 20/34/13 19/32/13
f 1/33/13 3/35/13 21/36/13 20/34/13
f 3/35/13 11/37/13 22/38/13 21/36/13
f 11/37/13 13/39/13 23/40/13 22/38/13
f 13/39/13 12/41/13 24/42/13 23/40/13
f 12/41/13 5/29/13 17/17/13 24/42/13
f 14/43/14 16/44/14 26/45/14 25/46/14
f 16/44/14 15/47/14 27/48/14 26/45/14
f 15/47/14 4/49/14 28/50/14 27/48/14
f 4/49/14 2/51/14 29/52/14 28/50/14
f 2/51/14 8/53/14 30/23/14 29/52/14
f 8/53/14 10/54/14 31/24/14 30/23/14
f 10/54/14 9/55/14 32/56/14 31/24/14
f 9/55/14 14/43/14 25/46/14 32/56/14
f 34/20/13 33/19/13 36/57/13 37/58/13 38/59/13 39/60/13 40/61/13 35/62/13
f 42/63/14 41/64/14 44/65/14 45/66/14 46/67/14 47/26/14 48/25/14 43/68/14
f 31/24/9 32/56/8 43/68/8 48/25/9
f 24/42/15 17/17/8 34/20/8 35/62/15
f 25/46/15 26/45/16 41/64/16 42/63/15
f 18/18/9 19/32/11 36/57/11 33/19/9
f 32/56/8 25/46/15 42/63/15 43/68/8
f 19/32/11 20/34/12 37/58/12 36/57/11
f 26/45/16 27/48/17 44/65/17 41/64/16
f 20/34/18 21/36/18 38/59/18 37/58/18
f 27/48/17 28/50/10 45/66/10 44/65/17
f 21/36/10 22/38/17 39/60/17 38/59/10
f 28/50/18 29/52/18 46/67/18 45/66/18
f 22/38/17 23/40/16 40/61/16 39/60/17
f 29/52/12 30/23/11 47/26/11 46/67/12
f 23/40/16 24/42/15 35/62/15 40/61/16
f 51/69/1 49/70/1 50/71/1 52/72/1
f 56/73/19 54/74/19 55/75/20 58/76/20
f 58/76/20 55/75/20 53/77/21 57/78/21
f 62/79/22 60/80/22 61/81/23 64/82/23
f 64/82/23 61/81/23 59/83/24 63/84/24
f 65/85/25 66/86/26 81/87/26 82/88/25
f 49/89/10 54/74/19 56/73/19 50/90/10
f 53/77/21 60/80/22 62/79/22 57/78/21
f 78/91/27 79/92/26 96/93/26 95/94/27
f 59/83/24 51/95/12 52/96/12 63/84/24
f 53/97/13 55/98/13 66/86/13 65/85/13
f 55/98/13 54/99/13 67/100/13 66/86/13
f 54/99/13 49/101/13 68/102/13 67/100/13
f 49/101/13 51/103/13 69/104/13 68/102/13
f 51/103/13 59/105/13 70/106/13 69/104/13
f 59/105/13 61/107/13 71/108/13 70/106/13
f 61/107/13 60/109/13 72/110/13 71/108/13
f 60/109/13 53/97/13 65/85/13 72/110/13
f 62/111/14 64/112/14 74/113/14 73/114/14
f 64/112/14 63/115/14 75/116/14 74/113/14
f 63/115/14 52/117/14 76/118/14 75/116/14
f 52/117/14 50/119/14 77/120/14 76/118/14
f 50/119/14 56/121/14 78/91/14 77/120/14
f 56/121/14 58/122/14 79/92/14 78/91/14
f 58/122/14 57/123/14 80/124/14 79/92/14
f 57/123/14 62/111/14 73/114/14 80/124/14
f 82/88/13 81/87/13 84/125/13 85/126/13 86/127/13 87/128/13 88/129/13 83/130/13
f 90/131/14 89/132/14 92/133/14 93/134/14 94/135/14 95/94/14 96/93/14 91/136/14
f 79/92/26 80/124/25 91/136/25 96/93/26
f 72/110/28 65/85/25 82/88/25 83/130/28
f 73/114/28 74/113/29 89/132/29 90/131/28
f 66/86/26 67/100/27 84/125/27 81/87/26
f 80/124/25 73/114/28 90/131/28 91/136/25
f 67/100/27 68/102/12 85/126/12 84/125/27
f 74/113/29 75/116/30 92/133/30 89/132/29
f 68/102/18 69/104/18 86/127/18 85/126/18
f 75/116/30 76/118/10 93/134/10 92/133/30
f 69/104/10 70/106/30 87/128/30 86/127/10
f 76/118/18 77/120/18 94/135/18 93/134/18
f 70/106/30 71/108/29 88/129/29 87/128/30
f 77/120/12 78/91/27 95/94/27 94/135/12
f 71/108/29 72/110/28 83/130/28 88/129/29
f 99/137/1 97/138/1 98/139/1 100/140/1
f 104/141/31 102/142/31 103/143/32 106/144/32
f 106/144/32 103/143/32 101/145/33 105/146/33
f 110/147/34 108/148/34 109/149/35 112/150/35
f 112/150/35 109/149/35 107/151/36 111/152/36
f 113/153/37 114/154/38 129/155/38 130/156/37
f 97/157/10 102/142/31 104/141/31 98/158/10
f 101/145/33 108/148/34 110/147/34 105/146/33
f 126/159/39 127/160/38 144/161/38 143/162/39
f 107/151/36 99/163/12 100/164/12 111/152/36
f 101/165/13 103/166/13 114/154/13 113/153/13
f 103/166/13 102/167/13 115/168/13 114/154/13
f 102/167/13 97/169/13 116/170/13 115/168/13
f 97/169/13 99/171/13 117/172/13 116/170/13
f 99/171/13 107/173/13 118/174/13 117/172/13
f 107/173/13 109/175/13 119/176/13 118/174/13
f 109/175/13 108/177/13 120/178/13 119/176/13
f 108/177/13 101/165/13 113/153/13 120/178/13
f 110/179/14 112/180/14 122/181/14 121/182/14
f 112/180/14 111/183/14 123/184/14 122/181/14
f 111/183/14 100/185/14 124/186/14 123/184/14
f 100/185/14 98/187/14 125/188/14 124/186/14
f 98/187/14 104/189/14 126/159/14 125/188/14
f 104/189/14 106/190/14 127/160/14 126/159/14
f 106/190/14 105/191/14 128/192/14 127/160/14
f 105/191/14 110/179/14 121/182/14 128/192/14
f 130/156/13 129/155/13 132/193/13 133/194/13 134/195/13 135/196/13 136/197/13 131/198/13
f 138/199/14 137/200/14 140/201/14 141/202/14 142/203/14 143/162/14 144/161/14 139/204/14
f 127/160/38 128/192/37 139/204/37 144/161/38
f 120/178/40 113/153/37 130/156/37 131/198/40
f 121/182/40 122/181/41 137/200/41 138/199/40
f 114/154/38 115/168/39 132/193/39 129/155/38
f 128/192/37 121/182/40 138/199/40 139/204/37
f 115/168/39 116/170/12 133/194/12 132/193/39
f 122/181/41 123/184/42 140/201/42 137/200/41
f 116/170/18 117/172/18 134/195/18 133/194/18
f 123/184/42 124/186/10 141/202/10 140/201/42
f 117/172/10 118/174/42 135/196/42 134/195/10
f 124/186/18 125/188/18 142/203/18 141/202/18
f 118/174/42 119/176/41 136/197/41 135/196/42
f 125/188/12 126/159/39 143/162/39 142/203/12
f 119/176/41 120/178/40 131/198/40 136/197/41
f 147/205/1 145/206/1 146/207/1 148/208/1
f 152/209/43 150/210/43 151/211/44 154/212/44
f 154/212/44 151/211/44 149/213/45 153/214/45
f 158/215/46 156/216/46 157/217/47 160/218/47
f 160/218/47 157/217/47 155/219/48 159/220/48
f 161/221/49 162/222/50 177/223/50 178/224/49
f 145/225/10 150/210/43 152/209/43 146/226/10
f 149/213/45 156/216/46 158/215/46 153/214/45
f 174/227/51 175/228/50 192/229/50 191/230/51
f 155/219/48 147/231/12 148/232/12 159/220/48
f 149/233/13 151/234/13 162/222/13 161/221/13
f 151/234/13 150/235/13 163/236/13 162/222/13
f 150/235/13 145/237/13 164/238/13 163/236/13
f 145/237/13 147/239/13 165/240/13 164/238/13
f 147/239/13 155/241/13 166/242/13 165/240/13
f 155/241/13 157/243/13 167/244/13 166/242/13
f 157/243/13 156/245/13 168/246/13 167/244/13
f 156/245/13 149/233/13 161/221/13 168/246/13
f 158/247/14 160/248/14 170/249/14 169/250/14
f 160/248/14 159/251/14 171/252/14 170/249/14
f 159/251/14 148/253/14 172/254/14 171/252/14
f 148/253/14 146/255/14 173/256/14 172/254/14
f 146/255/14 152/257/14 174/227/14 173/256/14
f 152/257/14 154/258/14 175/228/14 174/227/14
f 154/258/14 153/259/14 176/260/14 175/228/14
f 153/259/14 158/247/14 169/250/14 176/260/14
f 178/224/13 177/223/13 180/261/13 181/262/13 182/263/13 183/264/13 184/265/13 179/266/13
f 186/267/14 185/268/14 188/269/14 189/270/14 190/271/14 191/230/14 192/229/14 187/272/14
f 175/228/50 176/260/49 187/272/49 192/229/50
f 168/246/52 161/221/49 178/224/49 179/266/52
f 169/250/52 170/249/53 185/268/53 186/267/52
f 162/222/50 163/236/51 180/261/51 177/223/50
f 176/260/49 169/250/52 186/267/52 187/272/49
f 163/236/51 164/238/12 181/262/12 180/261/51
f 170/249/53 171/252/54 188/269/54 185/268/53
f 164/238/18 165/240/18 182/263/18 181/262/18
f 171/252/54 172/254/10 189/270/10 188/269/54
f 165/240/10 166/242/54 183/264/54 182/263/10
f 172/254/18 173/256/18 190/271/18 189/270/18
f 166/242/54 167/244/53 184/265/53 183/264/54
f 173/256/12 174/227/51 191/230/51 190/271/12
f 167/244/53 168/246/52 179/266/52 184/265/53
