# Blender 5.0.1
# www.blender.org
o Cube.002
v 0.064553 0.782597 0.036432
v 0.064553 0.897947 0.036432
v -0.030931 0.755050 -0.634686
v -0.030931 0.925492 -0.634686
v 0.477986 0.782597 0.036432
v 0.477986 0.897947 0.036432
v 0.576924 0.755050 -0.634686
v 0.576924 0.925492 -0.634686
v -0.030931 0.755050 0.036432
v -0.030931 0.925493 0.036432
v 0.576924 0.925493 0.036432
v 0.576924 0.755050 0.036432
v 0.064553 0.782597 0.031206
v 0.064553 0.897947 0.031206
v 0.477986 0.897947 0.031206
v 0.477986 0.782597 0.031206
v 0.000000 0.000136 -0.625102
v 0.000000 0.023438 -0.615416
v 0.016560 0.000136 -0.619721
v 0.010867 0.023438 -0.611885
v 0.026794 0.000136 -0.605635
v 0.017582 0.023438 -0.602642
v 0.026794 0.000136 -0.588223
v 0.017582 0.023438 -0.591216
v 0.016560 0.000136 -0.574136
v 0.010867 0.023438 -0.581972
v 0.000000 0.000136 -0.568755
v 0.000000 0.023438 -0.578441
v -0.016560 0.000136 -0.574136
v -0.010867 0.023438 -0.581972
v -0.026794 0.000136 -0.588223
v -0.017582 0.023438 -0.591216
v -0.026794 0.000136 -0.605635
v -0.017582 0.023438 -0.602642
v -0.016560 0.000136 -0.619721
v -0.010867 0.023438 -0.611885
v 0.016560 0.023438 -0.619721
v 0.000000 0.023438 -0.625102
v 0.026794 0.023438 -0.605635
v 0.026794 0.023438 -0.588223
v 0.016560 0.023438 -0.574136
v 0.000000 0.023438 -0.568755
v -0.016560 0.023438 -0.574136
v -0.026794 0.023438 -0.588223
v -0.026794 0.023438 -0.605635
v -0.016560 0.023438 -0.619721
v 0.010867 0.123180 -0.611885
v 0.000000 0.123180 -0.615416
v 0.017582 0.123180 -0.602642
v 0.017582 0.123180 -0.591216
v 0.010867 0.123180 -0.581972
v 0.000000 0.123180 -0.578441
v -0.010867 0.123180 -0.581972
v -0.017582 0.123180 -0.591216
v -0.017582 0.123180 -0.602642
v -0.010867 0.123180 -0.611885
v 0.015501 0.123180 -0.618264
v 0.000000 0.123180 -0.623301
v 0.025082 0.123180 -0.605078
v 0.025082 0.123180 -0.588779
v 0.015501 0.123180 -0.575593
v 0.000000 0.123180 -0.570556
v -0.015501 0.123180 -0.575593
v -0.025082 0.123180 -0.588779
v -0.025082 0.123180 -0.605078
v -0.015501 0.123180 -0.618264
v 0.010751 0.146367 -0.611726
v 0.000000 0.146367 -0.615219
v 0.017396 0.146367 -0.602581
v 0.017396 0.146367 -0.591276
v 0.010751 0.146367 -0.582131
v 0.000000 0.146367 -0.578638
v -0.010751 0.146367 -0.582131
v -0.017396 0.146367 -0.591276
v -0.017396 0.146367 -0.602581
v -0.010751 0.146367 -0.611726
v 0.015501 0.146367 -0.618264
v 0.000000 0.146367 -0.623301
v 0.025082 0.146367 -0.605078
v 0.025082 0.146367 -0.588779
v 0.015501 0.146367 -0.575593
v 0.000000 0.146367 -0.570556
v -0.015501 0.146367 -0.575593
v -0.025082 0.146367 -0.588779
v -0.025082 0.146367 -0.605078
v -0.015501 0.146367 -0.618264
v 0.007630 0.627256 -0.607431
v 0.000000 0.627256 -0.609910
v 0.012346 0.627256 -0.600940
v 0.012346 0.627256 -0.592917
v 0.007630 0.627256 -0.586426
v 0.000000 0.627256 -0.583947
v -0.007631 0.627256 -0.586426
v -0.012346 0.627256 -0.592917
v -0.012346 0.627256 -0.600940
v -0.007631 0.627256 -0.607431
v 0.009719 0.688390 -0.610306
v 0.000000 0.688390 -0.613464
v 0.015726 0.688390 -0.602038
v 0.015726 0.688390 -0.591819
v 0.009719 0.688390 -0.583551
v 0.000000 0.688390 -0.580393
v -0.009720 0.688390 -0.583551
v -0.015727 0.688390 -0.591819
v -0.015727 0.688390 -0.602038
v -0.009720 0.688390 -0.610306
v 0.018568 0.721289 -0.622486
v 0.000000 0.721289 -0.628519
v 0.030044 0.721289 -0.606690
v 0.030044 0.721289 -0.587167
v 0.018568 0.721289 -0.571371
v 0.000000 0.721289 -0.565338
v -0.018569 0.721289 -0.571371
v -0.030044 0.721289 -0.587167
v -0.030044 0.721289 -0.606690
v -0.018569 0.721289 -0.622486
v 0.015727 0.671793 -0.618576
v 0.014027 0.640591 -0.616234
v 0.017592 0.656126 -0.621142
v 0.000000 0.640591 -0.620792
v 0.000000 0.671793 -0.623685
v 0.000000 0.656126 -0.626859
v 0.025447 0.671793 -0.605197
v 0.022695 0.640591 -0.604303
v 0.028465 0.656126 -0.606177
v 0.025447 0.671793 -0.588660
v 0.022695 0.640591 -0.589554
v 0.028465 0.656126 -0.587680
v 0.015727 0.671793 -0.575282
v 0.014027 0.640591 -0.577623
v 0.017592 0.656126 -0.572715
v 0.000000 0.671793 -0.570172
v 0.000000 0.640591 -0.573065
v 0.000000 0.656126 -0.566999
v -0.015728 0.671793 -0.575282
v -0.014027 0.640591 -0.577623
v -0.017592 0.656126 -0.572715
v -0.025448 0.671793 -0.588660
v -0.022695 0.640591 -0.589554
v -0.028465 0.656126 -0.587680
v -0.025448 0.671793 -0.605197
v -0.022695 0.640591 -0.604303
v -0.028465 0.656126 -0.606177
v -0.015728 0.671793 -0.618576
v -0.014027 0.640591 -0.616234
v -0.017592 0.656126 -0.621142
v 0.018231 0.601971 -0.622021
v 0.020471 0.590454 -0.625105
v 0.000000 0.590454 -0.631756
v 0.000000 0.601971 -0.627945
v 0.029498 0.601971 -0.606513
v 0.033123 0.590454 -0.607691
v 0.029498 0.601971 -0.587344
v 0.033123 0.590454 -0.586166
v 0.018231 0.601971 -0.571836
v 0.020471 0.590454 -0.568753
v 0.000000 0.601971 -0.565913
v 0.000000 0.590454 -0.562101
v -0.018231 0.601971 -0.571836
v -0.020471 0.590454 -0.568753
v -0.029498 0.601971 -0.587344
v -0.033123 0.590454 -0.586166
v -0.029498 0.601971 -0.606513
v -0.033123 0.590454 -0.607691
v -0.018231 0.601971 -0.622021
v -0.020471 0.590454 -0.625105
v 0.016649 0.143676 -0.574013
v 0.016649 0.125871 -0.574013
v 0.018221 0.134773 -0.571850
v 0.000000 0.125871 -0.568604
v 0.000000 0.143676 -0.568604
v 0.000000 0.134773 -0.565929
v 0.016649 0.143676 -0.619844
v 0.016649 0.125871 -0.619844
v 0.018221 0.134773 -0.622008
v 0.026939 0.125871 -0.605681
v 0.026939 0.143676 -0.605681
v 0.029482 0.134773 -0.606508
v -0.026939 0.143676 -0.605681
v -0.026939 0.125871 -0.605681
v -0.029482 0.134773 -0.606508
v -0.016649 0.125871 -0.619844
v -0.016649 0.143676 -0.619844
v -0.018221 0.134773 -0.622008
v -0.016649 0.125871 -0.574013
v -0.016649 0.143676 -0.574013
v -0.018221 0.134773 -0.571850
v 0.026939 0.125871 -0.588176
v 0.026939 0.143676 -0.588176
v 0.029482 0.134773 -0.587349
v 0.000000 0.125871 -0.625253
v 0.000000 0.143676 -0.625253
v 0.000000 0.134773 -0.627928
v -0.026939 0.125871 -0.588176
v -0.026939 0.143676 -0.588176
v -0.029482 0.134773 -0.587349
v -0.017445 0.019012 -0.620939
v -0.017445 0.004563 -0.620939
v -0.018043 0.011787 -0.621763
v -0.028226 0.004563 -0.606100
v -0.028226 0.019012 -0.606100
v -0.029194 0.011787 -0.606414
v -0.028226 0.019012 -0.587757
v -0.028226 0.004563 -0.587757
v -0.029194 0.011787 -0.587443
v -0.017445 0.019012 -0.572918
v -0.017445 0.004563 -0.572918
v -0.018043 0.011787 -0.572094
v 0.000000 0.019012 -0.567250
v 0.000000 0.004563 -0.567250
v 0.000000 0.011787 -0.566232
v 0.017445 0.004563 -0.572918
v 0.017445 0.019012 -0.572918
v 0.018043 0.011787 -0.572094
v 0.028226 0.019012 -0.587757
v 0.028226 0.004563 -0.587757
v 0.029194 0.011787 -0.587443
v 0.028226 0.019012 -0.606100
v 0.028226 0.004563 -0.606100
v 0.029194 0.011787 -0.606414
v 0.017445 0.004563 -0.620939
v 0.017445 0.019012 -0.620939
v 0.018043 0.011787 -0.621763
v 0.000000 0.019012 -0.626607
v 0.000000 0.004563 -0.626607
v 0.000000 0.011787 -0.627625
v -0.039139 0.721466 0.039139
v -0.039139 0.925493 0.039139
v -0.039139 0.721466 -0.039139
v -0.039139 0.925493 -0.039139
v 0.039139 0.721466 0.039139
v 0.039139 0.925493 0.039139
v 0.039139 0.721466 -0.039139
v 0.039139 0.925493 -0.039139
v 0.510367 0.721466 0.039139
v 0.510367 0.925493 0.039139
v 0.510367 0.721466 -0.039139
v 0.510367 0.925493 -0.039139
v 0.588645 0.721466 0.039139
v 0.588645 0.925493 0.039139
v 0.588645 0.721466 -0.039139
v 0.588645 0.925493 -0.039139
v -0.073676 0.926030 0.076139
v -0.073676 0.959446 0.076139
v -0.073676 0.926030 -0.661880
v -0.073676 0.959446 -0.661880
v 0.623678 0.926030 0.076139
v 0.623678 0.959446 0.076139
v 0.623678 0.926030 -0.661880
v 0.623678 0.959446 -0.661880
v 0.550501 0.000136 -0.028173
v 0.550501 0.023438 -0.018487
v 0.567061 0.000136 -0.022793
v 0.561367 0.023438 -0.014957
v 0.577295 0.000136 -0.008706
v 0.568083 0.023438 -0.005713
v 0.577295 0.000137 0.008706
v 0.568083 0.023438 0.005713
v 0.567061 0.000137 0.022793
v 0.561367 0.023438 0.014956
v 0.550501 0.000137 0.028173
v 0.550501 0.023438 0.018487
v 0.533941 0.000137 0.022793
v 0.539634 0.023438 0.014956
v 0.523706 0.000137 0.008706
v 0.532918 0.023438 0.005713
v 0.523706 0.000136 -0.008706
v 0.532918 0.023438 -0.005713
v 0.533941 0.000136 -0.022793
v 0.539634 0.023438 -0.014957
v 0.567061 0.023438 -0.022793
v 0.550501 0.023438 -0.028173
v 0.577295 0.023438 -0.008706
v 0.577295 0.023438 0.008706
v 0.567061 0.023438 0.022792
v 0.550501 0.023438 0.028173
v 0.533941 0.023438 0.022792
v 0.523706 0.023438 0.008706
v 0.523706 0.023438 -0.008706
v 0.533941 0.023438 -0.022793
v 0.561367 0.123180 -0.014957
v 0.550501 0.123180 -0.018487
v 0.568083 0.123180 -0.005713
v 0.568083 0.123180 0.005713
v 0.561367 0.123180 0.014956
v 0.550501 0.123180 0.018487
v 0.539634 0.123180 0.014956
v 0.532918 0.123180 0.005713
v 0.532918 0.123180 -0.005713
v 0.539634 0.123180 -0.014957
v 0.566002 0.123180 -0.021336
v 0.550501 0.123180 -0.026372
v 0.575582 0.123180 -0.008150
v 0.575582 0.123180 0.008149
v 0.566002 0.123180 0.021336
v 0.550501 0.123180 0.026372
v 0.534999 0.123180 0.021336
v 0.525419 0.123180 0.008149
v 0.525419 0.123180 -0.008150
v 0.534999 0.123180 -0.021336
v 0.561252 0.146367 -0.014798
v 0.550501 0.146367 -0.018291
v 0.567896 0.146367 -0.005652
v 0.567896 0.146367 0.005652
v 0.561252 0.146367 0.014797
v 0.550501 0.146367 0.018291
v 0.539750 0.146367 0.014797
v 0.533105 0.146367 0.005652
v 0.533105 0.146367 -0.005652
v 0.539750 0.146367 -0.014798
v 0.566002 0.146367 -0.021336
v 0.550501 0.146367 -0.026372
v 0.575582 0.146367 -0.008150
v 0.575582 0.146367 0.008149
v 0.566002 0.146367 0.021336
v 0.550501 0.146367 0.026372
v 0.534999 0.146367 0.021336
v 0.525419 0.146367 0.008149
v 0.525419 0.146367 -0.008150
v 0.534999 0.146367 -0.021336
v 0.558131 0.627257 -0.010502
v 0.550501 0.627257 -0.012982
v 0.562847 0.627257 -0.004012
v 0.562847 0.627257 0.004012
v 0.558131 0.627257 0.010502
v 0.550501 0.627257 0.012982
v 0.542870 0.627257 0.010502
v 0.538154 0.627257 0.004012
v 0.538154 0.627257 -0.004012
v 0.542870 0.627257 -0.010502
v 0.560220 0.688390 -0.013378
v 0.550501 0.688390 -0.016536
v 0.566227 0.688390 -0.005110
v 0.566227 0.688390 0.005110
v 0.560220 0.688390 0.013378
v 0.550501 0.688390 0.016536
v 0.540781 0.688390 0.013378
v 0.534774 0.688390 0.005110
v 0.534774 0.688390 -0.005110
v 0.540781 0.688390 -0.013378
v 0.569069 0.721289 -0.025557
v 0.550501 0.721289 -0.031590
v 0.580545 0.721289 -0.009762
v 0.580545 0.721289 0.009762
v 0.569069 0.721289 0.025557
v 0.550501 0.721289 0.031590
v 0.531932 0.721289 0.025557
v 0.520457 0.721289 0.009762
v 0.520457 0.721289 -0.009762
v 0.531932 0.721289 -0.025557
v 0.566228 0.671793 -0.021647
v 0.564527 0.640592 -0.019306
v 0.568093 0.656126 -0.024214
v 0.550501 0.640592 -0.023863
v 0.550501 0.671793 -0.026757
v 0.550501 0.656126 -0.029930
v 0.575948 0.671793 -0.008268
v 0.573196 0.640592 -0.007374
v 0.578966 0.656126 -0.009249
v 0.575948 0.671793 0.008268
v 0.573196 0.640592 0.007374
v 0.578966 0.656126 0.009249
v 0.566228 0.671793 0.021647
v 0.564527 0.640592 0.019306
v 0.568093 0.656126 0.024214
v 0.550501 0.671793 0.026757
v 0.550501 0.640592 0.023863
v 0.550501 0.656126 0.029930
v 0.534773 0.671793 0.021647
v 0.536474 0.640592 0.019306
v 0.532908 0.656126 0.024214
v 0.525053 0.671793 0.008268
v 0.527805 0.640592 0.007374
v 0.522036 0.656126 0.009249
v 0.525053 0.671793 -0.008268
v 0.527805 0.640592 -0.007374
v 0.522036 0.656126 -0.009249
v 0.534773 0.671793 -0.021647
v 0.536474 0.640592 -0.019306
v 0.532908 0.656126 -0.024214
v 0.568732 0.601971 -0.025093
v 0.570972 0.590454 -0.028176
v 0.550501 0.590454 -0.034828
v 0.550501 0.601971 -0.031016
v 0.579999 0.601971 -0.009584
v 0.583624 0.590454 -0.010762
v 0.579999 0.601971 0.009584
v 0.583624 0.590454 0.010762
v 0.568732 0.601971 0.025093
v 0.570972 0.590454 0.028176
v 0.550501 0.601971 0.031016
v 0.550501 0.590454 0.034828
v 0.532270 0.601971 0.025093
v 0.530030 0.590454 0.028176
v 0.521003 0.601971 0.009584
v 0.517378 0.590454 0.010762
v 0.521003 0.601971 -0.009584
v 0.517378 0.590454 -0.010762
v 0.532270 0.601971 -0.025093
v 0.530030 0.590454 -0.028176
v 0.567150 0.143676 0.022915
v 0.567150 0.125871 0.022915
v 0.568722 0.134774 0.025079
v 0.550501 0.125871 0.028325
v 0.550501 0.143676 0.028325
v 0.550501 0.134774 0.031000
v 0.567150 0.143676 -0.022915
v 0.567150 0.125871 -0.022915
v 0.568722 0.134774 -0.025079
v 0.577439 0.125871 -0.008753
v 0.577439 0.143676 -0.008753
v 0.579983 0.134774 -0.009579
v 0.523562 0.143676 -0.008753
v 0.523562 0.125871 -0.008753
v 0.521018 0.134774 -0.009579
v 0.533852 0.125871 -0.022915
v 0.533852 0.143676 -0.022915
v 0.532280 0.134774 -0.025079
v 0.533852 0.125871 0.022915
v 0.533852 0.143676 0.022915
v 0.532280 0.134774 0.025079
v 0.577439 0.125871 0.008753
v 0.577439 0.143676 0.008753
v 0.579983 0.134774 0.009579
v 0.550501 0.125871 -0.028325
v 0.550501 0.143676 -0.028325
v 0.550501 0.134774 -0.031000
v 0.523562 0.125871 0.008753
v 0.523562 0.143676 0.008753
v 0.521018 0.134774 0.009579
v 0.533056 0.019012 -0.024011
v 0.533056 0.004563 -0.024011
v 0.532458 0.011787 -0.024834
v 0.522274 0.004563 -0.009171
v 0.522274 0.019012 -0.009171
v 0.521306 0.011787 -0.009486
v 0.522274 0.019012 0.009171
v 0.522274 0.004563 0.009171
v 0.521306 0.011787 0.009486
v 0.533056 0.019012 0.024010
v 0.533056 0.004563 0.024011
v 0.532458 0.011787 0.024834
v 0.550501 0.019012 0.029679
v 0.550501 0.004563 0.029679
v 0.550501 0.011787 0.030697
v 0.567946 0.004563 0.024011
v 0.567946 0.019012 0.024010
v 0.568544 0.011787 0.024834
v 0.578727 0.019012 0.009171
v 0.578727 0.004563 0.009171
v 0.579695 0.011787 0.009486
v 0.578727 0.019012 -0.009171
v 0.578727 0.004563 -0.009171
v 0.579695 0.011787 -0.009486
v 0.567946 0.004563 -0.024011
v 0.567946 0.019012 -0.024011
v 0.568544 0.011787 -0.024834
v 0.550501 0.019012 -0.029679
v 0.550501 0.004563 -0.029679
v 0.550501 0.011787 -0.030697
v -0.039139 0.721465 -0.559127
v -0.039139 0.925492 -0.559127
v -0.039139 0.721465 -0.637405
v -0.039139 0.925492 -0.637405
v 0.039139 0.721465 -0.559127
v 0.039139 0.925492 -0.559127
v 0.039139 0.721465 -0.637405
v 0.039139 0.925492 -0.637405
v 0.000000 0.000136 -0.028173
v 0.000000 0.023438 -0.018487
v 0.016560 0.000136 -0.022793
v 0.010867 0.023438 -0.014957
v 0.026794 0.000136 -0.008706
v 0.017582 0.023438 -0.005713
v 0.026794 0.000137 0.008706
v 0.017582 0.023438 0.005713
v 0.016560 0.000137 0.022793
v 0.010867 0.023438 0.014956
v 0.000000 0.000137 0.028173
v 0.000000 0.023438 0.018487
v -0.016560 0.000137 0.022793
v -0.010867 0.023438 0.014956
v -0.026794 0.000137 0.008706
v -0.017582 0.023438 0.005713
v -0.026794 0.000136 -0.008706
v -0.017582 0.023438 -0.005713
v -0.016560 0.000136 -0.022793
v -0.010867 0.023438 -0.014957
v 0.016560 0.023438 -0.022793
v 0.000000 0.023438 -0.028173
v 0.026794 0.023438 -0.008706
v 0.026794 0.023438 0.008706
v 0.016560 0.023438 0.022792
v 0.000000 0.023438 0.028173
v -0.016560 0.023438 0.022792
v -0.026794 0.023438 0.008706
v -0.026794 0.023438 -0.008706
v -0.016560 0.023438 -0.022793
v 0.010867 0.123180 -0.014957
v 0.000000 0.123180 -0.018487
v 0.017582 0.123180 -0.005713
v 0.017582 0.123180 0.005713
v 0.010867 0.123180 0.014956
v 0.000000 0.123180 0.018487
v -0.010867 0.123180 0.014956
v -0.017582 0.123180 0.005713
v -0.017582 0.123180 -0.005713
v -0.010867 0.123180 -0.014957
v 0.015501 0.123180 -0.021336
v 0.000000 0.123180 -0.026372
v 0.025082 0.123180 -0.008150
v 0.025082 0.123180 0.008149
v 0.015501 0.123180 0.021336
v 0.000000 0.123180 0.026372
v -0.015501 0.123180 0.021336
v -0.025082 0.123180 0.008149
v -0.025082 0.123180 -0.008150
v -0.015501 0.123180 -0.021336
v 0.010751 0.146367 -0.014798
v 0.000000 0.146367 -0.018291
v 0.017396 0.146367 -0.005652
v 0.017396 0.146367 0.005652
v 0.010751 0.146367 0.014797
v 0.000000 0.146367 0.018291
v -0.010751 0.146367 0.014797
v -0.017396 0.146367 0.005652
v -0.017396 0.146367 -0.005652
v -0.010751 0.146367 -0.014798
v 0.015501 0.146367 -0.021336
v 0.000000 0.146367 -0.026372
v 0.025082 0.146367 -0.008150
v 0.025082 0.146367 0.008149
v 0.015501 0.146367 0.021336
v 0.000000 0.146367 0.026372
v -0.015501 0.146367 0.021336
v -0.025082 0.146367 0.008149
v -0.025082 0.146367 -0.008150
v -0.015501 0.146367 -0.021336
v 0.007630 0.627257 -0.010502
v 0.000000 0.627257 -0.012982
v 0.012346 0.627257 -0.004012
v 0.012346 0.627257 0.004012
v 0.007630 0.627257 0.010502
v 0.000000 0.627257 0.012982
v -0.007631 0.627257 0.010502
v -0.012346 0.627257 0.004012
v -0.012346 0.627257 -0.004012
v -0.007631 0.627257 -0.010502
v 0.009719 0.688390 -0.013378
v 0.000000 0.688390 -0.016536
v 0.015726 0.688390 -0.005110
v 0.015726 0.688390 0.005110
v 0.009719 0.688390 0.013378
v 0.000000 0.688390 0.016536
v -0.009720 0.688390 0.013378
v -0.015727 0.688390 0.005110
v -0.015727 0.688390 -0.005110
v -0.009720 0.688390 -0.013378
v 0.018568 0.721289 -0.025557
v 0.000000 0.721289 -0.031590
v 0.030044 0.721289 -0.009762
v 0.030044 0.721289 0.009762
v 0.018568 0.721289 0.025557
v 0.000000 0.721289 0.031590
v -0.018569 0.721289 0.025557
v -0.030044 0.721289 0.009762
v -0.030044 0.721289 -0.009762
v -0.018569 0.721289 -0.025557
v 0.015727 0.671793 -0.021647
v 0.014027 0.640592 -0.019306
v 0.017592 0.656126 -0.024214
v 0.000000 0.640592 -0.023863
v 0.000000 0.671793 -0.026757
v 0.000000 0.656126 -0.029930
v 0.025447 0.671793 -0.008268
v 0.022695 0.640592 -0.007374
v 0.028465 0.656126 -0.009249
v 0.025447 0.671793 0.008268
v 0.022695 0.640592 0.007374
v 0.028465 0.656126 0.009249
v 0.015727 0.671793 0.021647
v 0.014027 0.640592 0.019306
v 0.017592 0.656126 0.024214
v 0.000000 0.671793 0.026757
v 0.000000 0.640592 0.023863
v 0.000000 0.656126 0.029930
v -0.015728 0.671793 0.021647
v -0.014027 0.640592 0.019306
v -0.017592 0.656126 0.024214
v -0.025448 0.671793 0.008268
v -0.022695 0.640592 0.007374
v -0.028465 0.656126 0.009249
v -0.025448 0.671793 -0.008268
v -0.022695 0.640592 -0.007374
v -0.028465 0.656126 -0.009249
v -0.015728 0.671793 -0.021647
v -0.014027 0.640592 -0.019306
v -0.017592 0.656126 -0.024214
v 0.018231 0.601971 -0.025093
v 0.020471 0.590454 -0.028176
v 0.000000 0.590454 -0.034828
v 0.000000 0.601971 -0.031016
v 0.029498 0.601971 -0.009584
v 0.033123 0.590454 -0.010762
v 0.029498 0.601971 0.009584
v 0.033123 0.590454 0.010762
v 0.018231 0.601971 0.025093
v 0.020471 0.590454 0.028176
v 0.000000 0.601971 0.031016
v 0.000000 0.590454 0.034828
v -0.018231 0.601971 0.025093
v -0.020471 0.590454 0.028176
v -0.029498 0.601971 0.009584
v -0.033123 0.590454 0.010762
v -0.029498 0.601971 -0.009584
v -0.033123 0.590454 -0.010762
v -0.018231 0.601971 -0.025093
v -0.020471 0.590454 -0.028176
v 0.016649 0.143676 0.022915
v 0.016649 0.125871 0.022915
v 0.018221 0.134774 0.025079
v 0.000000 0.125871 0.028325
v 0.000000 0.143676 0.028325
v 0.000000 0.134774 0.031000
v 0.016649 0.143676 -0.022915
v 0.016649 0.125871 -0.022915
v 0.018221 0.134774 -0.025079
v 0.026939 0.125871 -0.008753
v 0.026939 0.143676 -0.008753
v 0.029482 0.134774 -0.009579
v -0.026939 0.143676 -0.008753
v -0.026939 0.125871 -0.008753
v -0.029482 0.134774 -0.009579
v -0.016649 0.125871 -0.022915
v -0.016649 0.143676 -0.022915
v -0.018221 0.134774 -0.025079
v -0.016649 0.125871 0.022915
v -0.016649 0.143676 0.022915
v -0.018221 0.134774 0.025079
v 0.026939 0.125871 0.008753
v 0.026939 0.143676 0.008753
v 0.029482 0.134774 0.009579
v 0.000000 0.125871 -0.028325
v 0.000000 0.143676 -0.028325
v 0.000000 0.134774 -0.031000
v -0.026939 0.125871 0.008753
v -0.026939 0.143676 0.008753
v -0.029482 0.134774 0.009579
v -0.017445 0.019012 -0.024011
v -0.017445 0.004563 -0.024011
v -0.018043 0.011787 -0.024834
v -0.028226 0.004563 -0.009171
v -0.028226 0.019012 -0.009171
v -0.029194 0.011787 -0.009486
v -0.028226 0.019012 0.009171
v -0.028226 0.004563 0.009171
v -0.029194 0.011787 0.009486
v -0.017445 0.019012 0.024010
v -0.017445 0.004563 0.024011
v -0.018043 0.011787 0.024834
v 0.000000 0.019012 0.029679
v 0.000000 0.004563 0.029679
v 0.000000 0.011787 0.030697
v 0.017445 0.004563 0.024011
v 0.017445 0.019012 0.024010
v 0.018043 0.011787 0.024834
v 0.028226 0.019012 0.009171
v 0.028226 0.004563 0.009171
v 0.029194 0.011787 0.009486
v 0.028226 0.019012 -0.009171
v 0.028226 0.004563 -0.009171
v 0.029194 0.011787 -0.009486
v 0.017445 0.004563 -0.024011
v 0.017445 0.019012 -0.024011
v 0.018043 0.011787 -0.024834
v 0.000000 0.019012 -0.029679
v 0.000000 0.004563 -0.029679
v 0.000000 0.011787 -0.030697
v 0.510367 0.721465 -0.559127
v 0.510367 0.925492 -0.559127
v 0.510367 0.721465 -0.637405
v 0.510367 0.925492 -0.637405
v 0.588645 0.721465 -0.559127
v 0.588645 0.925492 -0.559127
v 0.588645 0.721465 -0.637405
v 0.588645 0.925492 -0.637405
v 0.551492 0.000136 -0.626439
v 0.551492 0.023438 -0.616753
v 0.568052 0.000136 -0.621058
v 0.562359 0.023438 -0.613222
v 0.578287 0.000136 -0.606972
v 0.569075 0.023438 -0.603979
v 0.578287 0.000136 -0.589560
v 0.569075 0.023438 -0.592553
v 0.568052 0.000136 -0.575473
v 0.562359 0.023438 -0.583309
v 0.551492 0.000136 -0.570092
v 0.551492 0.023438 -0.579779
v 0.534933 0.000136 -0.575473
v 0.540626 0.023438 -0.583309
v 0.524698 0.000136 -0.589560
v 0.533910 0.023438 -0.592553
v 0.524698 0.000136 -0.606972
v 0.533910 0.023438 -0.603979
v 0.534933 0.000136 -0.621058
v 0.540626 0.023438 -0.613222
v 0.568052 0.023438 -0.621058
v 0.551492 0.023438 -0.626439
v 0.578287 0.023438 -0.606972
v 0.578287 0.023438 -0.589560
v 0.568052 0.023438 -0.575473
v 0.551492 0.023438 -0.570092
v 0.534933 0.023438 -0.575473
v 0.524698 0.023438 -0.589560
v 0.524698 0.023438 -0.606972
v 0.534933 0.023438 -0.621058
v 0.562359 0.123180 -0.613222
v 0.551492 0.123180 -0.616753
v 0.569075 0.123180 -0.603979
v 0.569075 0.123180 -0.592553
v 0.562359 0.123180 -0.583309
v 0.551492 0.123180 -0.579779
v 0.540626 0.123180 -0.583309
v 0.533910 0.123180 -0.592553
v 0.533910 0.123180 -0.603979
v 0.540626 0.123180 -0.613222
v 0.566994 0.123180 -0.619601
v 0.551492 0.123180 -0.624638
v 0.576574 0.123180 -0.606415
v 0.576574 0.123180 -0.590116
v 0.566994 0.123180 -0.576930
v 0.551492 0.123180 -0.571893
v 0.535991 0.123180 -0.576930
v 0.526411 0.123180 -0.590116
v 0.526411 0.123180 -0.606415
v 0.535991 0.123180 -0.619601
v 0.562244 0.146367 -0.613063
v 0.551492 0.146367 -0.616556
v 0.568888 0.146367 -0.603918
v 0.568888 0.146367 -0.592613
v 0.562244 0.146367 -0.583468
v 0.551492 0.146367 -0.579975
v 0.540741 0.146367 -0.583468
v 0.534097 0.146367 -0.592613
v 0.534097 0.146367 -0.603918
v 0.540741 0.146367 -0.613063
v 0.566994 0.146367 -0.619601
v 0.551492 0.146367 -0.624638
v 0.576574 0.146367 -0.606415
v 0.576574 0.146367 -0.590116
v 0.566994 0.146367 -0.576930
v 0.551492 0.146367 -0.571893
v 0.535991 0.146367 -0.576930
v 0.526411 0.146367 -0.590116
v 0.526411 0.146367 -0.606415
v 0.535991 0.146367 -0.619601
v 0.559123 0.627256 -0.608768
v 0.551492 0.627256 -0.611247
v 0.563839 0.627256 -0.602277
v 0.563839 0.627256 -0.594254
v 0.559123 0.627256 -0.587763
v 0.551492 0.627256 -0.585284
v 0.543862 0.627256 -0.587763
v 0.539146 0.627256 -0.594254
v 0.539146 0.627256 -0.602277
v 0.543862 0.627256 -0.608768
v 0.561212 0.688390 -0.611643
v 0.551492 0.688390 -0.614802
v 0.567219 0.688390 -0.603376
v 0.567219 0.688390 -0.593156
v 0.561212 0.688390 -0.584888
v 0.551492 0.688390 -0.581730
v 0.541773 0.688390 -0.584888
v 0.535766 0.688390 -0.593156
v 0.535766 0.688390 -0.603376
v 0.541773 0.688390 -0.611643
v 0.570061 0.721289 -0.623823
v 0.551492 0.721289 -0.629856
v 0.581537 0.721289 -0.608028
v 0.581537 0.721289 -0.588504
v 0.570061 0.721289 -0.572708
v 0.551492 0.721289 -0.566675
v 0.532924 0.721289 -0.572708
v 0.521448 0.721289 -0.588504
v 0.521448 0.721289 -0.608028
v 0.532924 0.721289 -0.623823
v 0.567220 0.671793 -0.619913
v 0.565519 0.640591 -0.617571
v 0.569085 0.656126 -0.622479
v 0.551492 0.640591 -0.622129
v 0.551492 0.671793 -0.625023
v 0.551492 0.656126 -0.628196
v 0.576940 0.671793 -0.606534
v 0.574188 0.640591 -0.605640
v 0.579957 0.656126 -0.607515
v 0.576940 0.671793 -0.589997
v 0.574188 0.640591 -0.590891
v 0.579957 0.656126 -0.589017
v 0.567220 0.671793 -0.576619
v 0.565519 0.640591 -0.578960
v 0.569085 0.656126 -0.574052
v 0.551492 0.671793 -0.571509
v 0.551492 0.640591 -0.574403
v 0.551492 0.656126 -0.568336
v 0.535765 0.671793 -0.576619
v 0.537466 0.640591 -0.578960
v 0.533900 0.656126 -0.574052
v 0.526045 0.671793 -0.589997
v 0.528797 0.640591 -0.590891
v 0.523028 0.656126 -0.589017
v 0.526045 0.671793 -0.606534
v 0.528797 0.640591 -0.605640
v 0.523028 0.656126 -0.607515
v 0.535765 0.671793 -0.619913
v 0.537466 0.640591 -0.617571
v 0.533900 0.656126 -0.622479
v 0.569723 0.601971 -0.623358
v 0.571964 0.590454 -0.626442
v 0.551492 0.590454 -0.633093
v 0.551492 0.601971 -0.629282
v 0.580991 0.601971 -0.607850
v 0.584615 0.590454 -0.609028
v 0.580991 0.601971 -0.588681
v 0.584615 0.590454 -0.587504
v 0.569723 0.601971 -0.573173
v 0.571964 0.590454 -0.570090
v 0.551492 0.601971 -0.567250
v 0.551492 0.590454 -0.563438
v 0.533262 0.601971 -0.573173
v 0.531021 0.590454 -0.570090
v 0.521994 0.601971 -0.588681
v 0.518369 0.590454 -0.587504
v 0.521994 0.601971 -0.607850
v 0.518369 0.590454 -0.609028
v 0.533262 0.601971 -0.623358
v 0.531021 0.590454 -0.626442
v 0.568142 0.143676 -0.575351
v 0.568142 0.125871 -0.575351
v 0.569714 0.134773 -0.573187
v 0.551492 0.125871 -0.569941
v 0.551492 0.143676 -0.569941
v 0.551492 0.134773 -0.567266
v 0.568142 0.143676 -0.621181
v 0.568142 0.125871 -0.621181
v 0.569714 0.134773 -0.623345
v 0.578431 0.125871 -0.607019
v 0.578431 0.143676 -0.607019
v 0.580975 0.134773 -0.607845
v 0.524554 0.143676 -0.607019
v 0.524554 0.125871 -0.607019
v 0.522010 0.134773 -0.607845
v 0.534844 0.125871 -0.621181
v 0.534844 0.143676 -0.621181
v 0.533271 0.134773 -0.623345
v 0.534844 0.125871 -0.575351
v 0.534844 0.143676 -0.575351
v 0.533271 0.134773 -0.573187
v 0.578431 0.125871 -0.589513
v 0.578431 0.143676 -0.589513
v 0.580975 0.134773 -0.588686
v 0.551492 0.125871 -0.626590
v 0.551492 0.143676 -0.626590
v 0.551492 0.134773 -0.629265
v 0.524554 0.125871 -0.589513
v 0.524554 0.143676 -0.589513
v 0.522010 0.134773 -0.588686
v 0.534048 0.019012 -0.622276
v 0.534048 0.004563 -0.622276
v 0.533450 0.011787 -0.623100
v 0.523266 0.004563 -0.607437
v 0.523266 0.019012 -0.607437
v 0.522298 0.011787 -0.607751
v 0.523266 0.019012 -0.589094
v 0.523266 0.004563 -0.589094
v 0.522298 0.011787 -0.588780
v 0.534048 0.019012 -0.574255
v 0.534048 0.004563 -0.574255
v 0.533450 0.011787 -0.573432
v 0.551492 0.019012 -0.568587
v 0.551492 0.004563 -0.568587
v 0.551492 0.011787 -0.567569
v 0.568937 0.004563 -0.574255
v 0.568937 0.019012 -0.574255
v 0.569536 0.011787 -0.573432
v 0.579719 0.019012 -0.589094
v 0.579719 0.004563 -0.589094
v 0.580687 0.011787 -0.588780
v 0.579719 0.019012 -0.607437
v 0.579719 0.004563 -0.607437
v 0.580687 0.011787 -0.607751
v 0.568937 0.004563 -0.622276
v 0.568937 0.019012 -0.622276
v 0.569536 0.011787 -0.623100
v 0.551492 0.019012 -0.627944
v 0.551492 0.004563 -0.627944
v 0.551492 0.011787 -0.628962
vn -1.0000 -0.0000 -0.0000
vn -0.0000 -0.0000 -1.0000
vn 1.0000 -0.0000 -0.0000
vn -0.0000 -1.0000 -0.0000
vn -0.0000 1.0000 -0.0000
vn -0.0000 -0.0000 1.0000
vn -0.5907 0.7837 -0.1919
vn -0.5907 0.7837 0.1919
vn -0.5907 -0.7837 0.1919
vn -0.5907 -0.7837 -0.1919
vn -0.0000 -0.7606 -0.6492
vn 0.3816 -0.7606 -0.5252
vn 0.6175 -0.7606 -0.2006
vn 0.6175 -0.7606 0.2006
vn 0.3816 -0.7606 0.5252
vn -0.0000 -0.7606 0.6492
vn -0.3816 -0.7606 0.5252
vn -0.6175 -0.7606 0.2006
vn -0.6175 -0.7606 -0.2006
vn -0.3816 -0.7606 -0.5252
vn -0.0000 0.7837 -0.6211
vn 0.3651 0.7837 -0.5025
vn 0.3816 0.7606 -0.5253
vn -0.0000 0.7606 -0.6492
vn 0.5907 0.7837 -0.1919
vn 0.6175 0.7606 -0.2006
vn 0.5907 0.7837 0.1919
vn 0.6175 0.7606 0.2006
vn 0.3651 0.7837 0.5025
vn 0.3816 0.7606 0.5252
vn -0.0000 0.7837 0.6211
vn -0.0000 0.7606 0.6492
vn -0.3651 0.7837 0.5025
vn -0.3816 0.7606 0.5252
vn -0.6175 0.7606 0.2006
vn -0.6175 0.7606 -0.2006
vn -0.3651 0.7837 -0.5025
vn -0.3816 0.7606 -0.5253
vn 0.3651 -0.7837 -0.5025
vn -0.0000 -0.7837 -0.6211
vn -0.0000 -0.8539 -0.5204
vn 0.3059 -0.8539 -0.4210
vn 0.3651 -0.7837 0.5025
vn -0.0000 -0.7837 0.6211
vn 0.5907 -0.7837 -0.1919
vn -0.3651 -0.7837 -0.5025
vn -0.3651 -0.7837 0.5025
vn 0.5907 -0.7837 0.1919
vn -0.4949 -0.8539 0.1608
vn -0.4949 -0.8539 -0.1608
vn 0.3059 -0.8539 0.4210
vn -0.0000 -0.8539 0.5204
vn 0.4949 -0.8539 -0.1608
vn -0.3059 -0.8539 -0.4210
vn -0.3059 -0.8539 0.4210
vn 0.4949 -0.8539 0.1608
vn -0.0000 0.7724 -0.6351
vn 0.3733 0.7724 -0.5138
vn 0.3059 0.8539 -0.4210
vn -0.0000 0.8539 -0.5204
vn 0.6040 0.7724 -0.1963
vn 0.4949 0.8539 -0.1608
vn 0.6040 0.7724 0.1963
vn 0.4949 0.8539 0.1608
vn 0.3733 0.7724 0.5138
vn 0.3059 0.8539 0.4210
vn -0.0000 0.7724 0.6351
vn -0.0000 0.8539 0.5204
vn -0.3733 0.7724 0.5138
vn -0.3059 0.8539 0.4210
vn -0.6040 0.7724 0.1963
vn -0.4949 0.8539 0.1608
vn -0.6040 0.7724 -0.1963
vn -0.4949 0.8539 -0.1608
vn -0.3733 0.7724 -0.5138
vn -0.3059 0.8539 -0.4210
vn -0.9489 0.0680 -0.3083
vn -0.9489 0.0680 0.3083
vn -0.8362 0.4764 0.2717
vn -0.8362 0.4764 -0.2717
vn -0.0000 0.0680 0.9977
vn 0.5864 0.0680 0.8071
vn 0.5168 0.4764 0.7113
vn -0.0000 0.4764 0.8793
vn 0.9489 0.0680 -0.3083
vn 0.5864 0.0680 -0.8071
vn 0.5168 0.4764 -0.7113
vn 0.8362 0.4764 -0.2717
vn -0.5864 0.0680 -0.8071
vn -0.5168 0.4764 -0.7113
vn -0.5864 0.0680 0.8071
vn -0.5168 0.4764 0.7113
vn 0.9489 0.0680 0.3083
vn 0.8362 0.4764 0.2717
vn -0.0000 0.0680 -0.9977
vn -0.0000 0.4764 -0.8793
vn 0.5120 -0.4912 -0.7047
vn -0.0000 -0.4912 -0.8710
vn -0.0000 -0.0817 -0.9967
vn 0.5858 -0.0817 -0.8063
vn -0.0000 0.3558 -0.9345
vn 0.5493 0.3558 -0.7561
vn 0.8284 -0.4912 -0.2692
vn 0.9479 -0.0817 -0.3080
vn 0.8888 0.3558 -0.2888
vn 0.8284 -0.4912 0.2692
vn 0.9479 -0.0817 0.3080
vn 0.8888 0.3558 0.2888
vn 0.5120 -0.4912 0.7047
vn 0.5858 -0.0817 0.8063
vn 0.5493 0.3558 0.7561
vn -0.0000 -0.4912 0.8710
vn -0.0000 -0.0817 0.9967
vn -0.0000 0.3558 0.9346
vn -0.5120 -0.4912 0.7047
vn -0.5858 -0.0817 0.8063
vn -0.5493 0.3558 0.7561
vn -0.8284 -0.4912 0.2692
vn -0.9479 -0.0817 0.3080
vn -0.8888 0.3558 0.2888
vn -0.8284 -0.4912 -0.2692
vn -0.9479 -0.0817 -0.3080
vn -0.8888 0.3558 -0.2888
vn -0.5120 -0.4912 -0.7047
vn -0.5858 -0.0817 -0.8063
vn -0.5493 0.3558 -0.7561
vn 0.5874 -0.0371 -0.8085
vn -0.0000 -0.0371 -0.9993
vn 0.9504 -0.0371 -0.3088
vn -0.5874 -0.0371 -0.8085
vn 0.9504 -0.0371 0.3088
vn 0.5874 -0.0371 0.8085
vn -0.0000 -0.0371 0.9993
vn -0.5874 -0.0371 0.8085
vn -0.9504 -0.0371 0.3088
vn -0.9504 -0.0371 -0.3088
vn 0.5823 0.1361 -0.8015
vn -0.0000 0.1361 -0.9907
vn -0.0000 0.4410 -0.8975
vn 0.5275 0.4410 -0.7261
vn 0.9422 0.1361 -0.3061
vn 0.8536 0.4410 -0.2773
vn 0.9422 0.1361 0.3061
vn 0.8536 0.4410 0.2773
vn 0.5823 0.1361 0.8015
vn 0.5275 0.4410 0.7261
vn -0.0000 0.1361 0.9907
vn -0.0000 0.4410 0.8975
vn -0.5823 0.1361 0.8015
vn -0.5275 0.4410 0.7261
vn -0.9422 0.1361 0.3061
vn -0.8536 0.4410 0.2773
vn -0.9422 0.1361 -0.3061
vn -0.8536 0.4410 -0.2773
vn -0.5823 0.1361 -0.8015
vn -0.5275 0.4410 -0.7261
vn -0.8582 0.4311 0.2788
vn -0.8582 0.4311 -0.2788
vn -0.9511 -0.0000 -0.3090
vn -0.9511 -0.0000 0.3090
vn -0.8581 -0.4311 -0.2788
vn -0.8581 -0.4311 0.2788
vn -0.0000 0.4311 -0.9023
vn 0.5304 0.4311 -0.7300
vn 0.5878 -0.0000 -0.8090
vn 0.5304 -0.4311 -0.7300
vn -0.0000 -0.4311 -0.9023
vn 0.8582 0.4311 0.2788
vn 0.5304 0.4311 0.7300
vn 0.5878 -0.0000 0.8090
vn 0.9511 -0.0000 0.3090
vn 0.5304 -0.4311 0.7300
vn 0.8581 -0.4311 0.2788
vn -0.5304 0.4311 0.7300
vn -0.5878 -0.0000 0.8090
vn -0.5304 -0.4311 0.7300
vn -0.5304 0.4311 -0.7300
vn -0.5878 -0.0000 -0.8090
vn -0.5304 -0.4311 -0.7300
vn 0.8582 0.4311 -0.2788
vn 0.9511 -0.0000 -0.3090
vn 0.8581 -0.4311 -0.2788
vn -0.0000 0.4311 0.9023
vn -0.0000 -0.4311 0.9023
vn 0.5723 0.2277 -0.7878
vn 0.9261 0.2277 -0.3009
vn 0.9261 -0.2277 -0.3009
vn 0.5723 -0.2277 -0.7878
vn 0.5723 0.2277 0.7878
vn -0.0000 0.2277 0.9737
vn -0.0000 -0.2277 0.9737
vn 0.5723 -0.2277 0.7878
vn -0.9261 0.2277 -0.3009
vn -0.5723 0.2277 -0.7878
vn -0.5723 -0.2277 -0.7878
vn -0.9261 -0.2277 -0.3009
vn 0.9261 0.2277 0.3009
vn 0.9261 -0.2277 0.3009
vn -0.5723 0.2277 0.7878
vn -0.5723 -0.2277 0.7878
vn -0.0000 0.2277 -0.9737
vn -0.0000 -0.2277 -0.9737
vn -0.9261 0.2277 0.3009
vn -0.9261 -0.2277 0.3009
vn 0.6174 -0.7606 -0.2006
vn 0.6174 -0.7606 0.2006
vn 0.3816 0.7606 0.5253
vn -0.3816 0.7606 0.5253
vn 0.5864 0.0680 0.8072
vn -0.0000 0.4764 0.8792
vn 0.5864 0.0680 -0.8072
vn -0.0000 0.4764 -0.8792
vn -0.0000 0.3558 -0.9346
vn 0.8581 0.4311 0.2788
vn 0.8581 0.4311 -0.2788
vn 0.9261 0.2278 -0.3009
vn 0.9261 -0.2278 -0.3009
vn 0.9261 -0.2278 0.3009
vn -0.0000 0.7606 -0.6493
vn -0.5864 0.0680 0.8072
vn -0.0000 0.3558 0.9345
vn -0.8581 0.4311 0.2788
vn -0.8581 0.4311 -0.2788
vt 0.000084 0.077147
vt 0.076669 0.077244
vt 0.076585 0.378722
vt 0.000000 0.378776
vt 0.076585 0.455268
vt 0.349576 0.378722
vt 0.349576 0.455268
vt 0.426122 0.378722
vt 0.349576 0.077319
vt 0.426122 0.077319
vt 0.304919 0.064988
vt 0.119832 0.064927
vt 0.121071 0.063927
vt 0.303682 0.063993
vt 0.272254 0.755857
vt 0.000000 0.755857
vt 0.000000 0.455268
vt 0.272254 0.455268
vt 0.119899 0.012381
vt 0.076846 0.000000
vt 0.304898 0.012468
vt 0.349543 0.000115
vt 0.303681 0.013463
vt 0.121115 0.013383
vt 0.398426 0.467221
vt 0.405848 0.467221
vt 0.405848 0.510703
vt 0.398426 0.510703
vt 0.372688 0.792462
vt 0.368104 0.798771
vt 0.360687 0.801181
vt 0.353270 0.798771
vt 0.348686 0.792462
vt 0.348686 0.784663
vt 0.353270 0.778354
vt 0.360687 0.775944
vt 0.368104 0.778354
vt 0.372688 0.784663
vt 0.383582 0.467221
vt 0.376160 0.467221
vt 0.376160 0.465475
vt 0.383582 0.465475
vt 0.368739 0.467221
vt 0.368739 0.465475
vt 0.361317 0.467221
vt 0.361317 0.465475
vt 0.353895 0.467221
vt 0.353895 0.465475
vt 0.346473 0.467221
vt 0.346473 0.465475
vt 0.420692 0.467221
vt 0.413270 0.467221
vt 0.413270 0.465475
vt 0.420692 0.465475
vt 0.405848 0.465475
vt 0.398426 0.465475
vt 0.391004 0.467221
vt 0.391004 0.465475
vt 0.376160 0.510703
vt 0.383582 0.510703
vt 0.383582 0.512124
vt 0.376160 0.512124
vt 0.353895 0.510703
vt 0.346473 0.510703
vt 0.368739 0.510703
vt 0.391004 0.510703
vt 0.420692 0.510703
vt 0.413270 0.510703
vt 0.361317 0.510703
vt 0.405848 0.512124
vt 0.398426 0.512124
vt 0.353895 0.512124
vt 0.346473 0.512124
vt 0.368739 0.512124
vt 0.391004 0.512124
vt 0.420692 0.512124
vt 0.413270 0.512124
vt 0.361317 0.512124
vt 0.383582 0.523853
vt 0.376160 0.523853
vt 0.376160 0.522396
vt 0.383582 0.522396
vt 0.368739 0.523853
vt 0.368739 0.522396
vt 0.361317 0.523853
vt 0.361317 0.522396
vt 0.353895 0.523853
vt 0.353895 0.522396
vt 0.346473 0.523853
vt 0.346473 0.522396
vt 0.420692 0.523853
vt 0.413270 0.523853
vt 0.413270 0.522396
vt 0.420692 0.522396
vt 0.405848 0.523853
vt 0.405848 0.522396
vt 0.398426 0.523853
vt 0.398426 0.522396
vt 0.391004 0.523853
vt 0.391004 0.522396
vt 0.398426 0.761347
vt 0.405848 0.761347
vt 0.405848 0.775944
vt 0.398426 0.775944
vt 0.346473 0.761347
vt 0.353895 0.761347
vt 0.353895 0.775944
vt 0.346473 0.775944
vt 0.368739 0.761347
vt 0.376160 0.761347
vt 0.376160 0.775944
vt 0.368739 0.775944
vt 0.391004 0.761347
vt 0.391004 0.775944
vt 0.413270 0.761347
vt 0.420692 0.761347
vt 0.420692 0.775944
vt 0.413270 0.775944
vt 0.361317 0.761347
vt 0.361317 0.775944
vt 0.383582 0.761347
vt 0.383582 0.775944
vt 0.376160 0.740167
vt 0.383582 0.740167
vt 0.383582 0.747027
vt 0.376160 0.747027
vt 0.383582 0.753881
vt 0.376160 0.753881
vt 0.368739 0.740167
vt 0.368739 0.747027
vt 0.368739 0.753881
vt 0.361317 0.740167
vt 0.361317 0.747027
vt 0.361317 0.753881
vt 0.353895 0.740167
vt 0.353895 0.747027
vt 0.353895 0.753881
vt 0.346473 0.740167
vt 0.346473 0.747027
vt 0.346473 0.753881
vt 0.413270 0.740167
vt 0.420692 0.740167
vt 0.420692 0.747027
vt 0.413270 0.747027
vt 0.420692 0.753881
vt 0.413270 0.753881
vt 0.405848 0.740167
vt 0.405848 0.747027
vt 0.405848 0.753881
vt 0.398426 0.740167
vt 0.398426 0.747027
vt 0.398426 0.753881
vt 0.391004 0.740167
vt 0.391004 0.747027
vt 0.391004 0.753881
vt 0.376160 0.734032
vt 0.383582 0.734032
vt 0.368739 0.734032
vt 0.391004 0.734032
vt 0.361317 0.734032
vt 0.353895 0.734032
vt 0.346473 0.734032
vt 0.413270 0.734032
vt 0.420692 0.734032
vt 0.405848 0.734032
vt 0.398426 0.734032
vt 0.376160 0.717472
vt 0.383582 0.717472
vt 0.383582 0.722539
vt 0.376160 0.722539
vt 0.368739 0.717472
vt 0.368739 0.722539
vt 0.361317 0.717472
vt 0.361317 0.722539
vt 0.353895 0.717472
vt 0.353895 0.722539
vt 0.346473 0.717472
vt 0.346473 0.722539
vt 0.413270 0.717472
vt 0.420692 0.717472
vt 0.420692 0.722539
vt 0.413270 0.722539
vt 0.405848 0.717472
vt 0.405848 0.722539
vt 0.398426 0.717472
vt 0.398426 0.722539
vt 0.391004 0.717472
vt 0.391004 0.722539
vt 0.405848 0.521171
vt 0.398426 0.521171
vt 0.398426 0.517260
vt 0.405848 0.517260
vt 0.398426 0.513349
vt 0.405848 0.513349
vt 0.383582 0.521171
vt 0.376160 0.521171
vt 0.376160 0.517260
vt 0.383582 0.517260
vt 0.376160 0.513349
vt 0.383582 0.513349
vt 0.361317 0.521171
vt 0.353895 0.521171
vt 0.353895 0.517260
vt 0.361317 0.517260
vt 0.353895 0.513349
vt 0.361317 0.513349
vt 0.413270 0.521171
vt 0.413270 0.517260
vt 0.413270 0.513349
vt 0.391004 0.521171
vt 0.391004 0.517260
vt 0.391004 0.513349
vt 0.368739 0.521171
vt 0.368739 0.517260
vt 0.368739 0.513349
vt 0.420692 0.521171
vt 0.420692 0.517260
vt 0.420692 0.513349
vt 0.346473 0.521171
vt 0.346473 0.517260
vt 0.346473 0.513349
vt 0.376160 0.463526
vt 0.368739 0.463526
vt 0.368739 0.460372
vt 0.376160 0.460372
vt 0.368739 0.457217
vt 0.376160 0.457217
vt 0.353895 0.463526
vt 0.346473 0.463526
vt 0.346473 0.460372
vt 0.353895 0.460372
vt 0.346473 0.457217
vt 0.353895 0.457217
vt 0.398426 0.463526
vt 0.391004 0.463526
vt 0.391004 0.460372
vt 0.398426 0.460372
vt 0.391004 0.457217
vt 0.398426 0.457217
vt 0.361317 0.463526
vt 0.361317 0.460372
vt 0.361317 0.457217
vt 0.420692 0.463526
vt 0.413270 0.463526
vt 0.413270 0.460372
vt 0.420692 0.460372
vt 0.413270 0.457217
vt 0.420692 0.457217
vt 0.383582 0.463526
vt 0.383582 0.460372
vt 0.383582 0.457217
vt 0.405848 0.463526
vt 0.405848 0.460372
vt 0.405848 0.457217
vt 0.391004 0.455268
vt 0.383582 0.455268
vt 0.398426 0.455268
vt 0.405848 0.455268
vt 0.413270 0.455268
vt 0.420692 0.455268
vt 0.353895 0.455268
vt 0.346473 0.455268
vt 0.361317 0.455268
vt 0.368739 0.455268
vt 0.376160 0.455268
vt 0.167155 0.774379
vt 0.162015 0.781453
vt 0.153698 0.784155
vt 0.145381 0.781453
vt 0.140241 0.774379
vt 0.140241 0.765634
vt 0.145381 0.758559
vt 0.153698 0.755857
vt 0.162015 0.758559
vt 0.167155 0.765634
vt 0.771632 0.654382
vt 0.771632 0.563000
vt 0.806692 0.563000
vt 0.806692 0.654382
vt 0.898075 0.563000
vt 0.806692 0.527940
vt 0.898075 0.527940
vt 0.806692 0.436557
vt 0.771632 0.527940
vt 0.771632 0.436557
vt 0.680250 0.527940
vt 0.680250 0.563000
vt 0.035060 0.755857
vt 0.035060 0.790918
vt 0.000000 0.790918
vt 0.771632 0.872207
vt 0.771632 0.780825
vt 0.806692 0.780825
vt 0.806692 0.872207
vt 0.898075 0.780825
vt 0.806692 0.745765
vt 0.898075 0.745765
vt 0.771632 0.745765
vt 0.680250 0.745765
vt 0.680250 0.780825
vt 0.070121 0.755857
vt 0.070121 0.790918
vt 0.437823 0.436557
vt 0.437823 0.424856
vt 0.696255 0.424856
vt 0.696255 0.436557
vt 0.707956 0.424856
vt 0.696255 0.011701
vt 0.707956 0.011701
vt 0.696255 -0.000000
vt 0.437823 0.011701
vt 0.437823 0.000000
vt 0.426122 0.011701
vt 0.426122 0.424856
vt 0.426122 0.842831
vt 0.426122 0.436557
vt 0.680250 0.436557
vt 0.680250 0.842830
vt 0.977735 0.011953
vt 0.985156 0.011953
vt 0.985156 0.055434
vt 0.977735 0.055434
vt 0.420692 0.792462
vt 0.416108 0.798771
vt 0.408691 0.801181
vt 0.401274 0.798771
vt 0.396690 0.792462
vt 0.396690 0.784663
vt 0.401274 0.778354
vt 0.408691 0.775944
vt 0.416108 0.778354
vt 0.420692 0.784663
vt 0.962891 0.011953
vt 0.955469 0.011953
vt 0.955469 0.010207
vt 0.962891 0.010207
vt 0.948047 0.011953
vt 0.948047 0.010207
vt 0.940625 0.011953
vt 0.940625 0.010207
vt 0.933203 0.011953
vt 0.933203 0.010207
vt 0.925782 0.011953
vt 0.925782 0.010207
vt 1.000000 0.011953
vt 0.992578 0.011953
vt 0.992578 0.010207
vt 1.000000 0.010207
vt 0.985156 0.010207
vt 0.977735 0.010207
vt 0.970313 0.011953
vt 0.970313 0.010207
vt 0.955469 0.055434
vt 0.962891 0.055434
vt 0.962891 0.056856
vt 0.955469 0.056856
vt 0.933203 0.055434
vt 0.925782 0.055434
vt 0.948047 0.055434
vt 0.970313 0.055434
vt 1.000000 0.055434
vt 0.992578 0.055434
vt 0.940625 0.055434
vt 0.985156 0.056856
vt 0.977735 0.056856
vt 0.933203 0.056856
vt 0.925782 0.056856
vt 0.948047 0.056856
vt 0.970313 0.056856
vt 1.000000 0.056856
vt 0.992578 0.056856
vt 0.940625 0.056856
vt 0.962891 0.068584
vt 0.955469 0.068584
vt 0.955469 0.067127
vt 0.962891 0.067127
vt 0.948047 0.068584
vt 0.948047 0.067127
vt 0.940625 0.068584
vt 0.940625 0.067127
vt 0.933203 0.068584
vt 0.933203 0.067127
vt 0.925782 0.068584
vt 0.925782 0.067127
vt 1.000000 0.068584
vt 0.992578 0.068584
vt 0.992578 0.067127
vt 1.000000 0.067127
vt 0.985156 0.068584
vt 0.985156 0.067127
vt 0.977735 0.068584
vt 0.977735 0.067127
vt 0.970313 0.068584
vt 0.970313 0.067127
vt 0.977735 0.306078
vt 0.985156 0.306078
vt 0.985156 0.320675
vt 0.977735 0.320675
vt 0.925782 0.306078
vt 0.933203 0.306078
vt 0.933203 0.320675
vt 0.925782 0.320675
vt 0.948047 0.306078
vt 0.955469 0.306078
vt 0.955469 0.320675
vt 0.948047 0.320675
vt 0.970313 0.306078
vt 0.970313 0.320675
vt 0.992578 0.306078
vt 1.000000 0.306078
vt 1.000000 0.320675
vt 0.992578 0.320675
vt 0.940625 0.306078
vt 0.940625 0.320675
vt 0.962891 0.306078
vt 0.962891 0.320675
vt 0.955469 0.284899
vt 0.962891 0.284899
vt 0.962891 0.291758
vt 0.955469 0.291758
vt 0.962891 0.298612
vt 0.955469 0.298612
vt 0.948047 0.284899
vt 0.948047 0.291758
vt 0.948047 0.298612
vt 0.940625 0.284899
vt 0.940625 0.291758
vt 0.940625 0.298612
vt 0.933203 0.284899
vt 0.933203 0.291758
vt 0.933203 0.298612
vt 0.925782 0.284899
vt 0.925782 0.291758
vt 0.925782 0.298612
vt 0.992578 0.284899
vt 1.000000 0.284899
vt 1.000000 0.291758
vt 0.992578 0.291758
vt 1.000000 0.298612
vt 0.992578 0.298612
vt 0.985156 0.284899
vt 0.985156 0.291758
vt 0.985156 0.298612
vt 0.977735 0.284899
vt 0.977735 0.291758
vt 0.977735 0.298612
vt 0.970313 0.284899
vt 0.970313 0.291758
vt 0.970313 0.298612
vt 0.955469 0.278763
vt 0.962891 0.278763
vt 0.948047 0.278763
vt 0.970313 0.278763
vt 0.940625 0.278763
vt 0.933203 0.278763
vt 0.925782 0.278763
vt 0.992578 0.278763
vt 1.000000 0.278763
vt 0.985156 0.278763
vt 0.977735 0.278763
vt 0.955469 0.262203
vt 0.962891 0.262203
vt 0.962891 0.267271
vt 0.955469 0.267271
vt 0.948047 0.262203
vt 0.948047 0.267271
vt 0.940625 0.262203
vt 0.940625 0.267271
vt 0.933203 0.262203
vt 0.933203 0.267271
vt 0.925782 0.262203
vt 0.925782 0.267271
vt 0.992578 0.262203
vt 1.000000 0.262203
vt 1.000000 0.267271
vt 0.992578 0.267271
vt 0.985156 0.262203
vt 0.985156 0.267271
vt 0.977735 0.262203
vt 0.977735 0.267271
vt 0.970313 0.262203
vt 0.970313 0.267271
vt 0.985156 0.065902
vt 0.977735 0.065902
vt 0.977735 0.061992
vt 0.985156 0.061992
vt 0.977735 0.058081
vt 0.985156 0.058081
vt 0.962891 0.065902
vt 0.955469 0.065902
vt 0.955469 0.061992
vt 0.962891 0.061992
vt 0.955469 0.058081
vt 0.962891 0.058081
vt 0.940625 0.065902
vt 0.933203 0.065902
vt 0.933203 0.061992
vt 0.940625 0.061992
vt 0.933203 0.058081
vt 0.940625 0.058081
vt 0.992578 0.065902
vt 0.992578 0.061992
vt 0.992578 0.058081
vt 0.970313 0.065902
vt 0.970313 0.061992
vt 0.970313 0.058081
vt 0.948047 0.065902
vt 0.948047 0.061992
vt 0.948047 0.058081
vt 1.000000 0.065902
vt 1.000000 0.061992
vt 1.000000 0.058081
vt 0.925782 0.065902
vt 0.925782 0.061992
vt 0.925782 0.058081
vt 0.955469 0.008258
vt 0.948047 0.008258
vt 0.948047 0.005103
vt 0.955469 0.005103
vt 0.948047 0.001949
vt 0.955469 0.001949
vt 0.933203 0.008258
vt 0.925782 0.008258
vt 0.925782 0.005103
vt 0.933203 0.005103
vt 0.925782 0.001949
vt 0.933203 0.001949
vt 0.977735 0.008258
vt 0.970313 0.008258
vt 0.970313 0.005103
vt 0.977735 0.005103
vt 0.970313 0.001949
vt 0.977735 0.001949
vt 0.940625 0.008258
vt 0.940625 0.005103
vt 0.940625 0.001949
vt 1.000000 0.008258
vt 0.992578 0.008258
vt 0.992578 0.005103
vt 1.000000 0.005103
vt 0.992578 0.001949
vt 1.000000 0.001949
vt 0.962891 0.008258
vt 0.962891 0.005103
vt 0.962891 0.001949
vt 0.985156 0.008258
vt 0.985156 0.005103
vt 0.985156 0.001949
vt 0.970313 -0.000000
vt 0.962891 -0.000000
vt 0.977735 -0.000000
vt 0.985156 -0.000000
vt 0.992578 -0.000000
vt 1.000000 -0.000000
vt 0.933203 -0.000000
vt 0.925782 -0.000000
vt 0.940625 -0.000000
vt 0.948047 -0.000000
vt 0.955469 -0.000000
vt 0.220981 0.774379
vt 0.215841 0.781453
vt 0.207524 0.784155
vt 0.199208 0.781453
vt 0.194068 0.774379
vt 0.194068 0.765634
vt 0.199208 0.758559
vt 0.207524 0.755857
vt 0.215841 0.758559
vt 0.220981 0.765634
vt 0.799339 0.217825
vt 0.799339 0.126443
vt 0.834399 0.126443
vt 0.834399 0.217825
vt 0.925781 0.126443
vt 0.834399 0.091382
vt 0.925781 0.091382
vt 0.834399 -0.000000
vt 0.799339 0.091382
vt 0.799339 -0.000000
vt 0.707957 0.091382
vt 0.707957 0.126443
vt 0.105181 0.755857
vt 0.105181 0.790918
vt 0.950028 0.448510
vt 0.957449 0.448510
vt 0.957449 0.491992
vt 0.950028 0.491992
vt 0.271896 0.772375
vt 0.267312 0.778684
vt 0.259895 0.781094
vt 0.252478 0.778684
vt 0.247894 0.772375
vt 0.247894 0.764576
vt 0.252478 0.758267
vt 0.259895 0.755857
vt 0.267312 0.758267
vt 0.271896 0.764576
vt 0.935184 0.448510
vt 0.927762 0.448510
vt 0.927762 0.446764
vt 0.935184 0.446764
vt 0.920340 0.448510
vt 0.920340 0.446764
vt 0.912918 0.448510
vt 0.912918 0.446764
vt 0.905496 0.448510
vt 0.905496 0.446764
vt 0.898075 0.448510
vt 0.898075 0.446764
vt 0.972293 0.448510
vt 0.964871 0.448510
vt 0.964871 0.446764
vt 0.972293 0.446764
vt 0.957449 0.446764
vt 0.950028 0.446764
vt 0.942606 0.448510
vt 0.942606 0.446764
vt 0.927762 0.491992
vt 0.935184 0.491992
vt 0.935184 0.493413
vt 0.927762 0.493413
vt 0.905496 0.491992
vt 0.898075 0.491992
vt 0.920340 0.491992
vt 0.942606 0.491992
vt 0.972293 0.491992
vt 0.964871 0.491992
vt 0.912918 0.491992
vt 0.957449 0.493413
vt 0.950028 0.493413
vt 0.905496 0.493413
vt 0.898075 0.493413
vt 0.920340 0.493413
vt 0.942606 0.493413
vt 0.972293 0.493413
vt 0.964871 0.493413
vt 0.912918 0.493413
vt 0.935184 0.505142
vt 0.927762 0.505142
vt 0.927762 0.503685
vt 0.935184 0.503685
vt 0.920340 0.505142
vt 0.920340 0.503685
vt 0.912918 0.505142
vt 0.912918 0.503685
vt 0.905496 0.505142
vt 0.905496 0.503685
vt 0.898075 0.505142
vt 0.898075 0.503685
vt 0.972293 0.505142
vt 0.964871 0.505142
vt 0.964871 0.503685
vt 0.972293 0.503685
vt 0.957449 0.505142
vt 0.957449 0.503685
vt 0.950028 0.505142
vt 0.950028 0.503685
vt 0.942606 0.505142
vt 0.942606 0.503685
vt 0.950028 0.742636
vt 0.957449 0.742636
vt 0.957449 0.757233
vt 0.950028 0.757233
vt 0.898075 0.742636
vt 0.905496 0.742636
vt 0.905496 0.757233
vt 0.898075 0.757233
vt 0.920340 0.742636
vt 0.927762 0.742636
vt 0.927762 0.757233
vt 0.920340 0.757233
vt 0.942606 0.742636
vt 0.942606 0.757233
vt 0.964871 0.742636
vt 0.972293 0.742636
vt 0.972293 0.757233
vt 0.964871 0.757233
vt 0.912918 0.742636
vt 0.912918 0.757233
vt 0.935184 0.742636
vt 0.935184 0.757233
vt 0.927762 0.721456
vt 0.935184 0.721456
vt 0.935184 0.728316
vt 0.927762 0.728316
vt 0.935184 0.735170
vt 0.927762 0.735170
vt 0.920340 0.721456
vt 0.920340 0.728316
vt 0.920340 0.735170
vt 0.912918 0.721456
vt 0.912918 0.728316
vt 0.912918 0.735170
vt 0.905496 0.721456
vt 0.905496 0.728316
vt 0.905496 0.735170
vt 0.898075 0.721456
vt 0.898075 0.728316
vt 0.898075 0.735170
vt 0.964871 0.721456
vt 0.972293 0.721456
vt 0.972293 0.728316
vt 0.964871 0.728316
vt 0.972293 0.735170
vt 0.964871 0.735170
vt 0.957449 0.721456
vt 0.957449 0.728316
vt 0.957449 0.735170
vt 0.950028 0.721456
vt 0.950028 0.728316
vt 0.950028 0.735170
vt 0.942606 0.721456
vt 0.942606 0.728316
vt 0.942606 0.735170
vt 0.927762 0.715321
vt 0.935184 0.715321
vt 0.920340 0.715321
vt 0.942606 0.715321
vt 0.912918 0.715321
vt 0.905496 0.715321
vt 0.898075 0.715321
vt 0.964871 0.715321
vt 0.972293 0.715321
vt 0.957449 0.715321
vt 0.950028 0.715321
vt 0.927762 0.698761
vt 0.935184 0.698761
vt 0.935184 0.703828
vt 0.927762 0.703828
vt 0.920340 0.698761
vt 0.920340 0.703828
vt 0.912918 0.698761
vt 0.912918 0.703828
vt 0.905496 0.698761
vt 0.905496 0.703828
vt 0.898075 0.698761
vt 0.898075 0.703828
vt 0.964871 0.698761
vt 0.972293 0.698761
vt 0.972293 0.703828
vt 0.964871 0.703828
vt 0.957449 0.698761
vt 0.957449 0.703828
vt 0.950028 0.698761
vt 0.950028 0.703828
vt 0.942606 0.698761
vt 0.942606 0.703828
vt 0.957449 0.502460
vt 0.950028 0.502460
vt 0.950028 0.498549
vt 0.957449 0.498549
vt 0.950028 0.494638
vt 0.957449 0.494638
vt 0.935184 0.502460
vt 0.927762 0.502460
vt 0.927762 0.498549
vt 0.935184 0.498549
vt 0.927762 0.494638
vt 0.935184 0.494638
vt 0.912918 0.502460
vt 0.905496 0.502460
vt 0.905496 0.498549
vt 0.912918 0.498549
vt 0.905496 0.494638
vt 0.912918 0.494638
vt 0.964871 0.502460
vt 0.964871 0.498549
vt 0.964871 0.494638
vt 0.942606 0.502460
vt 0.942606 0.498549
vt 0.942606 0.494638
vt 0.920340 0.502460
vt 0.920340 0.498549
vt 0.920340 0.494638
vt 0.972293 0.502460
vt 0.972293 0.498549
vt 0.972293 0.494638
vt 0.898075 0.502460
vt 0.898075 0.498549
vt 0.898075 0.494638
vt 0.927762 0.444816
vt 0.920340 0.444816
vt 0.920340 0.441661
vt 0.927762 0.441661
vt 0.920340 0.438506
vt 0.927762 0.438506
vt 0.905496 0.444816
vt 0.898075 0.444816
vt 0.898075 0.441661
vt 0.905496 0.441661
vt 0.898075 0.438506
vt 0.905496 0.438506
vt 0.950028 0.444816
vt 0.942606 0.444816
vt 0.942606 0.441661
vt 0.950028 0.441661
vt 0.942606 0.438506
vt 0.950028 0.438506
vt 0.912918 0.444816
vt 0.912918 0.441661
vt 0.912918 0.438506
vt 0.972293 0.444816
vt 0.964871 0.444816
vt 0.964871 0.441661
vt 0.972293 0.441661
vt 0.964871 0.438506
vt 0.972293 0.438506
vt 0.935184 0.444816
vt 0.935184 0.441661
vt 0.935184 0.438506
vt 0.957449 0.444816
vt 0.957449 0.441661
vt 0.957449 0.438506
vt 0.942606 0.436557
vt 0.935184 0.436557
vt 0.950028 0.436557
vt 0.957449 0.436557
vt 0.964871 0.436557
vt 0.972293 0.436557
vt 0.905496 0.436557
vt 0.898075 0.436557
vt 0.912918 0.436557
vt 0.920340 0.436557
vt 0.927762 0.436557
vt 0.188928 0.781453
vt 0.180611 0.784155
vt 0.172294 0.781453
vt 0.172294 0.758559
vt 0.180611 0.755857
vt 0.188928 0.758559
vt 0.799339 0.435650
vt 0.799339 0.344268
vt 0.834399 0.344268
vt 0.834399 0.435650
vt 0.925781 0.344268
vt 0.834399 0.309207
vt 0.925781 0.309207
vt 0.799339 0.309207
vt 0.707957 0.309207
vt 0.707957 0.344268
vt 0.140241 0.755857
vt 0.140241 0.790918
vt 0.324207 0.467221
vt 0.331629 0.467221
vt 0.331629 0.510703
vt 0.324207 0.510703
vt 0.392106 0.798771
vt 0.384689 0.801181
vt 0.377272 0.798771
vt 0.377272 0.778354
vt 0.384689 0.775944
vt 0.392106 0.778354
vt 0.309364 0.467221
vt 0.301942 0.467221
vt 0.301942 0.465475
vt 0.309364 0.465475
vt 0.294520 0.467221
vt 0.294520 0.465475
vt 0.287098 0.467221
vt 0.287098 0.465475
vt 0.279676 0.467221
vt 0.279676 0.465475
vt 0.272254 0.467221
vt 0.272254 0.465475
vt 0.339051 0.467221
vt 0.339051 0.465475
vt 0.331629 0.465475
vt 0.324207 0.465475
vt 0.316786 0.467221
vt 0.316786 0.465475
vt 0.301942 0.510703
vt 0.309364 0.510703
vt 0.309364 0.512124
vt 0.301942 0.512124
vt 0.279676 0.510703
vt 0.272254 0.510703
vt 0.294520 0.510703
vt 0.316786 0.510703
vt 0.339051 0.510703
vt 0.287098 0.510703
vt 0.331629 0.512124
vt 0.324207 0.512124
vt 0.279676 0.512124
vt 0.272254 0.512124
vt 0.294520 0.512124
vt 0.316786 0.512124
vt 0.339051 0.512124
vt 0.287098 0.512124
vt 0.309364 0.523853
vt 0.301942 0.523853
vt 0.301942 0.522396
vt 0.309364 0.522396
vt 0.294520 0.523853
vt 0.294520 0.522396
vt 0.287098 0.523853
vt 0.287098 0.522396
vt 0.279676 0.523853
vt 0.279676 0.522396
vt 0.272254 0.523853
vt 0.272254 0.522396
vt 0.339051 0.523853
vt 0.339051 0.522396
vt 0.331629 0.523853
vt 0.331629 0.522396
vt 0.324207 0.523853
vt 0.324207 0.522396
vt 0.316786 0.523853
vt 0.316786 0.522396
vt 0.324207 0.761347
vt 0.331629 0.761347
vt 0.331629 0.775944
vt 0.324207 0.775944
vt 0.272254 0.761347
vt 0.279676 0.761347
vt 0.279676 0.775944
vt 0.272254 0.775944
vt 0.294520 0.761347
vt 0.301942 0.761347
vt 0.301942 0.775944
vt 0.294520 0.775944
vt 0.316786 0.761347
vt 0.316786 0.775944
vt 0.339051 0.761347
vt 0.339051 0.775944
vt 0.287098 0.761347
vt 0.287098 0.775944
vt 0.309364 0.761347
vt 0.309364 0.775944
vt 0.301942 0.740167
vt 0.309364 0.740167
vt 0.309364 0.747027
vt 0.301942 0.747027
vt 0.309364 0.753881
vt 0.301942 0.753881
vt 0.294520 0.740167
vt 0.294520 0.747027
vt 0.294520 0.753881
vt 0.287098 0.740167
vt 0.287098 0.747027
vt 0.287098 0.753881
vt 0.279676 0.740167
vt 0.279676 0.747027
vt 0.279676 0.753881
vt 0.272254 0.740167
vt 0.272254 0.747027
vt 0.272254 0.753881
vt 0.339051 0.740167
vt 0.339051 0.747027
vt 0.339051 0.753881
vt 0.331629 0.740167
vt 0.331629 0.747027
vt 0.331629 0.753881
vt 0.324207 0.740167
vt 0.324207 0.747027
vt 0.324207 0.753881
vt 0.316786 0.740167
vt 0.316786 0.747027
vt 0.316786 0.753881
vt 0.301942 0.734032
vt 0.309364 0.734032
vt 0.294520 0.734032
vt 0.316786 0.734032
vt 0.287098 0.734032
vt 0.279676 0.734032
vt 0.272254 0.734032
vt 0.339051 0.734032
vt 0.331629 0.734032
vt 0.324207 0.734032
vt 0.301942 0.717472
vt 0.309364 0.717472
vt 0.309364 0.722540
vt 0.301942 0.722540
vt 0.294520 0.717472
vt 0.294520 0.722540
vt 0.287098 0.717472
vt 0.287098 0.722540
vt 0.279676 0.717472
vt 0.279676 0.722540
vt 0.272254 0.717472
vt 0.272254 0.722540
vt 0.339051 0.717472
vt 0.346473 0.722540
vt 0.339051 0.722540
vt 0.331629 0.717472
vt 0.331629 0.722540
vt 0.324207 0.717472
vt 0.324207 0.722540
vt 0.316786 0.717472
vt 0.316786 0.722540
vt 0.331629 0.521171
vt 0.324207 0.521171
vt 0.324207 0.517260
vt 0.331629 0.517260
vt 0.324207 0.513349
vt 0.331629 0.513349
vt 0.309364 0.521171
vt 0.301942 0.521171
vt 0.301942 0.517260
vt 0.309364 0.517260
vt 0.301942 0.513349
vt 0.309364 0.513349
vt 0.287098 0.521171
vt 0.279676 0.521171
vt 0.279676 0.517260
vt 0.287098 0.517260
vt 0.279676 0.513349
vt 0.287098 0.513349
vt 0.339051 0.521171
vt 0.339051 0.517260
vt 0.339051 0.513349
vt 0.316786 0.521171
vt 0.316786 0.517260
vt 0.316786 0.513349
vt 0.294520 0.521171
vt 0.294520 0.517260
vt 0.294520 0.513349
vt 0.272254 0.521171
vt 0.272254 0.517260
vt 0.272254 0.513349
vt 0.301942 0.463526
vt 0.294520 0.463526
vt 0.294520 0.460372
vt 0.301942 0.460372
vt 0.294520 0.457217
vt 0.301942 0.457217
vt 0.279676 0.463526
vt 0.272254 0.463526
vt 0.272254 0.460372
vt 0.279676 0.460372
vt 0.272254 0.457217
vt 0.279676 0.457217
vt 0.324207 0.463526
vt 0.316786 0.463526
vt 0.316786 0.460372
vt 0.324207 0.460372
vt 0.316786 0.457217
vt 0.324207 0.457217
vt 0.287098 0.463526
vt 0.287098 0.460372
vt 0.287098 0.457217
vt 0.339051 0.463526
vt 0.339051 0.460372
vt 0.339051 0.457217
vt 0.309364 0.463526
vt 0.309364 0.460372
vt 0.309364 0.457217
vt 0.331629 0.463526
vt 0.331629 0.460372
vt 0.331629 0.457217
vt 0.316786 0.455268
vt 0.309364 0.455268
vt 0.324207 0.455268
vt 0.331629 0.455268
vt 0.339051 0.455268
vt 0.279676 0.455268
vt 0.287098 0.455268
vt 0.294520 0.455268
vt 0.301942 0.455268
vt 0.247894 0.774379
vt 0.242754 0.781453
vt 0.234438 0.784155
vt 0.226121 0.781453
vt 0.226121 0.758559
vt 0.234438 0.755857
vt 0.242754 0.758559
vt 0.247894 0.765634
s 1
f 9/1/1 10/2/1 4/3/1 3/4/1
f 3/5/2 4/3/2 8/6/2 7/7/2
f 7/8/3 8/6/3 11/9/3 12/10/3
f 6/11/4 2/12/4 14/13/4 15/14/4
f 3/15/4 7/16/4 12/17/4 9/18/4
f 8/6/5 4/3/5 10/2/5 11/9/5
f 1/19/6 2/12/6 10/2/6 9/20/6
f 6/11/6 5/21/6 12/22/6 11/9/6
f 5/21/6 1/19/6 9/20/6 12/22/6
f 2/12/6 6/11/6 11/9/6 10/2/6
f 16/23/6 15/14/6 14/13/6 13/24/6
f 5/21/1 6/11/1 15/14/1 16/23/1
f 1/19/5 5/21/5 16/23/5 13/24/5
f 2/12/3 1/19/3 13/24/3 14/13/3
f 34/25/7 32/26/8 54/27/9 55/28/10
f 17/29/11 19/30/12 21/31/13 23/32/14 25/33/15 27/34/16 29/35/17 31/36/18 33/37/19 35/38/20
f 18/39/21 20/40/22 37/41/23 38/42/24
f 20/40/22 22/43/25 39/44/26 37/41/23
f 22/43/25 24/45/27 40/46/28 39/44/26
f 24/45/27 26/47/29 41/48/30 40/46/28
f 26/47/29 28/49/31 42/50/32 41/48/30
f 28/51/31 30/52/33 43/53/34 42/54/32
f 30/52/33 32/26/8 44/55/35 43/53/34
f 32/26/8 34/25/7 45/56/36 44/55/35
f 34/25/7 36/57/37 46/58/38 45/56/36
f 36/57/37 18/39/21 38/42/24 46/58/38
f 47/59/39 48/60/40 58/61/41 57/62/42
f 28/49/31 26/47/29 51/63/43 52/64/44
f 22/43/25 20/40/22 47/59/39 49/65/45
f 36/57/37 34/25/7 55/28/10 56/66/46
f 30/52/33 28/51/31 52/67/44 53/68/47
f 24/45/27 22/43/25 49/65/45 50/69/48
f 18/39/21 36/57/37 56/66/46 48/60/40
f 32/26/8 30/52/33 53/68/47 54/27/9
f 26/47/29 24/45/27 50/69/48 51/63/43
f 20/40/22 18/39/21 48/60/40 47/59/39
f 55/28/10 54/27/9 64/70/49 65/71/50
f 52/64/44 51/63/43 61/72/51 62/73/52
f 49/65/45 47/59/39 57/62/42 59/74/53
f 56/66/46 55/28/10 65/71/50 66/75/54
f 53/68/47 52/67/44 62/76/52 63/77/55
f 50/69/48 49/65/45 59/74/53 60/78/56
f 48/60/40 56/66/46 66/75/54 58/61/41
f 54/27/9 53/68/47 63/77/55 64/70/49
f 51/63/43 50/69/48 60/78/56 61/72/51
f 68/79/57 67/80/58 77/81/59 78/82/60
f 67/80/58 69/83/61 79/84/62 77/81/59
f 69/83/61 70/85/63 80/86/64 79/84/62
f 70/85/63 71/87/65 81/88/66 80/86/64
f 71/87/65 72/89/67 82/90/68 81/88/66
f 72/91/67 73/92/69 83/93/70 82/94/68
f 73/92/69 74/95/71 84/96/72 83/93/70
f 74/95/71 75/97/73 85/98/74 84/96/72
f 75/97/73 76/99/75 86/100/76 85/98/74
f 76/99/75 68/79/57 78/82/60 86/100/76
f 105/101/77 104/102/78 114/103/79 115/104/80
f 102/105/81 101/106/82 111/107/83 112/108/84
f 99/109/85 97/110/86 107/111/87 109/112/88
f 106/113/89 105/101/77 115/104/80 116/114/90
f 103/115/91 102/116/81 112/117/84 113/118/92
f 100/119/93 99/109/85 109/112/88 110/120/94
f 98/121/95 106/113/89 116/114/90 108/122/96
f 104/102/78 103/115/91 113/118/92 114/103/79
f 101/106/82 100/119/93 110/120/94 111/107/83
f 97/110/86 98/121/95 108/122/96 107/111/87
f 118/123/97 120/124/98 122/125/99 119/126/100
f 119/126/100 122/125/99 121/127/101 117/128/102
f 124/129/103 118/123/97 119/126/100 125/130/104
f 125/130/104 119/126/100 117/128/102 123/131/105
f 127/132/106 124/129/103 125/130/104 128/133/107
f 128/133/107 125/130/104 123/131/105 126/134/108
f 130/135/109 127/132/106 128/133/107 131/136/110
f 131/136/110 128/133/107 126/134/108 129/137/111
f 133/138/112 130/135/109 131/136/110 134/139/113
f 134/139/113 131/136/110 129/137/111 132/140/114
f 136/141/115 133/142/112 134/143/113 137/144/116
f 137/144/116 134/143/113 132/145/114 135/146/117
f 139/147/118 136/141/115 137/144/116 140/148/119
f 140/148/119 137/144/116 135/146/117 138/149/120
f 142/150/121 139/147/118 140/148/119 143/151/122
f 143/151/122 140/148/119 138/149/120 141/152/123
f 145/153/124 142/150/121 143/151/122 146/154/125
f 146/154/125 143/151/122 141/152/123 144/155/126
f 120/124/98 145/153/124 146/154/125 122/125/99
f 122/125/99 146/154/125 144/155/126 121/127/101
f 87/156/127 88/157/128 120/124/98 118/123/97
f 123/131/105 117/128/102 97/110/86 99/109/85
f 117/128/102 121/127/101 98/121/95 97/110/86
f 89/158/129 87/156/127 118/123/97 124/129/103
f 121/127/101 144/155/126 106/113/89 98/121/95
f 88/157/128 96/159/130 145/153/124 120/124/98
f 90/160/131 89/158/129 124/129/103 127/132/106
f 126/134/108 123/131/105 99/109/85 100/119/93
f 91/161/132 90/160/131 127/132/106 130/135/109
f 129/137/111 126/134/108 100/119/93 101/106/82
f 92/162/133 91/161/132 130/135/109 133/138/112
f 132/140/114 129/137/111 101/106/82 102/105/81
f 93/163/134 92/164/133 133/142/112 136/141/115
f 135/146/117 132/145/114 102/116/81 103/115/91
f 94/165/135 93/163/134 136/141/115 139/147/118
f 138/149/120 135/146/117 103/115/91 104/102/78
f 95/166/136 94/165/135 139/147/118 142/150/121
f 141/152/123 138/149/120 104/102/78 105/101/77
f 96/159/130 95/166/136 142/150/121 145/153/124
f 144/155/126 141/152/123 105/101/77 106/113/89
f 148/167/137 149/168/138 150/169/139 147/170/140
f 152/171/141 148/167/137 147/170/140 151/172/142
f 154/173/143 152/171/141 151/172/142 153/174/144
f 156/175/145 154/173/143 153/174/144 155/176/146
f 158/177/147 156/175/145 155/176/146 157/178/148
f 160/179/149 158/180/147 157/181/148 159/182/150
f 162/183/151 160/179/149 159/182/150 161/184/152
f 164/185/153 162/183/151 161/184/152 163/186/154
f 166/187/155 164/185/153 163/186/154 165/188/156
f 149/168/138 166/187/155 165/188/156 150/169/139
f 147/170/140 150/169/139 88/157/128 87/156/127
f 69/83/61 67/80/58 148/167/137 152/171/141
f 67/80/58 68/79/57 149/168/138 148/167/137
f 151/172/142 147/170/140 87/156/127 89/158/129
f 150/169/139 165/188/156 96/159/130 88/157/128
f 68/79/57 76/99/75 166/187/155 149/168/138
f 70/85/63 69/83/61 152/171/141 154/173/143
f 153/174/144 151/172/142 89/158/129 90/160/131
f 71/87/65 70/85/63 154/173/143 156/175/145
f 155/176/146 153/174/144 90/160/131 91/161/132
f 72/89/67 71/87/65 156/175/145 158/177/147
f 157/178/148 155/176/146 91/161/132 92/162/133
f 73/92/69 72/91/67 158/180/147 160/179/149
f 159/182/150 157/181/148 92/164/133 93/163/134
f 74/95/71 73/92/69 160/179/149 162/183/151
f 161/184/152 159/182/150 93/163/134 94/165/135
f 75/97/73 74/95/71 162/183/151 164/185/153
f 163/186/154 161/184/152 94/165/135 95/166/136
f 76/99/75 75/97/73 164/185/153 166/187/155
f 165/188/156 163/186/154 95/166/136 96/159/130
f 195/189/157 179/190/158 181/191/159 196/192/160
f 196/192/160 181/191/159 180/193/161 194/194/162
f 192/195/163 173/196/164 175/197/165 193/198/2
f 193/198/2 175/197/165 174/199/166 191/200/167
f 189/201/168 167/202/169 169/203/170 190/204/171
f 190/204/171 169/203/170 168/205/172 188/206/173
f 186/207/174 195/189/157 196/192/160 187/208/175
f 187/208/175 196/192/160 194/194/162 185/209/176
f 183/210/177 192/195/163 193/198/2 184/211/178
f 184/211/178 193/198/2 191/200/167 182/212/179
f 177/213/180 189/201/168 190/204/171 178/214/181
f 178/214/181 190/204/171 188/206/173 176/215/182
f 171/216/183 186/207/174 187/208/175 172/217/6
f 172/217/6 187/208/175 185/209/176 170/218/184
f 179/190/158 183/210/177 184/211/178 181/191/159
f 181/191/159 184/211/178 182/212/179 180/193/161
f 173/196/164 177/213/180 178/214/181 175/197/165
f 175/197/165 178/214/181 176/215/182 174/199/166
f 167/202/169 171/219/183 172/220/6 169/203/170
f 169/203/170 172/220/6 170/221/184 168/205/172
f 167/202/169 189/201/168 80/86/64 81/88/66
f 62/73/52 61/72/51 168/205/172 170/221/184
f 171/219/183 167/202/169 81/88/66 82/90/68
f 61/72/51 60/78/56 188/206/173 168/205/172
f 186/207/174 171/216/183 82/94/68 83/93/70
f 63/77/55 62/76/52 170/218/184 185/209/176
f 173/196/164 192/195/163 78/82/60 77/81/59
f 59/74/53 57/62/42 174/199/166 176/215/182
f 177/213/180 173/196/164 77/81/59 79/84/62
f 57/62/42 58/61/41 191/200/167 174/199/166
f 189/201/168 177/213/180 79/84/62 80/86/64
f 60/78/56 59/74/53 176/215/182 188/206/173
f 179/190/158 195/189/157 84/96/72 85/98/74
f 66/75/54 65/71/50 180/193/161 182/212/179
f 183/210/177 179/190/158 85/98/74 86/100/76
f 65/71/50 64/70/49 194/194/162 180/193/161
f 192/195/163 183/210/177 86/100/76 78/82/60
f 58/61/41 66/75/54 182/212/179 191/200/167
f 195/189/157 186/207/174 83/93/70 84/96/72
f 64/70/49 63/77/55 185/209/176 194/194/162
f 222/222/185 218/223/186 220/224/181 223/225/165
f 223/225/165 220/224/181 219/226/187 221/227/188
f 213/228/189 209/229/190 211/230/6 214/231/170
f 214/231/170 211/230/6 210/232/191 212/233/192
f 201/234/193 197/235/194 199/236/178 202/237/159
f 202/237/159 199/236/178 198/238/195 200/239/196
f 218/223/186 215/240/197 217/241/171 220/224/181
f 220/224/181 217/241/171 216/242/198 219/226/187
f 209/243/190 206/244/199 208/245/175 211/246/6
f 211/246/6 208/245/175 207/247/200 210/248/191
f 197/235/194 224/249/201 226/250/2 199/236/178
f 199/236/178 226/250/2 225/251/202 198/238/195
f 206/244/199 203/252/203 205/253/160 208/245/175
f 208/245/175 205/253/160 204/254/204 207/247/200
f 215/240/197 213/228/189 214/231/170 217/241/171
f 217/241/171 214/231/170 212/233/192 216/242/198
f 203/252/203 201/234/193 202/237/159 205/253/160
f 205/253/160 202/237/159 200/239/196 204/254/204
f 224/249/201 222/222/185 223/225/165 226/250/2
f 226/250/2 223/225/165 221/227/188 225/251/202
f 35/255/20 198/238/195 225/251/202 17/256/11
f 197/235/194 46/58/38 38/42/24 224/249/201
f 33/257/19 200/239/196 198/238/195 35/255/20
f 201/234/193 45/56/36 46/58/38 197/235/194
f 31/258/18 204/254/204 200/239/196 33/257/19
f 203/252/203 44/55/35 45/56/36 201/234/193
f 29/259/17 207/247/200 204/254/204 31/258/18
f 206/244/199 43/53/34 44/55/35 203/252/203
f 27/260/16 210/248/191 207/247/200 29/259/17
f 209/243/190 42/54/32 43/53/34 206/244/199
f 25/261/15 212/233/192 210/232/191 27/262/16
f 213/228/189 41/48/30 42/50/32 209/229/190
f 215/240/197 40/46/28 41/48/30 213/228/189
f 23/263/14 216/242/198 212/233/192 25/261/15
f 21/264/13 219/226/187 216/242/198 23/263/14
f 218/223/186 39/44/26 40/46/28 215/240/197
f 19/265/12 221/227/188 219/226/187 21/264/13
f 222/222/185 37/41/23 39/44/26 218/223/186
f 224/249/201 38/42/24 37/41/23 222/222/185
f 17/256/11 225/251/202 221/227/188 19/265/12
f 107/266/87 108/267/96 116/268/90 115/269/80 114/270/79 113/271/92 112/272/84 111/273/83 110/274/94 109/275/88
f 227/276/1 228/277/1 230/278/1 229/279/1
f 229/280/2 230/278/2 234/281/2 233/282/2
f 233/283/3 234/281/3 232/284/3 231/285/3
f 231/286/6 232/284/6 228/277/6 227/287/6
f 229/288/4 233/289/4 231/290/4 227/16/4
f 234/281/5 230/278/5 228/277/5 232/284/5
f 235/291/1 236/292/1 238/293/1 237/294/1
f 237/295/2 238/293/2 242/296/2 241/297/2
f 241/279/3 242/296/3 240/298/3 239/276/3
f 239/299/6 240/298/6 236/292/6 235/300/6
f 237/301/4 241/302/4 239/289/4 235/288/4
f 242/296/5 238/293/5 236/292/5 240/298/5
f 243/303/1 244/304/1 246/305/1 245/306/1
f 245/307/2 246/305/2 250/308/2 249/309/2
f 249/310/3 250/308/3 248/311/3 247/312/3
f 247/313/6 248/311/6 244/304/6 243/314/6
f 245/315/4 249/316/4 247/317/4 243/318/4
f 250/308/5 246/305/5 244/304/5 248/311/5
f 268/319/7 266/320/8 288/321/9 289/322/10
f 251/323/11 253/324/12 255/325/205 257/326/206 259/327/15 261/328/16 263/329/17 265/330/18 267/331/19 269/332/20
f 252/333/21 254/334/22 271/335/23 272/336/24
f 254/334/22 256/337/25 273/338/26 271/335/23
f 256/337/25 258/339/27 274/340/28 273/338/26
f 258/339/27 260/341/29 275/342/207 274/340/28
f 260/341/29 262/343/31 276/344/32 275/342/207
f 262/345/31 264/346/33 277/347/208 276/348/32
f 264/346/33 266/320/8 278/349/35 277/347/208
f 266/320/8 268/319/7 279/350/36 278/349/35
f 268/319/7 270/351/37 280/352/38 279/350/36
f 270/351/37 252/333/21 272/336/24 280/352/38
f 281/353/39 282/354/40 292/355/41 291/356/42
f 262/343/31 260/341/29 285/357/43 286/358/44
f 256/337/25 254/334/22 281/353/39 283/359/45
f 270/351/37 268/319/7 289/322/10 290/360/46
f 264/346/33 262/345/31 286/361/44 287/362/47
f 258/339/27 256/337/25 283/359/45 284/363/48
f 252/333/21 270/351/37 290/360/46 282/354/40
f 266/320/8 264/346/33 287/362/47 288/321/9
f 260/341/29 258/339/27 284/363/48 285/357/43
f 254/334/22 252/333/21 282/354/40 281/353/39
f 289/322/10 288/321/9 298/364/49 299/365/50
f 286/358/44 285/357/43 295/366/51 296/367/52
f 283/359/45 281/353/39 291/356/42 293/368/53
f 290/360/46 289/322/10 299/365/50 300/369/54
f 287/362/47 286/361/44 296/370/52 297/371/55
f 284/363/48 283/359/45 293/368/53 294/372/56
f 282/354/40 290/360/46 300/369/54 292/355/41
f 288/321/9 287/362/47 297/371/55 298/364/49
f 285/357/43 284/363/48 294/372/56 295/366/51
f 302/373/57 301/374/58 311/375/59 312/376/60
f 301/374/58 303/377/61 313/378/62 311/375/59
f 303/377/61 304/379/63 314/380/64 313/378/62
f 304/379/63 305/381/65 315/382/66 314/380/64
f 305/381/65 306/383/67 316/384/68 315/382/66
f 306/385/67 307/386/69 317/387/70 316/388/68
f 307/386/69 308/389/71 318/390/72 317/387/70
f 308/389/71 309/391/73 319/392/74 318/390/72
f 309/391/73 310/393/75 320/394/76 319/392/74
f 310/393/75 302/373/57 312/376/60 320/394/76
f 339/395/77 338/396/78 348/397/79 349/398/80
f 336/399/81 335/400/209 345/401/83 346/402/210
f 333/403/85 331/404/211 341/405/87 343/406/88
f 340/407/89 339/395/77 349/398/80 350/408/90
f 337/409/91 336/410/81 346/411/210 347/412/92
f 334/413/93 333/403/85 343/406/88 344/414/94
f 332/415/95 340/407/89 350/408/90 342/416/212
f 338/396/78 337/409/91 347/412/92 348/397/79
f 335/400/209 334/413/93 344/414/94 345/401/83
f 331/404/211 332/415/95 342/416/212 341/405/87
f 352/417/97 354/418/98 356/419/99 353/420/100
f 353/420/100 356/419/99 355/421/213 351/422/102
f 358/423/103 352/417/97 353/420/100 359/424/104
f 359/424/104 353/420/100 351/422/102 357/425/105
f 361/426/106 358/423/103 359/424/104 362/427/107
f 362/427/107 359/424/104 357/425/105 360/428/108
f 364/429/109 361/426/106 362/427/107 365/430/110
f 365/430/110 362/427/107 360/428/108 363/431/111
f 367/432/112 364/429/109 365/430/110 368/433/113
f 368/433/113 365/430/110 363/431/111 366/434/114
f 370/435/115 367/436/112 368/437/113 371/438/116
f 371/438/116 368/437/113 366/439/114 369/440/117
f 373/441/118 370/435/115 371/438/116 374/442/119
f 374/442/119 371/438/116 369/440/117 372/443/120
f 376/444/121 373/441/118 374/442/119 377/445/122
f 377/445/122 374/442/119 372/443/120 375/446/123
f 379/447/124 376/444/121 377/445/122 380/448/125
f 380/448/125 377/445/122 375/446/123 378/449/126
f 354/418/98 379/447/124 380/448/125 356/419/99
f 356/419/99 380/448/125 378/449/126 355/421/213
f 321/450/127 322/451/128 354/418/98 352/417/97
f 357/425/105 351/422/102 331/404/211 333/403/85
f 351/422/102 355/421/213 332/415/95 331/404/211
f 323/452/129 321/450/127 352/417/97 358/423/103
f 355/421/213 378/449/126 340/407/89 332/415/95
f 322/451/128 330/453/130 379/447/124 354/418/98
f 324/454/131 323/452/129 358/423/103 361/426/106
f 360/428/108 357/425/105 333/403/85 334/413/93
f 325/455/132 324/454/131 361/426/106 364/429/109
f 363/431/111 360/428/108 334/413/93 335/400/209
f 326/456/133 325/455/132 364/429/109 367/432/112
f 366/434/114 363/431/111 335/400/209 336/399/81
f 327/457/134 326/458/133 367/436/112 370/435/115
f 369/440/117 366/439/114 336/410/81 337/409/91
f 328/459/135 327/457/134 370/435/115 373/441/118
f 372/443/120 369/440/117 337/409/91 338/396/78
f 329/460/136 328/459/135 373/441/118 376/444/121
f 375/446/123 372/443/120 338/396/78 339/395/77
f 330/453/130 329/460/136 376/444/121 379/447/124
f 378/449/126 375/446/123 339/395/77 340/407/89
f 382/461/137 383/462/138 384/463/139 381/464/140
f 386/465/141 382/461/137 381/464/140 385/466/142
f 388/467/143 386/465/141 385/466/142 387/468/144
f 390/469/145 388/467/143 387/468/144 389/470/146
f 392/471/147 390/469/145 389/470/146 391/472/148
f 394/473/149 392/474/147 391/475/148 393/476/150
f 396/477/151 394/473/149 393/476/150 395/478/152
f 398/479/153 396/477/151 395/478/152 397/480/154
f 400/481/155 398/479/153 397/480/154 399/482/156
f 383/462/138 400/481/155 399/482/156 384/463/139
f 381/464/140 384/463/139 322/451/128 321/450/127
f 303/377/61 301/374/58 382/461/137 386/465/141
f 301/374/58 302/373/57 383/462/138 382/461/137
f 385/466/142 381/464/140 321/450/127 323/452/129
f 384/463/139 399/482/156 330/453/130 322/451/128
f 302/373/57 310/393/75 400/481/155 383/462/138
f 304/379/63 303/377/61 386/465/141 388/467/143
f 387/468/144 385/466/142 323/452/129 324/454/131
f 305/381/65 304/379/63 388/467/143 390/469/145
f 389/470/146 387/468/144 324/454/131 325/455/132
f 306/383/67 305/381/65 390/469/145 392/471/147
f 391/472/148 389/470/146 325/455/132 326/456/133
f 307/386/69 306/385/67 392/474/147 394/473/149
f 393/476/150 391/475/148 326/458/133 327/457/134
f 308/389/71 307/386/69 394/473/149 396/477/151
f 395/478/152 393/476/150 327/457/134 328/459/135
f 309/391/73 308/389/71 396/477/151 398/479/153
f 397/480/154 395/478/152 328/459/135 329/460/136
f 310/393/75 309/391/73 398/479/153 400/481/155
f 399/482/156 397/480/154 329/460/136 330/453/130
f 429/483/157 413/484/158 415/485/159 430/486/160
f 430/486/160 415/485/159 414/487/161 428/488/162
f 426/489/163 407/490/164 409/491/165 427/492/2
f 427/492/2 409/491/165 408/493/166 425/494/167
f 423/495/214 401/496/169 403/497/170 424/498/171
f 424/498/171 403/497/170 402/499/172 422/500/173
f 420/501/174 429/483/157 430/486/160 421/502/175
f 421/502/175 430/486/160 428/488/162 419/503/176
f 417/504/177 426/489/163 427/492/2 418/505/178
f 418/505/178 427/492/2 425/494/167 416/506/179
f 411/507/215 423/495/214 424/498/171 412/508/181
f 412/508/181 424/498/171 422/500/173 410/509/182
f 405/510/183 420/501/174 421/502/175 406/511/6
f 406/511/6 421/502/175 419/503/176 404/512/184
f 413/484/158 417/504/177 418/505/178 415/485/159
f 415/485/159 418/505/178 416/506/179 414/487/161
f 407/490/164 411/507/215 412/508/181 409/491/165
f 409/491/165 412/508/181 410/509/182 408/493/166
f 401/496/169 405/513/183 406/514/6 403/497/170
f 403/497/170 406/514/6 404/515/184 402/499/172
f 401/496/169 423/495/214 314/380/64 315/382/66
f 296/367/52 295/366/51 402/499/172 404/515/184
f 405/513/183 401/496/169 315/382/66 316/384/68
f 295/366/51 294/372/56 422/500/173 402/499/172
f 420/501/174 405/510/183 316/388/68 317/387/70
f 297/371/55 296/370/52 404/512/184 419/503/176
f 407/490/164 426/489/163 312/376/60 311/375/59
f 293/368/53 291/356/42 408/493/166 410/509/182
f 411/507/215 407/490/164 311/375/59 313/378/62
f 291/356/42 292/355/41 425/494/167 408/493/166
f 423/495/214 411/507/215 313/378/62 314/380/64
f 294/372/56 293/368/53 410/509/182 422/500/173
f 413/484/158 429/483/157 318/390/72 319/392/74
f 300/369/54 299/365/50 414/487/161 416/506/179
f 417/504/177 413/484/158 319/392/74 320/394/76
f 299/365/50 298/364/49 428/488/162 414/487/161
f 426/489/163 417/504/177 320/394/76 312/376/60
f 292/355/41 300/369/54 416/506/179 425/494/167
f 429/483/157 420/501/174 317/387/70 318/390/72
f 298/364/49 297/371/55 419/503/176 428/488/162
f 456/516/185 452/517/216 454/518/181 457/519/165
f 457/519/165 454/518/181 453/520/217 455/521/188
f 447/522/189 443/523/190 445/524/6 448/525/170
f 448/525/170 445/524/6 444/526/191 446/527/192
f 435/528/193 431/529/194 433/530/178 436/531/159
f 436/531/159 433/530/178 432/532/195 434/533/196
f 452/517/216 449/534/197 451/535/171 454/518/181
f 454/518/181 451/535/171 450/536/218 453/520/217
f 443/537/190 440/538/199 442/539/175 445/540/6
f 445/540/6 442/539/175 441/541/200 444/542/191
f 431/529/194 458/543/201 460/544/2 433/530/178
f 433/530/178 460/544/2 459/545/202 432/532/195
f 440/538/199 437/546/203 439/547/160 442/539/175
f 442/539/175 439/547/160 438/548/204 441/541/200
f 449/534/197 447/522/189 448/525/170 451/535/171
f 451/535/171 448/525/170 446/527/192 450/536/218
f 437/546/203 435/528/193 436/531/159 439/547/160
f 439/547/160 436/531/159 434/533/196 438/548/204
f 458/543/201 456/516/185 457/519/165 460/544/2
f 460/544/2 457/519/165 455/521/188 459/545/202
f 269/549/20 432/532/195 459/545/202 251/550/11
f 431/529/194 280/352/38 272/336/24 458/543/201
f 267/551/19 434/533/196 432/532/195 269/549/20
f 435/528/193 279/350/36 280/352/38 431/529/194
f 265/552/18 438/548/204 434/533/196 267/551/19
f 437/546/203 278/349/35 279/350/36 435/528/193
f 263/553/17 441/541/200 438/548/204 265/552/18
f 440/538/199 277/347/208 278/349/35 437/546/203
f 261/554/16 444/542/191 441/541/200 263/553/17
f 443/537/190 276/348/32 277/347/208 440/538/199
f 259/555/15 446/527/192 444/526/191 261/556/16
f 447/522/189 275/342/207 276/344/32 443/523/190
f 449/534/197 274/340/28 275/342/207 447/522/189
f 257/557/206 450/536/218 446/527/192 259/555/15
f 255/558/205 453/520/217 450/536/218 257/557/206
f 452/517/216 273/338/26 274/340/28 449/534/197
f 253/559/12 455/521/188 453/520/217 255/558/205
f 456/516/185 271/335/23 273/338/26 452/517/216
f 458/543/201 272/336/24 271/335/23 456/516/185
f 251/550/11 459/545/202 455/521/188 253/559/12
f 341/560/87 342/561/212 350/562/90 349/563/80 348/564/79 347/565/92 346/566/210 345/567/83 344/568/94 343/569/88
f 461/570/1 462/571/1 464/572/1 463/573/1
f 463/574/2 464/572/2 468/575/2 467/576/2
f 467/577/3 468/575/3 466/578/3 465/579/3
f 465/580/6 466/578/6 462/571/6 461/581/6
f 463/582/4 467/583/4 465/302/4 461/301/4
f 468/575/5 464/572/5 462/571/5 466/578/5
f 486/584/7 484/585/8 506/586/9 507/587/10
f 469/588/11 471/589/12 473/590/13 475/591/14 477/592/15 479/593/16 481/594/17 483/595/18 485/596/19 487/597/20
f 470/598/21 472/599/22 489/600/23 490/601/24
f 472/599/22 474/602/25 491/603/26 489/600/23
f 474/602/25 476/604/27 492/605/28 491/603/26
f 476/604/27 478/606/29 493/607/207 492/605/28
f 478/606/29 480/608/31 494/609/32 493/607/207
f 480/610/31 482/611/33 495/612/208 494/613/32
f 482/611/33 484/585/8 496/614/35 495/612/208
f 484/585/8 486/584/7 497/615/36 496/614/35
f 486/584/7 488/616/37 498/617/38 497/615/36
f 488/616/37 470/598/21 490/601/24 498/617/38
f 499/618/39 500/619/40 510/620/41 509/621/42
f 480/608/31 478/606/29 503/622/43 504/623/44
f 474/602/25 472/599/22 499/618/39 501/624/45
f 488/616/37 486/584/7 507/587/10 508/625/46
f 482/611/33 480/610/31 504/626/44 505/627/47
f 476/604/27 474/602/25 501/624/45 502/628/48
f 470/598/21 488/616/37 508/625/46 500/619/40
f 484/585/8 482/611/33 505/627/47 506/586/9
f 478/606/29 476/604/27 502/628/48 503/622/43
f 472/599/22 470/598/21 500/619/40 499/618/39
f 507/587/10 506/586/9 516/629/49 517/630/50
f 504/623/44 503/622/43 513/631/51 514/632/52
f 501/624/45 499/618/39 509/621/42 511/633/53
f 508/625/46 507/587/10 517/630/50 518/634/54
f 505/627/47 504/626/44 514/635/52 515/636/55
f 502/628/48 501/624/45 511/633/53 512/637/56
f 500/619/40 508/625/46 518/634/54 510/620/41
f 506/586/9 505/627/47 515/636/55 516/629/49
f 503/622/43 502/628/48 512/637/56 513/631/51
f 520/638/57 519/639/58 529/640/59 530/641/60
f 519/639/58 521/642/61 531/643/62 529/640/59
f 521/642/61 522/644/63 532/645/64 531/643/62
f 522/644/63 523/646/65 533/647/66 532/645/64
f 523/646/65 524/648/67 534/649/68 533/647/66
f 524/650/67 525/651/69 535/652/70 534/653/68
f 525/651/69 526/654/71 536/655/72 535/652/70
f 526/654/71 527/656/73 537/657/74 536/655/72
f 527/656/73 528/658/75 538/659/76 537/657/74
f 528/658/75 520/638/57 530/641/60 538/659/76
f 557/660/77 556/661/78 566/662/79 567/663/80
f 554/664/81 553/665/82 563/666/83 564/667/210
f 551/668/85 549/669/86 559/670/87 561/671/88
f 558/672/89 557/660/77 567/663/80 568/673/90
f 555/674/91 554/675/81 564/676/210 565/677/92
f 552/678/93 551/668/85 561/671/88 562/679/94
f 550/680/95 558/672/89 568/673/90 560/681/212
f 556/661/78 555/674/91 565/677/92 566/662/79
f 553/665/82 552/678/93 562/679/94 563/666/83
f 549/669/86 550/680/95 560/681/212 559/670/87
f 570/682/97 572/683/98 574/684/99 571/685/100
f 571/685/100 574/684/99 573/686/213 569/687/102
f 576/688/103 570/682/97 571/685/100 577/689/104
f 577/689/104 571/685/100 569/687/102 575/690/105
f 579/691/106 576/688/103 577/689/104 580/692/107
f 580/692/107 577/689/104 575/690/105 578/693/108
f 582/694/109 579/691/106 580/692/107 583/695/110
f 583/695/110 580/692/107 578/693/108 581/696/111
f 585/697/112 582/694/109 583/695/110 586/698/113
f 586/698/113 583/695/110 581/696/111 584/699/114
f 588/700/115 585/701/112 586/702/113 589/703/116
f 589/703/116 586/702/113 584/704/114 587/705/117
f 591/706/118 588/700/115 589/703/116 592/707/119
f 592/707/119 589/703/116 587/705/117 590/708/120
f 594/709/121 591/706/118 592/707/119 595/710/122
f 595/710/122 592/707/119 590/708/120 593/711/123
f 597/712/124 594/709/121 595/710/122 598/713/125
f 598/713/125 595/710/122 593/711/123 596/714/126
f 572/683/98 597/712/124 598/713/125 574/684/99
f 574/684/99 598/713/125 596/714/126 573/686/213
f 539/715/127 540/716/128 572/683/98 570/682/97
f 575/690/105 569/687/102 549/669/86 551/668/85
f 569/687/102 573/686/213 550/680/95 549/669/86
f 541/717/129 539/715/127 570/682/97 576/688/103
f 573/686/213 596/714/126 558/672/89 550/680/95
f 540/716/128 548/718/130 597/712/124 572/683/98
f 542/719/131 541/717/129 576/688/103 579/691/106
f 578/693/108 575/690/105 551/668/85 552/678/93
f 543/720/132 542/719/131 579/691/106 582/694/109
f 581/696/111 578/693/108 552/678/93 553/665/82
f 544/721/133 543/720/132 582/694/109 585/697/112
f 584/699/114 581/696/111 553/665/82 554/664/81
f 545/722/134 544/723/133 585/701/112 588/700/115
f 587/705/117 584/704/114 554/675/81 555/674/91
f 546/724/135 545/722/134 588/700/115 591/706/118
f 590/708/120 587/705/117 555/674/91 556/661/78
f 547/725/136 546/724/135 591/706/118 594/709/121
f 593/711/123 590/708/120 556/661/78 557/660/77
f 548/718/130 547/725/136 594/709/121 597/712/124
f 596/714/126 593/711/123 557/660/77 558/672/89
f 600/726/137 601/727/138 602/728/139 599/729/140
f 604/730/141 600/726/137 599/729/140 603/731/142
f 606/732/143 604/730/141 603/731/142 605/733/144
f 608/734/145 606/732/143 605/733/144 607/735/146
f 610/736/147 608/734/145 607/735/146 609/737/148
f 612/738/149 610/739/147 609/740/148 611/741/150
f 614/742/151 612/738/149 611/741/150 613/743/152
f 616/744/153 614/742/151 613/743/152 615/745/154
f 618/746/155 616/744/153 615/745/154 617/747/156
f 601/727/138 618/746/155 617/747/156 602/728/139
f 599/729/140 602/728/139 540/716/128 539/715/127
f 521/642/61 519/639/58 600/726/137 604/730/141
f 519/639/58 520/638/57 601/727/138 600/726/137
f 603/731/142 599/729/140 539/715/127 541/717/129
f 602/728/139 617/747/156 548/718/130 540/716/128
f 520/638/57 528/658/75 618/746/155 601/727/138
f 522/644/63 521/642/61 604/730/141 606/732/143
f 605/733/144 603/731/142 541/717/129 542/719/131
f 523/646/65 522/644/63 606/732/143 608/734/145
f 607/735/146 605/733/144 542/719/131 543/720/132
f 524/648/67 523/646/65 608/734/145 610/736/147
f 609/737/148 607/735/146 543/720/132 544/721/133
f 525/651/69 524/650/67 610/739/147 612/738/149
f 611/741/150 609/740/148 544/723/133 545/722/134
f 526/654/71 525/651/69 612/738/149 614/742/151
f 613/743/152 611/741/150 545/722/134 546/724/135
f 527/656/73 526/654/71 614/742/151 616/744/153
f 615/745/154 613/743/152 546/724/135 547/725/136
f 528/658/75 527/656/73 616/744/153 618/746/155
f 617/747/156 615/745/154 547/725/136 548/718/130
f 647/748/157 631/749/158 633/750/159 648/751/160
f 648/751/160 633/750/159 632/752/161 646/753/162
f 644/754/163 625/755/164 627/756/165 645/757/2
f 645/757/2 627/756/165 626/758/166 643/759/167
f 641/760/168 619/761/169 621/762/170 642/763/171
f 642/763/171 621/762/170 620/764/172 640/765/173
f 638/766/174 647/748/157 648/751/160 639/767/175
f 639/767/175 648/751/160 646/753/162 637/768/176
f 635/769/177 644/754/163 645/757/2 636/770/178
f 636/770/178 645/757/2 643/759/167 634/771/179
f 629/772/180 641/760/168 642/763/171 630/773/181
f 630/773/181 642/763/171 640/765/173 628/774/182
f 623/775/183 638/766/174 639/767/175 624/776/6
f 624/776/6 639/767/175 637/768/176 622/777/184
f 631/749/158 635/769/177 636/770/178 633/750/159
f 633/750/159 636/770/178 634/771/179 632/752/161
f 625/755/164 629/772/180 630/773/181 627/756/165
f 627/756/165 630/773/181 628/774/182 626/758/166
f 619/761/169 623/778/183 624/779/6 621/762/170
f 621/762/170 624/779/6 622/780/184 620/764/172
f 619/761/169 641/760/168 532/645/64 533/647/66
f 514/632/52 513/631/51 620/764/172 622/780/184
f 623/778/183 619/761/169 533/647/66 534/649/68
f 513/631/51 512/637/56 640/765/173 620/764/172
f 638/766/174 623/775/183 534/653/68 535/652/70
f 515/636/55 514/635/52 622/777/184 637/768/176
f 625/755/164 644/754/163 530/641/60 529/640/59
f 511/633/53 509/621/42 626/758/166 628/774/182
f 629/772/180 625/755/164 529/640/59 531/643/62
f 509/621/42 510/620/41 643/759/167 626/758/166
f 641/760/168 629/772/180 531/643/62 532/645/64
f 512/637/56 511/633/53 628/774/182 640/765/173
f 631/749/158 647/748/157 536/655/72 537/657/74
f 518/634/54 517/630/50 632/752/161 634/771/179
f 635/769/177 631/749/158 537/657/74 538/659/76
f 517/630/50 516/629/49 646/753/162 632/752/161
f 644/754/163 635/769/177 538/659/76 530/641/60
f 510/620/41 518/634/54 634/771/179 643/759/167
f 647/748/157 638/766/174 535/652/70 536/655/72
f 516/629/49 515/636/55 637/768/176 646/753/162
f 674/781/185 670/782/186 672/783/181 675/784/165
f 675/784/165 672/783/181 671/785/187 673/786/188
f 665/787/189 661/788/190 663/789/6 666/790/170
f 666/790/170 663/789/6 662/791/191 664/792/192
f 653/793/193 649/794/194 651/795/178 654/796/159
f 654/796/159 651/795/178 650/797/195 652/798/196
f 670/782/186 667/799/197 669/800/171 672/783/181
f 672/783/181 669/800/171 668/801/198 671/785/187
f 661/802/190 658/803/199 660/804/175 663/805/6
f 663/805/6 660/804/175 659/806/200 662/807/191
f 649/794/194 676/808/201 678/809/2 651/795/178
f 651/795/178 678/809/2 677/810/202 650/797/195
f 658/803/199 655/811/203 657/812/160 660/804/175
f 660/804/175 657/812/160 656/813/204 659/806/200
f 667/799/197 665/787/189 666/790/170 669/800/171
f 669/800/171 666/790/170 664/792/192 668/801/198
f 655/811/203 653/793/193 654/796/159 657/812/160
f 657/812/160 654/796/159 652/798/196 656/813/204
f 676/808/201 674/781/185 675/784/165 678/809/2
f 678/809/2 675/784/165 673/786/188 677/810/202
f 487/814/20 650/797/195 677/810/202 469/815/11
f 649/794/194 498/617/38 490/601/24 676/808/201
f 485/816/19 652/798/196 650/797/195 487/814/20
f 653/793/193 497/615/36 498/617/38 649/794/194
f 483/817/18 656/813/204 652/798/196 485/816/19
f 655/811/203 496/614/35 497/615/36 653/793/193
f 481/818/17 659/806/200 656/813/204 483/817/18
f 658/803/199 495/612/208 496/614/35 655/811/203
f 479/819/16 662/807/191 659/806/200 481/818/17
f 661/802/190 494/613/32 495/612/208 658/803/199
f 477/820/15 664/792/192 662/791/191 479/821/16
f 665/787/189 493/607/207 494/609/32 661/788/190
f 667/799/197 492/605/28 493/607/207 665/787/189
f 475/822/14 668/801/198 664/792/192 477/820/15
f 473/823/13 671/785/187 668/801/198 475/822/14
f 670/782/186 491/603/26 492/605/28 667/799/197
f 471/824/12 673/786/188 671/785/187 473/823/13
f 674/781/185 489/600/23 491/603/26 670/782/186
f 676/808/201 490/601/24 489/600/23 674/781/185
f 469/815/11 677/810/202 673/786/188 471/824/12
f 559/564/87 560/825/212 568/826/90 567/827/80 566/266/79 565/275/92 564/828/210 563/829/83 562/830/94 561/565/88
f 679/831/1 680/832/1 682/833/1 681/834/1
f 681/835/2 682/833/2 686/836/2 685/837/2
f 685/573/3 686/836/3 684/838/3 683/570/3
f 683/839/6 684/838/6 680/832/6 679/840/6
f 681/841/4 685/842/4 683/583/4 679/582/4
f 686/836/5 682/833/5 680/832/5 684/838/5
f 704/843/7 702/844/8 724/845/9 725/846/10
f 687/327/11 689/847/12 691/848/13 693/849/14 695/29/15 697/38/16 699/850/17 701/851/18 703/852/19 705/328/20
f 688/853/21 690/854/22 707/855/23 708/856/219
f 690/854/22 692/857/25 709/858/26 707/855/23
f 692/857/25 694/859/27 710/860/28 709/858/26
f 694/859/27 696/861/29 711/862/30 710/860/28
f 696/861/29 698/863/31 712/864/32 711/862/30
f 698/49/31 700/865/33 713/866/34 712/50/32
f 700/865/33 702/844/8 714/867/35 713/866/34
f 702/844/8 704/843/7 715/868/36 714/867/35
f 704/843/7 706/869/37 716/870/38 715/868/36
f 706/869/37 688/853/21 708/856/219 716/870/38
f 717/871/39 718/872/40 728/873/41 727/874/42
f 698/863/31 696/861/29 721/875/43 722/876/44
f 692/857/25 690/854/22 717/871/39 719/877/45
f 706/869/37 704/843/7 725/846/10 726/878/46
f 700/865/33 698/49/31 722/64/44 723/879/47
f 694/859/27 692/857/25 719/877/45 720/880/48
f 688/853/21 706/869/37 726/878/46 718/872/40
f 702/844/8 700/865/33 723/879/47 724/845/9
f 696/861/29 694/859/27 720/880/48 721/875/43
f 690/854/22 688/853/21 718/872/40 717/871/39
f 725/846/10 724/845/9 734/881/49 735/882/50
f 722/876/44 721/875/43 731/883/51 732/884/52
f 719/877/45 717/871/39 727/874/42 729/885/53
f 726/878/46 725/846/10 735/882/50 736/886/54
f 723/879/47 722/64/44 732/73/52 733/887/55
f 720/880/48 719/877/45 729/885/53 730/888/56
f 718/872/40 726/878/46 736/886/54 728/873/41
f 724/845/9 723/879/47 733/887/55 734/881/49
f 721/875/43 720/880/48 730/888/56 731/883/51
f 738/889/57 737/890/58 747/891/59 748/892/60
f 737/890/58 739/893/61 749/894/62 747/891/59
f 739/893/61 740/895/63 750/896/64 749/894/62
f 740/895/63 741/897/65 751/898/66 750/896/64
f 741/897/65 742/899/67 752/900/68 751/898/66
f 742/89/67 743/901/69 753/902/70 752/90/68
f 743/901/69 744/903/71 754/904/72 753/902/70
f 744/903/71 745/905/73 755/906/74 754/904/72
f 745/905/73 746/907/75 756/908/76 755/906/74
f 746/907/75 738/889/57 748/892/60 756/908/76
f 775/909/77 774/910/78 784/911/79 785/912/80
f 772/913/81 771/914/209 781/915/83 782/916/210
f 769/917/85 767/918/86 777/919/87 779/920/88
f 776/921/89 775/909/77 785/912/80 786/922/90
f 773/923/220 772/105/81 782/108/210 783/924/92
f 770/925/93 769/917/85 779/920/88 780/926/94
f 768/927/95 776/921/89 786/922/90 778/928/212
f 774/910/78 773/923/220 783/924/92 784/911/79
f 771/914/209 770/925/93 780/926/94 781/915/83
f 767/918/86 768/927/95 778/928/212 777/919/87
f 788/929/97 790/930/98 792/931/99 789/932/100
f 789/932/100 792/931/99 791/933/101 787/934/102
f 794/935/103 788/929/97 789/932/100 795/936/104
f 795/936/104 789/932/100 787/934/102 793/937/105
f 797/938/106 794/935/103 795/936/104 798/939/107
f 798/939/107 795/936/104 793/937/105 796/940/108
f 800/941/109 797/938/106 798/939/107 801/942/110
f 801/942/110 798/939/107 796/940/108 799/943/111
f 803/944/112 800/941/109 801/942/110 804/945/113
f 804/945/113 801/942/110 799/943/111 802/946/221
f 806/947/115 803/138/112 804/139/113 807/948/116
f 807/948/116 804/139/113 802/140/221 805/949/117
f 809/950/118 806/947/115 807/948/116 810/951/119
f 810/951/119 807/948/116 805/949/117 808/952/120
f 812/953/121 809/950/118 810/951/119 813/954/122
f 813/954/122 810/951/119 808/952/120 811/955/123
f 815/956/124 812/953/121 813/954/122 816/957/125
f 816/957/125 813/954/122 811/955/123 814/958/126
f 790/930/98 815/956/124 816/957/125 792/931/99
f 792/931/99 816/957/125 814/958/126 791/933/101
f 757/959/127 758/960/128 790/930/98 788/929/97
f 793/937/105 787/934/102 767/918/86 769/917/85
f 787/934/102 791/933/101 768/927/95 767/918/86
f 759/961/129 757/959/127 788/929/97 794/935/103
f 791/933/101 814/958/126 776/921/89 768/927/95
f 758/960/128 766/962/130 815/956/124 790/930/98
f 760/963/131 759/961/129 794/935/103 797/938/106
f 796/940/108 793/937/105 769/917/85 770/925/93
f 761/964/132 760/963/131 797/938/106 800/941/109
f 799/943/111 796/940/108 770/925/93 771/914/209
f 762/965/133 761/964/132 800/941/109 803/944/112
f 802/946/221 799/943/111 771/914/209 772/913/81
f 763/966/134 762/162/133 803/138/112 806/947/115
f 805/949/117 802/140/221 772/105/81 773/923/220
f 764/967/135 763/966/134 806/947/115 809/950/118
f 808/952/120 805/949/117 773/923/220 774/910/78
f 765/968/136 764/967/135 809/950/118 812/953/121
f 811/955/123 808/952/120 774/910/78 775/909/77
f 766/962/130 765/968/136 812/953/121 815/956/124
f 814/958/126 811/955/123 775/909/77 776/921/89
f 818/969/137 819/970/138 820/971/139 817/972/140
f 822/973/141 818/969/137 817/972/140 821/974/142
f 824/975/143 822/973/141 821/974/142 823/976/144
f 826/977/145 824/975/143 823/976/144 825/978/146
f 828/979/147 826/977/145 825/978/146 827/980/148
f 830/981/149 828/177/147 827/982/148 829/983/150
f 832/984/151 830/981/149 829/983/150 831/985/152
f 834/986/153 832/984/151 831/985/152 833/987/154
f 836/988/155 834/986/153 833/987/154 835/989/156
f 819/970/138 836/988/155 835/989/156 820/971/139
f 817/972/140 820/971/139 758/960/128 757/959/127
f 739/893/61 737/890/58 818/969/137 822/973/141
f 737/890/58 738/889/57 819/970/138 818/969/137
f 821/974/142 817/972/140 757/959/127 759/961/129
f 820/971/139 835/989/156 766/962/130 758/960/128
f 738/889/57 746/907/75 836/988/155 819/970/138
f 740/895/63 739/893/61 822/973/141 824/975/143
f 823/976/144 821/974/142 759/961/129 760/963/131
f 741/897/65 740/895/63 824/975/143 826/977/145
f 825/978/146 823/976/144 760/963/131 761/964/132
f 742/899/67 741/897/65 826/977/145 828/979/147
f 827/980/148 825/978/146 761/964/132 762/965/133
f 743/901/69 742/89/67 828/177/147 830/981/149
f 829/983/150 827/982/148 762/162/133 763/966/134
f 744/903/71 743/901/69 830/981/149 832/984/151
f 831/985/152 829/983/150 763/966/134 764/967/135
f 745/905/73 744/903/71 832/984/151 834/986/153
f 833/987/154 831/985/152 764/967/135 765/968/136
f 746/907/75 745/905/73 834/986/153 836/988/155
f 835/989/156 833/987/154 765/968/136 766/962/130
f 865/990/222 849/991/223 851/992/159 866/993/160
f 866/993/160 851/992/159 850/994/161 864/995/162
f 862/996/163 843/997/164 845/998/165 863/999/2
f 863/999/2 845/998/165 844/1000/166 861/1001/167
f 859/1002/214 837/1003/169 839/1004/170 860/1005/171
f 860/1005/171 839/1004/170 838/1006/172 858/1007/173
f 856/1008/174 865/990/222 866/993/160 857/1009/175
f 857/1009/175 866/993/160 864/995/162 855/1010/176
f 853/1011/177 862/996/163 863/999/2 854/1012/178
f 854/1012/178 863/999/2 861/1001/167 852/1013/179
f 847/1014/215 859/1002/214 860/1005/171 848/1015/181
f 848/1015/181 860/1005/171 858/1007/173 846/1016/182
f 841/219/183 856/1008/174 857/1009/175 842/220/6
f 842/220/6 857/1009/175 855/1010/176 840/221/184
f 849/991/223 853/1011/177 854/1012/178 851/992/159
f 851/992/159 854/1012/178 852/1013/179 850/994/161
f 843/997/164 847/1014/215 848/1015/181 845/998/165
f 845/998/165 848/1015/181 846/1016/182 844/1000/166
f 837/1003/169 841/1017/183 842/1018/6 839/1004/170
f 839/1004/170 842/1018/6 840/1019/184 838/1006/172
f 837/1003/169 859/1002/214 750/896/64 751/898/66
f 732/884/52 731/883/51 838/1006/172 840/1019/184
f 841/1017/183 837/1003/169 751/898/66 752/900/68
f 731/883/51 730/888/56 858/1007/173 838/1006/172
f 856/1008/174 841/219/183 752/90/68 753/902/70
f 733/887/55 732/73/52 840/221/184 855/1010/176
f 843/997/164 862/996/163 748/892/60 747/891/59
f 729/885/53 727/874/42 844/1000/166 846/1016/182
f 847/1014/215 843/997/164 747/891/59 749/894/62
f 727/874/42 728/873/41 861/1001/167 844/1000/166
f 859/1002/214 847/1014/215 749/894/62 750/896/64
f 730/888/56 729/885/53 846/1016/182 858/1007/173
f 849/991/223 865/990/222 754/904/72 755/906/74
f 736/886/54 735/882/50 850/994/161 852/1013/179
f 853/1011/177 849/991/223 755/906/74 756/908/76
f 735/882/50 734/881/49 864/995/162 850/994/161
f 862/996/163 853/1011/177 756/908/76 748/892/60
f 728/873/41 736/886/54 852/1013/179 861/1001/167
f 865/990/222 856/1008/174 753/902/70 754/904/72
f 734/881/49 733/887/55 855/1010/176 864/995/162
f 892/1020/185 888/1021/186 890/1022/181 893/1023/165
f 893/1023/165 890/1022/181 889/1024/187 891/1025/188
f 883/1026/189 879/1027/190 881/1028/6 884/1029/170
f 884/1029/170 881/1028/6 880/1030/191 882/1031/192
f 871/1032/193 867/1033/194 869/1034/178 872/1035/159
f 872/1035/159 869/1034/178 868/1036/195 870/1037/196
f 888/1021/186 885/1038/197 887/1039/171 890/1022/181
f 890/1022/181 887/1039/171 886/1040/198 889/1024/187
f 879/229/190 876/1041/199 878/1042/175 881/230/6
f 881/230/6 878/1042/175 877/1043/200 880/232/191
f 867/1033/194 894/1044/201 896/1045/2 869/1034/178
f 869/1034/178 896/1045/2 895/1046/202 868/1036/195
f 876/1041/199 873/1047/203 875/1048/160 878/1042/175
f 878/1042/175 875/1048/160 874/1049/204 877/1043/200
f 885/1038/197 883/1026/189 884/1029/170 887/1039/171
f 887/1039/171 884/1029/170 882/1031/192 886/1040/198
f 873/1047/203 871/1032/193 872/1035/159 875/1048/160
f 875/1048/160 872/1035/159 870/1037/196 874/1049/204
f 894/1044/201 892/1020/185 893/1023/165 896/1045/2
f 896/1045/2 893/1023/165 891/1025/188 895/1046/202
f 705/1050/20 868/1036/195 895/1046/202 687/1051/11
f 867/1033/194 716/870/38 708/856/219 894/1044/201
f 703/1052/19 870/1037/196 868/1036/195 705/1050/20
f 871/1032/193 715/868/36 716/870/38 867/1033/194
f 701/1053/18 874/1049/204 870/1037/196 703/1052/19
f 873/1047/203 714/867/35 715/868/36 871/1032/193
f 699/1054/17 877/1043/200 874/1049/204 701/1053/18
f 876/1041/199 713/866/34 714/867/35 873/1047/203
f 697/262/16 880/232/191 877/1043/200 699/1054/17
f 879/229/190 712/50/32 713/866/34 876/1041/199
f 695/1055/15 882/1031/192 880/1030/191 697/18/16
f 883/1026/189 711/862/30 712/864/32 879/1027/190
f 885/1038/197 710/860/28 711/862/30 883/1026/189
f 693/1056/14 886/1040/198 882/1031/192 695/1055/15
f 691/1057/13 889/1024/187 886/1040/198 693/1056/14
f 888/1021/186 709/858/26 710/860/28 885/1038/197
f 689/1058/12 891/1025/188 889/1024/187 691/1057/13
f 892/1020/185 707/855/23 709/858/26 888/1021/186
f 894/1044/201 708/856/219 707/855/23 892/1020/185
f 687/1051/11 895/1046/202 891/1025/188 689/1058/12
f 777/1059/87 778/1060/212 786/1061/90 785/1062/80 784/560/79 783/569/92 782/1063/210 781/1064/83 780/1065/94 779/1066/88
