# Blender 5.0.1
# www.blender.org
o Cylinder
v 0.000000 0.046689 -0.035766
v 0.000000 0.049395 -0.035766
v 0.021023 0.046689 -0.028935
v 0.021023 0.049395 -0.028935
v 0.034015 0.046689 -0.011052
v 0.034015 0.049395 -0.011052
v 0.034015 0.046689 0.011052
v 0.034015 0.049395 0.011052
v 0.021023 0.046689 0.028935
v 0.021023 0.049395 0.028935
v 0.000000 0.046689 0.035766
v 0.000000 0.049395 0.035766
v -0.021023 0.046689 0.028935
v -0.021023 0.049395 0.028935
v -0.034015 0.046689 0.011052
v -0.034015 0.049395 0.011052
v -0.034015 0.046689 -0.011052
v -0.034015 0.049395 -0.011052
v -0.021023 0.046689 -0.028935
v -0.021023 0.049395 -0.028935
v 0.016299 0.058114 -0.022434
v 0.000000 0.058114 -0.027729
v 0.026372 0.058114 -0.008569
v 0.026372 0.058114 0.008569
v 0.016299 0.058114 0.022434
v 0.000000 0.058114 0.027729
v -0.016299 0.058114 0.022434
v -0.026372 0.058114 0.008569
v -0.026372 0.058114 -0.008569
v -0.016299 0.058114 -0.022434
v 0.011585 0.064133 -0.015945
v 0.000000 0.064133 -0.019709
v 0.018745 0.064133 -0.006091
v 0.018745 0.064133 0.006091
v 0.011585 0.064133 0.015945
v 0.000000 0.064133 0.019709
v -0.011585 0.064133 0.015945
v -0.018745 0.064133 0.006091
v -0.018745 0.064133 -0.006091
v -0.011585 0.064133 -0.015945
v 0.011585 0.069738 -0.015945
v 0.000000 0.069738 -0.019709
v 0.018745 0.069738 -0.006091
v 0.018745 0.069738 0.006091
v 0.011585 0.069738 0.015945
v 0.000000 0.069738 0.019709
v -0.011585 0.069738 0.015945
v -0.018745 0.069738 0.006091
v -0.018745 0.069738 -0.006091
v -0.011585 0.069738 -0.015945
v 0.009663 0.080636 -0.013299
v 0.000000 0.080636 -0.016439
v 0.015634 0.080636 -0.005080
v 0.015634 0.080636 0.005080
v 0.009663 0.080636 0.013299
v 0.000000 0.080636 0.016439
v -0.009663 0.080636 0.013299
v -0.015634 0.080636 0.005080
v -0.015634 0.080636 -0.005080
v -0.009663 0.080636 -0.013299
v 0.012817 0.077480 -0.017642
v 0.013008 0.072789 -0.017904
v -0.000000 0.072789 -0.022130
v 0.000000 0.077480 -0.021806
v 0.020739 0.077480 -0.006739
v 0.021047 0.072789 -0.006839
v 0.020739 0.077480 0.006739
v 0.021047 0.072789 0.006839
v 0.012817 0.077480 0.017642
v 0.013008 0.072789 0.017904
v 0.000000 0.077480 0.021806
v -0.000000 0.072789 0.022130
v -0.012817 0.077480 0.017642
v -0.013008 0.072789 0.017904
v -0.020739 0.077480 0.006739
v -0.021047 0.072789 0.006839
v -0.020739 0.077480 -0.006739
v -0.021047 0.072789 -0.006839
v -0.012817 0.077480 -0.017642
v -0.013008 0.072789 -0.017904
v 0.011088 0.080636 -0.015261
v 0.000000 0.080636 -0.018864
v 0.017941 0.080636 -0.005829
v 0.017941 0.080636 0.005829
v 0.011088 0.080636 0.015261
v 0.000000 0.080636 0.018864
v -0.011088 0.080636 0.015261
v -0.017941 0.080636 0.005829
v -0.017941 0.080636 -0.005829
v -0.011088 0.080636 -0.015261
v 0.009663 0.982129 -0.013299
v 0.000000 0.982129 -0.016439
v 0.015634 0.982129 -0.005080
v 0.015634 0.982129 0.005080
v 0.009663 0.982129 0.013299
v 0.000000 0.982129 0.016439
v -0.009663 0.982129 0.013299
v -0.015634 0.982129 0.005080
v -0.015634 0.982129 -0.005080
v -0.009663 0.982129 -0.013299
v 0.011736 0.982129 -0.016153
v 0.000000 0.982129 -0.019966
v 0.018989 0.982129 -0.006170
v 0.018989 0.982129 0.006170
v 0.011736 0.982129 0.016153
v 0.000000 0.982129 0.019966
v -0.011736 0.982129 0.016153
v -0.018989 0.982129 0.006170
v -0.018989 0.982129 -0.006170
v -0.011736 0.982129 -0.016153
v 0.009174 0.994709 -0.012627
v 0.000000 0.994709 -0.015608
v 0.014844 0.994709 -0.004823
v 0.014844 0.994709 0.004823
v 0.009174 0.994709 0.012627
v 0.000000 0.994709 0.015608
v -0.009174 0.994709 0.012627
v -0.014844 0.994709 0.004823
v -0.014844 0.994709 -0.004823
v -0.009174 0.994709 -0.012627
v 0.010673 1.004673 -0.014691
v 0.000000 1.004673 -0.018159
v 0.017270 1.004673 -0.005611
v 0.017270 1.004673 0.005611
v 0.010673 1.004673 0.014691
v 0.000000 1.004673 0.018159
v -0.010673 1.004673 0.014691
v -0.017270 1.004673 0.005611
v -0.017270 1.004673 -0.005611
v -0.010673 1.004673 -0.014691
v 0.013918 1.004672 -0.019157
v 0.000000 1.004672 -0.023679
v 0.022520 1.004672 -0.007317
v 0.022520 1.004672 0.007317
v 0.013918 1.004672 0.019157
v 0.000000 1.004672 0.023679
v -0.013918 1.004672 0.019157
v -0.022520 1.004672 0.007317
v -0.022520 1.004672 -0.007317
v -0.013918 1.004672 -0.019157
v 0.013918 1.013391 -0.019157
v 0.000000 1.013391 -0.023679
v 0.022520 1.013391 -0.007317
v 0.022520 1.013391 0.007317
v 0.013918 1.013391 0.019157
v 0.000000 1.013391 0.023679
v -0.013918 1.013391 0.019157
v -0.022520 1.013391 0.007317
v -0.022520 1.013391 -0.007317
v -0.013918 1.013391 -0.019157
v 0.021300 1.086003 -0.029317
v 0.000000 1.086003 -0.036237
v 0.034464 1.086003 -0.011198
v 0.034464 1.086003 0.011198
v 0.021300 1.086003 0.029317
v 0.000000 1.086003 0.036237
v -0.021300 1.086003 0.029317
v -0.034464 1.086003 0.011198
v -0.034464 1.086003 -0.011198
v -0.021300 1.086003 -0.029317
v 0.010673 1.000441 -0.014691
v 0.009948 0.996700 -0.013692
v 0.000000 0.996700 -0.016924
v 0.000000 1.000441 -0.018159
v 0.017270 1.000441 -0.005611
v 0.016095 0.996700 -0.005230
v 0.017270 1.000441 0.005611
v 0.016095 0.996700 0.005230
v 0.010673 1.000441 0.014691
v 0.009948 0.996700 0.013692
v 0.000000 1.000441 0.018159
v 0.000000 0.996700 0.016924
v -0.010673 1.000441 0.014691
v -0.009947 0.996700 0.013692
v -0.017270 1.000441 0.005611
v -0.016095 0.996700 0.005230
v -0.017270 1.000441 -0.005611
v -0.016095 0.996700 -0.005230
v -0.010673 1.000441 -0.014691
v -0.009947 0.996700 -0.013692
v 0.010849 0.991614 -0.014933
v 0.011736 0.988334 -0.016153
v 0.000000 0.988334 -0.019966
v 0.000000 0.991614 -0.018458
v 0.017554 0.991614 -0.005704
v 0.018989 0.988334 -0.006170
v 0.017554 0.991614 0.005704
v 0.018989 0.988334 0.006170
v 0.010849 0.991614 0.014933
v 0.011736 0.988334 0.016153
v 0.000000 0.991614 0.018458
v 0.000000 0.988334 0.019966
v -0.010849 0.991614 0.014933
v -0.011736 0.988334 0.016153
v -0.017554 0.991614 0.005704
v -0.018989 0.988334 0.006170
v -0.017554 0.991614 -0.005704
v -0.018989 0.988334 -0.006170
v -0.010849 0.991614 -0.014933
v -0.011736 0.988334 -0.016153
v 0.012430 1.041426 -0.017108
v 0.012305 1.033681 -0.016936
v -0.000000 1.033681 -0.020934
v -0.000000 1.041426 -0.021146
v 0.020111 1.041426 -0.006535
v 0.019909 1.033681 -0.006469
v 0.020111 1.041426 0.006535
v 0.019909 1.033681 0.006469
v 0.012430 1.041426 0.017108
v 0.012305 1.033681 0.016936
v -0.000000 1.041426 0.021146
v -0.000000 1.033681 0.020934
v -0.012430 1.041426 0.017108
v -0.012305 1.033681 0.016936
v -0.020112 1.041426 0.006535
v -0.019909 1.033681 0.006469
v -0.020112 1.041426 -0.006535
v -0.019909 1.033681 -0.006469
v -0.012430 1.041426 -0.017108
v -0.012305 1.033681 -0.016936
v 0.015092 1.060621 -0.020772
v 0.013706 1.052846 -0.018865
v -0.000000 1.052846 -0.023319
v -0.000000 1.060621 -0.025676
v 0.024419 1.060621 -0.007934
v 0.022177 1.052846 -0.007206
v 0.024419 1.060621 0.007934
v 0.022177 1.052846 0.007206
v 0.015092 1.060621 0.020772
v 0.013706 1.052846 0.018865
v -0.000000 1.060621 0.025676
v -0.000000 1.052846 0.023319
v -0.015092 1.060621 0.020772
v -0.013706 1.052846 0.018865
v -0.024419 1.060621 0.007934
v -0.022177 1.052846 0.007206
v -0.024419 1.060621 -0.007934
v -0.022177 1.052846 -0.007206
v -0.015092 1.060621 -0.020772
v -0.013706 1.052846 -0.018865
v 0.017587 1.172988 -0.024206
v -0.000000 1.172988 -0.029921
v 0.028456 1.172988 -0.009246
v 0.028456 1.172988 0.009246
v 0.017587 1.172988 0.024206
v -0.000000 1.172988 0.029921
v -0.017587 1.172988 0.024206
v -0.028456 1.172988 0.009246
v -0.028456 1.172988 -0.009246
v -0.017587 1.172988 -0.024206
v 0.010544 1.184048 -0.014513
v -0.000000 1.184048 -0.017939
v 0.017061 1.184048 -0.005543
v 0.017061 1.184048 0.005543
v 0.010544 1.184048 0.014513
v -0.000000 1.184048 0.017939
v -0.010544 1.184048 0.014513
v -0.017061 1.184048 0.005543
v -0.017061 1.184048 -0.005543
v -0.010544 1.184048 -0.014513
v 0.010544 1.570049 -0.014513
v -0.000000 1.570049 -0.017939
v 0.017061 1.570049 -0.005543
v 0.017061 1.570049 0.005543
v 0.010544 1.570049 0.014513
v -0.000000 1.570049 0.017939
v -0.010544 1.570049 0.014513
v -0.017061 1.570049 0.005543
v -0.017061 1.570049 -0.005543
v -0.010544 1.570049 -0.014513
v 0.029572 1.144016 -0.040702
v -0.000000 1.144016 -0.050311
v 0.047849 1.144016 -0.015547
v 0.047849 1.144016 0.015547
v 0.029572 1.144016 0.040702
v -0.000000 1.144016 0.050311
v -0.029572 1.144016 0.040702
v -0.047849 1.144016 0.015547
v -0.047849 1.144016 -0.015547
v -0.029572 1.144016 -0.040702
v 0.030568 1.134480 -0.042073
v 0.029564 1.124784 -0.040691
v -0.000000 1.124784 -0.050297
v -0.000000 1.134480 -0.052005
v 0.049459 1.134480 -0.016070
v 0.047835 1.124784 -0.015543
v 0.049459 1.134480 0.016070
v 0.047835 1.124784 0.015543
v 0.030568 1.134480 0.042073
v 0.029564 1.124784 0.040691
v -0.000000 1.134480 0.052005
v -0.000000 1.124784 0.050297
v -0.030568 1.134480 0.042073
v -0.029564 1.124784 0.040691
v -0.049460 1.134480 0.016070
v -0.047835 1.124784 0.015543
v -0.049460 1.134480 -0.016070
v -0.047835 1.124784 -0.015543
v -0.030568 1.134480 -0.042073
v -0.029564 1.124784 -0.040691
v 0.023452 1.161509 -0.032278
v 0.026614 1.153634 -0.036631
v -0.000000 1.153634 -0.045279
v -0.000000 1.161509 -0.039898
v 0.037945 1.161509 -0.012329
v 0.043063 1.153634 -0.013992
v 0.037945 1.161509 0.012329
v 0.043063 1.153634 0.013992
v 0.023452 1.161509 0.032278
v 0.026614 1.153634 0.036631
v -0.000000 1.161509 0.039898
v -0.000000 1.153634 0.045279
v -0.023452 1.161509 0.032278
v -0.026614 1.153634 0.036631
v -0.037945 1.161509 0.012329
v -0.043063 1.153634 0.013992
v -0.037945 1.161509 -0.012329
v -0.043063 1.153634 -0.013992
v -0.023452 1.161509 -0.032278
v -0.026614 1.153634 -0.036631
v 0.004669 1.580361 -0.006426
v -0.000000 1.580361 -0.007943
v 0.007554 1.580361 -0.002454
v 0.007554 1.580361 0.002454
v 0.004669 1.580361 0.006426
v -0.000000 1.580361 0.007943
v -0.004669 1.580361 0.006426
v -0.007554 1.580361 0.002454
v -0.007554 1.580361 -0.002454
v -0.004669 1.580361 -0.006426
v 0.003437 1.591156 -0.004730
v -0.000000 1.591156 -0.005847
v 0.005561 1.591156 -0.001807
v 0.005561 1.591156 0.001807
v 0.003437 1.591156 0.004730
v -0.000000 1.591156 0.005847
v -0.003437 1.591156 0.004730
v -0.005561 1.591156 0.001807
v -0.005561 1.591156 -0.001807
v -0.003437 1.591156 -0.004730
v 0.004783 1.587700 -0.006583
v 0.005287 1.582910 -0.007277
v 0.005405 1.585407 -0.007439
v -0.000000 1.582910 -0.008995
v -0.000000 1.587700 -0.008137
v -0.000000 1.585407 -0.009195
v 0.007739 1.587700 -0.002515
v 0.008555 1.582910 -0.002780
v 0.008745 1.585407 -0.002842
v 0.007739 1.587700 0.002515
v 0.008555 1.582910 0.002780
v 0.008745 1.585407 0.002842
v 0.004783 1.587700 0.006583
v 0.005287 1.582910 0.007277
v 0.005405 1.585407 0.007439
v -0.000000 1.587700 0.008137
v -0.000000 1.582910 0.008995
v -0.000000 1.585407 0.009195
v -0.004783 1.587700 0.006583
v -0.005287 1.582910 0.007277
v -0.005405 1.585407 0.007439
v -0.007739 1.587700 0.002515
v -0.008555 1.582910 0.002780
v -0.008745 1.585407 0.002842
v -0.007739 1.587700 -0.002515
v -0.008555 1.582910 -0.002780
v -0.008745 1.585407 -0.002842
v -0.004783 1.587700 -0.006583
v -0.005287 1.582910 -0.007277
v -0.005405 1.585407 -0.007439
v 0.113297 0.001892 -0.113297
v 0.113297 0.001892 0.113297
v -0.113297 0.001892 -0.113297
v -0.113297 0.001892 0.113297
v 0.113297 0.017208 0.113297
v 0.113297 0.017208 -0.113297
v -0.113297 0.017208 0.113297
v -0.113297 0.017208 -0.113297
v 0.079848 0.038915 0.079848
v 0.079848 0.038915 -0.079848
v -0.079848 0.038915 0.079848
v -0.079848 0.038915 -0.079848
v 0.107809 0.017208 -0.107809
v 0.092127 0.026262 -0.092127
v 0.098755 0.019634 -0.098755
v 0.107809 0.017208 0.107809
v 0.098755 0.019634 0.098755
v 0.092127 0.026262 0.092127
v -0.107809 0.017208 -0.107809
v -0.098755 0.019634 -0.098755
v -0.092127 0.026262 -0.092127
v -0.107809 0.017208 0.107809
v -0.098755 0.019634 0.098755
v -0.092127 0.026262 0.092127
v 0.089702 0.038915 0.089702
v 0.089702 0.038915 -0.089702
v -0.089702 0.038915 0.089702
v -0.089702 0.038915 -0.089702
v 0.079848 0.046018 0.079848
v 0.079848 0.046018 -0.079848
v -0.079848 0.046018 0.079848
v -0.079848 0.046018 -0.079848
v 0.000000 1.236696 -0.206234
v 0.000000 1.260633 -0.206234
v 0.121221 1.236696 -0.166847
v 0.121221 1.260633 -0.166847
v 0.196140 1.236696 -0.063730
v 0.196140 1.260633 -0.063730
v 0.196140 1.236696 0.063730
v 0.196140 1.260633 0.063730
v 0.121221 1.236696 0.166847
v 0.121221 1.260633 0.166847
v 0.000000 1.236696 0.206234
v 0.000000 1.260633 0.206234
v -0.121221 1.236696 0.166847
v -0.121221 1.260633 0.166847
v -0.196140 1.236696 0.063730
v -0.196140 1.260633 0.063730
v -0.196140 1.236696 -0.063730
v -0.196140 1.260633 -0.063730
v -0.121221 1.236696 -0.166847
v -0.121221 1.260633 -0.166847
v 0.097991 1.367741 -0.134874
v -0.000000 1.367741 -0.166713
v 0.158554 1.367741 -0.051517
v 0.158554 1.367741 0.051517
v 0.097991 1.367741 0.134874
v -0.000000 1.367741 0.166713
v -0.097991 1.367741 0.134874
v -0.158554 1.367741 0.051517
v -0.158554 1.367741 -0.051517
v -0.097991 1.367741 -0.134874
v 0.084885 1.535990 -0.116834
v -0.000000 1.535990 -0.144414
v 0.137346 1.535990 -0.044626
v 0.137346 1.535990 0.044626
v 0.084885 1.535990 0.116834
v -0.000000 1.535990 0.144414
v -0.084885 1.535990 0.116834
v -0.137346 1.535990 0.044626
v -0.137346 1.535990 -0.044626
v -0.084885 1.535990 -0.116834
v 0.084885 1.514028 -0.116834
v 0.089116 1.432716 -0.122658
v -0.000000 1.432716 -0.151613
v -0.000000 1.514028 -0.144414
v 0.137346 1.514028 -0.044626
v 0.144193 1.432716 -0.046851
v 0.137346 1.514028 0.044626
v 0.144193 1.432716 0.046851
v 0.084885 1.514028 0.116834
v 0.089116 1.432716 0.122658
v -0.000000 1.514028 0.144414
v -0.000000 1.432716 0.151613
v -0.084885 1.514028 0.116834
v -0.089116 1.432716 0.122658
v -0.137346 1.514028 0.044626
v -0.144193 1.432716 0.046851
v -0.137346 1.514028 -0.044626
v -0.144193 1.432716 -0.046851
v -0.084885 1.514028 -0.116834
v -0.089116 1.432716 -0.122658
v 0.000000 1.236696 -0.210475
v 0.123714 1.236696 -0.170278
v 0.123714 1.260633 -0.170278
v 0.000000 1.260633 -0.210475
v 0.200174 1.236696 -0.065040
v 0.200174 1.260633 -0.065040
v 0.200174 1.236696 0.065040
v 0.200174 1.260633 0.065040
v 0.123714 1.236696 0.170278
v 0.123714 1.260633 0.170278
v 0.000000 1.236696 0.210475
v 0.000000 1.260633 0.210475
v -0.123714 1.236696 0.170278
v -0.123714 1.260633 0.170278
v -0.200174 1.236696 0.065040
v -0.200174 1.260633 0.065040
v -0.200174 1.236696 -0.065040
v -0.200174 1.260633 -0.065040
v -0.123714 1.236696 -0.170278
v -0.123714 1.260633 -0.170278
v 0.087377 1.535990 -0.120265
v -0.000000 1.535990 -0.148655
v 0.141380 1.535990 -0.045937
v 0.141380 1.535990 0.045937
v 0.087377 1.535990 0.120265
v -0.000000 1.535990 0.148655
v -0.087377 1.535990 0.120265
v -0.141380 1.535990 0.045937
v -0.141380 1.535990 -0.045937
v -0.087377 1.535990 -0.120265
v -0.000000 1.514028 -0.148655
v 0.087377 1.514028 -0.120265
v 0.141380 1.514028 -0.045937
v 0.141380 1.514028 0.045937
v 0.087377 1.514028 0.120265
v -0.000000 1.514028 0.148655
v -0.087377 1.514028 0.120265
v -0.141380 1.514028 0.045937
v -0.141380 1.514028 -0.045937
v -0.087377 1.514028 -0.120265
v -0.000000 1.246696 -0.206234
v -0.000000 1.251887 -0.201386
v 0.121221 1.246696 -0.166847
v 0.118372 1.251887 -0.162925
v 0.196140 1.246696 -0.063730
v 0.191529 1.251887 -0.062232
v 0.196140 1.246696 0.063730
v 0.191529 1.251887 0.062232
v 0.121221 1.246696 0.166847
v 0.118372 1.251887 0.162925
v 0.000000 1.246696 0.206234
v 0.000000 1.251887 0.201386
v -0.121221 1.246696 0.166847
v -0.118372 1.251887 0.162925
v -0.196140 1.246696 0.063730
v -0.191529 1.251887 0.062232
v -0.196140 1.246696 -0.063730
v -0.191529 1.251887 -0.062232
v -0.121221 1.246696 -0.166847
v -0.118372 1.251887 -0.162925
v 0.092367 1.364838 -0.127132
v -0.000000 1.364838 -0.157144
v 0.149452 1.364838 -0.048560
v 0.149452 1.364838 0.048560
v 0.092367 1.364838 0.127132
v -0.000000 1.364838 0.157144
v -0.092367 1.364838 0.127132
v -0.149452 1.364838 0.048560
v -0.149452 1.364838 -0.048560
v -0.092367 1.364838 -0.127132
v 0.084885 1.525990 -0.116834
v -0.000000 1.525990 -0.144414
v 0.137346 1.525990 -0.044626
v 0.137346 1.525990 0.044626
v 0.084885 1.525990 0.116834
v -0.000000 1.525990 0.144414
v -0.084885 1.525990 0.116834
v -0.137346 1.525990 0.044626
v -0.137346 1.525990 -0.044626
v -0.084885 1.525990 -0.116834
v 0.081039 1.521592 -0.111541
v 0.083314 1.431117 -0.114671
v 0.000000 1.431117 -0.141742
v -0.000000 1.521592 -0.137872
v 0.131124 1.521592 -0.042605
v 0.134804 1.431117 -0.043801
v 0.131124 1.521592 0.042605
v 0.134804 1.431117 0.043801
v 0.081039 1.521592 0.111541
v 0.083314 1.431117 0.114671
v -0.000000 1.521592 0.137872
v -0.000000 1.431117 0.141742
v -0.081039 1.521592 0.111541
v -0.083314 1.431117 0.114671
v -0.131124 1.521592 0.042605
v -0.134804 1.431117 0.043801
v -0.131124 1.521592 -0.042605
v -0.134804 1.431117 -0.043801
v -0.081039 1.521592 -0.111541
v -0.083314 1.431117 -0.114671
v -0.000000 1.243133 -0.202822
v 0.119216 1.243133 -0.164087
v 0.119216 1.254196 -0.164087
v -0.000000 1.254196 -0.202822
v 0.192895 1.243133 -0.062676
v 0.192895 1.254196 -0.062676
v 0.192895 1.243133 0.062676
v 0.192895 1.254196 0.062676
v 0.119216 1.243133 0.164087
v 0.119216 1.254196 0.164087
v 0.000000 1.243133 0.202822
v 0.000000 1.254196 0.202822
v -0.119216 1.243133 0.164087
v -0.119216 1.254196 0.164087
v -0.192895 1.243133 0.062676
v -0.192895 1.254196 0.062676
v -0.192895 1.243133 -0.062676
v -0.192895 1.254196 -0.062676
v -0.119216 1.243133 -0.164087
v -0.119216 1.254196 -0.164087
v 0.082879 1.529553 -0.114074
v -0.000000 1.529553 -0.141003
v 0.134102 1.529553 -0.043572
v 0.134102 1.529553 0.043572
v 0.082879 1.529553 0.114074
v -0.000000 1.529553 0.141003
v -0.082879 1.529553 0.114074
v -0.134102 1.529553 0.043572
v -0.134102 1.529553 -0.043572
v -0.082879 1.529553 -0.114074
v -0.000000 1.520465 -0.141003
v 0.082879 1.520465 -0.114074
v 0.134101 1.520465 -0.043572
v 0.134101 1.520465 0.043572
v 0.082879 1.520465 0.114074
v -0.000000 1.520465 0.141003
v -0.082879 1.520465 0.114074
v -0.134101 1.520465 0.043572
v -0.134101 1.520465 -0.043572
v -0.082879 1.520465 -0.114074
vn -0.0000 -0.0000 -1.0000
vn 0.5878 -0.0000 -0.8090
vn 0.9511 -0.0000 -0.3090
vn 0.9511 -0.0000 0.3090
vn 0.5878 -0.0000 0.8090
vn -0.0000 -0.0000 1.0000
vn -0.5878 -0.0000 0.8090
vn -0.9511 -0.0000 0.3090
vn -0.9511 -0.0000 -0.3090
vn -0.4322 0.6778 0.5949
vn -0.0000 0.6778 0.7353
vn -0.0000 0.7330 0.6803
vn -0.3999 0.7330 0.5504
vn -0.5878 -0.0000 -0.8090
vn -0.0000 -1.0000 -0.0000
vn 0.3999 0.7330 0.5504
vn 0.3529 0.7998 0.4857
vn -0.0000 0.7998 0.6003
vn 0.4322 0.6778 0.5949
vn 0.6993 0.6778 0.2272
vn 0.6470 0.7330 0.2102
vn 0.4322 0.6778 -0.5949
vn -0.0000 0.6778 -0.7353
vn -0.0000 0.7330 -0.6803
vn 0.3999 0.7330 -0.5504
vn 0.6993 0.6778 -0.2272
vn 0.6470 0.7330 -0.2102
vn -0.4322 0.6778 -0.5949
vn -0.3999 0.7330 -0.5504
vn -0.6993 0.6778 -0.2272
vn -0.6470 0.7330 -0.2102
vn -0.6993 0.6778 0.2272
vn -0.6470 0.7330 0.2102
vn 0.5503 -0.3512 -0.7575
vn 0.8905 -0.3512 -0.2893
vn 0.3529 0.7998 -0.4857
vn 0.5709 0.7998 -0.1855
vn -0.5709 0.7998 -0.1855
vn -0.3529 0.7998 -0.4857
vn -0.3529 0.7998 0.4857
vn 0.5709 0.7998 0.1855
vn -0.0000 0.7998 -0.6003
vn -0.5709 0.7998 0.1855
vn -0.8905 -0.3512 -0.2893
vn -0.5503 -0.3512 -0.7575
vn -0.0000 -0.3512 0.9363
vn -0.5503 -0.3512 0.7575
vn 0.8905 -0.3512 0.2893
vn -0.0000 -0.3512 -0.9363
vn -0.8905 -0.3512 0.2893
vn 0.5503 -0.3512 0.7575
vn 0.5864 0.0689 -0.8071
vn -0.0000 0.0689 -0.9976
vn -0.0000 0.3761 -0.9266
vn 0.5446 0.3761 -0.7496
vn 0.9488 0.0689 -0.3083
vn 0.8812 0.3761 -0.2863
vn 0.9488 0.0689 0.3083
vn 0.8812 0.3761 0.2863
vn 0.5864 0.0689 0.8071
vn 0.5446 0.3761 0.7496
vn -0.0000 0.0689 0.9976
vn -0.0000 0.3761 0.9266
vn -0.5864 0.0689 0.8071
vn -0.5446 0.3761 0.7496
vn -0.9488 0.0689 0.3083
vn -0.8812 0.3761 0.2863
vn -0.9488 0.0689 -0.3083
vn -0.8812 0.3761 -0.2863
vn -0.5864 0.0689 -0.8071
vn -0.5446 0.3761 -0.7496
vn -0.0000 0.6819 -0.7315
vn 0.4299 0.6819 -0.5918
vn 0.4604 -0.6216 -0.6337
vn 0.7450 -0.6216 -0.2421
vn -0.0000 -0.6216 -0.7833
vn 0.6957 0.6819 -0.2260
vn -0.4299 0.6819 -0.5918
vn -0.4604 -0.6216 -0.6337
vn 0.7450 -0.6216 0.2421
vn 0.6957 0.6819 0.2260
vn 0.4299 0.6819 0.5918
vn 0.4604 -0.6216 0.6337
vn -0.0000 -0.6216 0.7833
vn -0.0000 0.6819 0.7315
vn -0.4604 -0.6216 0.6337
vn -0.4299 0.6819 0.5918
vn -0.7450 -0.6216 0.2421
vn -0.6957 0.6819 0.2260
vn -0.7450 -0.6216 -0.2421
vn -0.6957 0.6819 -0.2260
vn -0.0000 1.0000 -0.0000
vn -0.0000 0.0663 0.9978
vn -0.5865 0.0663 0.8072
vn 0.9490 0.0663 -0.3083
vn 0.9490 0.0663 0.3083
vn -0.5865 0.0663 -0.8072
vn -0.0000 0.0663 -0.9978
vn -0.9490 0.0663 0.3083
vn 0.5865 0.0663 0.8072
vn 0.5865 0.0663 -0.8072
vn -0.9490 0.0663 -0.3083
vn 0.5317 -0.4262 -0.7319
vn -0.0000 -0.4262 -0.9046
vn -0.0000 -0.1541 -0.9881
vn 0.5808 -0.1541 -0.7994
vn 0.8603 -0.4262 -0.2795
vn 0.9397 -0.1541 -0.3053
vn 0.8603 -0.4262 0.2795
vn 0.9397 -0.1541 0.3053
vn 0.5317 -0.4262 0.7319
vn 0.5808 -0.1541 0.7994
vn -0.0000 -0.4262 0.9046
vn -0.0000 -0.1541 0.9881
vn -0.5317 -0.4262 0.7319
vn -0.5808 -0.1541 0.7994
vn -0.8603 -0.4262 0.2795
vn -0.9397 -0.1541 0.3053
vn -0.8603 -0.4262 -0.2795
vn -0.9397 -0.1541 -0.3053
vn -0.5317 -0.4262 -0.7319
vn -0.5808 -0.1541 -0.7994
vn 0.7936 -0.5512 -0.2578
vn 0.4905 -0.5512 -0.6750
vn -0.0000 -0.5512 -0.8344
vn -0.4905 -0.5512 -0.6750
vn 0.7936 -0.5512 0.2578
vn 0.4905 -0.5512 0.6750
vn -0.0000 -0.5512 0.8344
vn -0.4905 -0.5512 0.6750
vn -0.7936 -0.5512 0.2578
vn -0.7936 -0.5512 -0.2578
vn 0.5752 0.2055 -0.7917
vn -0.0000 0.2056 -0.9786
vn -0.0000 0.5406 -0.8413
vn 0.4945 0.5406 -0.6806
vn 0.9307 0.2056 -0.3024
vn 0.8001 0.5406 -0.2600
vn 0.9307 0.2056 0.3024
vn 0.8001 0.5406 0.2600
vn 0.5752 0.2056 0.7917
vn 0.4945 0.5406 0.6806
vn -0.0000 0.2056 0.9786
vn -0.0000 0.5406 0.8413
vn -0.5752 0.2056 0.7917
vn -0.4945 0.5406 0.6806
vn -0.9307 0.2056 0.3024
vn -0.8001 0.5406 0.2600
vn -0.9307 0.2056 -0.3024
vn -0.8001 0.5406 -0.2600
vn -0.5752 0.2056 -0.7917
vn -0.4945 0.5406 -0.6806
vn -0.0000 0.6774 -0.7357
vn 0.4324 0.6774 -0.5952
vn 0.6997 0.6774 -0.2273
vn -0.4324 0.6774 -0.5952
vn 0.6997 0.6773 0.2273
vn 0.4324 0.6774 0.5952
vn -0.0000 0.6774 0.7357
vn -0.4324 0.6774 0.5952
vn -0.6997 0.6774 0.2273
vn -0.6996 0.6774 -0.2273
vn 0.5869 0.0544 -0.8078
vn -0.0000 0.0544 -0.9985
vn -0.0000 -0.1092 -0.9940
vn 0.5843 -0.1092 -0.8042
vn 0.9496 0.0544 -0.3086
vn 0.9454 -0.1092 -0.3072
vn 0.9497 0.0544 0.3086
vn 0.9454 -0.1092 0.3072
vn 0.5869 0.0544 0.8078
vn 0.5843 -0.1092 0.8042
vn -0.0000 0.0544 0.9985
vn -0.0000 -0.1092 0.9940
vn -0.5869 0.0544 0.8078
vn -0.5843 -0.1092 0.8042
vn -0.9497 0.0544 0.3086
vn -0.9454 -0.1092 0.3072
vn -0.9497 0.0544 -0.3086
vn -0.9454 -0.1092 -0.3072
vn -0.5869 0.0544 -0.8078
vn -0.5843 -0.1092 -0.8042
vn 0.5704 -0.2413 -0.7851
vn -0.0000 -0.2413 -0.9705
vn -0.0000 -0.3407 -0.9402
vn 0.5526 -0.3407 -0.7606
vn 0.9230 -0.2413 -0.2999
vn 0.8941 -0.3407 -0.2905
vn 0.9230 -0.2413 0.2999
vn 0.8941 -0.3407 0.2905
vn 0.5704 -0.2413 0.7851
vn 0.5526 -0.3407 0.7606
vn -0.0000 -0.2413 0.9705
vn -0.0000 -0.3407 0.9402
vn -0.5704 -0.2413 0.7851
vn -0.5526 -0.3407 0.7606
vn -0.9230 -0.2413 0.2999
vn -0.8941 -0.3407 0.2905
vn -0.9230 -0.2413 -0.2999
vn -0.8941 -0.3407 -0.2905
vn -0.5704 -0.2413 -0.7851
vn -0.5526 -0.3407 -0.7606
vn -0.0000 -0.3611 -0.9325
vn 0.5481 -0.3611 -0.7544
vn 0.8869 -0.3611 -0.2882
vn -0.5481 -0.3611 -0.7544
vn 0.8869 -0.3611 0.2882
vn 0.5481 -0.3611 0.7544
vn -0.0000 -0.3611 0.9325
vn -0.5481 -0.3611 0.7544
vn -0.8869 -0.3611 0.2882
vn -0.8869 -0.3611 -0.2882
vn 0.6874 0.6911 -0.2234
vn 0.4248 0.6911 -0.5848
vn 0.3987 0.7348 -0.5487
vn 0.6451 0.7348 -0.2096
vn -0.4248 0.6911 -0.5848
vn -0.6874 0.6911 -0.2234
vn -0.6451 0.7348 -0.2096
vn -0.3987 0.7348 -0.5487
vn -0.4248 0.6911 0.5848
vn -0.0000 0.6911 0.7228
vn -0.0000 0.7348 0.6783
vn -0.3987 0.7348 0.5487
vn 0.6874 0.6911 0.2234
vn 0.6451 0.7348 0.2096
vn -0.0000 0.6911 -0.7228
vn -0.0000 0.7348 -0.6783
vn -0.6874 0.6911 0.2234
vn -0.6451 0.7348 0.2096
vn 0.4248 0.6911 0.5848
vn 0.3987 0.7348 0.5487
vn -0.4221 0.6960 0.5809
vn -0.0000 0.6960 0.7181
vn 0.5685 -0.2540 -0.7825
vn -0.0000 -0.2540 -0.9672
vn -0.0000 0.0007 -1.0000
vn 0.5878 0.0007 -0.8090
vn 0.9199 -0.2540 -0.2989
vn 0.9511 0.0007 -0.3090
vn 0.9199 -0.2540 0.2989
vn 0.9511 0.0007 0.3090
vn 0.5685 -0.2540 0.7825
vn 0.5878 0.0007 0.8090
vn -0.0000 -0.2540 0.9672
vn -0.0000 0.0007 1.0000
vn -0.5685 -0.2540 0.7825
vn -0.5878 0.0007 0.8090
vn -0.9199 -0.2540 0.2989
vn -0.9511 0.0007 0.3090
vn -0.9199 -0.2540 -0.2989
vn -0.9511 0.0007 -0.3090
vn -0.5685 -0.2540 -0.7825
vn -0.5878 0.0007 -0.8090
vn -0.0000 0.3142 -0.9494
vn 0.5580 0.3142 -0.7681
vn 0.9029 0.3142 -0.2934
vn -0.5580 0.3142 -0.7681
vn 0.9029 0.3142 0.2934
vn 0.5580 0.3142 0.7681
vn -0.0000 0.3142 0.9494
vn -0.5580 0.3142 0.7681
vn -0.9029 0.3142 0.2934
vn -0.9029 0.3142 -0.2934
vn -0.0000 0.6056 -0.7958
vn 0.4677 0.6056 -0.6438
vn 0.5057 0.5097 -0.6960
vn -0.0000 0.5097 -0.8604
vn 0.7568 0.6056 -0.2459
vn 0.8182 0.5097 -0.2659
vn 0.7568 0.6056 0.2459
vn 0.8182 0.5097 0.2659
vn 0.4677 0.6056 0.6438
vn 0.5057 0.5097 0.6960
vn -0.0000 0.6056 0.7958
vn -0.0000 0.5097 0.8604
vn -0.4677 0.6056 0.6438
vn -0.5057 0.5097 0.6960
vn -0.7568 0.6056 0.2459
vn -0.8182 0.5097 0.2659
vn -0.7568 0.6056 -0.2459
vn -0.8182 0.5097 -0.2659
vn -0.4677 0.6056 -0.6438
vn -0.5057 0.5097 -0.6960
vn 0.6829 0.6960 0.2219
vn 0.6829 0.6960 -0.2219
vn -0.0000 0.6960 -0.7181
vn -0.4221 0.6960 -0.5809
vn -0.6829 0.6960 0.2219
vn 0.4221 0.6960 0.5809
vn 0.4221 0.6960 -0.5809
vn -0.6829 0.6960 -0.2219
vn 0.5724 -0.2270 -0.7879
vn -0.0000 -0.2270 -0.9739
vn -0.0000 0.1671 -0.9859
vn 0.5795 0.1671 -0.7976
vn -0.0000 0.4808 -0.8768
vn 0.5154 0.4808 -0.7094
vn 0.9262 -0.2270 -0.3009
vn 0.9377 0.1671 -0.3047
vn 0.8339 0.4808 -0.2710
vn 0.9262 -0.2270 0.3010
vn 0.9377 0.1671 0.3047
vn 0.8339 0.4808 0.2710
vn 0.5724 -0.2270 0.7879
vn 0.5795 0.1671 0.7976
vn 0.5154 0.4808 0.7094
vn -0.0000 -0.2270 0.9739
vn -0.0000 0.1671 0.9859
vn -0.0000 0.4808 0.8768
vn -0.5724 -0.2270 0.7879
vn -0.5795 0.1671 0.7976
vn -0.5154 0.4808 0.7094
vn -0.9262 -0.2270 0.3010
vn -0.9377 0.1671 0.3047
vn -0.8339 0.4808 0.2710
vn -0.9262 -0.2270 -0.3009
vn -0.9377 0.1671 -0.3047
vn -0.8339 0.4808 -0.2710
vn -0.5724 -0.2270 -0.7879
vn -0.5795 0.1671 -0.7976
vn -0.5154 0.4808 -0.7094
vn 0.5433 -0.3816 -0.7478
vn -0.0000 -0.3816 -0.9243
vn 0.4899 0.5524 -0.6744
vn 0.7927 0.5524 -0.2576
vn -0.0000 0.5524 -0.8335
vn 0.8791 -0.3816 -0.2856
vn -0.4899 0.5524 -0.6744
vn -0.5433 -0.3816 -0.7478
vn 0.8791 -0.3816 0.2856
vn 0.7927 0.5524 0.2576
vn 0.5433 -0.3816 0.7478
vn 0.4899 0.5524 0.6744
vn -0.0000 -0.3816 0.9243
vn -0.0000 0.5524 0.8335
vn -0.5433 -0.3816 0.7478
vn -0.4899 0.5524 0.6744
vn -0.8791 -0.3816 0.2856
vn -0.7928 0.5524 0.2576
vn -0.8791 -0.3816 -0.2856
vn -0.7928 0.5524 -0.2576
vn 1.0000 -0.0000 -0.0000
vn -1.0000 -0.0000 -0.0000
vn -0.0000 0.5280 0.8492
vn -0.0000 0.1883 0.9821
vn 0.8492 0.5280 -0.0000
vn 0.2085 0.9555 0.2085
vn 0.2085 0.9555 -0.2085
vn 0.0331 0.9989 0.0331
vn 0.0331 0.9989 -0.0331
vn -0.8492 0.5280 -0.0000
vn -0.9821 0.1883 -0.0000
vn -0.2085 0.9555 0.2085
vn -0.0331 0.9989 0.0331
vn -0.0000 0.5280 -0.8492
vn -0.0000 0.1883 -0.9821
vn -0.2085 0.9555 -0.2085
vn -0.0331 0.9989 -0.0331
vn 0.9821 0.1883 -0.0000
vn -0.8923 0.3462 0.2899
vn -0.5514 0.3462 0.7590
vn -0.5625 0.2903 0.7742
vn -0.9101 0.2903 0.2957
vn -0.0000 0.3462 0.9382
vn -0.0000 0.2903 0.9569
vn 0.5514 0.3462 0.7590
vn 0.5625 0.2903 0.7742
vn 0.8923 0.3462 0.2899
vn 0.9101 0.2903 0.2957
vn 0.5514 0.3462 -0.7590
vn -0.0000 0.3462 -0.9382
vn -0.0000 0.2903 -0.9569
vn 0.5625 0.2903 -0.7742
vn 0.8923 0.3462 -0.2899
vn 0.9101 0.2903 -0.2957
vn -0.5514 0.3462 -0.7590
vn -0.5625 0.2903 -0.7742
vn -0.8923 0.3462 -0.2899
vn -0.9101 0.2903 -0.2957
vn 0.5802 0.1598 -0.7986
vn -0.0000 0.1598 -0.9871
vn -0.0000 0.0882 -0.9961
vn 0.5855 0.0882 -0.8059
vn 0.9388 0.1598 -0.3050
vn 0.9474 0.0882 -0.3078
vn 0.9388 0.1598 0.3050
vn 0.9474 0.0882 0.3078
vn 0.5802 0.1598 0.7986
vn 0.5855 0.0882 0.8059
vn -0.0000 0.1598 0.9871
vn -0.0000 0.0882 0.9961
vn -0.5802 0.1598 0.7986
vn -0.5855 0.0882 0.8059
vn -0.9388 0.1598 0.3050
vn -0.9474 0.0882 0.3078
vn -0.9388 0.1598 -0.3050
vn -0.9474 0.0882 -0.3078
vn -0.5802 0.1598 -0.7986
vn -0.5855 0.0882 -0.8059
vn -0.6869 -0.6916 0.2232
vn -0.4246 -0.6916 0.5843
vn -0.4246 0.6916 -0.5843
vn -0.0000 0.6916 -0.7223
vn 0.4991 -0.5282 -0.6870
vn 0.8075 -0.5282 -0.2624
vn 0.1990 0.9409 0.2739
vn 0.3220 0.9410 0.1046
vn -0.6869 0.6916 -0.2232
vn 0.6869 -0.6916 -0.2232
vn 0.4246 -0.6916 -0.5843
vn -0.0000 -0.5282 0.8491
vn -0.4991 -0.5282 0.6870
vn -0.3220 0.9410 -0.1046
vn -0.3220 0.9410 0.1046
vn 0.8855 -0.3647 -0.2877
vn 0.9071 -0.3004 -0.2947
vn 0.5606 -0.3004 -0.7716
vn 0.5473 -0.3647 -0.7533
vn -0.6869 0.6916 0.2232
vn -0.0000 -0.6916 0.7223
vn -0.0000 -0.3004 -0.9538
vn -0.0000 -0.3647 -0.9311
vn -0.5606 -0.3004 -0.7716
vn -0.5473 -0.3647 -0.7533
vn -0.9071 -0.3004 -0.2947
vn -0.8855 -0.3647 -0.2877
vn -0.5473 -0.3647 0.7533
vn -0.5606 -0.3004 0.7716
vn -0.0000 -0.3004 0.9538
vn -0.0000 -0.3647 0.9311
vn -0.9071 -0.3004 0.2947
vn -0.8855 -0.3647 0.2877
vn 0.5606 -0.3004 0.7716
vn 0.5473 -0.3647 0.7533
vn 0.9071 -0.3004 0.2947
vn 0.8855 -0.3647 0.2877
vn -0.5822 -0.1376 0.8013
vn -0.5872 -0.0427 0.8083
vn -0.0000 -0.0427 0.9991
vn -0.0000 -0.1376 0.9905
vn -0.9420 -0.1376 0.3061
vn -0.9502 -0.0427 0.3087
vn -0.9420 -0.1376 -0.3061
vn -0.9502 -0.0427 -0.3087
vn -0.5822 -0.1376 -0.8013
vn -0.5872 -0.0427 -0.8083
vn -0.0000 -0.1376 -0.9905
vn -0.0000 -0.0427 -0.9991
vn 0.5822 -0.1376 -0.8013
vn 0.5872 -0.0427 -0.8083
vn 0.9420 -0.1376 -0.3061
vn 0.9502 -0.0427 -0.3087
vn 0.9420 -0.1376 0.3061
vn 0.9502 -0.0427 0.3087
vn 0.5822 -0.1376 0.8013
vn 0.5872 -0.0427 0.8083
vn -0.4246 0.6916 0.5843
vn -0.4991 -0.5282 -0.6870
vn -0.0000 -0.5282 -0.8491
vn 0.3220 0.9410 -0.1046
vn -0.0000 0.6916 0.7223
vn -0.0000 -0.6916 -0.7223
vn -0.4246 -0.6916 -0.5843
vn 0.4991 -0.5282 0.6870
vn -0.1990 0.9409 0.2739
vn 0.4246 0.6916 0.5843
vn -0.1990 0.9409 -0.2739
vn -0.8075 -0.5282 0.2624
vn 0.6869 -0.6916 0.2232
vn -0.0000 0.9409 0.3386
vn 0.8075 -0.5282 0.2624
vn -0.0000 0.9409 -0.3386
vn -0.6869 -0.6916 -0.2232
vn 0.1990 0.9409 -0.2739
vn -0.8075 -0.5282 -0.2624
vn 0.4246 0.6916 -0.5843
vn 0.4246 -0.6916 0.5843
vn 0.6869 0.6916 -0.2232
vn 0.6869 0.6916 0.2232
vt 0.569199 0.508590
vt 0.569199 0.511554
vt 0.556229 0.511554
vt 0.556229 0.508590
vt 0.543260 0.511554
vt 0.543260 0.508590
vt 0.530290 0.511554
vt 0.530290 0.508590
vt 0.517320 0.511554
vt 0.517320 0.508590
vt 0.504350 0.511554
vt 0.504350 0.508590
vt 0.491381 0.511554
vt 0.491381 0.508590
vt 0.478411 0.511554
vt 0.478411 0.508590
vt 0.465441 0.511554
vt 0.465441 0.508590
vt 0.504350 0.524542
vt 0.491381 0.524542
vt 0.595138 0.508590
vt 0.595138 0.511554
vt 0.582169 0.511554
vt 0.582169 0.508590
vt 0.518751 0.621133
vt 0.498389 0.627749
vt 0.478026 0.621133
vt 0.465441 0.603812
vt 0.465441 0.582401
vt 0.478026 0.565079
vt 0.498389 0.558463
vt 0.518751 0.565079
vt 0.531336 0.582401
vt 0.531336 0.603812
vt 0.517320 0.524542
vt 0.517320 0.535525
vt 0.504350 0.535525
vt 0.530290 0.524542
vt 0.569199 0.524542
vt 0.556229 0.524542
vt 0.543260 0.524542
vt 0.582169 0.524542
vt 0.595138 0.524542
vt 0.478411 0.524542
vt 0.465441 0.524542
vt 0.543260 0.535525
vt 0.556229 0.535526
vt 0.556229 0.541664
vt 0.543260 0.541664
vt 0.595138 0.535525
vt 0.582169 0.535525
vt 0.491381 0.535526
vt 0.530290 0.535525
vt 0.569199 0.535525
vt 0.478411 0.535525
vt 0.465441 0.535525
vt 0.595138 0.541664
vt 0.582169 0.541664
vt 0.504350 0.541664
vt 0.491381 0.541664
vt 0.530290 0.541664
vt 0.569199 0.541664
vt 0.478411 0.541664
vt 0.517320 0.541664
vt 0.465441 0.541664
vt 0.747516 -0.000000
vt 0.757357 -0.000000
vt 0.757357 0.873194
vt 0.747516 0.873194
vt 0.556229 0.545930
vt 0.569199 0.545930
vt 0.569199 0.551081
vt 0.556229 0.551081
vt 0.543260 0.545930
vt 0.543260 0.551081
vt 0.530290 0.545930
vt 0.530290 0.551081
vt 0.517320 0.545930
vt 0.517320 0.551081
vt 0.504350 0.545930
vt 0.504350 0.551081
vt 0.491381 0.545930
vt 0.491381 0.551081
vt 0.478411 0.545930
vt 0.478411 0.551081
vt 0.465441 0.545930
vt 0.465441 0.551081
vt 0.582169 0.545930
vt 0.595138 0.545930
vt 0.595138 0.551081
vt 0.582169 0.551081
vt 0.569199 0.555807
vt 0.556229 0.555807
vt 0.543260 0.555807
vt 0.582169 0.555807
vt 0.530290 0.555807
vt 0.517320 0.555807
vt 0.504350 0.555807
vt 0.491381 0.555807
vt 0.478411 0.555807
vt 0.465441 0.555807
vt 0.595138 0.555807
vt 0.569199 0.558463
vt 0.556229 0.558463
vt 0.543260 0.558463
vt 0.530290 0.558463
vt 0.517320 0.558463
vt 0.504350 0.558463
vt 0.491381 0.558463
vt 0.478411 0.558463
vt 0.465441 0.558463
vt 0.595138 0.558463
vt 0.582169 0.558463
vt 0.595138 0.551405
vt 0.595138 0.540701
vt 0.598589 0.540701
vt 0.598590 0.551405
vt 0.678630 -0.000000
vt 0.688471 -0.000000
vt 0.688471 0.873194
vt 0.678630 0.873194
vt 0.708153 -0.000000
vt 0.717994 -0.000000
vt 0.717994 0.873194
vt 0.708153 0.873194
vt 0.737676 -0.000000
vt 0.737676 0.873194
vt 0.668789 -0.000000
vt 0.668789 0.873194
vt 0.698312 -0.000000
vt 0.698312 0.873194
vt 0.727835 -0.000000
vt 0.727835 0.873194
vt 0.658948 -0.000000
vt 0.658948 0.873194
vt 0.595138 0.519294
vt 0.595138 0.508590
vt 0.598590 0.508590
vt 0.598589 0.519294
vt 0.595138 0.594219
vt 0.595138 0.583516
vt 0.598589 0.583516
vt 0.598589 0.594219
vt 0.595138 0.562108
vt 0.598589 0.562108
vt 0.595138 0.529998
vt 0.598589 0.529998
vt 0.595138 0.604923
vt 0.598589 0.604923
vt 0.595138 0.572812
vt 0.598589 0.572812
vt 0.595138 0.615626
vt 0.598590 0.615626
vt 0.465441 0.501892
vt 0.465441 0.526556
vt 0.461066 0.526556
vt 0.461066 0.501892
vt 0.461066 0.403236
vt 0.461066 0.427900
vt 0.454156 0.427900
vt 0.454156 0.403236
vt 0.465441 0.575884
vt 0.465441 0.600548
vt 0.461066 0.600548
vt 0.461066 0.575884
vt 0.465441 0.403236
vt 0.465441 0.427900
vt 0.465441 0.477228
vt 0.461066 0.477228
vt 0.465441 0.551220
vt 0.461066 0.551220
vt 0.465441 0.378572
vt 0.461066 0.378572
vt 0.465441 0.452564
vt 0.461066 0.452564
vt 0.465441 0.353907
vt 0.461066 0.353907
vt 0.454156 0.501892
vt 0.454156 0.477228
vt 0.454156 0.575884
vt 0.454156 0.551220
vt 0.454156 0.378572
vt 0.454156 0.452564
vt 0.454156 0.526556
vt 0.454156 0.353907
vt 0.454156 0.600548
vt 0.614645 0.540701
vt 0.614645 0.529998
vt 0.618500 0.529998
vt 0.618500 0.540701
vt 0.614645 0.551405
vt 0.618500 0.551405
vt 0.614645 0.562108
vt 0.618500 0.562108
vt 0.614645 0.572812
vt 0.618500 0.572812
vt 0.614645 0.583516
vt 0.618500 0.583516
vt 0.614645 0.594219
vt 0.618500 0.594219
vt 0.614645 0.604923
vt 0.618500 0.604923
vt 0.614645 0.615626
vt 0.618500 0.615626
vt 0.614645 0.519294
vt 0.614645 0.508590
vt 0.618500 0.508590
vt 0.618500 0.519294
vt 0.622640 0.529998
vt 0.622640 0.540701
vt 0.612309 0.551405
vt 0.612309 0.540701
vt 0.612309 0.529998
vt 0.622640 0.551405
vt 0.622640 0.519294
vt 0.612309 0.519294
vt 0.612309 0.562108
vt 0.622640 0.562108
vt 0.612309 0.572812
vt 0.622640 0.572812
vt 0.612309 0.583516
vt 0.622640 0.583516
vt 0.622640 0.594219
vt 0.612309 0.594219
vt 0.612309 0.604923
vt 0.622640 0.604923
vt 0.612309 0.615626
vt 0.622640 0.615626
vt 0.612309 0.508590
vt 0.622640 0.508590
vt 0.604661 0.540701
vt 0.604661 0.529998
vt 0.608193 0.529998
vt 0.608193 0.540701
vt 0.604661 0.551405
vt 0.608193 0.551405
vt 0.604661 0.562108
vt 0.608193 0.562108
vt 0.604661 0.572812
vt 0.608193 0.572812
vt 0.604661 0.583516
vt 0.608193 0.583516
vt 0.604661 0.594219
vt 0.608193 0.594219
vt 0.604661 0.604923
vt 0.608193 0.604923
vt 0.604661 0.615626
vt 0.608193 0.615626
vt 0.604661 0.519294
vt 0.604661 0.508590
vt 0.608193 0.508590
vt 0.608193 0.519294
vt 0.437929 0.526556
vt 0.437929 0.551220
vt 0.431789 0.551220
vt 0.431789 0.526556
vt 0.437929 0.501892
vt 0.431789 0.501892
vt 0.437929 0.477228
vt 0.431789 0.477228
vt 0.437929 0.452564
vt 0.431789 0.452564
vt 0.437929 0.427900
vt 0.431789 0.427900
vt 0.437929 0.403236
vt 0.431789 0.403236
vt 0.437929 0.378572
vt 0.431789 0.378572
vt 0.437929 0.353907
vt 0.431789 0.353907
vt 0.437929 0.575884
vt 0.437929 0.600548
vt 0.431789 0.600548
vt 0.431789 0.575884
vt 0.422576 0.526556
vt 0.422576 0.551220
vt 0.416137 0.551220
vt 0.416137 0.526556
vt 0.422576 0.501892
vt 0.416137 0.501892
vt 0.422576 0.477228
vt 0.416138 0.477228
vt 0.422576 0.452564
vt 0.416137 0.452564
vt 0.422576 0.427900
vt 0.416137 0.427900
vt 0.422576 0.403236
vt 0.416137 0.403236
vt 0.422576 0.378572
vt 0.416137 0.378572
vt 0.422576 0.353907
vt 0.416137 0.353907
vt 0.422576 0.575884
vt 0.422576 0.600548
vt 0.416137 0.600548
vt 0.416137 0.575884
vt 0.394350 0.551220
vt 0.394350 0.526556
vt 0.394349 0.501892
vt 0.394350 0.575884
vt 0.394350 0.477228
vt 0.394350 0.452564
vt 0.394350 0.427900
vt 0.394350 0.403236
vt 0.394349 0.378572
vt 0.394350 0.353907
vt 0.394350 0.600548
vt 0.317964 0.501892
vt 0.317964 0.526556
vt 0.305041 0.526556
vt 0.305041 0.501892
vt 0.772146 -0.000000
vt 0.779540 -0.000000
vt 0.779540 0.528763
vt 0.772145 0.528763
vt 0.317964 0.575884
vt 0.317964 0.600548
vt 0.305041 0.600548
vt 0.305041 0.575884
vt 0.317964 0.403236
vt 0.317964 0.427900
vt 0.305041 0.427900
vt 0.305041 0.403236
vt 0.317964 0.477228
vt 0.305041 0.477228
vt 0.317964 0.551220
vt 0.305041 0.551220
vt 0.317964 0.378572
vt 0.305041 0.378572
vt 0.317964 0.452564
vt 0.305041 0.452564
vt 0.317964 0.353907
vt 0.305041 0.353907
vt 0.779540 0.548436
vt 0.772145 0.548436
vt 0.794328 -0.000000
vt 0.801722 -0.000000
vt 0.801722 0.528763
vt 0.794328 0.528763
vt 0.816510 -0.000000
vt 0.823904 -0.000000
vt 0.823904 0.528762
vt 0.816510 0.528763
vt 0.764751 -0.000000
vt 0.764751 0.528763
vt 0.786933 -0.000000
vt 0.786933 0.528762
vt 0.809116 -0.000000
vt 0.809116 0.528762
vt 0.757357 -0.000000
vt 0.757357 0.528762
vt 0.831298 -0.000000
vt 0.831298 0.528762
vt 0.361657 0.526556
vt 0.361657 0.551220
vt 0.353855 0.551220
vt 0.353855 0.526556
vt 0.361657 0.501892
vt 0.353855 0.501892
vt 0.361657 0.477228
vt 0.353855 0.477228
vt 0.361657 0.452564
vt 0.353855 0.452564
vt 0.361657 0.427900
vt 0.353855 0.427900
vt 0.361657 0.403236
vt 0.353855 0.403236
vt 0.361657 0.378572
vt 0.353855 0.378572
vt 0.361657 0.353907
vt 0.353855 0.353907
vt 0.361657 0.575884
vt 0.361657 0.600548
vt 0.353855 0.600548
vt 0.353855 0.575884
vt 0.346180 0.551220
vt 0.346180 0.526556
vt 0.346180 0.501892
vt 0.346180 0.575884
vt 0.346180 0.477228
vt 0.346180 0.452564
vt 0.346180 0.427900
vt 0.346180 0.403236
vt 0.346180 0.378572
vt 0.346180 0.353907
vt 0.346180 0.600548
vt 0.330018 0.551220
vt 0.330018 0.526556
vt 0.337577 0.526556
vt 0.337577 0.551220
vt 0.330018 0.501892
vt 0.337577 0.501892
vt 0.330018 0.477228
vt 0.337577 0.477228
vt 0.330018 0.452564
vt 0.337577 0.452564
vt 0.330018 0.427900
vt 0.337577 0.427900
vt 0.330018 0.403236
vt 0.337577 0.403236
vt 0.330018 0.378572
vt 0.337577 0.378572
vt 0.330018 0.353907
vt 0.337577 0.353907
vt 0.330018 0.600548
vt 0.330018 0.575884
vt 0.337577 0.575884
vt 0.337577 0.600548
vt 0.801722 0.548436
vt 0.794328 0.548436
vt 0.823904 0.548436
vt 0.816510 0.548436
vt 0.764751 0.548436
vt 0.786933 0.548436
vt 0.809116 0.548436
vt 0.757357 0.548436
vt 0.831298 0.548436
vt 0.542109 0.565877
vt 0.540052 0.568709
vt 0.536723 0.569790
vt 0.533394 0.568709
vt 0.531336 0.565877
vt 0.531336 0.562376
vt 0.533394 0.559545
vt 0.536723 0.558463
vt 0.540052 0.559545
vt 0.542109 0.562377
vt 0.809116 0.552213
vt 0.816510 0.552213
vt 0.816510 0.555645
vt 0.809116 0.555645
vt 0.816510 0.559104
vt 0.809116 0.559104
vt 0.801722 0.552213
vt 0.801722 0.555645
vt 0.801722 0.559104
vt 0.794328 0.552213
vt 0.794328 0.555645
vt 0.794328 0.559104
vt 0.786933 0.552213
vt 0.786933 0.555645
vt 0.786933 0.559104
vt 0.779540 0.552213
vt 0.779540 0.555645
vt 0.779540 0.559104
vt 0.772145 0.552213
vt 0.772145 0.555645
vt 0.772145 0.559104
vt 0.764751 0.552213
vt 0.764751 0.555645
vt 0.764751 0.559104
vt 0.757357 0.552213
vt 0.757357 0.555645
vt 0.757357 0.559104
vt 0.823904 0.552213
vt 0.831298 0.552213
vt 0.831298 0.555645
vt 0.823904 0.555645
vt 0.831298 0.559104
vt 0.823904 0.559104
vt 0.809116 0.564783
vt 0.801722 0.564783
vt 0.816510 0.564783
vt 0.823904 0.564783
vt 0.794328 0.564783
vt 0.786933 0.564783
vt 0.779540 0.564783
vt 0.772146 0.564783
vt 0.764751 0.564783
vt 0.757357 0.564783
vt 0.831298 0.564783
vt 0.357406 0.286673
vt 0.357430 0.067193
vt 0.372266 0.067200
vt 0.372241 0.286682
vt 0.372276 0.052365
vt 0.591755 0.052389
vt 0.591748 0.067225
vt 0.606584 0.067235
vt 0.606560 0.286714
vt 0.591723 0.286708
vt 0.591714 0.301543
vt 0.372234 0.301519
vt 0.559315 0.347029
vt 0.559318 0.353907
vt 0.404655 0.353907
vt 0.404625 0.347026
vt 0.571255 0.028910
vt 0.392791 0.028897
vt 0.395137 0.016421
vt 0.568909 0.016427
vt 0.333951 0.087693
vt 0.343032 0.081274
vt 0.343014 0.272580
vt 0.333938 0.266157
vt 0.352113 0.072510
vt 0.352091 0.281351
vt 0.630039 0.266214
vt 0.630051 0.087750
vt 0.642528 0.090096
vt 0.642521 0.263868
vt 0.577674 0.037991
vt 0.386368 0.037973
vt 0.586438 0.047072
vt 0.377597 0.047050
vt 0.392734 0.324998
vt 0.571198 0.325010
vt 0.568853 0.337487
vt 0.395080 0.337480
vt 0.620958 0.272633
vt 0.620975 0.081327
vt 0.611877 0.281397
vt 0.611898 0.072556
vt 0.386315 0.315917
vt 0.577621 0.315934
vt 0.377551 0.306836
vt 0.586392 0.306857
vt 0.321462 0.263812
vt 0.321468 0.090039
vt 0.311922 0.099584
vt 0.311920 0.254274
vt 0.559364 0.006881
vt 0.404674 0.006879
vt 0.652067 0.254323
vt 0.652070 0.099633
vt 0.465441 0.508590
vt 0.465441 0.353907
vt 0.620124 0.353907
vt 0.620124 0.508590
vt 0.404671 0.000000
vt 0.559335 0.000000
vt 0.658948 0.099630
vt 0.658948 0.254294
vt 0.305041 0.254277
vt 0.305041 0.099614
vt 0.924055 0.383592
vt 0.924798 0.288714
vt 0.927924 0.288733
vt 0.927164 0.383602
vt 0.000000 0.400000
vt 0.000000 0.300000
vt 0.004029 0.300000
vt 0.004029 0.400000
vt 0.278274 0.200000
vt 0.278274 0.100000
vt 0.282303 0.100000
vt 0.282303 0.200000
vt 0.028919 0.900000
vt 0.028919 1.000000
vt 0.024890 1.000000
vt 0.024890 0.900000
vt 0.000000 0.500000
vt 0.004029 0.500000
vt 0.922462 0.858114
vt 0.925227 0.763177
vt 0.928355 0.763166
vt 0.925577 0.858455
vt 0.278274 0.800000
vt 0.278274 0.700000
vt 0.282303 0.700000
vt 0.282303 0.800000
vt 0.028919 0.500000
vt 0.028919 0.600000
vt 0.024890 0.600000
vt 0.024890 0.500000
vt 0.278274 0.600000
vt 0.169826 0.700000
vt 0.169826 0.600000
vt 0.000000 0.600000
vt 0.004029 0.600000
vt 0.925662 0.193786
vt 0.928793 0.193781
vt 0.169826 0.800000
vt 0.278274 0.900000
vt 0.169826 0.900000
vt 0.278274 1.000000
vt 0.169826 1.000000
vt 0.278274 0.300000
vt 0.169826 0.300000
vt 0.169826 0.200000
vt 0.278274 -0.000000
vt 0.169826 0.100000
vt 0.169826 -0.000000
vt 0.278274 0.400000
vt 0.169826 0.400000
vt 0.278274 0.500000
vt 0.169826 0.500000
vt 0.106461 0.200000
vt 0.106461 0.300000
vt 0.028919 0.300000
vt 0.028919 0.200000
vt 0.106461 0.100000
vt 0.028919 0.100000
vt 0.106461 -0.000000
vt 0.028919 -0.000000
vt 0.106461 0.900000
vt 0.106461 1.000000
vt 0.106461 0.800000
vt 0.028919 0.800000
vt 0.106461 0.700000
vt 0.028919 0.700000
vt 0.106461 0.600000
vt 0.106461 0.500000
vt 0.106461 0.400000
vt 0.028919 0.400000
vt 0.000000 0.700000
vt 0.004029 0.700000
vt 0.282303 0.300000
vt 0.282303 0.400000
vt 0.024890 0.100000
vt 0.024890 -0.000000
vt 0.000000 0.800000
vt 0.004029 0.800000
vt 0.924491 0.668244
vt 0.924099 0.573357
vt 0.927223 0.573342
vt 0.927616 0.668213
vt 0.282303 0.900000
vt 0.024890 0.700000
vt 0.000000 0.900000
vt 0.004029 0.900000
vt 0.305041 0.300000
vt 0.305041 0.200000
vt 0.305041 0.100000
vt 0.282303 -0.000000
vt 0.305041 -0.000000
vt 0.305041 1.000000
vt 0.282303 1.000000
vt 0.305041 0.900000
vt 0.305041 0.800000
vt 0.305041 0.700000
vt 0.282303 0.600000
vt 0.305041 0.600000
vt 0.282303 0.500000
vt 0.305041 0.500000
vt 0.305041 0.400000
vt 0.024890 0.200000
vt 0.024890 0.300000
vt 0.004029 0.200000
vt 0.004029 0.100000
vt 0.024890 0.400000
vt 0.004029 -0.000000
vt 0.004029 1.000000
vt 0.024890 0.800000
vt 0.897136 0.950037
vt 0.899860 0.951624
vt 0.924174 0.478472
vt 0.927314 0.478472
vt 0.000000 0.200000
vt 0.922813 0.098840
vt 0.897136 0.007005
vt 0.899854 0.005407
vt 0.925940 0.098489
vt 0.000000 0.100000
vt 0.000000 -0.000000
vt 0.000000 1.000000
vt 0.004029 0.400000
vt 0.282303 0.100000
vt 0.028919 1.000000
vt 0.000000 0.500000
vt 0.278274 0.800000
vt 0.028919 0.500000
vt 0.169826 0.600000
vt 0.169826 0.700000
vt 0.000000 0.600000
vt 0.925662 0.193786
vt 0.169826 0.800000
vt 0.169826 0.200000
vt 0.169826 0.300000
vt 0.278274 0.300000
vt 0.169826 0.100000
vt 0.169826 0.400000
vt 0.169826 0.500000
vt 0.278274 0.500000
vt 0.106461 0.200000
vt 0.028919 0.200000
vt 0.028919 -0.000000
vt 0.028919 0.800000
vt 0.106461 0.700000
vt 0.106461 0.500000
vt 0.028919 0.400000
vt 0.024890 0.100000
vt 0.004029 0.800000
vt 0.924099 0.573357
vt 0.305041 0.200000
vt 0.282303 -0.000000
vt 0.282303 0.600000
vt 0.282303 0.500000
vt 0.004029 0.200000
vt 0.024890 0.300000
vt 0.000000 0.200000
vt 0.000000 0.100000
s 1
f 1/1/1 2/2/1 4/3/2 3/4/2
f 3/4/2 4/3/2 6/5/3 5/6/3
f 5/6/3 6/5/3 8/7/4 7/8/4
f 7/8/4 8/7/4 10/9/5 9/10/5
f 9/10/5 10/9/5 12/11/6 11/12/6
f 11/12/6 12/11/6 14/13/7 13/14/7
f 13/14/7 14/13/7 16/15/8 15/16/8
f 15/16/8 16/15/8 18/17/9 17/18/9
f 14/13/10 12/11/11 26/19/12 27/20/13
f 17/21/9 18/22/9 20/23/14 19/24/14
f 19/24/14 20/23/14 2/2/1 1/1/1
f 1/25/15 3/26/15 5/27/15 7/28/15 9/29/15 11/30/15 13/31/15 15/32/15 17/33/15 19/34/15
f 26/19/12 25/35/16 35/36/17 36/37/18
f 12/11/11 10/9/19 25/35/16 26/19/12
f 10/9/19 8/7/20 24/38/21 25/35/16
f 4/3/22 2/2/23 22/39/24 21/40/25
f 8/7/20 6/5/26 23/41/27 24/38/21
f 6/5/26 4/3/22 21/40/25 23/41/27
f 2/2/23 20/23/28 30/42/29 22/39/24
f 20/23/28 18/22/30 29/43/31 30/42/29
f 18/17/30 16/15/32 28/44/33 29/45/31
f 16/15/32 14/13/10 27/20/13 28/44/33
f 33/46/3 31/47/2 41/48/34 43/49/35
f 23/41/27 21/40/25 31/47/36 33/46/37
f 30/42/29 29/43/31 39/50/38 40/51/39
f 27/20/13 26/19/12 36/37/18 37/52/40
f 24/38/21 23/41/27 33/46/37 34/53/41
f 22/39/24 30/42/29 40/51/39 32/54/42
f 28/44/33 27/20/13 37/52/40 38/55/43
f 25/35/16 24/38/21 34/53/41 35/36/17
f 21/40/25 22/39/24 32/54/42 31/47/36
f 29/45/31 28/44/33 38/55/43 39/56/38
f 40/51/14 39/50/9 49/57/44 50/58/45
f 37/52/7 36/37/6 46/59/46 47/60/47
f 34/53/4 33/46/3 43/49/35 44/61/48
f 32/54/1 40/51/14 50/58/45 42/62/49
f 38/55/8 37/52/7 47/60/47 48/63/50
f 35/36/5 34/53/4 44/61/48 45/64/51
f 31/47/2 32/54/1 42/62/49 41/48/34
f 39/56/9 38/55/8 48/63/50 49/65/44
f 36/37/6 35/36/5 45/64/51 46/59/46
f 60/66/14 59/67/9 99/68/9 100/69/14
f 62/70/52 63/71/53 64/72/54 61/73/55
f 66/74/56 62/70/52 61/73/55 65/75/57
f 68/76/58 66/74/56 65/75/57 67/77/59
f 70/78/60 68/76/58 67/77/59 69/79/61
f 72/80/62 70/78/60 69/79/61 71/81/63
f 74/82/64 72/80/62 71/81/63 73/83/65
f 76/84/66 74/82/64 73/83/65 75/85/67
f 78/86/68 76/84/66 75/85/67 77/87/69
f 80/88/70 78/89/68 77/90/69 79/91/71
f 63/71/53 80/88/70 79/91/71 64/72/54
f 61/73/55 64/72/54 82/92/72 81/93/73
f 43/49/35 41/48/34 62/70/74 66/74/75
f 41/48/34 42/62/49 63/71/76 62/70/74
f 65/75/57 61/73/55 81/93/73 83/94/77
f 64/72/54 79/91/71 90/95/78 82/92/72
f 42/62/49 50/58/45 80/88/79 63/71/76
f 44/61/48 43/49/35 66/74/75 68/76/80
f 67/77/59 65/75/57 83/94/77 84/96/81
f 69/79/61 67/77/59 84/96/81 85/97/82
f 45/64/51 44/61/48 68/76/80 70/78/83
f 46/59/46 45/64/51 70/78/83 72/80/84
f 71/81/63 69/79/61 85/97/82 86/98/85
f 47/60/47 46/59/46 72/80/84 74/82/86
f 73/83/65 71/81/63 86/98/85 87/99/87
f 48/63/50 47/60/47 74/82/86 76/84/88
f 75/85/67 73/83/65 87/99/87 88/100/89
f 49/65/44 48/63/50 76/84/88 78/86/90
f 77/87/69 75/85/67 88/100/89 89/101/91
f 50/58/45 49/57/44 78/89/90 80/88/79
f 79/91/71 77/90/69 89/102/91 90/95/78
f 52/103/92 51/104/92 81/93/92 82/92/92
f 51/104/92 53/105/92 83/94/92 81/93/92
f 53/105/92 54/106/92 84/96/92 83/94/92
f 54/106/92 55/107/92 85/97/92 84/96/92
f 55/107/92 56/108/92 86/98/92 85/97/92
f 56/108/92 57/109/92 87/99/92 86/98/92
f 57/109/92 58/110/92 88/100/92 87/99/92
f 58/110/92 59/111/92 89/101/92 88/100/92
f 59/112/92 60/113/92 90/95/92 89/102/92
f 60/113/92 52/103/92 82/92/92 90/95/92
f 93/114/15 91/115/15 101/116/15 103/117/15
f 57/118/7 56/119/6 96/120/6 97/121/7
f 54/122/4 53/123/3 93/124/3 94/125/4
f 52/126/1 60/66/14 100/69/14 92/127/1
f 58/128/8 57/118/7 97/121/7 98/129/8
f 55/130/5 54/122/4 94/125/4 95/131/5
f 51/132/2 52/126/1 92/127/1 91/133/2
f 59/134/9 58/128/8 98/129/8 99/135/9
f 56/119/6 55/130/5 95/131/5 96/120/6
f 53/123/3 51/132/2 91/133/2 93/124/3
f 100/136/15 99/137/15 109/138/15 110/139/15
f 97/140/15 96/141/15 106/142/15 107/143/15
f 94/144/15 93/114/15 103/117/15 104/145/15
f 92/146/15 100/136/15 110/139/15 102/147/15
f 98/148/15 97/140/15 107/143/15 108/149/15
f 95/150/15 94/144/15 104/145/15 105/151/15
f 91/115/15 92/146/15 102/147/15 101/116/15
f 99/152/15 98/148/15 108/149/15 109/153/15
f 96/141/15 95/150/15 105/151/15 106/142/15
f 123/154/15 121/155/15 131/156/15 133/157/15
f 137/158/7 136/159/6 146/160/93 147/161/94
f 130/162/15 129/163/15 139/164/15 140/165/15
f 127/166/15 126/167/15 136/159/15 137/158/15
f 124/168/15 123/154/15 133/157/15 134/169/15
f 122/170/15 130/162/15 140/165/15 132/171/15
f 128/172/15 127/166/15 137/158/15 138/173/15
f 125/174/15 124/168/15 134/169/15 135/175/15
f 121/155/15 122/170/15 132/171/15 131/156/15
f 129/176/15 128/172/15 138/173/15 139/177/15
f 126/167/15 125/174/15 135/175/15 136/159/15
f 134/169/4 133/157/3 143/178/95 144/179/96
f 132/171/1 140/165/14 150/180/97 142/181/98
f 138/173/8 137/158/7 147/161/94 148/182/99
f 135/175/5 134/169/4 144/179/96 145/183/100
f 131/156/2 132/171/1 142/181/98 141/184/101
f 139/177/9 138/173/8 148/182/99 149/185/102
f 136/159/6 135/175/5 145/183/100 146/160/93
f 133/157/3 131/156/2 141/184/101 143/178/95
f 140/165/14 139/164/9 149/186/102 150/180/97
f 162/187/103 163/188/104 164/189/105 161/190/106
f 166/191/107 162/187/103 161/190/106 165/192/108
f 168/193/109 166/191/107 165/192/108 167/194/110
f 170/195/111 168/193/109 167/194/110 169/196/112
f 172/197/113 170/195/111 169/196/112 171/198/114
f 174/199/115 172/197/113 171/198/114 173/200/116
f 176/201/117 174/199/115 173/200/116 175/202/118
f 178/203/119 176/201/117 175/202/118 177/204/120
f 180/205/121 178/206/119 177/207/120 179/208/122
f 163/188/104 180/205/121 179/208/122 164/189/105
f 161/190/106 164/189/105 122/209/1 121/210/2
f 113/211/123 111/212/124 162/187/103 166/191/107
f 111/212/124 112/213/125 163/188/104 162/187/103
f 165/192/108 161/190/106 121/210/2 123/214/3
f 164/189/105 179/208/122 130/215/14 122/209/1
f 112/213/125 120/216/126 180/205/121 163/188/104
f 114/217/127 113/211/123 166/191/107 168/193/109
f 167/194/110 165/192/108 123/214/3 124/218/4
f 115/219/128 114/217/127 168/193/109 170/195/111
f 169/196/112 167/194/110 124/218/4 125/220/5
f 116/221/129 115/219/128 170/195/111 172/197/113
f 171/198/114 169/196/112 125/220/5 126/222/6
f 173/200/116 171/198/114 126/222/6 127/223/7
f 117/224/130 116/221/129 172/197/113 174/199/115
f 118/225/131 117/224/130 174/199/115 176/201/117
f 175/202/118 173/200/116 127/223/7 128/226/8
f 119/227/132 118/225/131 176/201/117 178/203/119
f 177/204/120 175/202/118 128/226/8 129/228/9
f 120/216/126 119/229/132 178/206/119 180/205/121
f 179/208/122 177/207/120 129/230/9 130/215/14
f 182/231/133 183/232/134 184/233/135 181/234/136
f 186/235/137 182/231/133 181/234/136 185/236/138
f 188/237/139 186/235/137 185/236/138 187/238/140
f 190/239/141 188/237/139 187/238/140 189/240/142
f 192/241/143 190/239/141 189/240/142 191/242/144
f 194/243/145 192/241/143 191/242/144 193/244/146
f 196/245/147 194/243/145 193/244/146 195/246/148
f 198/247/149 196/245/147 195/246/148 197/248/150
f 200/249/151 198/250/149 197/251/150 199/252/152
f 183/232/134 200/249/151 199/252/152 184/233/135
f 181/234/136 184/233/135 112/213/153 111/212/154
f 103/117/3 101/116/2 182/231/133 186/235/137
f 101/116/2 102/147/1 183/232/134 182/231/133
f 185/236/138 181/234/136 111/212/154 113/211/155
f 184/233/135 199/252/152 120/216/156 112/213/153
f 102/147/1 110/139/14 200/249/151 183/232/134
f 104/145/4 103/117/3 186/235/137 188/237/139
f 187/238/140 185/236/138 113/211/155 114/217/157
f 105/151/5 104/145/4 188/237/139 190/239/141
f 189/240/142 187/238/140 114/217/157 115/219/158
f 106/142/6 105/151/5 190/239/141 192/241/143
f 191/242/144 189/240/142 115/219/158 116/221/159
f 107/143/7 106/142/6 192/241/143 194/243/145
f 193/244/146 191/242/144 116/221/159 117/224/160
f 195/246/148 193/244/146 117/224/160 118/225/161
f 108/149/8 107/143/7 194/243/145 196/245/147
f 109/153/9 108/149/8 196/245/147 198/247/149
f 197/248/150 195/246/148 118/225/161 119/227/162
f 110/139/14 109/138/9 198/250/149 200/249/151
f 199/252/152 197/251/150 119/229/162 120/216/156
f 202/253/163 203/254/164 204/255/165 201/256/166
f 206/257/167 202/253/163 201/256/166 205/258/168
f 208/259/169 206/257/167 205/258/168 207/260/170
f 210/261/171 208/259/169 207/260/170 209/262/172
f 212/263/173 210/261/171 209/262/172 211/264/174
f 214/265/175 212/263/173 211/264/174 213/266/176
f 216/267/177 214/265/175 213/266/176 215/268/178
f 218/269/179 216/267/177 215/268/178 217/270/180
f 220/271/181 218/272/179 217/273/180 219/274/182
f 203/254/164 220/271/181 219/274/182 204/255/165
f 143/178/95 141/184/101 202/253/163 206/257/167
f 141/184/101 142/181/98 203/254/164 202/253/163
f 142/181/98 150/180/97 220/271/181 203/254/164
f 144/179/96 143/178/95 206/257/167 208/259/169
f 145/183/100 144/179/96 208/259/169 210/261/171
f 146/160/93 145/183/100 210/261/171 212/263/173
f 147/161/94 146/160/93 212/263/173 214/265/175
f 148/182/99 147/161/94 214/265/175 216/267/177
f 149/185/102 148/182/99 216/267/177 218/269/179
f 150/180/97 149/186/102 218/272/179 220/271/181
f 222/275/183 223/276/184 224/277/185 221/278/186
f 226/279/187 222/275/183 221/278/186 225/280/188
f 228/281/189 226/279/187 225/280/188 227/282/190
f 230/283/191 228/281/189 227/282/190 229/284/192
f 232/285/193 230/283/191 229/284/192 231/286/194
f 234/287/195 232/285/193 231/286/194 233/288/196
f 236/289/197 234/287/195 233/288/196 235/290/198
f 238/291/199 236/289/197 235/290/198 237/292/200
f 240/293/201 238/294/199 237/295/200 239/296/202
f 223/276/184 240/293/201 239/296/202 224/277/185
f 201/256/166 204/255/165 223/276/184 222/275/183
f 221/278/186 224/277/185 152/297/203 151/298/204
f 205/258/168 201/256/166 222/275/183 226/279/187
f 225/280/188 221/278/186 151/298/204 153/299/205
f 224/277/185 239/296/202 160/300/206 152/297/203
f 204/255/165 219/274/182 240/293/201 223/276/184
f 207/260/170 205/258/168 226/279/187 228/281/189
f 227/282/190 225/280/188 153/299/205 154/301/207
f 209/262/172 207/260/170 228/281/189 230/283/191
f 229/284/192 227/282/190 154/301/207 155/302/208
f 211/264/174 209/262/172 230/283/191 232/285/193
f 231/286/194 229/284/192 155/302/208 156/303/209
f 213/266/176 211/264/174 232/285/193 234/287/195
f 233/288/196 231/286/194 156/303/209 157/304/210
f 215/268/178 213/266/176 234/287/195 236/289/197
f 235/290/198 233/288/196 157/304/210 158/305/211
f 217/270/180 215/268/178 236/289/197 238/291/199
f 237/292/200 235/290/198 158/305/211 159/306/212
f 219/274/182 217/273/180 238/294/199 240/293/201
f 239/296/202 237/295/200 159/307/212 160/300/206
f 243/308/213 241/309/214 251/310/215 253/311/216
f 257/312/7 256/313/6 266/314/6 267/315/7
f 250/316/217 249/317/218 259/318/219 260/319/220
f 247/320/221 246/321/222 256/322/223 257/323/224
f 244/324/225 243/308/213 253/311/216 254/325/226
f 242/326/227 250/316/217 260/319/220 252/327/228
f 248/328/229 247/320/221 257/323/224 258/329/230
f 245/330/231 244/324/225 254/325/226 255/331/232
f 241/309/214 242/326/227 252/327/228 251/310/215
f 249/332/218 248/328/229 258/329/230 259/333/219
f 246/321/222 245/330/231 255/331/232 256/322/223
f 267/315/233 266/314/234 326/334/234 327/335/233
f 254/336/4 253/337/3 263/338/3 264/339/4
f 252/340/1 260/341/14 270/342/14 262/343/1
f 258/344/8 257/312/7 267/315/7 268/345/8
f 255/346/5 254/336/4 264/339/4 265/347/5
f 251/348/2 252/340/1 262/343/1 261/349/2
f 259/350/9 258/344/8 268/345/8 269/351/9
f 256/313/6 255/346/5 265/347/5 266/314/6
f 253/337/3 251/348/2 261/349/2 263/338/3
f 260/341/14 259/352/9 269/353/9 270/342/14
f 282/354/235 283/355/236 284/356/237 281/357/238
f 286/358/239 282/354/235 281/357/238 285/359/240
f 288/360/241 286/358/239 285/359/240 287/361/242
f 290/362/243 288/360/241 287/361/242 289/363/244
f 292/364/245 290/362/243 289/363/244 291/365/246
f 294/366/247 292/364/245 291/365/246 293/367/248
f 296/368/249 294/366/247 293/367/248 295/369/250
f 298/370/251 296/368/249 295/369/250 297/371/252
f 300/372/253 298/373/251 297/374/252 299/375/254
f 283/355/236 300/372/253 299/375/254 284/356/237
f 281/357/238 284/356/237 272/376/255 271/377/256
f 153/299/205 151/298/204 282/354/235 286/358/239
f 151/298/204 152/297/203 283/355/236 282/354/235
f 285/359/240 281/357/238 271/377/256 273/378/257
f 284/356/237 299/375/254 280/379/258 272/376/255
f 152/297/203 160/300/206 300/372/253 283/355/236
f 154/301/207 153/299/205 286/358/239 288/360/241
f 287/361/242 285/359/240 273/378/257 274/380/259
f 155/302/208 154/301/207 288/360/241 290/362/243
f 289/363/244 287/361/242 274/380/259 275/381/260
f 156/303/209 155/302/208 290/362/243 292/364/245
f 291/365/246 289/363/244 275/381/260 276/382/261
f 157/304/210 156/303/209 292/364/245 294/366/247
f 293/367/248 291/365/246 276/382/261 277/383/262
f 158/305/211 157/304/210 294/366/247 296/368/249
f 295/369/250 293/367/248 277/383/262 278/384/263
f 159/306/212 158/305/211 296/368/249 298/370/251
f 297/371/252 295/369/250 278/384/263 279/385/264
f 160/300/206 159/307/212 298/373/251 300/372/253
f 299/375/254 297/374/252 279/386/264 280/379/258
f 304/387/265 301/388/266 302/389/267 303/390/268
f 301/388/266 305/391/269 306/392/270 302/389/267
f 305/391/269 307/393/271 308/394/272 306/392/270
f 307/393/271 309/395/273 310/396/274 308/394/272
f 309/395/273 311/397/275 312/398/276 310/396/274
f 311/397/275 313/399/277 314/400/278 312/398/276
f 313/399/277 315/401/279 316/402/280 314/400/278
f 315/401/279 317/403/281 318/404/282 316/402/280
f 317/405/281 319/406/283 320/407/284 318/408/282
f 319/406/283 304/387/265 303/390/268 320/407/284
f 273/378/257 271/377/256 302/389/267 306/392/270
f 305/391/269 301/388/266 241/309/214 243/308/213
f 271/377/256 272/376/255 303/390/268 302/389/267
f 301/388/266 304/387/265 242/326/227 241/309/214
f 272/376/255 280/379/258 320/407/284 303/390/268
f 304/387/265 319/406/283 250/316/217 242/326/227
f 274/380/259 273/378/257 306/392/270 308/394/272
f 307/393/271 305/391/269 243/308/213 244/324/225
f 275/381/260 274/380/259 308/394/272 310/396/274
f 309/395/273 307/393/271 244/324/225 245/330/231
f 276/382/261 275/381/260 310/396/274 312/398/276
f 311/397/275 309/395/273 245/330/231 246/321/222
f 277/383/262 276/382/261 312/398/276 314/400/278
f 313/399/277 311/397/275 246/321/222 247/320/221
f 278/384/263 277/383/262 314/400/278 316/402/280
f 315/401/279 313/399/277 247/320/221 248/328/229
f 279/385/264 278/384/263 316/402/280 318/404/282
f 317/403/281 315/401/279 248/328/229 249/332/218
f 280/379/258 279/386/264 318/408/282 320/407/284
f 319/406/283 317/405/281 249/317/218 250/316/217
f 264/339/285 263/338/286 323/409/286 324/410/285
f 262/343/287 270/342/288 330/411/288 322/412/287
f 268/345/289 267/315/233 327/335/233 328/413/289
f 265/347/290 264/339/285 324/410/285 325/414/290
f 261/349/291 262/343/287 322/412/287 321/415/291
f 269/351/292 268/345/289 328/413/289 329/416/292
f 266/314/234 265/347/290 325/414/290 326/334/234
f 263/338/286 261/349/291 321/415/291 323/409/286
f 270/342/288 269/353/292 329/417/292 330/411/288
f 331/418/92 332/419/92 340/420/92 339/421/92 338/422/92 337/423/92 336/424/92 335/425/92 334/426/92 333/427/92
f 342/428/293 344/429/294 346/430/295 343/431/296
f 343/431/296 346/430/295 345/432/297 341/433/298
f 348/434/299 342/428/293 343/431/296 349/435/300
f 349/435/300 343/431/296 341/433/298 347/436/301
f 351/437/302 348/434/299 349/435/300 352/438/303
f 352/438/303 349/435/300 347/436/301 350/439/304
f 354/440/305 351/437/302 352/438/303 355/441/306
f 355/441/306 352/438/303 350/439/304 353/442/307
f 357/443/308 354/440/305 355/441/306 358/444/309
f 358/444/309 355/441/306 353/442/307 356/445/310
f 360/446/311 357/443/308 358/444/309 361/447/312
f 361/447/312 358/444/309 356/445/310 359/448/313
f 363/449/314 360/446/311 361/447/312 364/450/315
f 364/450/315 361/447/312 359/448/313 362/451/316
f 366/452/317 363/449/314 364/450/315 367/453/318
f 367/453/318 364/450/315 362/451/316 365/454/319
f 369/455/320 366/456/317 367/457/318 370/458/321
f 370/458/321 367/457/318 365/459/319 368/460/322
f 344/429/294 369/455/320 370/458/321 346/430/295
f 346/430/295 370/458/321 368/460/322 345/432/297
f 321/415/323 322/412/324 344/429/294 342/428/293
f 347/436/301 341/433/298 331/461/325 333/462/326
f 341/433/298 345/432/297 332/463/327 331/461/325
f 323/409/328 321/415/323 342/428/293 348/434/299
f 345/432/297 368/460/322 340/464/329 332/463/327
f 322/412/324 330/411/330 369/455/320 344/429/294
f 324/410/331 323/409/328 348/434/299 351/437/302
f 350/439/304 347/436/301 333/462/326 334/465/332
f 325/414/333 324/410/331 351/437/302 354/440/305
f 353/442/307 350/439/304 334/465/332 335/466/334
f 326/334/335 325/414/333 354/440/305 357/443/308
f 356/445/310 353/442/307 335/466/334 336/467/336
f 327/335/337 326/334/335 357/443/308 360/446/311
f 359/448/313 356/445/310 336/467/336 337/468/338
f 328/413/339 327/335/337 360/446/311 363/449/314
f 362/451/316 359/448/313 337/468/338 338/469/340
f 329/416/341 328/413/339 363/449/314 366/452/317
f 365/454/319 362/451/316 338/469/340 339/470/342
f 330/411/330 329/417/341 366/456/317 369/455/320
f 368/460/322 365/459/319 339/471/342 340/464/329
f 376/472/343 375/473/343 372/474/343 371/475/343
f 375/476/6 377/477/6 374/478/6 372/474/6
f 377/479/344 378/480/344 373/481/344 374/478/344
f 378/482/1 376/483/1 371/475/1 373/481/1
f 374/478/15 373/481/15 371/475/15 372/474/15
f 382/484/1 402/485/1 400/486/1 380/487/1
f 394/488/345 388/489/345 395/490/346 397/491/346
f 388/492/347 387/493/348 385/494/349 384/495/347
f 387/493/348 386/496/350 383/497/351 385/494/349
f 391/498/352 394/499/352 397/500/353 398/501/353
f 394/488/345 393/502/354 387/503/348 388/489/345
f 393/502/354 392/504/355 386/505/350 387/503/348
f 384/506/356 391/507/356 398/508/357 396/509/357
f 391/498/352 390/510/358 393/511/354 394/499/352
f 390/510/358 389/512/359 392/513/355 393/511/354
f 384/506/356 385/514/349 390/515/358 391/507/356
f 385/514/349 383/516/351 389/517/359 390/515/358
f 383/516/351 376/483/92 378/482/92 389/517/359
f 386/496/350 375/473/92 376/472/92 383/497/351
f 392/504/355 377/477/92 375/476/92 386/505/350
f 389/512/359 378/480/92 377/479/92 392/513/355
f 388/492/347 384/495/347 396/518/360 395/519/360
f 379/520/92 395/519/92 396/518/92 380/521/92
f 381/522/92 397/491/92 395/490/92 379/523/92
f 382/524/92 398/501/92 397/500/92 381/525/92
f 380/487/92 396/509/92 398/508/92 382/484/92
f 399/526/92 400/527/92 402/528/92 401/529/92
f 379/523/6 399/530/6 401/531/6 381/522/6
f 381/525/344 401/532/344 402/533/344 382/524/344
f 380/521/343 400/534/343 399/535/343 379/520/343
f 417/536/15 415/537/15 475/538/15 477/539/15
f 442/540/92 434/541/92 484/542/92 492/543/92
f 406/544/92 408/545/92 468/546/92 465/547/92
f 451/548/15 449/549/15 496/550/15 497/551/15
f 441/552/92 442/540/92 492/543/92 491/553/92
f 407/554/15 405/555/15 464/556/15 467/557/15
f 414/558/92 416/559/92 476/560/92 474/561/92
f 459/562/15 457/563/15 500/564/15 501/565/15
f 418/566/361 416/559/362 429/567/363 430/568/364
f 440/569/92 441/552/92 491/553/92 490/570/92
f 415/537/15 413/571/15 473/572/15 475/538/15
f 416/559/362 414/558/365 428/573/366 429/567/363
f 414/558/365 412/574/367 427/575/368 428/573/366
f 412/574/367 410/576/369 426/577/370 427/575/368
f 406/544/371 404/578/372 424/579/373 423/580/374
f 410/581/369 408/545/375 425/582/376 426/583/370
f 408/545/375 406/544/371 423/580/374 425/582/376
f 404/578/372 422/584/377 432/585/378 424/579/373
f 422/584/377 420/586/379 431/587/380 432/585/378
f 420/586/379 418/566/361 430/568/364 431/587/380
f 444/588/381 445/589/382 446/590/383 443/591/384
f 448/592/385 444/588/381 443/591/384 447/593/386
f 450/594/387 448/592/385 447/593/386 449/595/388
f 452/596/389 450/597/387 449/549/388 451/548/390
f 454/598/391 452/596/389 451/548/390 453/599/392
f 456/600/393 454/598/391 453/599/392 455/601/394
f 458/602/395 456/600/393 455/601/394 457/563/396
f 460/603/397 458/602/395 457/563/396 459/562/398
f 462/604/399 460/603/397 459/562/398 461/605/400
f 445/589/382 462/604/399 461/605/400 446/590/383
f 439/606/92 440/569/92 490/570/92 489/607/92
f 425/582/376 423/580/374 444/588/381 448/592/385
f 423/580/374 424/579/373 445/589/382 444/588/381
f 422/584/92 404/578/92 466/608/92 482/609/92
f 449/595/15 447/593/15 495/610/15 496/611/15
f 424/579/373 432/585/378 462/604/399 445/589/382
f 426/583/370 425/582/376 448/592/385 450/594/387
f 438/612/92 439/606/92 489/607/92 488/613/92
f 427/575/368 426/577/370 450/597/387 452/596/389
f 403/614/15 421/615/15 481/616/15 463/617/15
f 428/573/366 427/575/368 452/596/389 454/598/391
f 404/578/92 406/544/92 465/547/92 466/608/92
f 412/574/92 414/558/92 474/561/92 472/618/92
f 429/567/363 428/573/366 454/598/391 456/600/393
f 430/568/364 429/567/363 456/600/393 458/602/395
f 457/563/15 455/601/15 499/619/15 500/564/15
f 431/587/380 430/568/364 458/602/395 460/603/397
f 437/620/92 438/612/92 488/613/92 487/621/92
f 432/585/378 431/587/380 460/603/397 462/604/399
f 405/555/15 403/614/15 463/617/15 464/556/15
f 463/622/1 466/608/1 465/547/2 464/623/2
f 464/623/2 465/547/2 468/546/3 467/624/3
f 467/624/3 468/546/3 470/625/4 469/626/4
f 469/627/4 470/628/4 472/618/5 471/629/5
f 471/629/5 472/618/5 474/561/6 473/630/6
f 473/630/6 474/561/6 476/560/7 475/631/7
f 475/631/7 476/560/7 478/632/8 477/633/8
f 477/633/8 478/632/8 480/634/9 479/635/9
f 479/635/9 480/634/9 482/609/14 481/636/14
f 481/636/14 482/609/14 466/608/1 463/622/1
f 494/637/2 493/638/1 484/542/1 483/639/2
f 495/610/3 494/637/2 483/639/2 485/640/3
f 493/638/1 502/641/14 492/543/14 484/542/1
f 496/611/4 495/610/3 485/640/3 486/642/4
f 497/551/5 496/550/4 486/643/4 487/621/5
f 498/644/6 497/551/5 487/621/5 488/613/6
f 499/619/7 498/644/6 488/613/6 489/607/7
f 500/564/8 499/619/7 489/607/7 490/570/8
f 501/565/9 500/564/8 490/570/8 491/553/9
f 502/641/14 501/565/9 491/553/9 492/543/14
f 461/605/15 459/562/15 501/565/15 502/641/15
f 416/559/92 418/566/92 478/632/92 476/560/92
f 409/645/15 407/554/15 467/557/15 469/646/15
f 453/599/15 451/548/15 497/551/15 498/644/15
f 408/545/92 410/581/92 470/625/92 468/546/92
f 446/590/15 461/605/15 502/641/15 493/638/15
f 419/647/15 417/536/15 477/539/15 479/648/15
f 443/591/15 446/590/15 493/638/15 494/637/15
f 418/566/92 420/586/92 480/634/92 478/632/92
f 434/541/92 433/649/92 483/639/92 484/542/92
f 411/650/15 409/651/15 469/652/15 471/653/15
f 433/649/92 435/654/92 485/640/92 483/639/92
f 455/601/15 453/599/15 498/644/15 499/619/15
f 410/576/92 412/574/92 472/618/92 470/628/92
f 421/615/15 419/647/15 479/648/15 481/616/15
f 435/654/92 436/655/92 486/642/92 485/640/92
f 447/593/15 443/591/15 494/637/15 495/610/15
f 420/586/92 422/584/92 482/609/92 480/634/92
f 436/656/92 437/620/92 487/621/92 486/643/92
f 413/571/15 411/650/15 471/653/15 473/572/15
f 517/536/401 577/539/401 575/538/402 515/537/402
f 542/540/403 592/657/403 584/542/404 534/541/404
f 506/544/405 565/547/405 568/658/406 508/545/406
f 551/548/407 597/551/407 596/550/408 549/659/408
f 541/660/409 591/553/409 592/657/403 542/540/403
f 507/554/410 567/557/410 564/556/411 505/555/411
f 514/661/412 574/561/412 576/560/413 516/559/413
f 559/662/414 601/565/414 600/564/415 557/563/415
f 518/566/416 530/663/417 529/664/418 516/559/419
f 540/665/420 590/570/420 591/553/409 541/660/409
f 515/537/402 575/538/402 573/572/421 513/666/421
f 516/559/419 529/664/418 528/667/422 514/661/423
f 514/661/423 528/667/422 527/575/424 512/574/425
f 512/574/425 527/575/424 526/577/426 510/576/427
f 506/544/428 523/668/429 524/669/430 504/670/431
f 510/581/427 526/583/426 525/671/432 508/545/433
f 508/545/433 525/671/432 523/668/429 506/544/428
f 504/670/431 524/669/430 532/672/434 522/584/435
f 522/584/435 532/672/434 531/673/436 520/674/437
f 520/674/437 531/673/436 530/663/417 518/566/416
f 544/675/438 543/676/439 546/590/440 545/589/441
f 548/592/442 547/593/443 543/676/439 544/675/438
f 550/594/444 549/677/445 547/593/443 548/592/442
f 552/596/446 551/548/447 549/659/445 550/597/444
f 554/598/448 553/678/449 551/548/447 552/596/446
f 556/679/450 555/601/451 553/678/449 554/598/448
f 558/602/452 557/563/453 555/601/451 556/679/450
f 560/680/454 559/662/455 557/563/453 558/602/452
f 562/604/456 561/681/457 559/662/455 560/680/454
f 545/589/441 546/590/440 561/681/457 562/604/456
f 539/606/458 589/607/458 590/570/420 540/665/420
f 525/671/432 548/592/442 544/675/438 523/668/429
f 523/668/429 544/675/438 545/589/441 524/669/430
f 522/584/459 582/609/459 566/608/460 504/670/460
f 549/677/408 596/611/408 595/682/461 547/593/461
f 524/669/430 545/589/441 562/604/456 532/672/434
f 526/583/426 550/594/444 548/592/442 525/671/432
f 538/612/462 588/683/462 589/607/458 539/606/458
f 527/575/424 552/596/446 550/597/444 526/577/426
f 503/614/463 563/617/463 581/616/464 521/684/464
f 528/667/422 554/598/448 552/596/446 527/575/424
f 504/670/460 566/608/460 565/547/405 506/544/405
f 512/574/465 572/618/465 574/561/412 514/661/412
f 529/664/418 556/679/450 554/598/448 528/667/422
f 530/663/417 558/602/452 556/679/450 529/664/418
f 557/563/415 600/564/415 599/619/466 555/601/466
f 531/673/436 560/680/454 558/602/452 530/663/417
f 537/620/467 587/621/467 588/683/462 538/612/462
f 532/672/434 562/604/456 560/680/454 531/673/436
f 505/555/411 564/556/411 563/617/463 503/614/463
f 563/622/6 564/685/7 565/547/7 566/608/6
f 564/685/7 567/624/8 568/658/8 565/547/7
f 567/624/8 569/626/9 570/686/9 568/658/8
f 569/627/9 571/629/14 572/618/14 570/628/9
f 571/629/14 573/630/1 574/561/1 572/618/14
f 573/630/1 575/631/2 576/560/2 574/561/1
f 575/631/2 577/633/3 578/687/3 576/560/2
f 577/633/3 579/635/4 580/688/4 578/687/3
f 579/635/4 581/636/5 582/609/5 580/688/4
f 581/636/5 563/622/6 566/608/6 582/609/5
f 594/637/7 583/689/7 584/542/6 593/690/6
f 595/682/8 585/640/8 583/689/7 594/637/7
f 593/690/6 584/542/6 592/657/5 602/641/5
f 596/611/9 586/642/9 585/640/8 595/682/8
f 597/551/14 587/621/14 586/643/9 596/550/9
f 598/644/1 588/683/1 587/621/14 597/551/14
f 599/619/2 589/607/2 588/683/1 598/644/1
f 600/564/3 590/570/3 589/607/2 599/619/2
f 601/565/4 591/553/4 590/570/3 600/564/3
f 602/641/5 592/657/5 591/553/4 601/565/4
f 561/681/468 602/641/468 601/565/414 559/662/414
f 516/559/413 576/560/413 578/687/469 518/566/469
f 509/645/470 569/646/470 567/557/410 507/554/410
f 553/678/471 598/644/471 597/551/407 551/548/407
f 508/545/406 568/658/406 570/686/472 510/581/472
f 546/590/473 593/690/473 602/641/468 561/681/468
f 519/647/474 579/648/474 577/539/401 517/536/401
f 543/676/475 594/637/475 593/690/473 546/590/473
f 518/566/469 578/687/469 580/688/476 520/674/476
f 534/541/404 584/542/404 583/689/477 533/691/477
f 511/650/478 571/653/478 569/652/470 509/651/470
f 533/691/477 583/689/477 585/640/479 535/692/479
f 555/601/466 599/619/466 598/644/471 553/678/471
f 510/576/472 570/628/472 572/618/465 512/574/465
f 521/684/464 581/616/464 579/648/474 519/647/474
f 535/692/479 585/640/479 586/642/480 536/655/480
f 547/593/461 595/682/461 594/637/475 543/676/475
f 520/674/476 580/688/476 582/609/459 522/584/459
f 536/656/480 586/643/480 587/621/467 537/620/467
f 513/666/421 573/572/421 571/653/478 511/650/478
f 403/614/6 405/555/7 505/555/7 503/614/6
f 405/555/7 407/554/8 507/554/8 505/555/7
f 407/554/8 409/645/9 509/645/9 507/554/8
f 409/651/9 411/650/14 511/650/14 509/651/9
f 411/650/14 413/571/1 513/666/1 511/650/14
f 413/571/1 415/537/2 515/537/2 513/666/1
f 415/537/2 417/536/3 517/536/3 515/537/2
f 417/536/3 419/647/4 519/647/4 517/536/3
f 419/647/4 421/615/5 521/684/5 519/647/4
f 421/615/5 403/614/6 503/614/6 521/684/5
f 433/649/7 434/541/6 534/541/6 533/691/7
f 435/654/8 433/649/7 533/691/7 535/692/8
f 436/655/9 435/654/8 535/692/8 536/655/9
f 437/620/14 436/656/9 536/656/9 537/620/14
f 438/612/1 437/620/14 537/620/14 538/612/1
f 439/606/2 438/612/1 538/612/1 539/606/2
f 440/569/3 439/606/2 539/606/2 540/665/3
f 441/552/4 440/569/3 540/665/3 541/660/4
f 442/540/5 441/552/4 541/660/4 542/540/5
f 434/541/6 442/540/5 542/540/5 534/541/6
