# Blender 5.0.1
# www.blender.org
o Cube
v 0.291614 0.000834 -0.011102
v -0.291614 0.000834 -0.011102
v 0.291614 0.769084 -0.011102
v -0.291614 0.769083 -0.011102
v -0.291614 0.769083 0.005670
v 0.291614 0.769084 0.005670
v 0.291614 0.000834 0.005670
v -0.291614 0.000834 0.005670
v 0.236986 0.055462 -0.000461
v -0.236986 0.055462 -0.000461
v 0.236986 0.714456 -0.000461
v -0.236986 0.714456 -0.000461
v -0.271085 0.748555 -0.000461
v 0.271085 0.748555 -0.000461
v 0.271085 0.021363 -0.000461
v -0.271085 0.021363 -0.000461
v -0.236986 0.714456 -0.005361
v 0.236986 0.714456 -0.005361
v 0.236986 0.055462 -0.005361
v -0.236986 0.055462 -0.005361
v -0.226493 0.703962 -0.010644
v 0.226493 0.703962 -0.010644
v 0.226493 0.065955 -0.010644
v -0.226493 0.065955 -0.010644
v 0.275142 0.017306 0.005670
v 0.271085 0.021363 0.001613
v 0.272274 0.020175 0.004482
v -0.271085 0.021363 0.001613
v -0.275142 0.017306 0.005670
v -0.272274 0.020174 0.004482
v 0.271085 0.748555 0.001613
v 0.275142 0.752612 0.005670
v 0.272274 0.749743 0.004482
v -0.275142 0.752612 0.005670
v -0.271085 0.748555 0.001613
v -0.272274 0.749743 0.004482
v -0.248876 0.726346 0.002121
v -0.259196 0.736665 0.002121
v -0.254036 0.731505 0.002586
v 0.259196 0.736665 0.002121
v 0.248876 0.726346 0.002121
v 0.254036 0.731505 0.002586
v 0.248876 0.043572 0.002121
v 0.259196 0.033253 0.002121
v 0.254036 0.038412 0.002586
v -0.259196 0.033253 0.002121
v -0.248876 0.043572 0.002121
v -0.254036 0.038412 0.002586
v 0.229841 0.062607 -0.005361
v 0.226493 0.065955 -0.008710
v 0.227473 0.064975 -0.006342
v -0.226493 0.065955 -0.008710
v -0.229841 0.062607 -0.005361
v -0.227473 0.064975 -0.006342
v 0.226493 0.703962 -0.008710
v 0.229841 0.707311 -0.005361
v 0.227473 0.704943 -0.006342
v -0.229841 0.707311 -0.005361
v -0.226493 0.703962 -0.008710
v -0.227473 0.704943 -0.006342
v 0.277892 0.014556 0.007543
v 0.288864 0.003584 0.007543
v 0.283378 0.009070 0.009091
v -0.288864 0.003584 0.007543
v -0.277892 0.014556 0.007543
v -0.283378 0.009070 0.009091
v 0.277892 0.755362 0.007543
v 0.288864 0.766334 0.007543
v 0.283378 0.760848 0.009091
v -0.288864 0.766334 0.007543
v -0.277892 0.755362 0.007543
v -0.283378 0.760848 0.009091
vn 1.0000 -0.0000 -0.0000
vn -0.0000 1.0000 -0.0000
vn -1.0000 -0.0000 -0.0000
vn -0.0000 -1.0000 -0.0000
vn -0.0000 -0.0000 -1.0000
vn -0.0000 -0.0000 1.0000
vn -0.0000 -0.9765 0.2154
vn -0.0000 -0.9239 0.3827
vn 0.1988 -0.1988 0.9597
vn -0.1988 -0.1988 0.9597
vn -0.2777 -0.2777 0.9197
vn 0.2777 -0.2777 0.9197
vn -0.0000 0.9765 0.2154
vn -0.0000 0.9239 0.3827
vn -0.1988 0.1988 0.9597
vn 0.1988 0.1988 0.9597
vn 0.2777 0.2777 0.9197
vn -0.2777 0.2777 0.9197
vn -0.9239 -0.0000 0.3827
vn -0.9765 -0.0000 0.2154
vn 0.9239 -0.0000 0.3827
vn 0.9765 -0.0000 0.2154
vn -0.0916 0.0916 0.9916
vn -0.0916 -0.0916 0.9916
vn -0.0224 -0.0224 0.9995
vn -0.0224 0.0224 0.9995
vn 0.0606 0.0606 0.9963
vn 0.0606 -0.0606 0.9963
vn 0.0916 -0.0916 0.9916
vn 0.0916 0.0916 0.9916
vn 0.0224 0.0224 0.9995
vn 0.0224 -0.0224 0.9995
vn -0.0606 -0.0606 0.9963
vn -0.0606 0.0606 0.9963
vn 0.1073 -0.1073 0.9884
vn -0.1073 -0.1073 0.9884
vn -0.1073 0.1073 0.9884
vn 0.1073 0.1073 0.9884
vn -0.0505 -0.0505 0.9974
vn 0.0505 -0.0505 0.9974
vn 0.0505 0.0505 0.9974
vn -0.0505 0.0505 0.9974
vn 0.2621 0.2621 0.9288
vn -0.2621 0.2621 0.9288
vn -0.0685 0.0685 0.9953
vn 0.0685 0.0685 0.9953
vn 0.1833 -0.1833 0.9658
vn -0.1833 -0.1833 0.9658
vn -0.2621 -0.2621 0.9288
vn -0.0685 -0.0685 0.9953
vn 0.1833 0.1833 0.9658
vn 0.2621 -0.2621 0.9288
vn 0.0685 -0.0685 0.9953
vn -0.1833 0.1833 0.9658
vn 0.5630 -0.0000 0.8265
vn -0.0000 -0.5630 0.8265
vn -0.5630 -0.0000 0.8265
vn -0.0000 0.5630 0.8265
vt 0.688821 0.315944
vt 0.688821 0.770527
vt 0.343718 0.770527
vt 0.343718 0.315944
vt 0.343718 0.315944
vt 0.656497 0.348268
vt 0.656497 0.738203
vt 0.376042 0.738203
vt 0.376042 0.348268
vt 0.382251 0.354477
vt 0.650288 0.354477
vt 0.650288 0.731994
vt 0.382251 0.731994
vt 0.355865 0.758380
vt 0.676674 0.758380
vt 0.677377 0.759083
vt 0.355162 0.759083
vt 0.679075 0.760781
vt 0.353464 0.760781
vt 0.676674 0.328091
vt 0.355865 0.328091
vt 0.355162 0.327388
vt 0.677377 0.327388
vt 0.353465 0.325691
vt 0.679075 0.325691
vt 0.362900 0.751345
vt 0.362900 0.335127
vt 0.365954 0.338180
vt 0.365954 0.748291
vt 0.369007 0.341233
vt 0.369007 0.745238
vt 0.669639 0.335127
vt 0.669639 0.751345
vt 0.666586 0.748291
vt 0.666586 0.338180
vt 0.663533 0.745238
vt 0.663533 0.341233
vt 0.650869 0.732574
vt 0.381671 0.732574
vt 0.652269 0.733975
vt 0.380270 0.733975
vt 0.381671 0.353897
vt 0.650869 0.353897
vt 0.380270 0.352496
vt 0.652269 0.352496
vt 0.687194 0.768900
vt 0.345345 0.768900
vt 0.348591 0.765654
vt 0.683948 0.765654
vt 0.351837 0.762408
vt 0.680702 0.762408
vt 0.345345 0.317571
vt 0.348591 0.320818
vt 0.351837 0.324064
vt 0.687194 0.317571
vt 0.683948 0.320818
vt 0.680702 0.324064
s 1
f 1/1/1 3/2/1 6/2/1 7/1/1
f 5/3/2 6/2/2 3/2/2 4/3/2
f 4/3/3 2/4/3 8/5/3 5/3/3
f 2/4/4 1/1/4 7/1/4 8/5/4
f 4/3/5 3/2/5 1/1/5 2/4/5
f 9/6/3 11/7/3 18/7/3 19/6/3
f 11/7/4 12/8/4 17/8/4 18/7/4
f 12/8/1 10/9/1 20/9/1 17/8/1
f 10/9/2 9/6/2 19/6/2 20/9/2
f 24/10/6 23/11/6 22/12/6 21/13/6
f 35/14/7 31/15/7 33/16/8 36/17/8
f 36/17/9 33/16/10 32/18/11 34/19/12
f 26/20/13 28/21/13 30/22/14 27/23/14
f 27/23/15 30/22/16 29/24/17 25/25/18
f 25/25/18 32/18/11 33/16/10 27/23/15
f 27/23/19 33/16/19 31/15/20 26/20/20
f 34/19/12 29/24/17 30/22/16 36/17/9
f 36/17/21 30/22/21 28/21/22 35/14/22
f 28/21/13 26/20/13 15/20/2 16/21/2
f 26/20/20 31/15/20 14/15/3 15/20/3
f 35/14/22 28/21/22 16/21/1 13/14/1
f 31/15/7 35/14/7 13/14/4 14/15/4
f 38/26/23 46/27/24 48/28/25 39/29/26
f 39/29/26 48/28/25 47/30/27 37/31/28
f 44/32/29 40/33/30 42/34/31 45/35/32
f 45/35/32 42/34/31 41/36/33 43/37/34
f 46/27/24 44/32/29 45/35/32 48/28/25
f 48/28/25 45/35/32 43/37/34 47/30/27
f 40/33/30 38/26/23 39/29/26 42/34/31
f 42/34/31 39/29/26 37/31/28 41/36/33
f 12/8/35 11/7/36 41/36/33 37/31/28
f 46/27/24 38/26/23 13/14/37 16/21/36
f 10/9/38 12/8/35 37/31/28 47/30/27
f 38/26/23 40/33/30 14/15/38 13/14/37
f 40/33/30 44/32/29 15/20/35 14/15/38
f 11/7/36 9/6/37 43/37/34 41/36/33
f 9/6/37 10/9/38 47/30/27 43/37/34
f 44/32/29 46/27/24 16/21/36 15/20/35
f 59/13/7 55/12/7 57/38/8 60/39/8
f 60/39/9 57/38/10 56/40/39 58/41/40
f 50/11/13 52/10/13 54/42/14 51/43/14
f 51/43/15 54/42/16 53/44/41 49/45/42
f 49/45/42 56/40/39 57/38/10 51/43/15
f 51/43/19 57/38/19 55/12/20 50/11/20
f 58/41/40 53/44/41 54/42/16 60/39/9
f 60/39/21 54/42/21 52/10/22 59/13/22
f 49/45/42 53/44/41 20/9/6 19/6/6
f 50/11/20 55/12/20 22/12/3 23/11/3
f 56/40/39 49/45/42 19/6/6 18/7/6
f 52/10/13 50/11/13 23/11/2 24/10/2
f 59/13/22 52/10/22 24/10/1 21/13/1
f 53/44/41 58/41/40 17/8/6 20/9/6
f 55/12/7 59/13/7 21/13/4 22/12/4
f 58/41/40 56/40/39 18/7/6 17/8/6
f 68/46/43 70/47/44 72/48/45 69/49/46
f 69/49/46 72/48/45 71/50/47 67/51/48
f 70/47/44 64/52/49 66/53/50 72/48/45
f 72/48/45 66/53/50 65/54/51 71/50/47
f 62/55/52 68/46/43 69/49/46 63/56/53
f 63/56/53 69/49/46 67/51/48 61/57/54
f 64/52/49 62/55/52 63/56/53 66/53/50
f 66/53/50 63/56/53 61/57/54 65/54/51
f 25/25/18 29/24/17 65/54/51 61/57/54
f 68/46/43 62/55/52 7/1/55 6/2/55
f 32/18/11 25/25/18 61/57/54 67/51/48
f 62/55/52 64/52/49 8/5/56 7/1/56
f 64/52/49 70/47/44 5/3/57 8/5/57
f 29/24/17 34/19/12 71/50/47 65/54/51
f 70/47/44 68/46/43 6/2/58 5/3/58
f 34/19/12 32/18/11 67/51/48 71/50/47
